<svg width="297" height="141" viewBox="0 0 297 141" fill="none" xmlns="http://www.w3.org/2000/svg">
<path fill-rule="evenodd" clip-rule="evenodd" d="M297 92.998C262.712 92.7294 235 64.851 235 30.5C235 19.4243 237.881 9.02144 242.934 0H293C295.209 0 297 1.79086 297 4V92.998Z" fill="white" fill-opacity="0.03"/>
<path fill-rule="evenodd" clip-rule="evenodd" d="M262 0V52.8739C236.008 52.6702 215 31.5366 215 5.49633C215 3.63727 215.107 1.80321 215.315 0H262Z" fill="white" fill-opacity="0.05"/>
<path opacity="0.03" fill-rule="evenodd" clip-rule="evenodd" d="M-1.79779e-06 98.9999C18.8429 102.922 33 119.622 33 139.629C33 139.796 32.999 139.962 32.9971 140.129L4 140.129C1.79086 140.129 -7.8281e-08 138.338 -1.74846e-07 136.129L-1.79779e-06 98.9999Z" fill="white"/>
<path fill-rule="evenodd" clip-rule="evenodd" d="M297 92.998C262.712 92.7294 235 64.851 235 30.5C235 19.4243 237.881 9.02144 242.934 0H293C295.209 0 297 1.79086 297 4V92.998Z" fill="#161616"/>
</svg>
