<svg width="24" height="24" viewBox="0 0 24 24" fill="none" xmlns="http://www.w3.org/2000/svg">
<path d="M8 11.999H9M16 11.999H12" stroke="#1B4444" stroke-width="1.5" stroke-linecap="round"/>
<path d="M16 7.99902H15M12 7.99902H8" stroke="#1B4444" stroke-width="1.5" stroke-linecap="round"/>
<path d="M8 15.999H13" stroke="#1B4444" stroke-width="1.5" stroke-linecap="round"/>
<path d="M3 13.999V9.99902C3 6.22779 3 4.34217 4.17157 3.1706C5.34315 1.99902 7.22876 1.99902 11 1.99902H13C16.7712 1.99902 18.6569 1.99902 19.8284 3.1706C20.4816 3.82378 20.7706 4.69891 20.8985 5.99902M21 9.99902V13.999C21 17.7703 21 19.6559 19.8284 20.8274C18.6569 21.999 16.7712 21.999 13 21.999H11C7.22876 21.999 5.34315 21.999 4.17157 20.8274C3.51839 20.1743 3.22937 19.2991 3.10149 17.999" stroke="#1B4444" stroke-width="1.5" stroke-linecap="round"/>
</svg>
