<svg width="109" height="32" viewBox="0 0 109 32" fill="none" xmlns="http://www.w3.org/2000/svg">
<path d="M17.9199 0H14.7199L15.6799 0.96V7.35302C15.6799 7.60856 15.5809 7.85078 15.3997 8.03098C14.2523 9.17216 9.87871 13.5228 7.85408 15.5475C7.60414 15.7974 7.60414 16.2026 7.85408 16.4525C9.8787 18.4772 14.2523 22.8278 15.3997 23.969C15.5809 24.1492 15.6799 24.3914 15.6799 24.647V31.04L14.5599 32H17.2799L16.3199 31.04V24.6454C16.3199 24.3908 16.4211 24.1466 16.6011 23.9666L23.9665 16.6012C24.1466 16.4211 24.3907 16.32 24.6454 16.32H30.7199L31.9999 17.28V14.72L30.7199 15.68H24.6454C24.3907 15.68 24.1466 15.5789 23.9665 15.3988L16.6011 8.03342C16.4211 7.85338 16.3199 7.6092 16.3199 7.35459V0.96L17.9199 0Z" fill="white"/>
<path d="M6.4 0C2.86538 0 0 2.86538 0 6.4V25.6C0 29.1346 2.86538 32 6.4 32H14.72C15.2502 32 15.68 31.5702 15.68 31.04V24.647C15.68 24.3914 15.5809 24.1492 15.3997 23.969C14.2523 22.8278 9.87875 18.4772 7.85413 16.4525C7.6042 16.2026 7.6042 15.7974 7.85413 15.5475C9.87876 13.5228 14.2523 9.17215 15.3997 8.03098C15.5809 7.85078 15.68 7.60856 15.68 7.35302V0.96C15.68 0.429807 15.2502 0 14.72 0H6.4Z" fill="#030303"/>
<path d="M17.28 0C16.7498 0 16.32 0.429806 16.32 0.96V7.35459C16.32 7.6092 16.4211 7.85338 16.6012 8.03342L23.9666 15.3988C24.1466 15.5789 24.3908 15.68 24.6454 15.68H31.04C31.5702 15.68 32 15.2502 32 14.72V6.4C32 2.86538 29.1346 0 25.6 0H17.28Z" fill="#030303"/>
<path d="M32 17.28C32 16.7498 31.5702 16.32 31.04 16.32H24.6454C24.3908 16.32 24.1466 16.4211 23.9666 16.6012L16.6012 23.9666C16.4211 24.1466 16.32 24.3908 16.32 24.6454V31.04C16.32 31.5702 16.7498 32 17.28 32H25.6C29.1346 32 32 29.1346 32 25.6V17.28Z" fill="#030303"/>
<path d="M40.0986 23V10.1328H45.0996C46.8867 10.1328 48.2871 10.6953 49.3008 11.8203C50.3203 12.9395 50.8301 14.5244 50.8301 16.5752C50.8301 18.6318 50.332 20.2168 49.3359 21.3301C48.3398 22.4434 46.9453 23 45.1523 23H40.0986ZM42.2432 11.9521V21.1807H44.9941C47.4551 21.1807 48.6855 19.6455 48.6855 16.5752C48.6855 13.4932 47.4551 11.9521 44.9941 11.9521H42.2432ZM56.2111 21.7256C56.5803 21.7256 56.9143 21.6729 57.2131 21.5674C57.5119 21.4619 57.7492 21.3271 57.925 21.1631C58.1066 20.999 58.2473 20.8379 58.3469 20.6797C58.4523 20.5156 58.5285 20.3545 58.5754 20.1963H60.465C60.2189 21.1221 59.7385 21.8662 59.0236 22.4287C58.3088 22.9912 57.3889 23.2725 56.2639 23.2725C54.8459 23.2725 53.7238 22.8271 52.8977 21.9365C52.0715 21.0459 51.6584 19.8711 51.6584 18.4121C51.6584 16.918 52.0656 15.7344 52.8801 14.8613C53.6945 13.9883 54.7932 13.5518 56.176 13.5518C57.6291 13.5518 58.7307 14.0234 59.4807 14.9668C60.2307 15.9102 60.6057 17.2197 60.6057 18.8955H53.548C53.548 19.6982 53.7883 20.3721 54.2688 20.917C54.7551 21.4561 55.4025 21.7256 56.2111 21.7256ZM56.176 15.0459C55.4084 15.0459 54.7785 15.2773 54.2863 15.7402C53.7941 16.1973 53.548 16.7803 53.548 17.4893H58.716C58.716 16.7744 58.4816 16.1885 58.0129 15.7314C57.55 15.2744 56.9377 15.0459 56.176 15.0459ZM68.0346 17.1641C68.017 16.9121 67.9613 16.6719 67.8676 16.4434C67.7797 16.2148 67.6479 15.998 67.4721 15.793C67.3021 15.582 67.0678 15.415 66.7689 15.292C66.476 15.1631 66.1361 15.0986 65.7494 15.0986C65.3041 15.0986 64.9057 15.1895 64.5541 15.3711C64.2084 15.5527 63.933 15.7988 63.7279 16.1094C63.5229 16.4199 63.3676 16.7715 63.2621 17.1641C63.1566 17.5508 63.1039 17.9668 63.1039 18.4121C63.1039 18.8574 63.1537 19.2764 63.2533 19.6689C63.3588 20.0557 63.5141 20.4043 63.7191 20.7148C63.9242 21.0254 64.1996 21.2715 64.5453 21.4531C64.8969 21.6348 65.2982 21.7256 65.7494 21.7256C66.1361 21.7256 66.476 21.6641 66.7689 21.541C67.0678 21.418 67.3021 21.251 67.4721 21.04C67.6479 20.8232 67.7797 20.5947 67.8676 20.3545C67.9613 20.1143 68.017 19.8564 68.0346 19.5811H69.9242C69.8539 20.6592 69.435 21.5439 68.6674 22.2354C67.8998 22.9268 66.9271 23.2725 65.7494 23.2725C64.3783 23.2725 63.2797 22.8242 62.4535 21.9277C61.6273 21.0312 61.2143 19.8594 61.2143 18.4121C61.2143 16.9648 61.6273 15.793 62.4535 14.8965C63.2797 14 64.3725 13.5518 65.7318 13.5518C66.9037 13.5518 67.8646 13.8887 68.6146 14.5625C69.3646 15.2305 69.8012 16.0977 69.9242 17.1641H68.0346ZM72.0357 12.251C71.7545 12.251 71.5055 12.1602 71.2887 11.9785C71.0777 11.7969 70.9723 11.5537 70.9723 11.249C70.9723 10.9443 71.0777 10.7041 71.2887 10.5283C71.5055 10.3467 71.7545 10.2559 72.0357 10.2559C72.3346 10.2559 72.5895 10.3438 72.8004 10.5195C73.0113 10.6953 73.1168 10.9385 73.1168 11.249C73.1168 11.5596 73.0084 11.8057 72.7916 11.9873C72.5807 12.1631 72.3287 12.251 72.0357 12.251ZM71.1041 13.7979H72.9937V23H71.1041V13.7979ZM81.1785 10.1328H83.0682V23H81.1785V21.9365H81.1434C80.8563 22.3115 80.4783 22.6279 80.0096 22.8857C79.5408 23.1436 78.9813 23.2725 78.3309 23.2725C77.1297 23.2725 76.1453 22.833 75.3777 21.9541C74.6102 21.0752 74.2264 19.8945 74.2264 18.4121C74.2264 16.9297 74.6102 15.749 75.3777 14.8701C76.1453 13.9912 77.1297 13.5518 78.3309 13.5518C78.993 13.5518 79.5584 13.6807 80.0271 13.9385C80.5018 14.1904 80.8738 14.5156 81.1434 14.9141H81.1785V10.1328ZM78.6561 21.7256C79.4295 21.7256 80.0389 21.4297 80.4842 20.8379C80.9354 20.2402 81.1609 19.4316 81.1609 18.4121C81.1609 17.3867 80.9354 16.5781 80.4842 15.9863C80.0389 15.3945 79.4295 15.0986 78.6561 15.0986C77.8592 15.0986 77.2352 15.415 76.784 16.0479C76.3387 16.6807 76.116 17.4688 76.116 18.4121C76.116 19.3555 76.3387 20.1436 76.784 20.7764C77.2352 21.4092 77.8592 21.7256 78.6561 21.7256ZM88.7393 21.7256C89.1084 21.7256 89.4424 21.6729 89.7412 21.5674C90.04 21.4619 90.2773 21.3271 90.4531 21.1631C90.6348 20.999 90.7754 20.8379 90.875 20.6797C90.9805 20.5156 91.0566 20.3545 91.1035 20.1963H92.9932C92.7471 21.1221 92.2666 21.8662 91.5518 22.4287C90.8369 22.9912 89.917 23.2725 88.792 23.2725C87.374 23.2725 86.252 22.8271 85.4258 21.9365C84.5996 21.0459 84.1865 19.8711 84.1865 18.4121C84.1865 16.918 84.5938 15.7344 85.4082 14.8613C86.2227 13.9883 87.3213 13.5518 88.7041 13.5518C90.1572 13.5518 91.2588 14.0234 92.0088 14.9668C92.7588 15.9102 93.1338 17.2197 93.1338 18.8955H86.0762C86.0762 19.6982 86.3164 20.3721 86.7969 20.917C87.2832 21.4561 87.9307 21.7256 88.7393 21.7256ZM88.7041 15.0459C87.9365 15.0459 87.3066 15.2773 86.8145 15.7402C86.3223 16.1973 86.0762 16.7803 86.0762 17.4893H91.2441C91.2441 16.7744 91.0098 16.1885 90.541 15.7314C90.0781 15.2744 89.4658 15.0459 88.7041 15.0459ZM101.916 19.959H96.6604L95.6145 23H93.4348L98.1721 10.1328H100.422L105.133 23H102.962L101.916 19.959ZM97.2492 18.1748H101.336L99.3234 12.0928H99.2883L97.2492 18.1748ZM106.199 10.1328H108.343V23H106.199V10.1328Z" fill="#030303"/>
</svg>
