<svg width="156" height="45" viewBox="0 0 156 45" fill="none" xmlns="http://www.w3.org/2000/svg">
<path d="M25.2 0H20.7L22.05 1.35V10.5024C22.05 10.7579 21.9525 10.9985 21.7713 11.1787C20.3612 12.5812 13.9653 18.9432 11.0449 21.8636C10.6934 22.2151 10.6934 22.7849 11.0449 23.1364C13.9653 26.0568 20.3612 32.4188 21.7713 33.8213C21.9525 34.0015 22.05 34.2421 22.05 34.4976V43.65L20.475 45H24.3L22.95 43.65V34.4961C22.95 34.2415 23.0511 33.9973 23.2312 33.8172L33.8172 23.2312C33.9973 23.0511 34.2414 22.95 34.496 22.95H43.2L45 24.3V20.7L43.2 22.05H34.496C34.2414 22.05 33.9973 21.9489 33.8172 21.7688L23.2312 11.1828C23.0511 11.0027 22.95 10.7585 22.95 10.5039V1.35L25.2 0Z" fill="white"/>
<path d="M9 0C4.02944 0 0 4.02944 0 9V36C0 40.9706 4.02944 45 9 45H21.09C21.6202 45 22.05 44.5702 22.05 44.04V34.6598C22.05 34.3005 21.9107 33.9598 21.6559 33.7064C20.0424 32.1017 13.892 25.9835 11.0449 23.1364C10.6934 22.7849 10.6934 22.2151 11.0449 21.8636C13.892 19.0165 20.0424 12.8983 21.6559 11.2936C21.9107 11.0402 22.05 10.6995 22.05 10.3402V0.96C22.05 0.429807 21.6202 0 21.09 0H9Z" fill="#030303"/>
<path d="M23.91 0C23.3798 0 22.95 0.429806 22.95 0.959999V10.3424C22.95 10.7004 23.0922 11.0438 23.3454 11.297L33.703 21.6546C33.9562 21.9078 34.2996 22.05 34.6576 22.05H44.04C44.5702 22.05 45 21.6202 45 21.09V9C45 4.02944 40.9706 0 36 0H23.91Z" fill="#030303"/>
<path d="M45 23.91C45 23.3798 44.5702 22.95 44.04 22.95H34.6576C34.2996 22.95 33.9562 23.0922 33.703 23.3454L23.3454 33.703C23.0922 33.9562 22.95 34.2996 22.95 34.6576V44.04C22.95 44.5702 23.3798 45 23.91 45H36C40.9706 45 45 40.9706 45 36V23.91Z" fill="#030303"/>
<path d="M152.09 12.8496H155.24V31.7494H152.09V12.8496Z" fill="#030303"/>
<path d="M145.8 27.2826H138.08L136.544 31.7494H133.342L140.3 12.8496H143.605L150.525 31.7494H147.336L145.8 27.2826ZM138.945 24.662H144.948L141.991 15.7285H141.94L138.945 24.662Z" fill="#030303"/>
<path d="M126.445 29.8771C126.987 29.8771 127.478 29.7996 127.917 29.6447C128.356 29.4898 128.704 29.2919 128.963 29.0509C129.229 28.8099 129.436 28.5732 129.582 28.3409C129.737 28.0999 129.849 27.8632 129.918 27.6308H132.693C132.332 28.9906 131.626 30.0837 130.576 30.9099C129.526 31.7361 128.175 32.1492 126.523 32.1492C124.44 32.1492 122.792 31.4951 121.578 30.1869C120.365 28.8788 119.758 27.1532 119.758 25.0102C119.758 22.8155 120.356 21.077 121.552 19.7946C122.749 18.5123 124.362 17.8711 126.394 17.8711C128.528 17.8711 130.146 18.5639 131.248 19.9496C132.349 21.3352 132.9 23.2587 132.9 25.7202H122.534C122.534 26.8993 122.886 27.889 123.592 28.6894C124.306 29.4812 125.257 29.8771 126.445 29.8771ZM126.394 20.0657C125.266 20.0657 124.341 20.4057 123.618 21.0856C122.895 21.7569 122.534 22.6133 122.534 23.6546H130.124C130.124 22.6046 129.78 21.744 129.092 21.0727C128.412 20.4014 127.512 20.0657 126.394 20.0657Z" fill="#030303"/>
<path d="M115.34 12.8496H118.115V31.7494H115.34V30.1873H115.288C114.866 30.7381 114.311 31.2029 113.623 31.5816C112.934 31.9603 112.112 32.1496 111.157 32.1496C109.393 32.1496 107.947 31.5041 106.819 30.2131C105.692 28.9222 105.128 27.188 105.128 25.0105C105.128 22.8331 105.692 21.0989 106.819 19.8079C107.947 18.517 109.393 17.8715 111.157 17.8715C112.13 17.8715 112.96 18.0608 113.649 18.4395C114.346 18.8096 114.892 19.2872 115.288 19.8725H115.34V12.8496ZM111.635 29.8775C112.771 29.8775 113.666 29.4429 114.32 28.5736C114.983 27.6958 115.314 26.5081 115.314 25.0105C115.314 23.5044 114.983 22.3167 114.32 21.4475C113.666 20.5782 112.771 20.1436 111.635 20.1436C110.464 20.1436 109.548 20.6083 108.885 21.5378C108.231 22.4673 107.904 23.6249 107.904 25.0105C107.904 26.3962 108.231 27.5537 108.885 28.4832C109.548 29.4127 110.464 29.8775 111.635 29.8775Z" fill="#030303"/>
<path d="M101.91 15.9627C101.497 15.9627 101.131 15.8293 100.813 15.5625C100.503 15.2957 100.348 14.9386 100.348 14.491C100.348 14.0435 100.503 13.6906 100.813 13.4324C101.131 13.1656 101.497 13.0322 101.91 13.0322C102.349 13.0322 102.724 13.1613 103.033 13.4195C103.343 13.6777 103.498 14.0349 103.498 14.491C103.498 14.9472 103.339 15.3086 103.02 15.5754C102.711 15.8336 102.341 15.9627 101.91 15.9627ZM100.542 18.2348H103.317V31.7513H100.542V18.2348Z" fill="#030303"/>
<path d="M96.0333 23.177C96.0075 22.8069 95.9257 22.454 95.788 22.1184C95.6589 21.7827 95.4653 21.4643 95.2071 21.1631C94.9575 20.8532 94.6132 20.6079 94.1743 20.4272C93.744 20.2379 93.2448 20.1432 92.6768 20.1432C92.0227 20.1432 91.4374 20.2766 90.9211 20.5434C90.4133 20.8102 90.0088 21.1717 89.7076 21.6278C89.4063 22.084 89.1783 22.6003 89.0233 23.177C88.8684 23.745 88.791 24.3561 88.791 25.0102C88.791 25.6642 88.8641 26.2796 89.0104 26.8562C89.1653 27.4243 89.3934 27.9363 89.6946 28.3925C89.9959 28.8486 90.4004 29.2101 90.9082 29.4769C91.4245 29.7437 92.0141 29.8771 92.6768 29.8771C93.2448 29.8771 93.744 29.7867 94.1743 29.606C94.6132 29.4253 94.9575 29.18 95.2071 28.8702C95.4653 28.5517 95.6589 28.2161 95.788 27.8632C95.9257 27.5103 96.0075 27.1316 96.0333 26.7271H98.8089C98.7056 28.3107 98.0902 29.6103 96.9628 30.6259C95.8354 31.6414 94.4067 32.1492 92.6768 32.1492C90.6629 32.1492 89.0492 31.4908 87.8356 30.174C86.6221 28.8572 86.0154 27.1359 86.0154 25.0102C86.0154 22.8844 86.6221 21.1631 87.8356 19.8463C89.0492 18.5295 90.6543 17.8711 92.651 17.8711C94.3723 17.8711 95.7837 18.366 96.8853 19.3557C97.987 20.3368 98.6281 21.6106 98.8089 23.177H96.0333Z" fill="#030303"/>
<path d="M78.6666 29.8771C79.2088 29.8771 79.6994 29.7996 80.1383 29.6447C80.5772 29.4898 80.9258 29.2919 81.184 29.0509C81.4508 28.8099 81.6573 28.5732 81.8036 28.3409C81.9586 28.0999 82.0704 27.8632 82.1393 27.6308H84.9149C84.5534 28.9906 83.8477 30.0837 82.7977 30.9099C81.7477 31.7361 80.3965 32.1492 78.744 32.1492C76.6613 32.1492 75.0131 31.4951 73.7996 30.1869C72.5861 28.8788 71.9794 27.1532 71.9794 25.0102C71.9794 22.8155 72.5775 21.077 73.7738 19.7946C74.9701 18.5123 76.5838 17.8711 78.6149 17.8711C80.7494 17.8711 82.3674 18.5639 83.469 19.9496C84.5706 21.3352 85.1214 23.2587 85.1214 25.7202H74.755C74.755 26.8993 75.1078 27.889 75.8135 28.6894C76.5279 29.4812 77.4789 29.8771 78.6666 29.8771ZM78.6149 20.0657C77.4875 20.0657 76.5623 20.4057 75.8394 21.0856C75.1164 21.7569 74.755 22.6133 74.755 23.6546H82.3458C82.3458 22.6046 82.0016 21.744 81.3131 21.0727C80.6332 20.4014 79.7338 20.0657 78.6149 20.0657Z" fill="#030303"/>
<path d="M55 31.7494V12.8496H62.3456C64.9706 12.8496 67.0275 13.6758 68.5164 15.3283C70.014 16.9721 70.7627 19.3002 70.7627 22.3124C70.7627 25.3333 70.0312 27.6613 68.5681 29.2966C67.105 30.9318 65.0566 31.7494 62.4231 31.7494H55ZM58.15 15.5219V29.0771H62.1907C65.8054 29.0771 67.6128 26.8222 67.6128 22.3124C67.6128 17.7854 65.8054 15.5219 62.1907 15.5219H58.15Z" fill="#030303"/>
</svg>
