<svg width="24" height="25" viewBox="0 0 24 25" fill="none" xmlns="http://www.w3.org/2000/svg">
<path d="M10.125 8.89697C10.125 7.86144 10.9645 7.02197 12 7.02197C13.0355 7.02197 13.875 7.86144 13.875 8.89697C13.875 9.58442 13.505 10.1855 12.9534 10.5118C12.478 10.7931 12 11.2197 12 11.772V13.022" stroke="#1B4444" stroke-width="1.5" stroke-linecap="round"/>
<circle cx="12" cy="16.022" r="1" fill="#1B4444"/>
<path d="M22 12.022C22 16.736 22 19.093 20.5355 20.5575C19.0711 22.022 16.714 22.022 12 22.022C7.28595 22.022 4.92893 22.022 3.46447 20.5575C2 19.093 2 16.736 2 12.022C2 7.30793 2 4.9509 3.46447 3.48644C4.92893 2.02197 7.28595 2.02197 12 2.02197C16.714 2.02197 19.0711 2.02197 20.5355 3.48644C21.5093 4.46018 21.8356 5.82852 21.9449 8.02197" stroke="#1B4444" stroke-width="1.5" stroke-linecap="round"/>
</svg>
