<svg width="16" height="17" viewBox="0 0 16 17" fill="none" xmlns="http://www.w3.org/2000/svg">
<g clip-path="url(#clip0_161_35135)">
<path d="M6.75 5.92871C6.75 5.23836 7.30964 4.67871 8 4.67871C8.69036 4.67871 9.25 5.23836 9.25 5.92871C9.25 6.38701 9.00336 6.7877 8.63558 7.0053C8.31869 7.19278 8 7.47719 8 7.84538V8.67871" stroke="#1B4444" stroke-linecap="round"/>
<ellipse cx="7.99967" cy="10.6784" rx="0.666667" ry="0.666667" fill="#1B4444"/>
<path d="M4.66634 2.23661C5.64692 1.66937 6.78538 1.34473 7.99967 1.34473C11.6816 1.34473 14.6663 4.32949 14.6663 8.01139C14.6663 11.6933 11.6816 14.6781 7.99967 14.6781C4.31778 14.6781 1.33301 11.6933 1.33301 8.01139C1.33301 6.7971 1.65766 5.65864 2.22489 4.67806" stroke="#1B4444" stroke-linecap="round"/>
</g>
<defs>
<clipPath id="clip0_161_35135">
<rect width="16" height="16" fill="white" transform="translate(0 0.0117188)"/>
</clipPath>
</defs>
</svg>
