<svg width="24" height="25" viewBox="0 0 24 25" fill="none" xmlns="http://www.w3.org/2000/svg">
<path d="M15 12.022L6 12.022M6 12.022L8 14.022M6 12.022L8 10.022" stroke="#1B4444" stroke-width="1.5" stroke-linecap="round" stroke-linejoin="round"/>
<path d="M12.0002 22.0046C10.4468 21.9578 9.5202 21.7846 8.87889 21.1433C8.11051 20.3749 8.01406 19.197 8.00195 17.022M16.0002 22.0202C18.1752 22.0081 19.3532 21.9117 20.1215 21.1433C21.0002 20.2646 21.0002 18.8504 21.0002 16.022V14.022V10.022V8.02197C21.0002 5.19355 21.0002 3.77933 20.1215 2.90065C19.2429 2.02197 17.8286 2.02197 15.0002 2.02197H14.0002C11.1718 2.02197 9.75757 2.02197 8.87889 2.90065C8.11051 3.66904 8.01406 4.84695 8.00195 7.02197" stroke="#1B4444" stroke-width="1.5" stroke-linecap="round"/>
<path d="M3 9.52197V14.522C3 16.879 3 18.0575 3.73223 18.7897C4.46447 19.522 5.64298 19.522 8 19.522M3.73223 5.25421C4.46447 4.52197 5.64298 4.52197 8 4.52197" stroke="#1B4444" stroke-width="1.5" stroke-linecap="round"/>
</svg>
