<svg width="705" height="493" viewBox="0 0 705 493" fill="none" xmlns="http://www.w3.org/2000/svg">
<path fill-rule="evenodd" clip-rule="evenodd" d="M622.342 0.11084V130.794C560.958 130.291 511.345 78.057 511.345 13.6957C511.345 9.10078 511.598 4.5677 512.09 0.11084H622.342Z" fill="white" fill-opacity="0.05"/>
<path opacity="0.03" fill-rule="evenodd" clip-rule="evenodd" d="M-4.26353e-06 390.479C45.5271 399.328 79.9999 441.112 79.9999 491.323C79.9999 491.736 79.9976 492.147 79.993 492.559L4.00001 492.559C1.79087 492.559 -7.47982e-08 490.768 -1.67066e-07 488.559L-4.26353e-06 390.479Z" fill="white"/>
<path fill-rule="evenodd" clip-rule="evenodd" d="M577.316 0.11084H701C703.209 0.11084 705 1.9017 705 4.11084V229.966C624.025 229.302 558.578 160.397 558.578 75.495C558.578 48.1201 565.382 22.4083 577.316 0.11084Z" fill="#161616"/>
</svg>
