<svg width="49" height="49" viewBox="0 0 49 49" fill="none" xmlns="http://www.w3.org/2000/svg">
<rect width="49" height="49" rx="4" fill="#212121"/>
<rect width="25" height="49" rx="4" fill="url(#paint0_linear_13_4)"/>
<path d="M24.5 17.25V20.875L29.3334 16.0417L24.5 11.2084V14.8334C19.1592 14.8334 14.8334 19.1592 14.8334 24.5C14.8334 26.3971 15.3892 28.1613 16.3317 29.6475L18.0959 27.8834C17.5521 26.8805 17.25 25.7205 17.25 24.5C17.25 20.5005 20.5005 17.25 24.5 17.25ZM32.6684 19.3525L30.9042 21.1167C31.4359 22.1317 31.75 23.2796 31.75 24.5C31.75 28.4996 28.4996 31.75 24.5 31.75V28.125L19.6667 32.9584L24.5 37.7917V34.1667C29.8409 34.1667 34.1667 29.8409 34.1667 24.5C34.1667 22.603 33.6109 20.8388 32.6684 19.3525Z" fill="white" fill-opacity="0.5"/>
<defs>
<linearGradient id="paint0_linear_13_4" x1="4.65661e-08" y1="24.5001" x2="26.0542" y2="24.5001" gradientUnits="userSpaceOnUse">
<stop stop-color="#3D52FA"/>
<stop offset="1" stop-color="#C91988"/>
</linearGradient>
</defs>
</svg>
