<svg width="49" height="49" viewBox="0 0 49 49" fill="none" xmlns="http://www.w3.org/2000/svg">
<rect x="0.5" y="0.5" width="48" height="48" rx="5.5" fill="white"/>
<rect x="0.5" y="0.5" width="48" height="48" rx="5.5" stroke="#D1DADA"/>
<path d="M31.5 32.5V26.5M31.5 26.5L33.5 28.5M31.5 26.5L29.5 28.5" stroke="#1B4444" stroke-linecap="round" stroke-linejoin="round"/>
<path d="M34.5 24.5C34.5 20.7288 34.5 18.8431 33.3284 17.6716C32.1569 16.5 30.2712 16.5 26.5 16.5M26.5 32.5H22.5C18.7288 32.5 16.8431 32.5 15.6716 31.3284C14.5 30.1569 14.5 28.2712 14.5 24.5C14.5 20.7288 14.5 18.8431 15.6716 17.6716C16.8431 16.5 18.7288 16.5 22.5 16.5" stroke="#1B4444" stroke-linecap="round"/>
<path d="M22.5 28.5H18.5" stroke="#1B4444" stroke-linecap="round"/>
<path d="M25.5 28.5H25" stroke="#1B4444" stroke-linecap="round"/>
<path d="M14.5 22.5H19.5M34.5 22.5H23.5" stroke="#1B4444" stroke-linecap="round"/>
</svg>
