<svg width="49" height="49" viewBox="0 0 49 49" fill="none" xmlns="http://www.w3.org/2000/svg">
<rect width="49" height="49" rx="4" fill="#C91988"/>
<path d="M24.2584 23.1708C21.5155 22.4579 20.6334 21.7208 20.6334 20.5729C20.6334 19.2558 21.8538 18.3375 23.8959 18.3375C26.0467 18.3375 26.8442 19.3646 26.9167 20.875H29.5871C29.5026 18.7967 28.2338 16.8875 25.7084 16.2713V13.625H22.0834V16.235C19.7392 16.7425 17.8542 18.265 17.8542 20.5971C17.8542 23.3883 20.1621 24.7779 23.5334 25.5875C26.5542 26.3125 27.1584 27.3758 27.1584 28.4996C27.1584 29.3333 26.5663 30.6625 23.8959 30.6625C21.4067 30.6625 20.428 29.5508 20.2951 28.125H17.6367C17.7817 30.7712 19.7634 32.2575 22.0834 32.7529V35.375H25.7084V32.7771C28.0646 32.33 29.9376 30.9646 29.9376 28.4875C29.9376 25.0558 27.0013 23.8837 24.2584 23.1708Z" fill="white" fill-opacity="0.5"/>
</svg>
