<svg width="49" height="49" viewBox="0 0 49 49" fill="none" xmlns="http://www.w3.org/2000/svg">
<rect x="0.5" y="0.5" width="48" height="48" rx="5.5" fill="white"/>
<rect x="0.5" y="0.5" width="48" height="48" rx="5.5" stroke="#D1DADA"/>
<path d="M19.5 20.5L19.5 21.5M19.5 28.5L19.5 24.5" stroke="#1B4444" stroke-linecap="round"/>
<path d="M24.5 24.5C24.5 23.3954 25.3954 22.5 26.5 22.5C27.6046 22.5 28.5 23.3954 28.5 24.5C28.5 25.6046 27.6046 26.5 26.5 26.5C25.3954 26.5 24.5 25.6046 24.5 24.5Z" stroke="#1B4444"/>
<path d="M28.5 22.5L29.5 21.5" stroke="#1B4444" stroke-linecap="round"/>
<path d="M23.5 27.5L24.5 26.5" stroke="#1B4444" stroke-linecap="round"/>
<path d="M24.5 22.5L23.5 21.5" stroke="#1B4444" stroke-linecap="round"/>
<path d="M29.5 27.5L28.5 26.5" stroke="#1B4444" stroke-linecap="round"/>
<path d="M19.5 15.8378C20.9709 14.987 22.6786 14.5 24.5 14.5C30.0228 14.5 34.5 18.9772 34.5 24.5C34.5 30.0228 30.0228 34.5 24.5 34.5C18.9772 34.5 14.5 30.0228 14.5 24.5C14.5 22.6786 14.987 20.9709 15.8378 19.5" stroke="#1B4444" stroke-linecap="round"/>
</svg>
