<svg width="24" height="24" viewBox="0 0 24 24" fill="none" xmlns="http://www.w3.org/2000/svg">
<circle cx="9" cy="5.99902" r="4" stroke="#1C274C" stroke-width="1.5"/>
<path d="M15 8.99902C16.6569 8.99902 18 7.65588 18 5.99902C18 4.34217 16.6569 2.99902 15 2.99902" stroke="#1C274C" stroke-width="1.5" stroke-linecap="round"/>
<path d="M5.88915 20.5833C6.82627 20.8494 7.88256 20.999 9 20.999C12.866 20.999 16 19.2082 16 16.999C16 14.7899 12.866 12.999 9 12.999C5.13401 12.999 2 14.7899 2 16.999C2 17.3443 2.07657 17.6794 2.22053 17.999" stroke="#1C274C" stroke-width="1.5" stroke-linecap="round"/>
<path d="M18 13.999C19.7542 14.3837 21 15.358 21 16.499C21 17.5284 19.9863 18.4219 18.5 18.8695" stroke="#1C274C" stroke-width="1.5" stroke-linecap="round"/>
</svg>
