<svg width="49" height="49" viewBox="0 0 49 49" fill="none" xmlns="http://www.w3.org/2000/svg">
<rect width="49" height="49" rx="4" fill="#FA6903"/>
<path d="M35.375 31.75V32.9583C35.375 34.2875 34.2875 35.375 32.9583 35.375H16.0417C14.7004 35.375 13.625 34.2875 13.625 32.9583V16.0417C13.625 14.7125 14.7004 13.625 16.0417 13.625H32.9583C34.2875 13.625 35.375 14.7125 35.375 16.0417V17.25H24.5C23.1588 17.25 22.0833 18.3375 22.0833 19.6667V29.3333C22.0833 30.6625 23.1588 31.75 24.5 31.75H35.375ZM24.5 29.3333H36.5833V19.6667H24.5V29.3333ZM29.3333 26.3125C28.3304 26.3125 27.5208 25.5029 27.5208 24.5C27.5208 23.4971 28.3304 22.6875 29.3333 22.6875C30.3363 22.6875 31.1458 23.4971 31.1458 24.5C31.1458 25.5029 30.3363 26.3125 29.3333 26.3125Z" fill="white" fill-opacity="0.5"/>
</svg>
