<svg width="49" height="49" viewBox="0 0 49 49" fill="none" xmlns="http://www.w3.org/2000/svg">
<rect x="0.5" y="0.5" width="48" height="48" rx="5.5" fill="white"/>
<rect x="0.5" y="0.5" width="48" height="48" rx="5.5" stroke="#D1DADA"/>
<path d="M18.5 20.5H22.5" stroke="#1C274C" stroke-linecap="round" stroke-linejoin="round"/>
<path d="M34.5 23C34.5 22.9226 34.5 22.4673 34.4977 22.4346C34.4623 21.9338 34.0328 21.535 33.4935 21.5021C33.4583 21.5 33.4167 21.5 33.3333 21.5H30.7308C28.9465 21.5 27.5 22.8431 27.5 24.5C27.5 26.1569 28.9465 27.5 30.7308 27.5H33.3333C33.4167 27.5 33.4583 27.5 33.4935 27.4979C34.0328 27.465 34.4623 27.0662 34.4977 26.5654C34.5 26.5327 34.5 26.0774 34.5 26" stroke="#1C274C" stroke-linecap="round"/>
<circle cx="30.5" cy="24.5" r="1" fill="#1C274C"/>
<path d="M25.5 16.5C29.2712 16.5 31.1569 16.5 32.3284 17.6716C33.1366 18.4797 33.3873 19.6277 33.465 21.5M22.5 32.5H25.5C29.2712 32.5 31.1569 32.5 32.3284 31.3284C33.1366 30.5203 33.3873 29.3723 33.465 27.5M21.5 16.5009C18.3857 16.51 16.7347 16.6085 15.6716 17.6716C14.5 18.8431 14.5 20.7288 14.5 24.5C14.5 28.2712 14.5 30.1569 15.6716 31.3284C16.3248 31.9816 17.1999 32.2706 18.5 32.3985" stroke="#1C274C" stroke-linecap="round"/>
</svg>
