<svg width="395" height="71" viewBox="0 0 395 71" fill="none" xmlns="http://www.w3.org/2000/svg">
<path d="M31.296 47.257H11.84L8.256 57.177H2.112L18.24 12.825H24.96L41.024 57.177H34.88L31.296 47.257ZM29.632 42.521L21.568 19.993L13.504 42.521H29.632ZM50.037 28.633C51.2317 26.5423 52.981 24.8357 55.285 23.513C57.589 22.1903 60.213 21.529 63.157 21.529C66.3143 21.529 69.1517 22.2757 71.669 23.769C74.1863 25.2623 76.1703 27.3743 77.621 30.105C79.0717 32.793 79.797 35.929 79.797 39.513C79.797 43.0543 79.0717 46.2117 77.621 48.985C76.1703 51.7583 74.165 53.913 71.605 55.449C69.0877 56.985 66.2717 57.753 63.157 57.753C60.1277 57.753 57.461 57.0917 55.157 55.769C52.8957 54.4463 51.189 52.761 50.037 50.713V57.177H44.213V9.817H50.037V28.633ZM73.845 39.513C73.845 36.8677 73.3117 34.5637 72.245 32.601C71.1783 30.6383 69.7277 29.145 67.893 28.121C66.101 27.097 64.117 26.585 61.941 26.585C59.8077 26.585 57.8237 27.1183 55.989 28.185C54.197 29.209 52.7463 30.7237 51.637 32.729C50.5703 34.6917 50.037 36.9743 50.037 39.577C50.037 42.2223 50.5703 44.5477 51.637 46.553C52.7463 48.5157 54.197 50.0303 55.989 51.097C57.8237 52.121 59.8077 52.633 61.941 52.633C64.117 52.633 66.101 52.121 67.893 51.097C69.7277 50.0303 71.1783 48.5157 72.245 46.553C73.3117 44.5477 73.845 42.201 73.845 39.513ZM98.919 57.753C95.6337 57.753 92.647 57.0063 89.959 55.513C87.3137 54.0197 85.223 51.9077 83.687 49.177C82.1937 46.4037 81.447 43.2037 81.447 39.577C81.447 35.993 82.215 32.8357 83.751 30.105C85.3297 27.3317 87.463 25.2197 90.151 23.769C92.839 22.2757 95.847 21.529 99.175 21.529C102.503 21.529 105.511 22.2757 108.199 23.769C110.887 25.2197 112.999 27.3103 114.535 30.041C116.114 32.7717 116.903 35.9503 116.903 39.577C116.903 43.2037 116.092 46.4037 114.471 49.177C112.892 51.9077 110.738 54.0197 108.007 55.513C105.276 57.0063 102.247 57.753 98.919 57.753ZM98.919 52.633C101.01 52.633 102.972 52.1423 104.807 51.161C106.642 50.1797 108.114 48.7077 109.223 46.745C110.375 44.7823 110.951 42.393 110.951 39.577C110.951 36.761 110.396 34.3717 109.287 32.409C108.178 30.4463 106.727 28.9957 104.935 28.057C103.143 27.0757 101.202 26.585 99.111 26.585C96.9777 26.585 95.015 27.0757 93.223 28.057C91.4737 28.9957 90.0657 30.4463 88.999 32.409C87.9323 34.3717 87.399 36.761 87.399 39.577C87.399 42.4357 87.911 44.8463 88.935 46.809C90.0017 48.7717 91.4097 50.2437 93.159 51.225C94.9083 52.1637 96.8283 52.633 98.919 52.633ZM151.825 22.105V57.177H146.001V51.993C144.891 53.785 143.334 55.193 141.329 56.217C139.366 57.1983 137.19 57.689 134.801 57.689C132.07 57.689 129.617 57.1343 127.441 56.025C125.265 54.873 123.537 53.1663 122.257 50.905C121.019 48.6437 120.401 45.8917 120.401 42.649V22.105H126.161V41.881C126.161 45.337 127.035 48.0037 128.785 49.881C130.534 51.7157 132.923 52.633 135.953 52.633C139.067 52.633 141.521 51.673 143.313 49.753C145.105 47.833 146.001 45.0383 146.001 41.369V22.105H151.825ZM164.922 26.905V47.577C164.922 49.2837 165.285 50.4997 166.01 51.225C166.735 51.9077 167.994 52.249 169.786 52.249H174.074V57.177H168.826C165.583 57.177 163.151 56.4303 161.53 54.937C159.909 53.4437 159.098 50.9903 159.098 47.577V26.905H154.554V22.105H159.098V13.273H164.922V22.105H174.074V26.905H164.922ZM221.617 22.105V57.177H215.793V51.993C214.684 53.785 213.126 55.193 211.121 56.217C209.158 57.1983 206.982 57.689 204.593 57.689C201.862 57.689 199.409 57.1343 197.233 56.025C195.057 54.873 193.329 53.1663 192.049 50.905C190.812 48.6437 190.193 45.8917 190.193 42.649V22.105H195.953V41.881C195.953 45.337 196.828 48.0037 198.577 49.881C200.326 51.7157 202.716 52.633 205.745 52.633C208.86 52.633 211.313 51.673 213.105 49.753C214.897 47.833 215.793 45.0383 215.793 41.369V22.105H221.617ZM240.026 57.753C237.338 57.753 234.928 57.305 232.794 56.409C230.661 55.4703 228.976 54.1903 227.738 52.569C226.501 50.905 225.818 49.0063 225.69 46.873H231.706C231.877 48.6223 232.688 50.0517 234.138 51.161C235.632 52.2703 237.573 52.825 239.962 52.825C242.181 52.825 243.93 52.3343 245.21 51.353C246.49 50.3717 247.13 49.1343 247.13 47.641C247.13 46.105 246.448 44.9743 245.082 44.249C243.717 43.481 241.605 42.7343 238.746 42.009C236.144 41.3263 234.01 40.6437 232.346 39.961C230.725 39.2357 229.317 38.1903 228.122 36.825C226.97 35.417 226.394 33.5823 226.394 31.321C226.394 29.529 226.928 27.8863 227.994 26.393C229.061 24.8997 230.576 23.7263 232.538 22.873C234.501 21.977 236.741 21.529 239.258 21.529C243.141 21.529 246.277 22.5103 248.666 24.473C251.056 26.4357 252.336 29.1237 252.506 32.537H246.682C246.554 30.7023 245.808 29.2303 244.442 28.121C243.12 27.0117 241.328 26.457 239.066 26.457C236.976 26.457 235.312 26.905 234.074 27.801C232.837 28.697 232.218 29.8703 232.218 31.321C232.218 32.473 232.581 33.433 233.306 34.201C234.074 34.9263 235.013 35.5237 236.122 35.993C237.274 36.4197 238.853 36.9103 240.858 37.465C243.376 38.1477 245.424 38.8303 247.002 39.513C248.581 40.153 249.925 41.1343 251.034 42.457C252.186 43.7797 252.784 45.5077 252.826 47.641C252.826 49.561 252.293 51.289 251.226 52.825C250.16 54.361 248.645 55.577 246.682 56.473C244.762 57.3263 242.544 57.753 240.026 57.753Z" fill="#1B4444"/>
<path fill-rule="evenodd" clip-rule="evenodd" d="M366.989 35.177L339.629 35.177L323.994 70.3541L351.354 70.3541L366.989 35.177Z" fill="#1B4444"/>
<path fill-rule="evenodd" clip-rule="evenodd" d="M395 -1.87934e-06L367.64 -6.83396e-07L352.006 35.1771L379.366 35.1771L395 -1.87934e-06Z" fill="#1B4444"/>
<path fill-rule="evenodd" clip-rule="evenodd" d="M281 35.177L308.36 35.177L323.994 70.3541L296.634 70.3541L281 35.177Z" fill="#1B4444"/>
</svg>
