<svg width="495" height="166" viewBox="0 0 495 166" fill="none" xmlns="http://www.w3.org/2000/svg">
<rect x="0.758301" y="0.593506" width="234.035" height="135.147" rx="6.59255" fill="white"/>
<path d="M22.4215 19.7948V20.7144H20.5921V26.6675H19.4647V20.7144H17.6254V19.7948H22.4215ZM25.8277 26.7565C25.3135 26.7565 24.8487 26.6411 24.4334 26.4104C24.0181 26.173 23.6917 25.8434 23.4544 25.4215C23.2171 24.993 23.0984 24.4985 23.0984 23.9382C23.0984 23.3844 23.2204 22.8932 23.4643 22.4647C23.7082 22.0362 24.0411 21.7066 24.4631 21.4759C24.885 21.2451 25.3564 21.1297 25.8772 21.1297C26.398 21.1297 26.8693 21.2451 27.2913 21.4759C27.7132 21.7066 28.0461 22.0362 28.29 22.4647C28.534 22.8932 28.6559 23.3844 28.6559 23.9382C28.6559 24.4919 28.5307 24.9831 28.2801 25.4116C28.0296 25.8401 27.6868 26.173 27.2517 26.4104C26.8232 26.6411 26.3485 26.7565 25.8277 26.7565ZM25.8277 25.7775C26.1178 25.7775 26.3881 25.7083 26.6386 25.5698C26.8957 25.4314 27.1034 25.2237 27.2616 24.9468C27.4198 24.6699 27.4989 24.3337 27.4989 23.9382C27.4989 23.5426 27.4231 23.2097 27.2715 22.9394C27.1199 22.6625 26.9188 22.4548 26.6683 22.3164C26.4178 22.178 26.1475 22.1087 25.8574 22.1087C25.5673 22.1087 25.297 22.178 25.0465 22.3164C24.8026 22.4548 24.6081 22.6625 24.4631 22.9394C24.318 23.2097 24.2455 23.5426 24.2455 23.9382C24.2455 24.5249 24.3938 24.9798 24.6905 25.3028C24.9938 25.6193 25.3728 25.7775 25.8277 25.7775ZM30.9867 22.1384V25.1545C30.9867 25.3589 31.0328 25.5072 31.1251 25.5995C31.224 25.6852 31.3888 25.728 31.6196 25.728H32.3118V26.6675H31.4218C30.9142 26.6675 30.5252 26.5488 30.2549 26.3115C29.9846 26.0742 29.8495 25.6885 29.8495 25.1545V22.1384H29.2067V21.2187H29.8495V19.864H30.9867V21.2187H32.3118V22.1384H30.9867ZM32.8761 23.9184C32.8761 23.3712 32.9882 22.8867 33.2124 22.4647C33.4431 22.0428 33.7529 21.7165 34.1419 21.4857C34.5375 21.2484 34.9726 21.1297 35.4472 21.1297C35.8757 21.1297 36.2482 21.2154 36.5647 21.3869C36.8877 21.5517 37.1448 21.7593 37.336 22.0098V21.2187H38.4732V26.6675H37.336V25.8566C37.1448 26.1137 36.8844 26.328 36.5548 26.4994C36.2251 26.6708 35.8494 26.7565 35.4274 26.7565C34.9594 26.7565 34.5309 26.6378 34.1419 26.4005C33.7529 26.1566 33.4431 25.8203 33.2124 25.3918C32.9882 24.9567 32.8761 24.4656 32.8761 23.9184ZM37.336 23.9382C37.336 23.5624 37.2569 23.2361 37.0987 22.9592C36.947 22.6823 36.746 22.4713 36.4954 22.3263C36.2449 22.1813 35.9746 22.1087 35.6846 22.1087C35.3945 22.1087 35.1242 22.1813 34.8737 22.3263C34.6232 22.4647 34.4188 22.6724 34.2606 22.9493C34.1089 23.2196 34.0331 23.5426 34.0331 23.9184C34.0331 24.2942 34.1089 24.6238 34.2606 24.9073C34.4188 25.1908 34.6232 25.4083 34.8737 25.5599C35.1308 25.705 35.4011 25.7775 35.6846 25.7775C35.9746 25.7775 36.2449 25.705 36.4954 25.5599C36.746 25.4149 36.947 25.2039 37.0987 24.927C37.2569 24.6436 37.336 24.3139 37.336 23.9382ZM40.9823 19.3498V26.6675H39.855V19.3498H40.9823ZM47.0979 26.7367C46.6365 26.7367 46.2211 26.6576 45.852 26.4994C45.4828 26.3346 45.1927 26.1038 44.9817 25.8072C44.7708 25.5105 44.6653 25.1644 44.6653 24.7688H45.8717C45.8981 25.0655 46.0135 25.3094 46.2178 25.5006C46.4288 25.6918 46.7222 25.7874 47.0979 25.7874C47.4869 25.7874 47.7902 25.6951 48.0077 25.5105C48.2253 25.3193 48.3341 25.0754 48.3341 24.7787C48.3341 24.548 48.2648 24.3601 48.1264 24.2151C47.9945 24.07 47.8264 23.9579 47.6221 23.8788C47.4243 23.7997 47.1474 23.714 46.7914 23.6217C46.3431 23.5031 45.9772 23.3844 45.6937 23.2657C45.4169 23.1405 45.1795 22.9493 44.9817 22.6922C44.784 22.4351 44.6851 22.0923 44.6851 21.6637C44.6851 21.2682 44.784 20.9221 44.9817 20.6254C45.1795 20.3287 45.4564 20.1013 45.8124 19.9431C46.1684 19.7849 46.5804 19.7058 47.0485 19.7058C47.7144 19.7058 48.2582 19.8739 48.6802 20.2101C49.1087 20.5397 49.346 20.9946 49.3922 21.5747H48.1462C48.1264 21.3242 48.0077 21.11 47.7902 20.932C47.5726 20.754 47.2858 20.665 46.9298 20.665C46.6068 20.665 46.3431 20.7474 46.1387 20.9122C45.9344 21.077 45.8322 21.3143 45.8322 21.6242C45.8322 21.8351 45.8948 22.0098 46.0201 22.1483C46.1519 22.2801 46.3167 22.3856 46.5145 22.4647C46.7123 22.5438 46.9826 22.6295 47.3254 22.7218C47.7803 22.8471 48.1495 22.9724 48.4329 23.0976C48.723 23.2229 48.9669 23.4174 49.1647 23.6811C49.3691 23.9382 49.4713 24.2843 49.4713 24.7194C49.4713 25.0688 49.3757 25.3984 49.1845 25.7083C48.9999 26.0181 48.7263 26.2686 48.3637 26.4598C48.0077 26.6444 47.5858 26.7367 47.0979 26.7367ZM51.8299 22.0197C52.0211 21.7692 52.2815 21.5583 52.6111 21.3869C52.9407 21.2154 53.3132 21.1297 53.7286 21.1297C54.2032 21.1297 54.635 21.2484 55.024 21.4857C55.4195 21.7165 55.7294 22.0428 55.9535 22.4647C56.1777 22.8867 56.2898 23.3712 56.2898 23.9184C56.2898 24.4656 56.1777 24.9567 55.9535 25.3918C55.7294 25.8203 55.4195 26.1566 55.024 26.4005C54.635 26.6378 54.2032 26.7565 53.7286 26.7565C53.3132 26.7565 52.944 26.6741 52.621 26.5093C52.298 26.3379 52.0343 26.1269 51.8299 25.8764V29.2584H50.7026V21.2187H51.8299V22.0197ZM55.1427 23.9184C55.1427 23.5426 55.0635 23.2196 54.9053 22.9493C54.7537 22.6724 54.5493 22.4647 54.2922 22.3263C54.0417 22.1813 53.7714 22.1087 53.4813 22.1087C53.1979 22.1087 52.9276 22.1813 52.6705 22.3263C52.4199 22.4713 52.2156 22.6823 52.0573 22.9592C51.9057 23.2361 51.8299 23.5624 51.8299 23.9382C51.8299 24.3139 51.9057 24.6436 52.0573 24.927C52.2156 25.2039 52.4199 25.4149 52.6705 25.5599C52.9276 25.705 53.1979 25.7775 53.4813 25.7775C53.7714 25.7775 54.0417 25.705 54.2922 25.5599C54.5493 25.4083 54.7537 25.1908 54.9053 24.9073C55.0635 24.6238 55.1427 24.2942 55.1427 23.9184ZM62.2995 23.8096C62.2995 24.014 62.2864 24.1986 62.26 24.3634H58.0968C58.1298 24.7985 58.2913 25.1479 58.5813 25.4116C58.8714 25.6753 59.2274 25.8072 59.6493 25.8072C60.2558 25.8072 60.6844 25.5533 60.9349 25.0457H62.1512C61.9864 25.5467 61.6864 25.9588 61.2513 26.2818C60.8228 26.5983 60.2888 26.7565 59.6493 26.7565C59.1285 26.7565 58.6605 26.6411 58.2451 26.4104C57.8364 26.173 57.5133 25.8434 57.276 25.4215C57.0453 24.993 56.9299 24.4985 56.9299 23.9382C56.9299 23.3778 57.042 22.8867 57.2661 22.4647C57.4969 22.0362 57.8166 21.7066 58.2253 21.4759C58.6407 21.2451 59.1153 21.1297 59.6493 21.1297C60.1636 21.1297 60.6217 21.2418 61.0239 21.466C61.426 21.6901 61.7392 22.0066 61.9633 22.4153C62.1875 22.8174 62.2995 23.2822 62.2995 23.8096ZM61.1228 23.4536C61.1162 23.0383 60.9678 22.7054 60.6778 22.4548C60.3877 22.2043 60.0284 22.0791 59.5999 22.0791C59.2109 22.0791 58.878 22.2043 58.6011 22.4548C58.3242 22.6988 58.1594 23.0317 58.1067 23.4536H61.1228ZM66.0591 21.1297C66.4877 21.1297 66.87 21.2187 67.2062 21.3967C67.5491 21.5747 67.8161 21.8384 68.0072 22.1878C68.1984 22.5373 68.294 22.9592 68.294 23.4536V26.6675H67.1766V23.6217C67.1766 23.1339 67.0546 22.7614 66.8107 22.5043C66.5668 22.2406 66.2338 22.1087 65.8119 22.1087C65.39 22.1087 65.0538 22.2406 64.8033 22.5043C64.5593 22.7614 64.4374 23.1339 64.4374 23.6217V26.6675H63.31V21.2187H64.4374V21.8417C64.622 21.6176 64.856 21.4429 65.1395 21.3176C65.4296 21.1924 65.7361 21.1297 66.0591 21.1297ZM70.9483 22.1384V25.1545C70.9483 25.3589 70.9945 25.5072 71.0868 25.5995C71.1856 25.6852 71.3505 25.728 71.5812 25.728H72.2734V26.6675H71.3834C70.8758 26.6675 70.4868 26.5488 70.2165 26.3115C69.9462 26.0742 69.8111 25.6885 69.8111 25.1545V22.1384H69.1683V21.2187H69.8111V19.864H70.9483V21.2187H72.2734V22.1384H70.9483Z" fill="#193F3F"/>
<path d="M208.973 23.6676C208.973 24.2744 208.481 24.7664 207.874 24.7664C207.267 24.7664 206.775 24.2744 206.775 23.6676C206.775 23.0608 207.267 22.5688 207.874 22.5688C208.481 22.5688 208.973 23.0608 208.973 23.6676Z" fill="#193F3F"/>
<path d="M212.819 23.6676C212.819 24.2744 212.327 24.7664 211.72 24.7664C211.113 24.7664 210.621 24.2744 210.621 23.6676C210.621 23.0608 211.113 22.5688 211.72 22.5688C212.327 22.5688 212.819 23.0608 212.819 23.6676Z" fill="#193F3F"/>
<path d="M216.664 23.6676C216.664 24.2744 216.172 24.7664 215.565 24.7664C214.959 24.7664 214.467 24.2744 214.467 23.6676C214.467 23.0608 214.959 22.5688 215.565 22.5688C216.172 22.5688 216.664 23.0608 216.664 23.6676Z" fill="#193F3F"/>
<path d="M31.5851 83.6679C31.5851 84.5469 31.3654 85.3731 30.9259 86.1467C30.5039 86.9202 29.8711 87.5707 29.0272 88.0981C28.201 88.6255 27.2165 88.9419 26.0738 89.0474V91.1834H24.3597V89.0474C22.7072 88.8892 21.3711 88.3705 20.3514 87.4915C19.3318 86.6125 18.822 85.4522 18.822 84.0107H22.0391C22.0919 84.6963 22.3116 85.2677 22.6984 85.7247C23.0851 86.1642 23.6389 86.4455 24.3597 86.5686V80.7671C23.1818 80.4683 22.2237 80.1694 21.4853 79.8706C20.747 79.5541 20.1141 79.0619 19.5867 78.3938C19.0769 77.7258 18.822 76.8116 18.822 75.6513C18.822 74.1922 19.3318 72.9879 20.3514 72.0386C21.3711 71.0717 22.7072 70.5091 24.3597 70.3509V68.2149H26.0738V70.3509C27.6208 70.4916 28.8602 70.9838 29.792 71.8277C30.7413 72.6539 31.2775 73.7966 31.4005 75.2558H28.1834C28.1306 74.7108 27.9197 74.2273 27.5505 73.8054C27.1813 73.3659 26.6891 73.0671 26.0738 72.9088V78.6048C27.2516 78.8861 28.2097 79.1849 28.9481 79.5014C29.6865 79.8002 30.3106 80.2837 30.8204 80.9517C31.3302 81.6022 31.5851 82.5076 31.5851 83.6679ZM21.8809 75.4931C21.8809 76.2139 22.0919 76.7765 22.5138 77.1808C22.9533 77.5851 23.5686 77.9104 24.3597 78.1565V72.8297C23.6037 72.9176 22.9972 73.1901 22.5402 73.6472C22.1006 74.1043 21.8809 74.7196 21.8809 75.4931ZM26.0738 86.5686C26.8473 86.4455 27.4538 86.1379 27.8933 85.6456C28.3328 85.1358 28.5526 84.5293 28.5526 83.8261C28.5526 83.1229 28.3328 82.5779 27.8933 82.1911C27.4714 81.7868 26.8649 81.4616 26.0738 81.2154V86.5686ZM35.3136 72.4078V69.6653H40.7986V88.8892H37.766V72.4078H35.3136ZM44.6647 79.0267C44.6647 75.9854 45.1746 73.612 46.1942 71.9068C47.2314 70.1839 49.007 69.3225 51.521 69.3225C54.0349 69.3225 55.8017 70.1839 56.8214 71.9068C57.8586 73.612 58.3772 75.9854 58.3772 79.0267C58.3772 82.1032 57.8586 84.5117 56.8214 86.2521C55.8017 87.975 54.0349 88.8364 51.521 88.8364C49.007 88.8364 47.2314 87.975 46.1942 86.2521C45.1746 84.5117 44.6647 82.1032 44.6647 79.0267ZM55.4238 79.0267C55.4238 77.6027 55.3271 76.3985 55.1337 75.414C54.9579 74.4295 54.5887 73.6296 54.0261 73.0143C53.4636 72.3814 52.6285 72.065 51.521 72.065C50.4134 72.065 49.5784 72.3814 49.0158 73.0143C48.4532 73.6296 48.0753 74.4295 47.8819 75.414C47.7061 76.3985 47.6182 77.6027 47.6182 79.0267C47.6182 80.5034 47.7061 81.7428 47.8819 82.7449C48.0577 83.747 48.4269 84.5557 48.9894 85.171C49.5696 85.7863 50.4134 86.0939 51.521 86.0939C52.6285 86.0939 53.4636 85.7863 54.0261 85.171C54.6063 84.5557 54.9843 83.747 55.1601 82.7449C55.3359 81.7428 55.4238 80.5034 55.4238 79.0267ZM62.903 89.0738C62.358 89.0738 61.9009 88.8892 61.5318 88.52C61.1626 88.1508 60.978 87.6937 60.978 87.1487C60.978 86.6037 61.1626 86.1467 61.5318 85.7775C61.9009 85.4083 62.358 85.2237 62.903 85.2237C63.4304 85.2237 63.8787 85.4083 64.2479 85.7775C64.6171 86.1467 64.8017 86.6037 64.8017 87.1487C64.8017 87.6937 64.6171 88.1508 64.2479 88.52C63.8787 88.8892 63.4304 89.0738 62.903 89.0738ZM69.0528 84.8018C70.7405 83.3426 72.0678 82.1472 73.0347 81.2154C74.0192 80.2661 74.8367 79.2816 75.4871 78.262C76.1376 77.2423 76.4628 76.2227 76.4628 75.203C76.4628 74.1482 76.2079 73.322 75.6981 72.7242C75.2059 72.1265 74.4236 71.8277 73.3512 71.8277C72.3139 71.8277 71.5053 72.1617 70.9251 72.8297C70.3625 73.4802 70.0637 74.3592 70.0285 75.4667H67.1278C67.1805 73.4626 67.7783 71.9331 68.921 70.8783C70.0813 69.8059 71.5492 69.2697 73.3248 69.2697C75.241 69.2697 76.7353 69.7971 77.8077 70.852C78.8977 71.9068 79.4427 73.3132 79.4427 75.0712C79.4427 76.337 79.1174 77.5588 78.467 78.7366C77.8341 79.8969 77.0694 80.9429 76.1728 81.8747C75.2938 82.7889 74.1686 83.8525 72.7974 85.0655L71.6107 86.1203H79.9701V88.6255H67.1542V86.4367L69.0528 84.8018ZM94.7413 72.2496H85.9073V77.4972C86.2765 77.005 86.8215 76.5919 87.5422 76.2578C88.2806 75.9238 89.0629 75.7568 89.8892 75.7568C91.3659 75.7568 92.5614 76.0733 93.4755 76.7061C94.4073 77.339 95.0665 78.1389 95.4533 79.1058C95.8576 80.0727 96.0598 81.0924 96.0598 82.1648C96.0598 83.4657 95.8049 84.626 95.2951 85.6456C94.8028 86.6477 94.0557 87.4388 93.0536 88.0189C92.0691 88.5991 90.8561 88.8892 89.4145 88.8892C87.4983 88.8892 85.96 88.4145 84.7997 87.4652C83.6394 86.5158 82.945 85.2589 82.7165 83.6942H85.6436C85.837 84.5205 86.2677 85.1798 86.9357 85.672C87.6038 86.1467 88.4388 86.384 89.4409 86.384C90.6891 86.384 91.6208 86.006 92.2361 85.2501C92.869 84.4941 93.1855 83.4921 93.1855 82.2439C93.1855 80.9781 92.869 80.0112 92.2361 79.3432C91.6032 78.6575 90.6715 78.3147 89.4409 78.3147C88.5795 78.3147 87.8499 78.5345 87.2522 78.974C86.672 79.3959 86.2501 79.976 85.9864 80.7144H83.1384V69.6126H94.7413V72.2496Z" fill="#193F3F"/>
<g clip-path="url(#clip0_1114_4362)">
<path opacity="0.5" d="M29.326 111.843V112.667C29.326 115.257 29.326 116.552 28.5214 117.356C27.7169 118.161 26.422 118.161 23.8322 118.161C21.2424 118.161 19.9475 118.161 19.1429 117.356C18.3384 116.552 18.3384 115.257 18.3384 112.667C18.3384 110.077 18.3384 108.782 19.1429 107.978C19.9475 107.173 21.2424 107.173 23.8322 107.173H24.6562" stroke="#193F3F" stroke-width="0.824068" stroke-linecap="round"/>
<circle cx="27.6779" cy="108.821" r="1.64814" stroke="#193F3F" stroke-width="0.824068"/>
<path d="M21.0854 113.766L22.3451 112.506C22.5597 112.291 22.9075 112.291 23.1221 112.506L23.9933 113.377C24.2078 113.592 24.5556 113.592 24.7702 113.377L26.5792 111.568M26.5792 111.568V112.942M26.5792 111.568H25.2058" stroke="#193F3F" stroke-width="0.824068" stroke-linecap="round" stroke-linejoin="round"/>
</g>
<path d="M36.9974 111.612V112.562H32.9331V111.612H36.9974ZM42.9995 109.427H39.6868V111.395C39.8252 111.21 40.0296 111.055 40.2999 110.93C40.5768 110.805 40.8701 110.742 41.18 110.742C41.7337 110.742 42.182 110.861 42.5248 111.098C42.8743 111.335 43.1215 111.635 43.2665 111.998C43.4181 112.361 43.494 112.743 43.494 113.145C43.494 113.633 43.3984 114.068 43.2072 114.45C43.0226 114.826 42.7424 115.123 42.3666 115.34C41.9974 115.558 41.5426 115.667 41.002 115.667C40.2834 115.667 39.7065 115.489 39.2714 115.133C38.8363 114.777 38.5759 114.305 38.4902 113.719H39.5879C39.6604 114.029 39.8219 114.276 40.0724 114.46C40.3229 114.638 40.6361 114.727 41.0119 114.727C41.4799 114.727 41.8293 114.586 42.0601 114.302C42.2974 114.019 42.4161 113.643 42.4161 113.175C42.4161 112.7 42.2974 112.338 42.0601 112.087C41.8227 111.83 41.4733 111.701 41.0119 111.701C40.6888 111.701 40.4152 111.784 40.1911 111.949C39.9735 112.107 39.8153 112.324 39.7164 112.601H38.6484V108.438H42.9995V109.427ZM44.3906 110.198C44.3906 109.717 44.529 109.341 44.8059 109.071C45.0894 108.794 45.452 108.656 45.8937 108.656C46.3354 108.656 46.6947 108.794 46.9716 109.071C47.2551 109.341 47.3968 109.717 47.3968 110.198C47.3968 110.679 47.2551 111.059 46.9716 111.335C46.6947 111.612 46.3354 111.751 45.8937 111.751C45.452 111.751 45.0894 111.612 44.8059 111.335C44.529 111.059 44.3906 110.679 44.3906 110.198ZM50.4228 108.784L46.4771 115.667H45.3696L49.3152 108.784H50.4228ZM45.8937 109.338C45.4784 109.338 45.2707 109.625 45.2707 110.198C45.2707 110.778 45.4784 111.068 45.8937 111.068C46.0915 111.068 46.2431 110.999 46.3486 110.861C46.4606 110.716 46.5167 110.495 46.5167 110.198C46.5167 109.625 46.309 109.338 45.8937 109.338ZM48.4153 114.243C48.4153 113.762 48.5538 113.386 48.8307 113.115C49.1141 112.839 49.4767 112.7 49.9184 112.7C50.3535 112.7 50.7095 112.839 50.9864 113.115C51.2699 113.386 51.4117 113.762 51.4117 114.243C51.4117 114.724 51.2699 115.103 50.9864 115.38C50.7095 115.657 50.3535 115.795 49.9184 115.795C49.4767 115.795 49.1141 115.657 48.8307 115.38C48.5538 115.103 48.4153 114.724 48.4153 114.243ZM49.9085 113.382C49.4932 113.382 49.2856 113.669 49.2856 114.243C49.2856 114.816 49.4932 115.103 49.9085 115.103C50.3239 115.103 50.5315 114.816 50.5315 114.243C50.5315 113.669 50.3239 113.382 49.9085 113.382Z" fill="#193F3F"/>
<path opacity="0.5" d="M56.5692 114.658L58.1118 110.218H59.3084L57.2317 115.667H55.8868L53.8201 110.218H55.0265L56.5692 114.658ZM62.0394 115.756C61.6109 115.756 61.2252 115.68 60.8824 115.528C60.5462 115.37 60.2792 115.159 60.0814 114.895C59.8836 114.625 59.7781 114.325 59.765 113.996H60.9318C60.9516 114.226 61.0604 114.421 61.2582 114.579C61.4625 114.731 61.7164 114.806 62.0196 114.806C62.3361 114.806 62.58 114.747 62.7514 114.628C62.9294 114.503 63.0184 114.345 63.0184 114.154C63.0184 113.949 62.9195 113.798 62.7217 113.699C62.5305 113.6 62.224 113.491 61.8021 113.373C61.3933 113.26 61.0604 113.152 60.8033 113.046C60.5462 112.941 60.322 112.779 60.1308 112.562C59.9463 112.344 59.854 112.057 59.854 111.701C59.854 111.411 59.9397 111.148 60.1111 110.91C60.2825 110.666 60.5264 110.475 60.8428 110.337C61.1659 110.198 61.5351 110.129 61.9504 110.129C62.5701 110.129 63.0678 110.287 63.4436 110.604C63.826 110.914 64.0303 111.339 64.0567 111.879H62.9294C62.9096 111.635 62.8107 111.441 62.6327 111.296C62.4547 111.151 62.2141 111.078 61.9108 111.078C61.6142 111.078 61.3867 111.134 61.2285 111.246C61.0703 111.359 60.9912 111.507 60.9912 111.691C60.9912 111.836 61.0439 111.958 61.1494 112.057C61.2549 112.156 61.3834 112.235 61.5351 112.295C61.6867 112.347 61.9108 112.417 62.2075 112.502C62.603 112.608 62.9261 112.717 63.1766 112.829C63.4337 112.934 63.6546 113.092 63.8392 113.303C64.0237 113.514 64.1193 113.794 64.1259 114.144C64.1259 114.454 64.0402 114.731 63.8688 114.975C63.6974 115.218 63.4535 115.41 63.137 115.548C62.8272 115.687 62.4613 115.756 62.0394 115.756ZM68.8424 108.349V115.667H67.715V108.349H68.8424ZM69.8478 112.918C69.8478 112.37 69.9598 111.886 70.184 111.464C70.4147 111.042 70.7246 110.716 71.1135 110.485C71.5091 110.248 71.9442 110.129 72.4189 110.129C72.8474 110.129 73.2199 110.215 73.5363 110.386C73.8593 110.551 74.1164 110.759 74.3076 111.009V110.218H75.4448V115.667H74.3076V114.856C74.1164 115.113 73.856 115.327 73.5264 115.499C73.1968 115.67 72.821 115.756 72.3991 115.756C71.931 115.756 71.5025 115.637 71.1135 115.4C70.7246 115.156 70.4147 114.82 70.184 114.391C69.9598 113.956 69.8478 113.465 69.8478 112.918ZM74.3076 112.937C74.3076 112.562 74.2285 112.235 74.0703 111.958C73.9187 111.682 73.7176 111.471 73.4671 111.326C73.2166 111.181 72.9463 111.108 72.6562 111.108C72.3661 111.108 72.0958 111.181 71.8453 111.326C71.5948 111.464 71.3904 111.672 71.2322 111.949C71.0806 112.219 71.0048 112.542 71.0048 112.918C71.0048 113.293 71.0806 113.623 71.2322 113.907C71.3904 114.19 71.5948 114.408 71.8453 114.559C72.1024 114.704 72.3727 114.777 72.6562 114.777C72.9463 114.777 73.2166 114.704 73.4671 114.559C73.7176 114.414 73.9187 114.203 74.0703 113.926C74.2285 113.643 74.3076 113.313 74.3076 112.937ZM78.8044 115.756C78.3759 115.756 77.9902 115.68 77.6474 115.528C77.3112 115.37 77.0442 115.159 76.8464 114.895C76.6486 114.625 76.5432 114.325 76.53 113.996H77.6969C77.7166 114.226 77.8254 114.421 78.0232 114.579C78.2276 114.731 78.4814 114.806 78.7846 114.806C79.1011 114.806 79.345 114.747 79.5164 114.628C79.6944 114.503 79.7834 114.345 79.7834 114.154C79.7834 113.949 79.6845 113.798 79.4867 113.699C79.2956 113.6 78.989 113.491 78.5671 113.373C78.1583 113.26 77.8254 113.152 77.5683 113.046C77.3112 112.941 77.0871 112.779 76.8959 112.562C76.7113 112.344 76.619 112.057 76.619 111.701C76.619 111.411 76.7047 111.148 76.8761 110.91C77.0475 110.666 77.2914 110.475 77.6079 110.337C77.9309 110.198 78.3001 110.129 78.7154 110.129C79.3351 110.129 79.8328 110.287 80.2086 110.604C80.591 110.914 80.7954 111.339 80.8217 111.879H79.6944C79.6746 111.635 79.5757 111.441 79.3977 111.296C79.2197 111.151 78.9791 111.078 78.6759 111.078C78.3792 111.078 78.1517 111.134 77.9935 111.246C77.8353 111.359 77.7562 111.507 77.7562 111.691C77.7562 111.836 77.8089 111.958 77.9144 112.057C78.0199 112.156 78.1485 112.235 78.3001 112.295C78.4517 112.347 78.6759 112.417 78.9725 112.502C79.3681 112.608 79.6911 112.717 79.9416 112.829C80.1987 112.934 80.4196 113.092 80.6042 113.303C80.7888 113.514 80.8844 113.794 80.8909 114.144C80.8909 114.454 80.8052 114.731 80.6338 114.975C80.4624 115.218 80.2185 115.41 79.9021 115.548C79.5922 115.687 79.2263 115.756 78.8044 115.756ZM83.3254 111.138V114.154C83.3254 114.358 83.3715 114.506 83.4638 114.599C83.5627 114.684 83.7275 114.727 83.9583 114.727H84.6505V115.667H83.7605C83.2529 115.667 82.8639 115.548 82.5936 115.311C82.3233 115.073 82.1882 114.688 82.1882 114.154V111.138H81.5454V110.218H82.1882V108.863H83.3254V110.218H84.6505V111.138H83.3254ZM94.6563 110.129C95.0849 110.129 95.4672 110.218 95.8034 110.396C96.1463 110.574 96.4133 110.838 96.6044 111.187C96.8022 111.537 96.9011 111.958 96.9011 112.453V115.667H95.7837V112.621C95.7837 112.133 95.6617 111.761 95.4178 111.504C95.1739 111.24 94.8409 111.108 94.419 111.108C93.9971 111.108 93.6609 111.24 93.4103 111.504C93.1664 111.761 93.0445 112.133 93.0445 112.621V115.667H91.927V112.621C91.927 112.133 91.8051 111.761 91.5611 111.504C91.3172 111.24 90.9843 111.108 90.5624 111.108C90.1404 111.108 89.8042 111.24 89.5537 111.504C89.3098 111.761 89.1878 112.133 89.1878 112.621V115.667H88.0605V110.218H89.1878V110.841C89.3724 110.617 89.6064 110.442 89.8899 110.317C90.1734 110.192 90.4767 110.129 90.7997 110.129C91.2348 110.129 91.6238 110.221 91.9666 110.406C92.3094 110.59 92.5731 110.857 92.7577 111.207C92.9225 110.877 93.1796 110.617 93.529 110.426C93.8784 110.228 94.2542 110.129 94.6563 110.129ZM100.6 115.756C100.086 115.756 99.6211 115.64 99.2058 115.41C98.7905 115.172 98.4642 114.843 98.2268 114.421C97.9895 113.992 97.8708 113.498 97.8708 112.937C97.8708 112.384 97.9928 111.893 98.2367 111.464C98.4806 111.035 98.8136 110.706 99.2355 110.475C99.6574 110.244 100.129 110.129 100.65 110.129C101.17 110.129 101.642 110.244 102.064 110.475C102.486 110.706 102.819 111.035 103.062 111.464C103.306 111.893 103.428 112.384 103.428 112.937C103.428 113.491 103.303 113.982 103.053 114.411C102.802 114.839 102.459 115.172 102.024 115.41C101.596 115.64 101.121 115.756 100.6 115.756ZM100.6 114.777C100.89 114.777 101.161 114.708 101.411 114.569C101.668 114.431 101.876 114.223 102.034 113.946C102.192 113.669 102.271 113.333 102.271 112.937C102.271 112.542 102.196 112.209 102.044 111.939C101.892 111.662 101.691 111.454 101.441 111.316C101.19 111.177 100.92 111.108 100.63 111.108C100.34 111.108 100.069 111.177 99.8189 111.316C99.575 111.454 99.3805 111.662 99.2355 111.939C99.0904 112.209 99.0179 112.542 99.0179 112.937C99.0179 113.524 99.1663 113.979 99.4629 114.302C99.7662 114.619 100.145 114.777 100.6 114.777ZM107.193 110.129C107.621 110.129 108.004 110.218 108.34 110.396C108.683 110.574 108.95 110.838 109.141 111.187C109.332 111.537 109.428 111.958 109.428 112.453V115.667H108.31V112.621C108.31 112.133 108.188 111.761 107.945 111.504C107.701 111.24 107.368 111.108 106.946 111.108C106.524 111.108 106.188 111.24 105.937 111.504C105.693 111.761 105.571 112.133 105.571 112.621V115.667H104.444V110.218H105.571V110.841C105.756 110.617 105.99 110.442 106.273 110.317C106.563 110.192 106.87 110.129 107.193 110.129ZM112.082 111.138V114.154C112.082 114.358 112.128 114.506 112.221 114.599C112.319 114.684 112.484 114.727 112.715 114.727H113.407V115.667H112.517C112.01 115.667 111.621 115.548 111.35 115.311C111.08 115.073 110.945 114.688 110.945 114.154V111.138H110.302V110.218H110.945V108.863H112.082V110.218H113.407V111.138H112.082ZM117.166 110.129C117.581 110.129 117.95 110.218 118.273 110.396C118.603 110.574 118.86 110.838 119.045 111.187C119.236 111.537 119.331 111.958 119.331 112.453V115.667H118.214V112.621C118.214 112.133 118.092 111.761 117.848 111.504C117.604 111.24 117.271 111.108 116.849 111.108C116.427 111.108 116.091 111.24 115.841 111.504C115.597 111.761 115.475 112.133 115.475 112.621V115.667H114.347V108.349H115.475V110.851C115.666 110.62 115.907 110.442 116.197 110.317C116.493 110.192 116.816 110.129 117.166 110.129Z" fill="#193F3F"/>
<rect x="238.09" y="30.26" width="256.91" height="135.151" rx="6.59272" fill="white"/>
<path d="M254.938 52.8832C254.938 52.2107 255.093 51.6075 255.402 51.0735C255.719 50.5395 256.144 50.1241 256.678 49.8275C257.219 49.5242 257.809 49.3726 258.448 49.3726C259.18 49.3726 259.829 49.5539 260.396 49.9165C260.97 50.2725 261.385 50.7801 261.642 51.4394H260.288C260.11 51.0768 259.862 50.8065 259.546 50.6285C259.23 50.4505 258.864 50.3615 258.448 50.3615C257.993 50.3615 257.588 50.4637 257.232 50.668C256.876 50.8724 256.596 51.1658 256.391 51.5482C256.194 51.9305 256.095 52.3755 256.095 52.8832C256.095 53.3908 256.194 53.8358 256.391 54.2182C256.596 54.6006 256.876 54.8973 257.232 55.1082C257.588 55.3126 257.993 55.4148 258.448 55.4148C258.864 55.4148 259.23 55.3258 259.546 55.1478C259.862 54.9698 260.11 54.6995 260.288 54.3369H261.642C261.385 54.9961 260.97 55.5038 260.396 55.8598C259.829 56.2158 259.18 56.3938 258.448 56.3938C257.802 56.3938 257.212 56.2455 256.678 55.9488C256.144 55.6455 255.719 55.2269 255.402 54.6929C255.093 54.1589 254.938 53.5556 254.938 52.8832ZM265.227 56.4235C264.712 56.4235 264.248 56.3081 263.832 56.0774C263.417 55.84 263.091 55.5104 262.853 55.0884C262.616 54.6599 262.497 54.1655 262.497 53.6051C262.497 53.0513 262.619 52.5601 262.863 52.1316C263.107 51.7031 263.44 51.3734 263.862 51.1427C264.284 50.912 264.755 50.7966 265.276 50.7966C265.797 50.7966 266.268 50.912 266.69 51.1427C267.112 51.3734 267.445 51.7031 267.689 52.1316C267.933 52.5601 268.055 53.0513 268.055 53.6051C268.055 54.1589 267.93 54.65 267.679 55.0786C267.429 55.5071 267.086 55.84 266.651 56.0774C266.222 56.3081 265.747 56.4235 265.227 56.4235ZM265.227 55.4445C265.517 55.4445 265.787 55.3752 266.038 55.2368C266.295 55.0983 266.502 54.8907 266.661 54.6138C266.819 54.3369 266.898 54.0006 266.898 53.6051C266.898 53.2095 266.822 52.8766 266.67 52.6063C266.519 52.3294 266.318 52.1217 266.067 51.9833C265.817 51.8448 265.546 51.7756 265.256 51.7756C264.966 51.7756 264.696 51.8448 264.445 51.9833C264.201 52.1217 264.007 52.3294 263.862 52.6063C263.717 52.8766 263.644 53.2095 263.644 53.6051C263.644 54.1918 263.793 54.6467 264.089 54.9698C264.393 55.2862 264.772 55.4445 265.227 55.4445ZM275.667 50.7966C276.095 50.7966 276.477 50.8856 276.814 51.0636C277.156 51.2416 277.423 51.5053 277.615 51.8547C277.812 52.2041 277.911 52.6261 277.911 53.1205V56.3345H276.794V53.2886C276.794 52.8008 276.672 52.4283 276.428 52.1712C276.184 51.9075 275.851 51.7756 275.429 51.7756C275.007 51.7756 274.671 51.9075 274.42 52.1712C274.177 52.4283 274.055 52.8008 274.055 53.2886V56.3345H272.937V53.2886C272.937 52.8008 272.815 52.4283 272.571 52.1712C272.327 51.9075 271.994 51.7756 271.572 51.7756C271.15 51.7756 270.814 51.9075 270.564 52.1712C270.32 52.4283 270.198 52.8008 270.198 53.2886V56.3345H269.07V50.8856H270.198V51.5086C270.382 51.2844 270.616 51.1097 270.9 50.9845C271.183 50.8592 271.487 50.7966 271.81 50.7966C272.245 50.7966 272.634 50.8889 272.977 51.0735C273.32 51.2581 273.583 51.5251 273.768 51.8745C273.933 51.5449 274.19 51.2844 274.539 51.0933C274.889 50.8955 275.264 50.7966 275.667 50.7966ZM280.374 51.6866C280.566 51.4361 280.826 51.2251 281.156 51.0537C281.485 50.8823 281.858 50.7966 282.273 50.7966C282.748 50.7966 283.18 50.9153 283.569 51.1526C283.964 51.3833 284.274 51.7097 284.498 52.1316C284.722 52.5535 284.834 53.0381 284.834 53.5853C284.834 54.1325 284.722 54.6237 284.498 55.0588C284.274 55.4873 283.964 55.8235 283.569 56.0675C283.18 56.3048 282.748 56.4235 282.273 56.4235C281.858 56.4235 281.489 56.3411 281.165 56.1762C280.842 56.0048 280.579 55.7939 280.374 55.5433V58.9254H279.247V50.8856H280.374V51.6866ZM283.687 53.5853C283.687 53.2095 283.608 52.8865 283.45 52.6162C283.298 52.3393 283.094 52.1316 282.837 51.9932C282.586 51.8481 282.316 51.7756 282.026 51.7756C281.742 51.7756 281.472 51.8481 281.215 51.9932C280.964 52.1382 280.76 52.3492 280.602 52.6261C280.45 52.903 280.374 53.2293 280.374 53.6051C280.374 53.9809 280.45 54.3105 280.602 54.594C280.76 54.8709 280.964 55.0819 281.215 55.2269C281.472 55.3719 281.742 55.4445 282.026 55.4445C282.316 55.4445 282.586 55.3719 282.837 55.2269C283.094 55.0753 283.298 54.8577 283.45 54.5742C283.608 54.2907 283.687 53.9611 283.687 53.5853ZM286.978 49.0165V56.3345H285.85V49.0165H286.978ZM293.353 53.4765C293.353 53.6809 293.34 53.8655 293.313 54.0303H289.15C289.183 54.4654 289.344 54.8148 289.635 55.0786C289.925 55.3423 290.281 55.4741 290.703 55.4741C291.309 55.4741 291.738 55.2203 291.988 54.7127H293.204C293.04 55.2137 292.74 55.6258 292.305 55.9488C291.876 56.2652 291.342 56.4235 290.703 56.4235C290.182 56.4235 289.714 56.3081 289.298 56.0774C288.89 55.84 288.567 55.5104 288.329 55.0884C288.098 54.6599 287.983 54.1655 287.983 53.6051C287.983 53.0447 288.095 52.5535 288.319 52.1316C288.55 51.7031 288.87 51.3734 289.279 51.1427C289.694 50.912 290.169 50.7966 290.703 50.7966C291.217 50.7966 291.675 50.9087 292.077 51.1328C292.479 51.357 292.792 51.6734 293.017 52.0822C293.241 52.4843 293.353 52.9491 293.353 53.4765ZM292.176 53.1205C292.169 52.7052 292.021 52.3722 291.731 52.1217C291.441 51.8712 291.082 51.7459 290.653 51.7459C290.264 51.7459 289.931 51.8712 289.654 52.1217C289.377 52.3657 289.213 52.6986 289.16 53.1205H292.176ZM295.679 51.8053V54.8214C295.679 55.0258 295.725 55.1742 295.817 55.2665C295.916 55.3522 296.081 55.395 296.312 55.395H297.004V56.3345H296.114C295.606 56.3345 295.217 56.2158 294.947 55.9785C294.677 55.7411 294.541 55.3555 294.541 54.8214V51.8053H293.899V50.8856H294.541V49.5308H295.679V50.8856H297.004V51.8053H295.679ZM302.938 53.4765C302.938 53.6809 302.925 53.8655 302.898 54.0303H298.735C298.768 54.4654 298.93 54.8148 299.22 55.0786C299.51 55.3423 299.866 55.4741 300.288 55.4741C300.894 55.4741 301.323 55.2203 301.573 54.7127H302.79C302.625 55.2137 302.325 55.6258 301.89 55.9488C301.461 56.2652 300.927 56.4235 300.288 56.4235C299.767 56.4235 299.299 56.3081 298.883 56.0774C298.475 55.84 298.152 55.5104 297.914 55.0884C297.684 54.6599 297.568 54.1655 297.568 53.6051C297.568 53.0447 297.68 52.5535 297.904 52.1316C298.135 51.7031 298.455 51.3734 298.864 51.1427C299.279 50.912 299.754 50.7966 300.288 50.7966C300.802 50.7966 301.26 50.9087 301.662 51.1328C302.064 51.357 302.378 51.6734 302.602 52.0822C302.826 52.4843 302.938 52.9491 302.938 53.4765ZM301.761 53.1205C301.755 52.7052 301.606 52.3722 301.316 52.1217C301.026 51.8712 300.667 51.7459 300.238 51.7459C299.849 51.7459 299.516 51.8712 299.239 52.1217C298.962 52.3657 298.798 52.6986 298.745 53.1205H301.761ZM303.573 53.5853C303.573 53.0381 303.685 52.5535 303.909 52.1316C304.14 51.7097 304.449 51.3833 304.838 51.1526C305.234 50.9153 305.672 50.7966 306.154 50.7966C306.51 50.7966 306.859 50.8757 307.202 51.0339C307.551 51.1856 307.828 51.3899 308.033 51.647V49.0165H309.17V56.3345H308.033V55.5137C307.848 55.7774 307.591 55.9949 307.261 56.1664C306.938 56.3378 306.566 56.4235 306.144 56.4235C305.669 56.4235 305.234 56.3048 304.838 56.0675C304.449 55.8235 304.14 55.4873 303.909 55.0588C303.685 54.6237 303.573 54.1325 303.573 53.5853ZM308.033 53.6051C308.033 53.2293 307.954 52.903 307.795 52.6261C307.644 52.3492 307.443 52.1382 307.192 51.9932C306.942 51.8481 306.671 51.7756 306.381 51.7756C306.091 51.7756 305.821 51.8481 305.57 51.9932C305.32 52.1316 305.115 52.3393 304.957 52.6162C304.805 52.8865 304.73 53.2095 304.73 53.5853C304.73 53.9611 304.805 54.2907 304.957 54.5742C305.115 54.8577 305.32 55.0753 305.57 55.2269C305.827 55.3719 306.098 55.4445 306.381 55.4445C306.671 55.4445 306.942 55.3719 307.192 55.2269C307.443 55.0819 307.644 54.8709 307.795 54.594C307.954 54.3105 308.033 53.9809 308.033 53.6051ZM320.26 49.4616V56.3345H319.133V51.6273L317.037 56.3345H316.255L314.149 51.6273V56.3345H313.022V49.4616H314.238L316.651 54.8511L319.054 49.4616H320.26ZM324.007 56.4235C323.493 56.4235 323.028 56.3081 322.612 56.0774C322.197 55.84 321.871 55.5104 321.633 55.0884C321.396 54.6599 321.277 54.1655 321.277 53.6051C321.277 53.0513 321.399 52.5601 321.643 52.1316C321.887 51.7031 322.22 51.3734 322.642 51.1427C323.064 50.912 323.535 50.7966 324.056 50.7966C324.577 50.7966 325.048 50.912 325.47 51.1427C325.892 51.3734 326.225 51.7031 326.469 52.1316C326.713 52.5601 326.835 53.0513 326.835 53.6051C326.835 54.1589 326.71 54.65 326.459 55.0786C326.209 55.5071 325.866 55.84 325.431 56.0774C325.002 56.3081 324.528 56.4235 324.007 56.4235ZM324.007 55.4445C324.297 55.4445 324.567 55.3752 324.818 55.2368C325.075 55.0983 325.283 54.8907 325.441 54.6138C325.599 54.3369 325.678 54.0006 325.678 53.6051C325.678 53.2095 325.602 52.8766 325.451 52.6063C325.299 52.3294 325.098 52.1217 324.847 51.9833C324.597 51.8448 324.327 51.7756 324.037 51.7756C323.746 51.7756 323.476 51.8448 323.226 51.9833C322.982 52.1217 322.787 52.3294 322.642 52.6063C322.497 52.8766 322.425 53.2095 322.425 53.6051C322.425 54.1918 322.573 54.6467 322.87 54.9698C323.173 55.2862 323.552 55.4445 324.007 55.4445ZM327.475 53.5853C327.475 53.0381 327.587 52.5535 327.811 52.1316C328.042 51.7097 328.352 51.3833 328.741 51.1526C329.136 50.9153 329.575 50.7966 330.056 50.7966C330.412 50.7966 330.761 50.8757 331.104 51.0339C331.454 51.1856 331.73 51.3899 331.935 51.647V49.0165H333.072V56.3345H331.935V55.5137C331.75 55.7774 331.493 55.9949 331.164 56.1664C330.84 56.3378 330.468 56.4235 330.046 56.4235C329.571 56.4235 329.136 56.3048 328.741 56.0675C328.352 55.8235 328.042 55.4873 327.811 55.0588C327.587 54.6237 327.475 54.1325 327.475 53.5853ZM331.935 53.6051C331.935 53.2293 331.856 52.903 331.698 52.6261C331.546 52.3492 331.345 52.1382 331.094 51.9932C330.844 51.8481 330.573 51.7756 330.283 51.7756C329.993 51.7756 329.723 51.8481 329.472 51.9932C329.222 52.1316 329.018 52.3393 328.859 52.6162C328.708 52.8865 328.632 53.2095 328.632 53.5853C328.632 53.9611 328.708 54.2907 328.859 54.5742C329.018 54.8577 329.222 55.0753 329.472 55.2269C329.73 55.3719 330 55.4445 330.283 55.4445C330.573 55.4445 330.844 55.3719 331.094 55.2269C331.345 55.0819 331.546 54.8709 331.698 54.594C331.856 54.3105 331.935 53.9809 331.935 53.6051ZM339.448 53.4765C339.448 53.6809 339.435 53.8655 339.408 54.0303H335.245C335.278 54.4654 335.44 54.8148 335.73 55.0786C336.02 55.3423 336.376 55.4741 336.798 55.4741C337.404 55.4741 337.833 55.2203 338.083 54.7127H339.3C339.135 55.2137 338.835 55.6258 338.4 55.9488C337.971 56.2652 337.437 56.4235 336.798 56.4235C336.277 56.4235 335.809 56.3081 335.393 56.0774C334.985 55.84 334.662 55.5104 334.424 55.0884C334.194 54.6599 334.078 54.1655 334.078 53.6051C334.078 53.0447 334.19 52.5535 334.414 52.1316C334.645 51.7031 334.965 51.3734 335.374 51.1427C335.789 50.912 336.264 50.7966 336.798 50.7966C337.312 50.7966 337.77 50.9087 338.172 51.1328C338.574 51.357 338.888 51.6734 339.112 52.0822C339.336 52.4843 339.448 52.9491 339.448 53.4765ZM338.271 53.1205C338.265 52.7052 338.116 52.3722 337.826 52.1217C337.536 51.8712 337.177 51.7459 336.748 51.7459C336.359 51.7459 336.026 51.8712 335.749 52.1217C335.473 52.3657 335.308 52.6986 335.255 53.1205H338.271ZM341.586 51.6767C341.751 51.3998 341.968 51.1856 342.239 51.0339C342.515 50.8757 342.842 50.7966 343.218 50.7966V51.9635H342.931C342.489 51.9635 342.153 52.0756 341.922 52.2997C341.698 52.5239 341.586 52.9128 341.586 53.4666V56.3345H340.458V50.8856H341.586V51.6767ZM343.779 53.5853C343.779 53.0381 343.891 52.5535 344.115 52.1316C344.346 51.7097 344.656 51.3833 345.045 51.1526C345.441 50.9153 345.876 50.7966 346.35 50.7966C346.779 50.7966 347.151 50.8823 347.468 51.0537C347.791 51.2185 348.048 51.4262 348.239 51.6767V50.8856H349.376V56.3345H348.239V55.5236C348.048 55.7807 347.788 55.9949 347.458 56.1664C347.128 56.3378 346.752 56.4235 346.331 56.4235C345.862 56.4235 345.434 56.3048 345.045 56.0675C344.656 55.8235 344.346 55.4873 344.115 55.0588C343.891 54.6237 343.779 54.1325 343.779 53.5853ZM348.239 53.6051C348.239 53.2293 348.16 52.903 348.002 52.6261C347.85 52.3492 347.649 52.1382 347.399 51.9932C347.148 51.8481 346.878 51.7756 346.588 51.7756C346.298 51.7756 346.027 51.8481 345.777 51.9932C345.526 52.1316 345.322 52.3393 345.164 52.6162C345.012 52.8865 344.936 53.2095 344.936 53.5853C344.936 53.9611 345.012 54.2907 345.164 54.5742C345.322 54.8577 345.526 55.0753 345.777 55.2269C346.034 55.3719 346.304 55.4445 346.588 55.4445C346.878 55.4445 347.148 55.3719 347.399 55.2269C347.649 55.0819 347.85 54.8709 348.002 54.594C348.16 54.3105 348.239 53.9809 348.239 53.6051ZM352.073 51.8053V54.8214C352.073 55.0258 352.12 55.1742 352.212 55.2665C352.311 55.3522 352.476 55.395 352.706 55.395H353.399V56.3345H352.509C352.001 56.3345 351.612 56.2158 351.342 55.9785C351.071 55.7411 350.936 55.3555 350.936 54.8214V51.8053H350.293V50.8856H350.936V49.5308H352.073V50.8856H353.399V51.8053H352.073ZM354.912 50.1637C354.708 50.1637 354.537 50.0945 354.398 49.956C354.26 49.8176 354.19 49.6462 354.19 49.4418C354.19 49.2374 354.26 49.066 354.398 48.9275C354.537 48.7891 354.708 48.7199 354.912 48.7199C355.11 48.7199 355.278 48.7891 355.417 48.9275C355.555 49.066 355.624 49.2374 355.624 49.4418C355.624 49.6462 355.555 49.8176 355.417 49.956C355.278 50.0945 355.11 50.1637 354.912 50.1637ZM355.466 50.8856V56.3345H354.339V50.8856H355.466ZM359.211 56.4235C358.697 56.4235 358.232 56.3081 357.816 56.0774C357.401 55.84 357.075 55.5104 356.837 55.0884C356.6 54.6599 356.481 54.1655 356.481 53.6051C356.481 53.0513 356.603 52.5601 356.847 52.1316C357.091 51.7031 357.424 51.3734 357.846 51.1427C358.268 50.912 358.739 50.7966 359.26 50.7966C359.781 50.7966 360.252 50.912 360.674 51.1427C361.096 51.3734 361.429 51.7031 361.673 52.1316C361.917 52.5601 362.039 53.0513 362.039 53.6051C362.039 54.1589 361.914 54.65 361.663 55.0786C361.413 55.5071 361.07 55.84 360.635 56.0774C360.206 56.3081 359.732 56.4235 359.211 56.4235ZM359.211 55.4445C359.501 55.4445 359.771 55.3752 360.022 55.2368C360.279 55.0983 360.487 54.8907 360.645 54.6138C360.803 54.3369 360.882 54.0006 360.882 53.6051C360.882 53.2095 360.806 52.8766 360.655 52.6063C360.503 52.3294 360.302 52.1217 360.051 51.9833C359.801 51.8448 359.531 51.7756 359.24 51.7756C358.95 51.7756 358.68 51.8448 358.43 51.9833C358.186 52.1217 357.991 52.3294 357.846 52.6063C357.701 52.8766 357.629 53.2095 357.629 53.6051C357.629 54.1918 357.777 54.6467 358.074 54.9698C358.377 55.2862 358.756 55.4445 359.211 55.4445ZM365.804 50.7966C366.232 50.7966 366.615 50.8856 366.951 51.0636C367.294 51.2416 367.561 51.5053 367.752 51.8547C367.943 52.2041 368.039 52.6261 368.039 53.1205V56.3345H366.921V53.2886C366.921 52.8008 366.799 52.4283 366.555 52.1712C366.311 51.9075 365.979 51.7756 365.557 51.7756C365.135 51.7756 364.798 51.9075 364.548 52.1712C364.304 52.4283 364.182 52.8008 364.182 53.2886V56.3345H363.055V50.8856H364.182V51.5086C364.367 51.2844 364.601 51.1097 364.884 50.9845C365.174 50.8592 365.481 50.7966 365.804 50.7966ZM371.356 56.4235C370.927 56.4235 370.541 56.3477 370.199 56.196C369.862 56.0378 369.595 55.8268 369.398 55.5631C369.2 55.2928 369.094 54.9929 369.081 54.6632H370.248C370.268 54.894 370.377 55.0884 370.574 55.2467C370.779 55.3983 371.033 55.4741 371.336 55.4741C371.652 55.4741 371.896 55.4148 372.068 55.2961C372.246 55.1709 372.335 55.0126 372.335 54.8214C372.335 54.6171 372.236 54.4654 372.038 54.3665C371.847 54.2677 371.54 54.1589 371.118 54.0402C370.71 53.9281 370.377 53.8193 370.12 53.7139C369.862 53.6084 369.638 53.4469 369.447 53.2293C369.263 53.0117 369.17 52.725 369.17 52.3689C369.17 52.0789 369.256 51.8152 369.427 51.5778C369.599 51.3339 369.843 51.1427 370.159 51.0043C370.482 50.8658 370.851 50.7966 371.267 50.7966C371.886 50.7966 372.384 50.9548 372.76 51.2713C373.142 51.5811 373.347 52.0063 373.373 52.547H372.246C372.226 52.303 372.127 52.1085 371.949 51.9635C371.771 51.8185 371.53 51.7459 371.227 51.7459C370.93 51.7459 370.703 51.802 370.545 51.9141C370.387 52.0261 370.307 52.1745 370.307 52.3591C370.307 52.5041 370.36 52.6261 370.466 52.725C370.571 52.8238 370.7 52.903 370.851 52.9623C371.003 53.015 371.227 53.0843 371.524 53.17C371.919 53.2754 372.242 53.3842 372.493 53.4963C372.75 53.6018 372.971 53.76 373.156 53.971C373.34 54.1819 373.436 54.4621 373.442 54.8116C373.442 55.1214 373.357 55.3983 373.185 55.6422C373.014 55.8862 372.77 56.0774 372.453 56.2158C372.144 56.3543 371.778 56.4235 371.356 56.4235Z" fill="#193F3F"/>
<path d="M469.179 53.3344C469.179 53.9412 468.687 54.4332 468.08 54.4332C467.473 54.4332 466.981 53.9412 466.981 53.3344C466.981 52.7275 467.473 52.2356 468.08 52.2356C468.687 52.2356 469.179 52.7275 469.179 53.3344Z" fill="#193F3F"/>
<path d="M473.024 53.3344C473.024 53.9412 472.532 54.4332 471.925 54.4332C471.319 54.4332 470.827 53.9412 470.827 53.3344C470.827 52.7275 471.319 52.2356 471.925 52.2356C472.532 52.2356 473.024 52.7275 473.024 53.3344Z" fill="#193F3F"/>
<path d="M476.87 53.3344C476.87 53.9412 476.378 54.4332 475.771 54.4332C475.164 54.4332 474.672 53.9412 474.672 53.3344C474.672 52.7275 475.164 52.2356 475.771 52.2356C476.378 52.2356 476.87 52.7275 476.87 53.3344Z" fill="#193F3F"/>
<path d="M255.758 105.262V102.519H261.244V121.744H258.211V105.262H255.758ZM277.293 104.84L269.962 121.744H266.929L274.34 105.156H264.582V102.598H277.293V104.84ZM282.846 111.696C281.018 110.782 280.104 109.341 280.104 107.372C280.104 106.422 280.341 105.552 280.816 104.761C281.29 103.97 282.002 103.346 282.952 102.888C283.901 102.414 285.061 102.176 286.433 102.176C287.786 102.176 288.938 102.414 289.887 102.888C290.854 103.346 291.575 103.97 292.05 104.761C292.524 105.552 292.762 106.422 292.762 107.372C292.762 108.356 292.507 109.226 291.997 109.982C291.505 110.721 290.845 111.292 290.019 111.696C291.021 112.066 291.812 112.672 292.392 113.516C292.973 114.342 293.263 115.318 293.263 116.443C293.263 117.586 292.973 118.597 292.392 119.476C291.812 120.355 291.004 121.032 289.966 121.506C288.929 121.981 287.751 122.218 286.433 122.218C285.114 122.218 283.936 121.981 282.899 121.506C281.879 121.032 281.079 120.355 280.499 119.476C279.919 118.597 279.629 117.586 279.629 116.443C279.629 115.3 279.919 114.316 280.499 113.49C281.079 112.663 281.862 112.066 282.846 111.696ZM289.887 107.741C289.887 106.756 289.579 106 288.964 105.473C288.349 104.945 287.505 104.682 286.433 104.682C285.378 104.682 284.543 104.945 283.927 105.473C283.312 106 283.004 106.765 283.004 107.767C283.004 108.646 283.321 109.367 283.954 109.929C284.604 110.474 285.43 110.747 286.433 110.747C287.435 110.747 288.261 110.466 288.911 109.903C289.562 109.341 289.887 108.62 289.887 107.741ZM286.433 113.015C285.272 113.015 284.323 113.305 283.584 113.885C282.864 114.448 282.503 115.265 282.503 116.338C282.503 117.34 282.855 118.157 283.558 118.79C284.261 119.405 285.219 119.713 286.433 119.713C287.628 119.713 288.569 119.397 289.254 118.764C289.957 118.131 290.309 117.322 290.309 116.338C290.309 115.283 289.949 114.465 289.228 113.885C288.525 113.305 287.593 113.015 286.433 113.015ZM297.817 117.656C299.504 116.197 300.832 115.001 301.799 114.07C302.783 113.12 303.601 112.136 304.251 111.116C304.902 110.097 305.227 109.077 305.227 108.057C305.227 107.002 304.972 106.176 304.462 105.578C303.97 104.981 303.188 104.682 302.115 104.682C301.078 104.682 300.269 105.016 299.689 105.684C299.127 106.334 298.828 107.213 298.792 108.321H295.892C295.944 106.317 296.542 104.787 297.685 103.732C298.845 102.66 300.313 102.124 302.089 102.124C304.005 102.124 305.499 102.651 306.572 103.706C307.662 104.761 308.207 106.167 308.207 107.925C308.207 109.191 307.882 110.413 307.231 111.591C306.598 112.751 305.833 113.797 304.937 114.729C304.058 115.643 302.933 116.707 301.561 117.92L300.375 118.975H308.734V121.48H295.918V119.291L297.817 117.656ZM311.112 111.881C311.112 108.839 311.621 106.466 312.641 104.761C313.678 103.038 315.454 102.176 317.968 102.176C320.482 102.176 322.249 103.038 323.269 104.761C324.306 106.466 324.824 108.839 324.824 111.881C324.824 114.958 324.306 117.366 323.269 119.107C322.249 120.829 320.482 121.691 317.968 121.691C315.454 121.691 313.678 120.829 312.641 119.107C311.621 117.366 311.112 114.958 311.112 111.881ZM321.871 111.881C321.871 110.457 321.774 109.253 321.581 108.268C321.405 107.284 321.036 106.484 320.473 105.868C319.911 105.235 319.076 104.919 317.968 104.919C316.86 104.919 316.025 105.235 315.463 105.868C314.9 106.484 314.522 107.284 314.329 108.268C314.153 109.253 314.065 110.457 314.065 111.881C314.065 113.358 314.153 114.597 314.329 115.599C314.505 116.601 314.874 117.41 315.436 118.025C316.017 118.641 316.86 118.948 317.968 118.948C319.076 118.948 319.911 118.641 320.473 118.025C321.053 117.41 321.431 116.601 321.607 115.599C321.783 114.597 321.871 113.358 321.871 111.881Z" fill="#193F3F"/>
<path opacity="0.5" d="M255.017 140.749V139.72H257.074V146.929H255.936V140.749H255.017ZM263.171 140.689H259.859V142.657C259.997 142.473 260.201 142.318 260.472 142.192C260.749 142.067 261.042 142.004 261.352 142.004C261.906 142.004 262.354 142.123 262.697 142.36C263.046 142.598 263.293 142.898 263.438 143.26C263.59 143.623 263.666 144.005 263.666 144.407C263.666 144.895 263.57 145.33 263.379 145.713C263.194 146.089 262.914 146.385 262.539 146.603C262.169 146.82 261.714 146.929 261.174 146.929C260.455 146.929 259.878 146.751 259.443 146.395C259.008 146.039 258.748 145.568 258.662 144.981H259.76C259.832 145.291 259.994 145.538 260.244 145.723C260.495 145.901 260.808 145.99 261.184 145.99C261.652 145.99 262.001 145.848 262.232 145.565C262.469 145.281 262.588 144.905 262.588 144.437C262.588 143.962 262.469 143.6 262.232 143.349C261.995 143.092 261.645 142.964 261.184 142.964C260.861 142.964 260.587 143.046 260.363 143.211C260.145 143.369 259.987 143.587 259.888 143.864H258.82V139.7H263.171V140.689ZM264.721 141.5C264.76 140.887 264.994 140.409 265.423 140.066C265.858 139.723 266.412 139.552 267.084 139.552C267.546 139.552 267.945 139.634 268.281 139.799C268.617 139.964 268.871 140.188 269.042 140.472C269.214 140.755 269.299 141.075 269.299 141.431C269.299 141.84 269.191 142.189 268.973 142.479C268.756 142.769 268.495 142.964 268.192 143.063V143.102C268.581 143.221 268.884 143.438 269.102 143.755C269.319 144.065 269.428 144.464 269.428 144.951C269.428 145.34 269.339 145.686 269.161 145.99C268.983 146.293 268.719 146.534 268.37 146.712C268.02 146.883 267.602 146.969 267.114 146.969C266.402 146.969 265.815 146.787 265.354 146.425C264.899 146.056 264.655 145.528 264.622 144.843H265.71C265.736 145.192 265.871 145.479 266.115 145.703C266.359 145.921 266.689 146.029 267.104 146.029C267.506 146.029 267.816 145.921 268.034 145.703C268.251 145.479 268.36 145.192 268.36 144.843C268.36 144.381 268.212 144.055 267.915 143.864C267.625 143.666 267.177 143.567 266.57 143.567H266.313V142.637H266.58C267.114 142.631 267.519 142.542 267.796 142.37C268.08 142.199 268.221 141.929 268.221 141.559C268.221 141.243 268.119 140.992 267.915 140.808C267.711 140.617 267.42 140.521 267.045 140.521C266.676 140.521 266.389 140.617 266.184 140.808C265.98 140.992 265.858 141.223 265.818 141.5H264.721ZM271.73 143.161C271.044 142.819 270.701 142.278 270.701 141.54C270.701 141.184 270.79 140.857 270.968 140.561C271.146 140.264 271.413 140.03 271.769 139.859C272.125 139.68 272.56 139.591 273.075 139.591C273.582 139.591 274.014 139.68 274.37 139.859C274.733 140.03 275.003 140.264 275.181 140.561C275.359 140.857 275.448 141.184 275.448 141.54C275.448 141.909 275.352 142.235 275.161 142.519C274.977 142.796 274.729 143.01 274.419 143.161C274.795 143.3 275.092 143.527 275.309 143.844C275.527 144.154 275.636 144.52 275.636 144.941C275.636 145.37 275.527 145.749 275.309 146.079C275.092 146.408 274.789 146.662 274.4 146.84C274.011 147.018 273.569 147.107 273.075 147.107C272.58 147.107 272.138 147.018 271.749 146.84C271.367 146.662 271.067 146.408 270.85 146.079C270.632 145.749 270.523 145.37 270.523 144.941C270.523 144.513 270.632 144.144 270.85 143.834C271.067 143.524 271.36 143.3 271.73 143.161ZM274.37 141.678C274.37 141.309 274.255 141.025 274.024 140.828C273.793 140.63 273.477 140.531 273.075 140.531C272.679 140.531 272.366 140.63 272.135 140.828C271.904 141.025 271.789 141.312 271.789 141.688C271.789 142.018 271.908 142.288 272.145 142.499C272.389 142.703 272.699 142.805 273.075 142.805C273.45 142.805 273.76 142.7 274.004 142.489C274.248 142.278 274.37 142.008 274.37 141.678ZM273.075 143.656C272.639 143.656 272.283 143.765 272.007 143.982C271.736 144.193 271.601 144.5 271.601 144.902C271.601 145.278 271.733 145.584 271.997 145.822C272.26 146.052 272.62 146.168 273.075 146.168C273.523 146.168 273.876 146.049 274.133 145.812C274.396 145.574 274.528 145.271 274.528 144.902C274.528 144.506 274.393 144.2 274.123 143.982C273.859 143.765 273.51 143.656 273.075 143.656ZM276.572 140.749V139.72H278.629V146.929H277.492V140.749H276.572ZM282.322 144.18C282.322 143.633 282.434 143.148 282.658 142.726C282.889 142.304 283.198 141.978 283.587 141.747C283.983 141.51 284.418 141.391 284.893 141.391C285.321 141.391 285.694 141.477 286.01 141.648C286.333 141.813 286.59 142.021 286.782 142.271V141.48H287.919V146.929H286.782V146.118C286.59 146.375 286.33 146.59 286 146.761C285.671 146.932 285.295 147.018 284.873 147.018C284.405 147.018 283.976 146.9 283.587 146.662C283.198 146.418 282.889 146.082 282.658 145.654C282.434 145.218 282.322 144.727 282.322 144.18ZM286.782 144.2C286.782 143.824 286.702 143.498 286.544 143.221C286.393 142.944 286.191 142.733 285.941 142.588C285.69 142.443 285.42 142.37 285.13 142.37C284.84 142.37 284.57 142.443 284.319 142.588C284.069 142.726 283.864 142.934 283.706 143.211C283.554 143.481 283.479 143.804 283.479 144.18C283.479 144.556 283.554 144.885 283.706 145.169C283.864 145.452 284.069 145.67 284.319 145.822C284.576 145.967 284.847 146.039 285.13 146.039C285.42 146.039 285.69 145.967 285.941 145.822C286.191 145.677 286.393 145.466 286.544 145.189C286.702 144.905 286.782 144.576 286.782 144.2ZM294.235 141.48V146.929H293.108V146.286C292.93 146.511 292.696 146.689 292.406 146.82C292.122 146.946 291.819 147.008 291.496 147.008C291.067 147.008 290.682 146.919 290.339 146.741C290.003 146.563 289.736 146.3 289.538 145.95C289.347 145.601 289.251 145.179 289.251 144.684V141.48H290.369V144.516C290.369 145.004 290.491 145.38 290.735 145.644C290.978 145.901 291.311 146.029 291.733 146.029C292.155 146.029 292.488 145.901 292.732 145.644C292.983 145.38 293.108 145.004 293.108 144.516V141.48H294.235ZM296.939 142.4V145.416C296.939 145.621 296.985 145.769 297.078 145.861C297.176 145.947 297.341 145.99 297.572 145.99H298.264V146.929H297.374C296.867 146.929 296.478 146.811 296.207 146.573C295.937 146.336 295.802 145.95 295.802 145.416V142.4H295.159V141.48H295.802V140.126H296.939V141.48H298.264V142.4H296.939ZM301.568 147.018C301.054 147.018 300.589 146.903 300.174 146.672C299.758 146.435 299.432 146.105 299.194 145.683C298.957 145.255 298.838 144.76 298.838 144.2C298.838 143.646 298.96 143.155 299.204 142.726C299.448 142.298 299.781 141.968 300.203 141.737C300.625 141.507 301.097 141.391 301.617 141.391C302.138 141.391 302.61 141.507 303.031 141.737C303.453 141.968 303.786 142.298 304.03 142.726C304.274 143.155 304.396 143.646 304.396 144.2C304.396 144.754 304.271 145.245 304.02 145.673C303.77 146.102 303.427 146.435 302.992 146.672C302.563 146.903 302.089 147.018 301.568 147.018ZM301.568 146.039C301.858 146.039 302.128 145.97 302.379 145.832C302.636 145.693 302.844 145.485 303.002 145.208C303.16 144.932 303.239 144.595 303.239 144.2C303.239 143.804 303.163 143.471 303.012 143.201C302.86 142.924 302.659 142.716 302.408 142.578C302.158 142.44 301.888 142.37 301.598 142.37C301.307 142.37 301.037 142.44 300.787 142.578C300.543 142.716 300.348 142.924 300.203 143.201C300.058 143.471 299.986 143.804 299.986 144.2C299.986 144.787 300.134 145.241 300.431 145.565C300.734 145.881 301.113 146.039 301.568 146.039ZM312.008 141.391C312.436 141.391 312.819 141.48 313.155 141.658C313.498 141.836 313.765 142.1 313.956 142.449C314.154 142.799 314.253 143.221 314.253 143.715V146.929H313.135V143.883C313.135 143.395 313.013 143.023 312.769 142.766C312.525 142.502 312.192 142.37 311.77 142.37C311.348 142.37 311.012 142.502 310.762 142.766C310.518 143.023 310.396 143.395 310.396 143.883V146.929H309.278V143.883C309.278 143.395 309.156 143.023 308.912 142.766C308.669 142.502 308.336 142.37 307.914 142.37C307.492 142.37 307.155 142.502 306.905 142.766C306.661 143.023 306.539 143.395 306.539 143.883V146.929H305.412V141.48H306.539V142.103C306.724 141.879 306.958 141.704 307.241 141.579C307.525 141.454 307.828 141.391 308.151 141.391C308.586 141.391 308.975 141.484 309.318 141.668C309.661 141.853 309.924 142.12 310.109 142.469C310.274 142.14 310.531 141.879 310.88 141.688C311.23 141.49 311.606 141.391 312.008 141.391ZM315.212 144.18C315.212 143.633 315.324 143.148 315.549 142.726C315.779 142.304 316.089 141.978 316.478 141.747C316.874 141.51 317.309 141.391 317.784 141.391C318.212 141.391 318.585 141.477 318.901 141.648C319.224 141.813 319.481 142.021 319.672 142.271V141.48H320.81V146.929H319.672V146.118C319.481 146.375 319.221 146.59 318.891 146.761C318.562 146.932 318.186 147.018 317.764 147.018C317.296 147.018 316.867 146.9 316.478 146.662C316.089 146.418 315.779 146.082 315.549 145.654C315.324 145.218 315.212 144.727 315.212 144.18ZM319.672 144.2C319.672 143.824 319.593 143.498 319.435 143.221C319.283 142.944 319.082 142.733 318.832 142.588C318.581 142.443 318.311 142.37 318.021 142.37C317.731 142.37 317.461 142.443 317.21 142.588C316.959 142.726 316.755 142.934 316.597 143.211C316.445 143.481 316.369 143.804 316.369 144.18C316.369 144.556 316.445 144.885 316.597 145.169C316.755 145.452 316.959 145.67 317.21 145.822C317.467 145.967 317.737 146.039 318.021 146.039C318.311 146.039 318.581 145.967 318.832 145.822C319.082 145.677 319.283 145.466 319.435 145.189C319.593 144.905 319.672 144.576 319.672 144.2ZM323.507 142.4V145.416C323.507 145.621 323.553 145.769 323.645 145.861C323.744 145.947 323.909 145.99 324.14 145.99H324.832V146.929H323.942C323.434 146.929 323.045 146.811 322.775 146.573C322.505 146.336 322.369 145.95 322.369 145.416V142.4H321.727V141.48H322.369V140.126H323.507V141.48H324.832V142.4H323.507ZM330.766 144.071C330.766 144.276 330.753 144.46 330.726 144.625H326.563C326.596 145.06 326.758 145.41 327.048 145.673C327.338 145.937 327.694 146.069 328.116 146.069C328.722 146.069 329.151 145.815 329.401 145.307H330.618C330.453 145.808 330.153 146.22 329.718 146.544C329.289 146.86 328.755 147.018 328.116 147.018C327.595 147.018 327.127 146.903 326.712 146.672C326.303 146.435 325.98 146.105 325.742 145.683C325.512 145.255 325.396 144.76 325.396 144.2C325.396 143.639 325.508 143.148 325.732 142.726C325.963 142.298 326.283 141.968 326.692 141.737C327.107 141.507 327.582 141.391 328.116 141.391C328.63 141.391 329.088 141.503 329.49 141.728C329.892 141.952 330.206 142.268 330.43 142.677C330.654 143.079 330.766 143.544 330.766 144.071ZM329.589 143.715C329.583 143.3 329.434 142.967 329.144 142.716C328.854 142.466 328.495 142.341 328.066 142.341C327.677 142.341 327.344 142.466 327.068 142.716C326.791 142.96 326.626 143.293 326.573 143.715H329.589ZM331.401 144.18C331.401 143.633 331.513 143.148 331.737 142.726C331.968 142.304 332.278 141.978 332.667 141.747C333.062 141.51 333.501 141.391 333.982 141.391C334.338 141.391 334.687 141.47 335.03 141.629C335.379 141.78 335.656 141.985 335.861 142.242V139.611H336.998V146.929H335.861V146.108C335.676 146.372 335.419 146.59 335.089 146.761C334.766 146.932 334.394 147.018 333.972 147.018C333.497 147.018 333.062 146.9 332.667 146.662C332.278 146.418 331.968 146.082 331.737 145.654C331.513 145.218 331.401 144.727 331.401 144.18ZM335.861 144.2C335.861 143.824 335.782 143.498 335.623 143.221C335.472 142.944 335.271 142.733 335.02 142.588C334.77 142.443 334.499 142.37 334.209 142.37C333.919 142.37 333.649 142.443 333.398 142.588C333.148 142.726 332.943 142.934 332.785 143.211C332.634 143.481 332.558 143.804 332.558 144.18C332.558 144.556 332.634 144.885 332.785 145.169C332.943 145.452 333.148 145.67 333.398 145.822C333.655 145.967 333.926 146.039 334.209 146.039C334.499 146.039 334.77 145.967 335.02 145.822C335.271 145.677 335.472 145.466 335.623 145.189C335.782 144.905 335.861 144.576 335.861 144.2ZM339.616 145.574L338.419 148.304H337.688L338.39 145.574H339.616Z" fill="#193F3F"/>
<path opacity="0.5" d="M345.992 145.396C346.625 144.849 347.123 144.401 347.485 144.051C347.855 143.695 348.161 143.326 348.405 142.944C348.649 142.562 348.771 142.179 348.771 141.797C348.771 141.401 348.675 141.091 348.484 140.867C348.3 140.643 348.006 140.531 347.604 140.531C347.215 140.531 346.912 140.656 346.694 140.907C346.483 141.151 346.371 141.48 346.358 141.896H345.27C345.29 141.144 345.514 140.571 345.943 140.175C346.378 139.773 346.928 139.572 347.594 139.572C348.313 139.572 348.873 139.77 349.275 140.165C349.684 140.561 349.889 141.088 349.889 141.747C349.889 142.222 349.767 142.68 349.523 143.122C349.285 143.557 348.999 143.949 348.662 144.299C348.333 144.642 347.911 145.04 347.396 145.495L346.951 145.891H350.086V146.83H345.28V146.01L345.992 145.396ZM350.839 145.426V144.576L354.162 139.809H355.527V144.447H356.446V145.426H355.527V146.929H354.419V145.426H350.839ZM354.469 140.956L352.135 144.447H354.469V140.956ZM357.262 141.5C357.301 140.887 357.536 140.409 357.964 140.066C358.399 139.723 358.953 139.552 359.625 139.552C360.087 139.552 360.486 139.634 360.822 139.799C361.158 139.964 361.412 140.188 361.583 140.472C361.755 140.755 361.841 141.075 361.841 141.431C361.841 141.84 361.732 142.189 361.514 142.479C361.297 142.769 361.036 142.964 360.733 143.063V143.102C361.122 143.221 361.425 143.438 361.643 143.755C361.86 144.065 361.969 144.464 361.969 144.951C361.969 145.34 361.88 145.686 361.702 145.99C361.524 146.293 361.26 146.534 360.911 146.712C360.562 146.883 360.143 146.969 359.655 146.969C358.943 146.969 358.356 146.787 357.895 146.425C357.44 146.056 357.196 145.528 357.163 144.843H358.251C358.277 145.192 358.412 145.479 358.656 145.703C358.9 145.921 359.23 146.029 359.645 146.029C360.047 146.029 360.357 145.921 360.575 145.703C360.792 145.479 360.901 145.192 360.901 144.843C360.901 144.381 360.753 144.055 360.456 143.864C360.166 143.666 359.718 143.567 359.111 143.567H358.854V142.637H359.121C359.655 142.631 360.061 142.542 360.337 142.37C360.621 142.199 360.763 141.929 360.763 141.559C360.763 141.243 360.66 140.992 360.456 140.808C360.252 140.617 359.962 140.521 359.586 140.521C359.217 140.521 358.93 140.617 358.726 140.808C358.521 140.992 358.399 141.223 358.36 141.5H357.262ZM364.459 144.971C364.525 145.301 364.666 145.551 364.884 145.723C365.102 145.894 365.395 145.98 365.764 145.98C366.232 145.98 366.575 145.795 366.793 145.426C367.01 145.057 367.119 144.427 367.119 143.537C366.961 143.761 366.737 143.936 366.446 144.061C366.163 144.18 365.853 144.239 365.517 144.239C365.088 144.239 364.699 144.154 364.35 143.982C364.001 143.804 363.724 143.544 363.519 143.201C363.321 142.852 363.223 142.43 363.223 141.935C363.223 141.21 363.434 140.633 363.855 140.205C364.284 139.77 364.871 139.552 365.616 139.552C366.512 139.552 367.149 139.852 367.524 140.452C367.907 141.045 368.098 141.958 368.098 143.191C368.098 144.042 368.025 144.737 367.88 145.278C367.742 145.818 367.498 146.227 367.149 146.504C366.799 146.781 366.315 146.919 365.695 146.919C364.989 146.919 364.446 146.735 364.063 146.366C363.681 145.996 363.467 145.532 363.42 144.971H364.459ZM365.715 143.29C366.11 143.29 366.42 143.168 366.644 142.924C366.875 142.674 366.99 142.344 366.99 141.935C366.99 141.48 366.868 141.128 366.624 140.877C366.387 140.62 366.061 140.491 365.645 140.491C365.23 140.491 364.9 140.623 364.656 140.887C364.419 141.144 364.3 141.484 364.3 141.906C364.3 142.308 364.416 142.641 364.647 142.904C364.884 143.161 365.24 143.29 365.715 143.29ZM378.447 141.391C378.876 141.391 379.258 141.48 379.594 141.658C379.937 141.836 380.204 142.1 380.395 142.449C380.593 142.799 380.692 143.221 380.692 143.715V146.929H379.574V143.883C379.574 143.395 379.453 143.023 379.209 142.766C378.965 142.502 378.632 142.37 378.21 142.37C377.788 142.37 377.452 142.502 377.201 142.766C376.957 143.023 376.835 143.395 376.835 143.883V146.929H375.718V143.883C375.718 143.395 375.596 143.023 375.352 142.766C375.108 142.502 374.775 142.37 374.353 142.37C373.931 142.37 373.595 142.502 373.344 142.766C373.1 143.023 372.978 143.395 372.978 143.883V146.929H371.851V141.48H372.978V142.103C373.163 141.879 373.397 141.704 373.681 141.579C373.964 141.454 374.267 141.391 374.59 141.391C375.026 141.391 375.414 141.484 375.757 141.668C376.1 141.853 376.364 142.12 376.548 142.469C376.713 142.14 376.97 141.879 377.32 141.688C377.669 141.49 378.045 141.391 378.447 141.391ZM381.652 144.18C381.652 143.633 381.764 143.148 381.988 142.726C382.219 142.304 382.529 141.978 382.918 141.747C383.313 141.51 383.748 141.391 384.223 141.391C384.652 141.391 385.024 141.477 385.34 141.648C385.663 141.813 385.921 142.021 386.112 142.271V141.48H387.249V146.929H386.112V146.118C385.921 146.375 385.66 146.59 385.331 146.761C385.001 146.932 384.625 147.018 384.203 147.018C383.735 147.018 383.307 146.9 382.918 146.662C382.529 146.418 382.219 146.082 381.988 145.654C381.764 145.218 381.652 144.727 381.652 144.18ZM386.112 144.2C386.112 143.824 386.033 143.498 385.874 143.221C385.723 142.944 385.522 142.733 385.271 142.588C385.021 142.443 384.75 142.37 384.46 142.37C384.17 142.37 383.9 142.443 383.649 142.588C383.399 142.726 383.195 142.934 383.036 143.211C382.885 143.481 382.809 143.804 382.809 144.18C382.809 144.556 382.885 144.885 383.036 145.169C383.195 145.452 383.399 145.67 383.649 145.822C383.907 145.967 384.177 146.039 384.46 146.039C384.75 146.039 385.021 145.967 385.271 145.822C385.522 145.677 385.723 145.466 385.874 145.189C386.033 144.905 386.112 144.576 386.112 144.2ZM391.38 141.391C391.809 141.391 392.191 141.48 392.527 141.658C392.87 141.836 393.137 142.1 393.328 142.449C393.519 142.799 393.615 143.221 393.615 143.715V146.929H392.498V143.883C392.498 143.395 392.376 143.023 392.132 142.766C391.888 142.502 391.555 142.37 391.133 142.37C390.711 142.37 390.375 142.502 390.124 142.766C389.88 143.023 389.758 143.395 389.758 143.883V146.929H388.631V141.48H389.758V142.103C389.943 141.879 390.177 141.704 390.46 141.579C390.75 141.454 391.057 141.391 391.38 141.391ZM399.889 141.48V146.929H398.761V146.286C398.583 146.511 398.349 146.689 398.059 146.82C397.776 146.946 397.473 147.008 397.149 147.008C396.721 147.008 396.335 146.919 395.992 146.741C395.656 146.563 395.389 146.3 395.191 145.95C395 145.601 394.905 145.179 394.905 144.684V141.48H396.022V144.516C396.022 145.004 396.144 145.38 396.388 145.644C396.632 145.901 396.965 146.029 397.387 146.029C397.809 146.029 398.142 145.901 398.386 145.644C398.636 145.38 398.761 145.004 398.761 144.516V141.48H399.889ZM400.902 144.18C400.902 143.633 401.014 143.148 401.238 142.726C401.469 142.304 401.778 141.978 402.167 141.747C402.563 141.51 402.998 141.391 403.473 141.391C403.901 141.391 404.274 141.477 404.59 141.648C404.913 141.813 405.17 142.021 405.362 142.271V141.48H406.499V146.929H405.362V146.118C405.17 146.375 404.91 146.59 404.58 146.761C404.251 146.932 403.875 147.018 403.453 147.018C402.985 147.018 402.556 146.9 402.167 146.662C401.778 146.418 401.469 146.082 401.238 145.654C401.014 145.218 400.902 144.727 400.902 144.18ZM405.362 144.2C405.362 143.824 405.282 143.498 405.124 143.221C404.973 142.944 404.771 142.733 404.521 142.588C404.27 142.443 404 142.37 403.71 142.37C403.42 142.37 403.15 142.443 402.899 142.588C402.649 142.726 402.444 142.934 402.286 143.211C402.134 143.481 402.059 143.804 402.059 144.18C402.059 144.556 402.134 144.885 402.286 145.169C402.444 145.452 402.649 145.67 402.899 145.822C403.156 145.967 403.427 146.039 403.71 146.039C404 146.039 404.27 145.967 404.521 145.822C404.771 145.677 404.973 145.466 405.124 145.189C405.282 144.905 405.362 144.576 405.362 144.2ZM409.008 139.611V146.929H407.881V139.611H409.008Z" fill="#193F3F"/>
<defs>
<clipPath id="clip0_1114_4362">
<rect width="13.1851" height="13.1851" fill="white" transform="translate(17.2397 106.074)"/>
</clipPath>
</defs>
</svg>
