<svg width="495" height="222" viewBox="0 0 495 222" fill="none" xmlns="http://www.w3.org/2000/svg">
<circle cx="248" cy="111" r="110" stroke="#66DD95" stroke-width="2"/>
<circle cx="248" cy="111" r="92.2708" stroke="#66DD95" stroke-width="2"/>
<circle cx="248" cy="111" r="74.5417" stroke="#66DD95" stroke-width="2"/>
<rect x="0.758301" y="22.5935" width="234.035" height="135.147" rx="6.59255" fill="white"/>
<path d="M22.4214 41.7948V42.7144H20.592V48.6675H19.4647V42.7144H17.6253V41.7948H22.4214ZM25.8277 48.7565C25.3134 48.7565 24.8487 48.6411 24.4333 48.4104C24.018 48.173 23.6917 47.8434 23.4543 47.4215C23.217 46.993 23.0983 46.4985 23.0983 45.9382C23.0983 45.3844 23.2203 44.8932 23.4642 44.4647C23.7082 44.0362 24.0411 43.7066 24.463 43.4759C24.8849 43.2451 25.3563 43.1297 25.8771 43.1297C26.3979 43.1297 26.8693 43.2451 27.2912 43.4759C27.7131 43.7066 28.0461 44.0362 28.29 44.4647C28.5339 44.8932 28.6559 45.3844 28.6559 45.9382C28.6559 46.4919 28.5306 46.9831 28.2801 47.4116C28.0296 47.8401 27.6868 48.173 27.2516 48.4104C26.8231 48.6411 26.3485 48.7565 25.8277 48.7565ZM25.8277 47.7775C26.1177 47.7775 26.388 47.7083 26.6385 47.5698C26.8957 47.4314 27.1033 47.2237 27.2615 46.9468C27.4198 46.6699 27.4989 46.3337 27.4989 45.9382C27.4989 45.5426 27.4231 45.2097 27.2714 44.9394C27.1198 44.6625 26.9187 44.4548 26.6682 44.3164C26.4177 44.178 26.1474 44.1087 25.8573 44.1087C25.5673 44.1087 25.297 44.178 25.0464 44.3164C24.8025 44.4548 24.608 44.6625 24.463 44.9394C24.318 45.2097 24.2454 45.5426 24.2454 45.9382C24.2454 46.5249 24.3938 46.9798 24.6904 47.3028C24.9937 47.6193 25.3728 47.7775 25.8277 47.7775ZM30.9866 44.1384V47.1545C30.9866 47.3589 31.0328 47.5072 31.1251 47.5995C31.2239 47.6852 31.3888 47.728 31.6195 47.728H32.3117V48.6675H31.4217C30.9141 48.6675 30.5251 48.5488 30.2548 48.3115C29.9845 48.0742 29.8494 47.6885 29.8494 47.1545V44.1384H29.2066V43.2187H29.8494V41.864H30.9866V43.2187H32.3117V44.1384H30.9866ZM32.8761 45.9184C32.8761 45.3712 32.9881 44.8867 33.2123 44.4647C33.443 44.0428 33.7529 43.7165 34.1418 43.4857C34.5374 43.2484 34.9725 43.1297 35.4472 43.1297C35.8757 43.1297 36.2482 43.2154 36.5646 43.3869C36.8876 43.5517 37.1447 43.7593 37.3359 44.0098V43.2187H38.4731V48.6675H37.3359V47.8566C37.1447 48.1137 36.8843 48.328 36.5547 48.4994C36.2251 48.6708 35.8493 48.7565 35.4274 48.7565C34.9593 48.7565 34.5308 48.6378 34.1418 48.4005C33.7529 48.1566 33.443 47.8203 33.2123 47.3918C32.9881 46.9567 32.8761 46.4656 32.8761 45.9184ZM37.3359 45.9382C37.3359 45.5624 37.2568 45.2361 37.0986 44.9592C36.947 44.6823 36.7459 44.4713 36.4954 44.3263C36.2449 44.1813 35.9746 44.1087 35.6845 44.1087C35.3944 44.1087 35.1241 44.1813 34.8736 44.3263C34.6231 44.4647 34.4187 44.6724 34.2605 44.9493C34.1089 45.2196 34.0331 45.5426 34.0331 45.9184C34.0331 46.2942 34.1089 46.6238 34.2605 46.9073C34.4187 47.1908 34.6231 47.4083 34.8736 47.5599C35.1307 47.705 35.401 47.7775 35.6845 47.7775C35.9746 47.7775 36.2449 47.705 36.4954 47.5599C36.7459 47.4149 36.947 47.2039 37.0986 46.927C37.2568 46.6436 37.3359 46.3139 37.3359 45.9382ZM40.9823 41.3498V48.6675H39.8549V41.3498H40.9823ZM47.0979 48.7367C46.6364 48.7367 46.2211 48.6576 45.8519 48.4994C45.4827 48.3346 45.1926 48.1038 44.9817 47.8072C44.7707 47.5105 44.6652 47.1644 44.6652 46.7688H45.8717C45.898 47.0655 46.0134 47.3094 46.2178 47.5006C46.4287 47.6918 46.7221 47.7874 47.0979 47.7874C47.4868 47.7874 47.7901 47.6951 48.0077 47.5105C48.2252 47.3193 48.334 47.0754 48.334 46.7787C48.334 46.548 48.2648 46.3601 48.1263 46.2151C47.9945 46.07 47.8264 45.9579 47.622 45.8788C47.4242 45.7997 47.1473 45.714 46.7913 45.6217C46.343 45.5031 45.9772 45.3844 45.6937 45.2657C45.4168 45.1405 45.1795 44.9493 44.9817 44.6922C44.7839 44.4351 44.685 44.0923 44.685 43.6637C44.685 43.2682 44.7839 42.9221 44.9817 42.6254C45.1795 42.3287 45.4563 42.1013 45.8123 41.9431C46.1683 41.7849 46.5804 41.7058 47.0484 41.7058C47.7143 41.7058 48.2582 41.8739 48.6801 42.2101C49.1086 42.5397 49.3459 42.9946 49.3921 43.5747H48.1461C48.1263 43.3242 48.0077 43.11 47.7901 42.932C47.5726 42.754 47.2858 42.665 46.9298 42.665C46.6067 42.665 46.343 42.7474 46.1387 42.9122C45.9343 43.077 45.8321 43.3143 45.8321 43.6242C45.8321 43.8351 45.8947 44.0098 46.02 44.1483C46.1519 44.2801 46.3167 44.3856 46.5144 44.4647C46.7122 44.5438 46.9825 44.6295 47.3253 44.7218C47.7802 44.8471 48.1494 44.9724 48.4329 45.0976C48.723 45.2229 48.9669 45.4174 49.1647 45.6811C49.369 45.9382 49.4712 46.2843 49.4712 46.7194C49.4712 47.0688 49.3756 47.3984 49.1844 47.7083C48.9998 48.0181 48.7262 48.2686 48.3637 48.4598C48.0077 48.6444 47.5857 48.7367 47.0979 48.7367ZM51.8298 44.0197C52.021 43.7692 52.2814 43.5583 52.6111 43.3869C52.9407 43.2154 53.3132 43.1297 53.7285 43.1297C54.2032 43.1297 54.635 43.2484 55.0239 43.4857C55.4195 43.7165 55.7293 44.0428 55.9535 44.4647C56.1776 44.8867 56.2897 45.3712 56.2897 45.9184C56.2897 46.4656 56.1776 46.9567 55.9535 47.3918C55.7293 47.8203 55.4195 48.1566 55.0239 48.4005C54.635 48.6378 54.2032 48.7565 53.7285 48.7565C53.3132 48.7565 52.944 48.6741 52.6209 48.5093C52.2979 48.3379 52.0342 48.1269 51.8298 47.8764V51.2584H50.7025V43.2187H51.8298V44.0197ZM55.1426 45.9184C55.1426 45.5426 55.0635 45.2196 54.9053 44.9493C54.7536 44.6724 54.5493 44.4647 54.2922 44.3263C54.0416 44.1813 53.7713 44.1087 53.4813 44.1087C53.1978 44.1087 52.9275 44.1813 52.6704 44.3263C52.4199 44.4713 52.2155 44.6823 52.0573 44.9592C51.9057 45.2361 51.8298 45.5624 51.8298 45.9382C51.8298 46.3139 51.9057 46.6436 52.0573 46.927C52.2155 47.2039 52.4199 47.4149 52.6704 47.5599C52.9275 47.705 53.1978 47.7775 53.4813 47.7775C53.7713 47.7775 54.0416 47.705 54.2922 47.5599C54.5493 47.4083 54.7536 47.1908 54.9053 46.9073C55.0635 46.6238 55.1426 46.2942 55.1426 45.9184ZM62.2995 45.8096C62.2995 46.014 62.2863 46.1986 62.2599 46.3634H58.0967C58.1297 46.7985 58.2912 47.1479 58.5813 47.4116C58.8714 47.6753 59.2273 47.8072 59.6493 47.8072C60.2558 47.8072 60.6843 47.5533 60.9348 47.0457H62.1511C61.9863 47.5467 61.6864 47.9588 61.2513 48.2818C60.8227 48.5983 60.2887 48.7565 59.6493 48.7565C59.1285 48.7565 58.6604 48.6411 58.2451 48.4104C57.8363 48.173 57.5133 47.8434 57.276 47.4215C57.0452 46.993 56.9298 46.4985 56.9298 45.9382C56.9298 45.3778 57.0419 44.8867 57.2661 44.4647C57.4968 44.0362 57.8165 43.7066 58.2253 43.4759C58.6406 43.2451 59.1153 43.1297 59.6493 43.1297C60.1635 43.1297 60.6217 43.2418 61.0238 43.466C61.426 43.6901 61.7391 44.0066 61.9633 44.4153C62.1874 44.8174 62.2995 45.2822 62.2995 45.8096ZM61.1227 45.4536C61.1161 45.0383 60.9678 44.7054 60.6777 44.4548C60.3876 44.2043 60.0283 44.0791 59.5998 44.0791C59.2109 44.0791 58.8779 44.2043 58.6011 44.4548C58.3242 44.6988 58.1594 45.0317 58.1066 45.4536H61.1227ZM66.0591 43.1297C66.4876 43.1297 66.87 43.2187 67.2062 43.3967C67.549 43.5747 67.816 43.8384 68.0072 44.1878C68.1984 44.5373 68.294 44.9592 68.294 45.4536V48.6675H67.1765V45.6217C67.1765 45.1339 67.0546 44.7614 66.8106 44.5043C66.5667 44.2406 66.2338 44.1087 65.8119 44.1087C65.3899 44.1087 65.0537 44.2406 64.8032 44.5043C64.5593 44.7614 64.4373 45.1339 64.4373 45.6217V48.6675H63.31V43.2187H64.4373V43.8417C64.6219 43.6176 64.8559 43.4429 65.1394 43.3176C65.4295 43.1924 65.736 43.1297 66.0591 43.1297ZM70.9483 44.1384V47.1545C70.9483 47.3589 70.9944 47.5072 71.0867 47.5995C71.1856 47.6852 71.3504 47.728 71.5811 47.728H72.2734V48.6675H71.3834C70.8757 48.6675 70.4868 48.5488 70.2165 48.3115C69.9462 48.0742 69.811 47.6885 69.811 47.1545V44.1384H69.1683V43.2187H69.811V41.864H70.9483V43.2187H72.2734V44.1384H70.9483Z" fill="#193F3F"/>
<path d="M208.973 45.6676C208.973 46.2744 208.481 46.7664 207.874 46.7664C207.267 46.7664 206.775 46.2744 206.775 45.6676C206.775 45.0608 207.267 44.5688 207.874 44.5688C208.481 44.5688 208.973 45.0608 208.973 45.6676Z" fill="#193F3F"/>
<path d="M212.818 45.6676C212.818 46.2744 212.327 46.7664 211.72 46.7664C211.113 46.7664 210.621 46.2744 210.621 45.6676C210.621 45.0608 211.113 44.5688 211.72 44.5688C212.327 44.5688 212.818 45.0608 212.818 45.6676Z" fill="#193F3F"/>
<path d="M216.664 45.6676C216.664 46.2744 216.172 46.7664 215.565 46.7664C214.959 46.7664 214.467 46.2744 214.467 45.6676C214.467 45.0608 214.959 44.5688 215.565 44.5688C216.172 44.5688 216.664 45.0608 216.664 45.6676Z" fill="#193F3F"/>
<path d="M31.5851 105.668C31.5851 106.547 31.3653 107.373 30.9258 108.147C30.5039 108.92 29.871 109.571 29.0272 110.098C28.2009 110.625 27.2164 110.942 26.0737 111.047V113.183H24.3596V111.047C22.7071 110.889 21.371 110.371 20.3514 109.492C19.3317 108.613 18.8219 107.452 18.8219 106.011H22.0391C22.0918 106.696 22.3115 107.268 22.6983 107.725C23.0851 108.164 23.6388 108.446 24.3596 108.569V102.767C23.1818 102.468 22.2236 102.169 21.4853 101.871C20.7469 101.554 20.114 101.062 19.5866 100.394C19.0768 99.7258 18.8219 98.8116 18.8219 97.6513C18.8219 96.1922 19.3317 94.9879 20.3514 94.0386C21.371 93.0717 22.7071 92.5091 24.3596 92.3509V90.2149H26.0737V92.3509C27.6207 92.4916 28.8601 92.9838 29.7919 93.8277C30.7412 94.6539 31.2774 95.7966 31.4005 97.2558H28.1833C28.1306 96.7108 27.9196 96.2273 27.5504 95.8054C27.1812 95.3659 26.689 95.0671 26.0737 94.9088V100.605C27.2516 100.886 28.2097 101.185 28.948 101.501C29.6864 101.8 30.3105 102.284 30.8203 102.952C31.3302 103.602 31.5851 104.508 31.5851 105.668ZM21.8808 97.4931C21.8808 98.2139 22.0918 98.7765 22.5137 99.1808C22.9532 99.5851 23.5685 99.9104 24.3596 100.156V94.8297C23.6037 94.9176 22.9972 95.1901 22.5401 95.6472C22.1006 96.1043 21.8808 96.7196 21.8808 97.4931ZM26.0737 108.569C26.8472 108.446 27.4537 108.138 27.8932 107.646C28.3327 107.136 28.5525 106.529 28.5525 105.826C28.5525 105.123 28.3327 104.578 27.8932 104.191C27.4713 103.787 26.8648 103.462 26.0737 103.215V108.569ZM35.3136 94.4078V91.6653H40.7986V110.889H37.766V94.4078H35.3136ZM44.6647 101.027C44.6647 97.9854 45.1745 95.612 46.1941 93.9068C47.2314 92.1839 49.007 91.3225 51.5209 91.3225C54.0349 91.3225 55.8017 92.1839 56.8213 93.9068C57.8586 95.612 58.3772 97.9854 58.3772 101.027C58.3772 104.103 57.8586 106.512 56.8213 108.252C55.8017 109.975 54.0349 110.836 51.5209 110.836C49.007 110.836 47.2314 109.975 46.1941 108.252C45.1745 106.512 44.6647 104.103 44.6647 101.027ZM55.4237 101.027C55.4237 99.6027 55.327 98.3985 55.1336 97.414C54.9578 96.4295 54.5886 95.6296 54.0261 95.0143C53.4635 94.3814 52.6285 94.065 51.5209 94.065C50.4134 94.065 49.5783 94.3814 49.0158 95.0143C48.4532 95.6296 48.0752 96.4295 47.8818 97.414C47.706 98.3985 47.6181 99.6027 47.6181 101.027C47.6181 102.503 47.706 103.743 47.8818 104.745C48.0576 105.747 48.4268 106.556 48.9894 107.171C49.5695 107.786 50.4134 108.094 51.5209 108.094C52.6285 108.094 53.4635 107.786 54.0261 107.171C54.6062 106.556 54.9842 105.747 55.16 104.745C55.3358 103.743 55.4237 102.503 55.4237 101.027ZM62.9029 111.074C62.358 111.074 61.9009 110.889 61.5317 110.52C61.1625 110.151 60.9779 109.694 60.9779 109.149C60.9779 108.604 61.1625 108.147 61.5317 107.777C61.9009 107.408 62.358 107.224 62.9029 107.224C63.4303 107.224 63.8786 107.408 64.2478 107.777C64.617 108.147 64.8016 108.604 64.8016 109.149C64.8016 109.694 64.617 110.151 64.2478 110.52C63.8786 110.889 63.4303 111.074 62.9029 111.074ZM69.0528 106.802C70.7405 105.343 72.0678 104.147 73.0347 103.215C74.0191 102.266 74.8366 101.282 75.4871 100.262C76.1376 99.2423 76.4628 98.2227 76.4628 97.203C76.4628 96.1482 76.2079 95.322 75.698 94.7242C75.2058 94.1265 74.4235 93.8277 73.3511 93.8277C72.3139 93.8277 71.5052 94.1617 70.925 94.8297C70.3625 95.4802 70.0636 96.3592 70.0285 97.4667H67.1277C67.1805 95.4626 67.7782 93.9331 68.9209 92.8783C70.0812 91.8059 71.5491 91.2697 73.3247 91.2697C75.241 91.2697 76.7353 91.7971 77.8077 92.852C78.8976 93.9068 79.4426 95.3132 79.4426 97.0712C79.4426 98.337 79.1174 99.5588 78.4669 100.737C77.834 101.897 77.0693 102.943 76.1727 103.875C75.2937 104.789 74.1686 105.852 72.7973 107.065L71.6107 108.12H79.97V110.625H67.1541V108.437L69.0528 106.802ZM94.7412 94.2496H85.9072V99.4972C86.2764 99.005 86.8214 98.5919 87.5422 98.2578C88.2805 97.9238 89.0629 97.7568 89.8891 97.7568C91.3659 97.7568 92.5613 98.0733 93.4755 98.7061C94.4072 99.339 95.0665 100.139 95.4532 101.106C95.8576 102.073 96.0597 103.092 96.0597 104.165C96.0597 105.466 95.8048 106.626 95.295 107.646C94.8028 108.648 94.0556 109.439 93.0535 110.019C92.0691 110.599 90.856 110.889 89.4145 110.889C87.4982 110.889 85.96 110.414 84.7997 109.465C83.6394 108.516 82.945 107.259 82.7164 105.694H85.6435C85.8369 106.521 86.2676 107.18 86.9357 107.672C87.6037 108.147 88.4388 108.384 89.4408 108.384C90.689 108.384 91.6208 108.006 92.2361 107.25C92.869 106.494 93.1854 105.492 93.1854 104.244C93.1854 102.978 92.869 102.011 92.2361 101.343C91.6032 100.658 90.6714 100.315 89.4408 100.315C88.5794 100.315 87.8498 100.534 87.2521 100.974C86.672 101.396 86.25 101.976 85.9863 102.714H83.1384V91.6126H94.7412V94.2496Z" fill="#193F3F"/>
<g clip-path="url(#clip0_1602_3890)">
<path opacity="0.5" d="M29.326 133.843V134.667C29.326 137.257 29.326 138.552 28.5215 139.356C27.7169 140.161 26.422 140.161 23.8322 140.161C21.2424 140.161 19.9475 140.161 19.143 139.356C18.3384 138.552 18.3384 137.257 18.3384 134.667C18.3384 132.077 18.3384 130.782 19.143 129.978C19.9475 129.173 21.2424 129.173 23.8322 129.173H24.6563" stroke="#193F3F" stroke-width="0.824068" stroke-linecap="round"/>
<circle cx="27.6779" cy="130.821" r="1.64814" stroke="#193F3F" stroke-width="0.824068"/>
<path d="M21.0853 135.766L22.345 134.506C22.5595 134.291 22.9074 134.291 23.1219 134.506L23.9931 135.377C24.2077 135.592 24.5555 135.592 24.7701 135.377L26.5791 133.568M26.5791 133.568V134.942M26.5791 133.568H25.2057" stroke="#193F3F" stroke-width="0.824068" stroke-linecap="round" stroke-linejoin="round"/>
</g>
<path d="M36.9976 133.612V134.562H32.9333V133.612H36.9976ZM42.9997 131.427H39.6869V133.395C39.8254 133.21 40.0298 133.055 40.3 132.93C40.5769 132.805 40.8703 132.742 41.1802 132.742C41.7339 132.742 42.1822 132.861 42.525 133.098C42.8744 133.335 43.1217 133.635 43.2667 133.998C43.4183 134.361 43.4941 134.743 43.4941 135.145C43.4941 135.633 43.3985 136.068 43.2074 136.45C43.0228 136.826 42.7426 137.123 42.3668 137.34C41.9976 137.558 41.5427 137.667 41.0022 137.667C40.2836 137.667 39.7067 137.489 39.2716 137.133C38.8365 136.777 38.5761 136.305 38.4904 135.719H39.5881C39.6606 136.029 39.8221 136.276 40.0726 136.46C40.3231 136.638 40.6363 136.727 41.012 136.727C41.4801 136.727 41.8295 136.586 42.0603 136.302C42.2976 136.019 42.4163 135.643 42.4163 135.175C42.4163 134.7 42.2976 134.338 42.0603 134.087C41.8229 133.83 41.4735 133.701 41.012 133.701C40.689 133.701 40.4154 133.784 40.1913 133.949C39.9737 134.107 39.8155 134.324 39.7166 134.601H38.6486V130.438H42.9997V131.427ZM44.3908 132.198C44.3908 131.717 44.5292 131.341 44.8061 131.071C45.0896 130.794 45.4522 130.656 45.8939 130.656C46.3356 130.656 46.6949 130.794 46.9718 131.071C47.2552 131.341 47.397 131.717 47.397 132.198C47.397 132.679 47.2552 133.059 46.9718 133.335C46.6949 133.612 46.3356 133.751 45.8939 133.751C45.4522 133.751 45.0896 133.612 44.8061 133.335C44.5292 133.059 44.3908 132.679 44.3908 132.198ZM50.423 130.784L46.4773 137.667H45.3698L49.3154 130.784H50.423ZM45.8939 131.338C45.4785 131.338 45.2709 131.625 45.2709 132.198C45.2709 132.778 45.4785 133.068 45.8939 133.068C46.0916 133.068 46.2433 132.999 46.3488 132.861C46.4608 132.716 46.5169 132.495 46.5169 132.198C46.5169 131.625 46.3092 131.338 45.8939 131.338ZM48.4155 136.243C48.4155 135.762 48.554 135.386 48.8309 135.115C49.1143 134.839 49.4769 134.7 49.9186 134.7C50.3537 134.7 50.7097 134.839 50.9866 135.115C51.2701 135.386 51.4118 135.762 51.4118 136.243C51.4118 136.724 51.2701 137.103 50.9866 137.38C50.7097 137.657 50.3537 137.795 49.9186 137.795C49.4769 137.795 49.1143 137.657 48.8309 137.38C48.554 137.103 48.4155 136.724 48.4155 136.243ZM49.9087 135.382C49.4934 135.382 49.2857 135.669 49.2857 136.243C49.2857 136.816 49.4934 137.103 49.9087 137.103C50.3241 137.103 50.5317 136.816 50.5317 136.243C50.5317 135.669 50.3241 135.382 49.9087 135.382Z" fill="#193F3F"/>
<path opacity="0.5" d="M56.569 136.658L58.1117 132.218H59.3083L57.2316 137.667H55.8867L53.82 132.218H55.0264L56.569 136.658ZM62.0393 137.756C61.6107 137.756 61.2251 137.68 60.8823 137.528C60.5461 137.37 60.2791 137.159 60.0813 136.895C59.8835 136.625 59.778 136.325 59.7648 135.996H60.9317C60.9515 136.226 61.0603 136.421 61.258 136.579C61.4624 136.731 61.7162 136.806 62.0195 136.806C62.3359 136.806 62.5799 136.747 62.7513 136.628C62.9293 136.503 63.0183 136.345 63.0183 136.154C63.0183 135.949 62.9194 135.798 62.7216 135.699C62.5304 135.6 62.2239 135.491 61.8019 135.373C61.3932 135.26 61.0603 135.152 60.8032 135.046C60.5461 134.941 60.3219 134.779 60.1307 134.562C59.9461 134.344 59.8538 134.057 59.8538 133.701C59.8538 133.411 59.9395 133.148 60.1109 132.91C60.2824 132.666 60.5263 132.475 60.8427 132.337C61.1658 132.198 61.5349 132.129 61.9503 132.129C62.57 132.129 63.0677 132.287 63.4435 132.604C63.8258 132.914 64.0302 133.339 64.0566 133.879H62.9293C62.9095 133.635 62.8106 133.441 62.6326 133.296C62.4546 133.151 62.214 133.078 61.9107 133.078C61.614 133.078 61.3866 133.134 61.2284 133.246C61.0702 133.359 60.991 133.507 60.991 133.691C60.991 133.836 61.0438 133.958 61.1493 134.057C61.2548 134.156 61.3833 134.235 61.5349 134.295C61.6866 134.347 61.9107 134.417 62.2074 134.502C62.6029 134.608 62.926 134.717 63.1765 134.829C63.4336 134.934 63.6544 135.092 63.839 135.303C64.0236 135.514 64.1192 135.794 64.1258 136.144C64.1258 136.454 64.0401 136.731 63.8687 136.975C63.6973 137.218 63.4534 137.41 63.1369 137.548C62.8271 137.687 62.4612 137.756 62.0393 137.756ZM68.8422 130.349V137.667H67.7149V130.349H68.8422ZM69.8476 134.918C69.8476 134.37 69.9597 133.886 70.1839 133.464C70.4146 133.042 70.7245 132.716 71.1134 132.485C71.509 132.248 71.9441 132.129 72.4187 132.129C72.8473 132.129 73.2197 132.215 73.5362 132.386C73.8592 132.551 74.1163 132.759 74.3075 133.009V132.218H75.4447V137.667H74.3075V136.856C74.1163 137.113 73.8559 137.327 73.5263 137.499C73.1967 137.67 72.8209 137.756 72.399 137.756C71.9309 137.756 71.5024 137.637 71.1134 137.4C70.7245 137.156 70.4146 136.82 70.1839 136.391C69.9597 135.956 69.8476 135.465 69.8476 134.918ZM74.3075 134.937C74.3075 134.562 74.2284 134.235 74.0702 133.958C73.9185 133.682 73.7175 133.471 73.467 133.326C73.2164 133.181 72.9461 133.108 72.6561 133.108C72.366 133.108 72.0957 133.181 71.8452 133.326C71.5947 133.464 71.3903 133.672 71.2321 133.949C71.0805 134.219 71.0046 134.542 71.0046 134.918C71.0046 135.293 71.0805 135.623 71.2321 135.907C71.3903 136.19 71.5947 136.408 71.8452 136.559C72.1023 136.704 72.3726 136.777 72.6561 136.777C72.9461 136.777 73.2164 136.704 73.467 136.559C73.7175 136.414 73.9185 136.203 74.0702 135.926C74.2284 135.643 74.3075 135.313 74.3075 134.937ZM78.8043 137.756C78.3758 137.756 77.9901 137.68 77.6473 137.528C77.3111 137.37 77.0441 137.159 76.8463 136.895C76.6485 136.625 76.543 136.325 76.5299 135.996H77.6967C77.7165 136.226 77.8253 136.421 78.0231 136.579C78.2274 136.731 78.4813 136.806 78.7845 136.806C79.101 136.806 79.3449 136.747 79.5163 136.628C79.6943 136.503 79.7833 136.345 79.7833 136.154C79.7833 135.949 79.6844 135.798 79.4866 135.699C79.2954 135.6 78.9889 135.491 78.567 135.373C78.1582 135.26 77.8253 135.152 77.5682 135.046C77.3111 134.941 77.0869 134.779 76.8957 134.562C76.7112 134.344 76.6189 134.057 76.6189 133.701C76.6189 133.411 76.7046 133.148 76.876 132.91C77.0474 132.666 77.2913 132.475 77.6077 132.337C77.9308 132.198 78.3 132.129 78.7153 132.129C79.335 132.129 79.8327 132.287 80.2085 132.604C80.5909 132.914 80.7952 133.339 80.8216 133.879H79.6943C79.6745 133.635 79.5756 133.441 79.3976 133.296C79.2196 133.151 78.979 133.078 78.6757 133.078C78.3791 133.078 78.1516 133.134 77.9934 133.246C77.8352 133.359 77.7561 133.507 77.7561 133.691C77.7561 133.836 77.8088 133.958 77.9143 134.057C78.0198 134.156 78.1483 134.235 78.3 134.295C78.4516 134.347 78.6757 134.417 78.9724 134.502C79.3679 134.608 79.691 134.717 79.9415 134.829C80.1986 134.934 80.4195 135.092 80.6041 135.303C80.7886 135.514 80.8842 135.794 80.8908 136.144C80.8908 136.454 80.8051 136.731 80.6337 136.975C80.4623 137.218 80.2184 137.41 79.9019 137.548C79.5921 137.687 79.2262 137.756 78.8043 137.756ZM83.3253 133.138V136.154C83.3253 136.358 83.3714 136.506 83.4637 136.599C83.5626 136.684 83.7274 136.727 83.9581 136.727H84.6504V137.667H83.7604C83.2527 137.667 82.8638 137.548 82.5935 137.311C82.3232 137.073 82.188 136.688 82.188 136.154V133.138H81.5453V132.218H82.188V130.863H83.3253V132.218H84.6504V133.138H83.3253ZM94.6562 132.129C95.0847 132.129 95.4671 132.218 95.8033 132.396C96.1461 132.574 96.4131 132.838 96.6043 133.187C96.8021 133.537 96.901 133.958 96.901 134.453V137.667H95.7835V134.621C95.7835 134.133 95.6616 133.761 95.4177 133.504C95.1737 133.24 94.8408 133.108 94.4189 133.108C93.997 133.108 93.6607 133.24 93.4102 133.504C93.1663 133.761 93.0443 134.133 93.0443 134.621V137.667H91.9269V134.621C91.9269 134.133 91.8049 133.761 91.561 133.504C91.3171 133.24 90.9842 133.108 90.5622 133.108C90.1403 133.108 89.8041 133.24 89.5536 133.504C89.3097 133.761 89.1877 134.133 89.1877 134.621V137.667H88.0604V132.218H89.1877V132.841C89.3723 132.617 89.6063 132.442 89.8898 132.317C90.1733 132.192 90.4765 132.129 90.7996 132.129C91.2347 132.129 91.6236 132.221 91.9665 132.406C92.3093 132.59 92.573 132.857 92.7576 133.207C92.9224 132.877 93.1795 132.617 93.5289 132.426C93.8783 132.228 94.2541 132.129 94.6562 132.129ZM100.6 137.756C100.086 137.756 99.621 137.64 99.2057 137.41C98.7904 137.172 98.464 136.843 98.2267 136.421C97.9894 135.992 97.8707 135.498 97.8707 134.937C97.8707 134.384 97.9927 133.893 98.2366 133.464C98.4805 133.035 98.8134 132.706 99.2354 132.475C99.6573 132.244 100.129 132.129 100.649 132.129C101.17 132.129 101.642 132.244 102.064 132.475C102.485 132.706 102.818 133.035 103.062 133.464C103.306 133.893 103.428 134.384 103.428 134.937C103.428 135.491 103.303 135.982 103.052 136.411C102.802 136.839 102.459 137.172 102.024 137.41C101.595 137.64 101.121 137.756 100.6 137.756ZM100.6 136.777C100.89 136.777 101.16 136.708 101.411 136.569C101.668 136.431 101.876 136.223 102.034 135.946C102.192 135.669 102.271 135.333 102.271 134.937C102.271 134.542 102.195 134.209 102.044 133.939C101.892 133.662 101.691 133.454 101.441 133.316C101.19 133.177 100.92 133.108 100.63 133.108C100.34 133.108 100.069 133.177 99.8188 133.316C99.5749 133.454 99.3804 133.662 99.2354 133.939C99.0903 134.209 99.0178 134.542 99.0178 134.937C99.0178 135.524 99.1661 135.979 99.4628 136.302C99.7661 136.619 100.145 136.777 100.6 136.777ZM107.193 132.129C107.621 132.129 108.004 132.218 108.34 132.396C108.683 132.574 108.95 132.838 109.141 133.187C109.332 133.537 109.428 133.958 109.428 134.453V137.667H108.31V134.621C108.31 134.133 108.188 133.761 107.944 133.504C107.7 133.24 107.368 133.108 106.946 133.108C106.524 133.108 106.187 133.24 105.937 133.504C105.693 133.761 105.571 134.133 105.571 134.621V137.667H104.444V132.218H105.571V132.841C105.756 132.617 105.99 132.442 106.273 132.317C106.563 132.192 106.87 132.129 107.193 132.129ZM112.082 133.138V136.154C112.082 136.358 112.128 136.506 112.22 136.599C112.319 136.684 112.484 136.727 112.715 136.727H113.407V137.667H112.517C112.009 137.667 111.621 137.548 111.35 137.311C111.08 137.073 110.945 136.688 110.945 136.154V133.138H110.302V132.218H110.945V130.863H112.082V132.218H113.407V133.138H112.082ZM117.166 132.129C117.581 132.129 117.95 132.218 118.273 132.396C118.603 132.574 118.86 132.838 119.044 133.187C119.236 133.537 119.331 133.958 119.331 134.453V137.667H118.214V134.621C118.214 134.133 118.092 133.761 117.848 133.504C117.604 133.24 117.271 133.108 116.849 133.108C116.427 133.108 116.091 133.24 115.84 133.504C115.597 133.761 115.475 134.133 115.475 134.621V137.667H114.347V130.349H115.475V132.851C115.666 132.62 115.906 132.442 116.196 132.317C116.493 132.192 116.816 132.129 117.166 132.129Z" fill="#193F3F"/>
<rect x="238.09" y="52.26" width="256.91" height="135.151" rx="6.59272" fill="white"/>
<path d="M254.938 74.8832C254.938 74.2107 255.092 73.6075 255.402 73.0735C255.719 72.5395 256.144 72.1241 256.678 71.8275C257.219 71.5242 257.809 71.3726 258.448 71.3726C259.18 71.3726 259.829 71.5539 260.396 71.9165C260.97 72.2725 261.385 72.7801 261.642 73.4394H260.288C260.11 73.0768 259.862 72.8065 259.546 72.6285C259.229 72.4505 258.864 72.3615 258.448 72.3615C257.993 72.3615 257.588 72.4637 257.232 72.668C256.876 72.8724 256.596 73.1658 256.391 73.5482C256.193 73.9305 256.095 74.3755 256.095 74.8832C256.095 75.3908 256.193 75.8358 256.391 76.2182C256.596 76.6006 256.876 76.8973 257.232 77.1082C257.588 77.3126 257.993 77.4148 258.448 77.4148C258.864 77.4148 259.229 77.3258 259.546 77.1478C259.862 76.9698 260.11 76.6995 260.288 76.3369H261.642C261.385 76.9961 260.97 77.5038 260.396 77.8598C259.829 78.2158 259.18 78.3938 258.448 78.3938C257.802 78.3938 257.212 78.2455 256.678 77.9488C256.144 77.6455 255.719 77.2269 255.402 76.6929C255.092 76.1589 254.938 75.5556 254.938 74.8832ZM265.227 78.4235C264.712 78.4235 264.248 78.3081 263.832 78.0774C263.417 77.84 263.09 77.5104 262.853 77.0884C262.616 76.6599 262.497 76.1655 262.497 75.6051C262.497 75.0513 262.619 74.5601 262.863 74.1316C263.107 73.7031 263.44 73.3734 263.862 73.1427C264.284 72.912 264.755 72.7966 265.276 72.7966C265.797 72.7966 266.268 72.912 266.69 73.1427C267.112 73.3734 267.445 73.7031 267.689 74.1316C267.933 74.5601 268.055 75.0513 268.055 75.6051C268.055 76.1589 267.93 76.65 267.679 77.0786C267.428 77.5071 267.086 77.84 266.651 78.0774C266.222 78.3081 265.747 78.4235 265.227 78.4235ZM265.227 77.4445C265.517 77.4445 265.787 77.3752 266.037 77.2368C266.295 77.0983 266.502 76.8907 266.66 76.6138C266.819 76.3369 266.898 76.0006 266.898 75.6051C266.898 75.2095 266.822 74.8766 266.67 74.6063C266.519 74.3294 266.318 74.1217 266.067 73.9833C265.817 73.8448 265.546 73.7756 265.256 73.7756C264.966 73.7756 264.696 73.8448 264.445 73.9833C264.201 74.1217 264.007 74.3294 263.862 74.6063C263.717 74.8766 263.644 75.2095 263.644 75.6051C263.644 76.1918 263.793 76.6467 264.089 76.9698C264.393 77.2862 264.772 77.4445 265.227 77.4445ZM275.666 72.7966C276.095 72.7966 276.477 72.8856 276.814 73.0636C277.156 73.2416 277.423 73.5053 277.615 73.8547C277.812 74.2041 277.911 74.6261 277.911 75.1205V78.3345H276.794V75.2886C276.794 74.8008 276.672 74.4283 276.428 74.1712C276.184 73.9075 275.851 73.7756 275.429 73.7756C275.007 73.7756 274.671 73.9075 274.42 74.1712C274.176 74.4283 274.054 74.8008 274.054 75.2886V78.3345H272.937V75.2886C272.937 74.8008 272.815 74.4283 272.571 74.1712C272.327 73.9075 271.994 73.7756 271.572 73.7756C271.15 73.7756 270.814 73.9075 270.564 74.1712C270.32 74.4283 270.198 74.8008 270.198 75.2886V78.3345H269.07V72.8856H270.198V73.5086C270.382 73.2844 270.616 73.1097 270.9 72.9845C271.183 72.8592 271.487 72.7966 271.81 72.7966C272.245 72.7966 272.634 72.8889 272.977 73.0735C273.319 73.2581 273.583 73.5251 273.768 73.8745C273.933 73.5449 274.19 73.2844 274.539 73.0933C274.888 72.8955 275.264 72.7966 275.666 72.7966ZM280.374 73.6866C280.565 73.4361 280.826 73.2251 281.155 73.0537C281.485 72.8823 281.858 72.7966 282.273 72.7966C282.748 72.7966 283.179 72.9153 283.568 73.1526C283.964 73.3833 284.274 73.7097 284.498 74.1316C284.722 74.5535 284.834 75.0381 284.834 75.5853C284.834 76.1325 284.722 76.6237 284.498 77.0588C284.274 77.4873 283.964 77.8235 283.568 78.0675C283.179 78.3048 282.748 78.4235 282.273 78.4235C281.858 78.4235 281.488 78.3411 281.165 78.1762C280.842 78.0048 280.579 77.7939 280.374 77.5433V80.9254H279.247V72.8856H280.374V73.6866ZM283.687 75.5853C283.687 75.2095 283.608 74.8865 283.45 74.6162C283.298 74.3393 283.094 74.1316 282.837 73.9932C282.586 73.8481 282.316 73.7756 282.026 73.7756C281.742 73.7756 281.472 73.8481 281.215 73.9932C280.964 74.1382 280.76 74.3492 280.602 74.6261C280.45 74.903 280.374 75.2293 280.374 75.6051C280.374 75.9809 280.45 76.3105 280.602 76.594C280.76 76.8709 280.964 77.0819 281.215 77.2269C281.472 77.3719 281.742 77.4445 282.026 77.4445C282.316 77.4445 282.586 77.3719 282.837 77.2269C283.094 77.0753 283.298 76.8577 283.45 76.5742C283.608 76.2907 283.687 75.9611 283.687 75.5853ZM286.977 71.0165V78.3345H285.85V71.0165H286.977ZM293.353 75.4765C293.353 75.6809 293.34 75.8655 293.313 76.0303H289.15C289.183 76.4654 289.344 76.8148 289.634 77.0786C289.924 77.3423 290.28 77.4741 290.702 77.4741C291.309 77.4741 291.737 77.2203 291.988 76.7127H293.204C293.04 77.2137 292.74 77.6258 292.304 77.9488C291.876 78.2652 291.342 78.4235 290.702 78.4235C290.182 78.4235 289.714 78.3081 289.298 78.0774C288.889 77.84 288.566 77.5104 288.329 77.0884C288.098 76.6599 287.983 76.1655 287.983 75.6051C287.983 75.0447 288.095 74.5535 288.319 74.1316C288.55 73.7031 288.87 73.3734 289.278 73.1427C289.694 72.912 290.168 72.7966 290.702 72.7966C291.217 72.7966 291.675 72.9087 292.077 73.1328C292.479 73.357 292.792 73.6734 293.016 74.0822C293.241 74.4843 293.353 74.9491 293.353 75.4765ZM292.176 75.1205C292.169 74.7052 292.021 74.3722 291.731 74.1217C291.441 73.8712 291.082 73.7459 290.653 73.7459C290.264 73.7459 289.931 73.8712 289.654 74.1217C289.377 74.3657 289.212 74.6986 289.16 75.1205H292.176ZM295.679 73.8053V76.8214C295.679 77.0258 295.725 77.1742 295.817 77.2665C295.916 77.3522 296.081 77.395 296.311 77.395H297.004V78.3345H296.114C295.606 78.3345 295.217 78.2158 294.947 77.9785C294.676 77.7411 294.541 77.3555 294.541 76.8214V73.8053H293.898V72.8856H294.541V71.5308H295.679V72.8856H297.004V73.8053H295.679ZM302.938 75.4765C302.938 75.6809 302.925 75.8655 302.898 76.0303H298.735C298.768 76.4654 298.929 76.8148 299.219 77.0786C299.51 77.3423 299.866 77.4741 300.288 77.4741C300.894 77.4741 301.323 77.2203 301.573 76.7127H302.789C302.625 77.2137 302.325 77.6258 301.89 77.9488C301.461 78.2652 300.927 78.4235 300.288 78.4235C299.767 78.4235 299.299 78.3081 298.883 78.0774C298.475 77.84 298.151 77.5104 297.914 77.0884C297.683 76.6599 297.568 76.1655 297.568 75.6051C297.568 75.0447 297.68 74.5535 297.904 74.1316C298.135 73.7031 298.455 73.3734 298.863 73.1427C299.279 72.912 299.753 72.7966 300.288 72.7966C300.802 72.7966 301.26 72.9087 301.662 73.1328C302.064 73.357 302.377 73.6734 302.602 74.0822C302.826 74.4843 302.938 74.9491 302.938 75.4765ZM301.761 75.1205C301.754 74.7052 301.606 74.3722 301.316 74.1217C301.026 73.8712 300.667 73.7459 300.238 73.7459C299.849 73.7459 299.516 73.8712 299.239 74.1217C298.962 74.3657 298.798 74.6986 298.745 75.1205H301.761ZM303.573 75.5853C303.573 75.0381 303.685 74.5535 303.909 74.1316C304.14 73.7097 304.449 73.3833 304.838 73.1526C305.234 72.9153 305.672 72.7966 306.154 72.7966C306.51 72.7966 306.859 72.8757 307.202 73.0339C307.551 73.1856 307.828 73.3899 308.033 73.647V71.0165H309.17V78.3345H308.033V77.5137C307.848 77.7774 307.591 77.9949 307.261 78.1664C306.938 78.3378 306.566 78.4235 306.144 78.4235C305.669 78.4235 305.234 78.3048 304.838 78.0675C304.449 77.8235 304.14 77.4873 303.909 77.0588C303.685 76.6237 303.573 76.1325 303.573 75.5853ZM308.033 75.6051C308.033 75.2293 307.953 74.903 307.795 74.6261C307.644 74.3492 307.442 74.1382 307.192 73.9932C306.941 73.8481 306.671 73.7756 306.381 73.7756C306.091 73.7756 305.821 73.8481 305.57 73.9932C305.32 74.1316 305.115 74.3393 304.957 74.6162C304.805 74.8865 304.73 75.2095 304.73 75.5853C304.73 75.9611 304.805 76.2907 304.957 76.5742C305.115 76.8577 305.32 77.0753 305.57 77.2269C305.827 77.3719 306.098 77.4445 306.381 77.4445C306.671 77.4445 306.941 77.3719 307.192 77.2269C307.442 77.0819 307.644 76.8709 307.795 76.594C307.953 76.3105 308.033 75.9809 308.033 75.6051ZM320.26 71.4616V78.3345H319.133V73.6273L317.037 78.3345H316.255L314.149 73.6273V78.3345H313.022V71.4616H314.238L316.651 76.8511L319.054 71.4616H320.26ZM324.007 78.4235C323.492 78.4235 323.028 78.3081 322.612 78.0774C322.197 77.84 321.871 77.5104 321.633 77.0884C321.396 76.6599 321.277 76.1655 321.277 75.6051C321.277 75.0513 321.399 74.5601 321.643 74.1316C321.887 73.7031 322.22 73.3734 322.642 73.1427C323.064 72.912 323.535 72.7966 324.056 72.7966C324.577 72.7966 325.048 72.912 325.47 73.1427C325.892 73.3734 326.225 73.7031 326.469 74.1316C326.713 74.5601 326.835 75.0513 326.835 75.6051C326.835 76.1589 326.71 76.65 326.459 77.0786C326.209 77.5071 325.866 77.84 325.431 78.0774C325.002 78.3081 324.528 78.4235 324.007 78.4235ZM324.007 77.4445C324.297 77.4445 324.567 77.3752 324.818 77.2368C325.075 77.0983 325.282 76.8907 325.441 76.6138C325.599 76.3369 325.678 76.0006 325.678 75.6051C325.678 75.2095 325.602 74.8766 325.451 74.6063C325.299 74.3294 325.098 74.1217 324.847 73.9833C324.597 73.8448 324.326 73.7756 324.036 73.7756C323.746 73.7756 323.476 73.8448 323.225 73.9833C322.982 74.1217 322.787 74.3294 322.642 74.6063C322.497 74.8766 322.424 75.2095 322.424 75.6051C322.424 76.1918 322.573 76.6467 322.869 76.9698C323.173 77.2862 323.552 77.4445 324.007 77.4445ZM327.475 75.5853C327.475 75.0381 327.587 74.5535 327.811 74.1316C328.042 73.7097 328.352 73.3833 328.741 73.1526C329.136 72.9153 329.575 72.7966 330.056 72.7966C330.412 72.7966 330.761 72.8757 331.104 73.0339C331.453 73.1856 331.73 73.3899 331.935 73.647V71.0165H333.072V78.3345H331.935V77.5137C331.75 77.7774 331.493 77.9949 331.163 78.1664C330.84 78.3378 330.468 78.4235 330.046 78.4235C329.571 78.4235 329.136 78.3048 328.741 78.0675C328.352 77.8235 328.042 77.4873 327.811 77.0588C327.587 76.6237 327.475 76.1325 327.475 75.5853ZM331.935 75.6051C331.935 75.2293 331.856 74.903 331.697 74.6261C331.546 74.3492 331.345 74.1382 331.094 73.9932C330.844 73.8481 330.573 73.7756 330.283 73.7756C329.993 73.7756 329.723 73.8481 329.472 73.9932C329.222 74.1316 329.017 74.3393 328.859 74.6162C328.708 74.8865 328.632 75.2095 328.632 75.5853C328.632 75.9611 328.708 76.2907 328.859 76.5742C329.017 76.8577 329.222 77.0753 329.472 77.2269C329.729 77.3719 330 77.4445 330.283 77.4445C330.573 77.4445 330.844 77.3719 331.094 77.2269C331.345 77.0819 331.546 76.8709 331.697 76.594C331.856 76.3105 331.935 75.9809 331.935 75.6051ZM339.448 75.4765C339.448 75.6809 339.435 75.8655 339.408 76.0303H335.245C335.278 76.4654 335.439 76.8148 335.73 77.0786C336.02 77.3423 336.376 77.4741 336.798 77.4741C337.404 77.4741 337.833 77.2203 338.083 76.7127H339.299C339.135 77.2137 338.835 77.6258 338.4 77.9488C337.971 78.2652 337.437 78.4235 336.798 78.4235C336.277 78.4235 335.809 78.3081 335.393 78.0774C334.985 77.84 334.662 77.5104 334.424 77.0884C334.193 76.6599 334.078 76.1655 334.078 75.6051C334.078 75.0447 334.19 74.5535 334.414 74.1316C334.645 73.7031 334.965 73.3734 335.374 73.1427C335.789 72.912 336.264 72.7966 336.798 72.7966C337.312 72.7966 337.77 72.9087 338.172 73.1328C338.574 73.357 338.887 73.6734 339.112 74.0822C339.336 74.4843 339.448 74.9491 339.448 75.4765ZM338.271 75.1205C338.264 74.7052 338.116 74.3722 337.826 74.1217C337.536 73.8712 337.177 73.7459 336.748 73.7459C336.359 73.7459 336.026 73.8712 335.749 74.1217C335.472 74.3657 335.308 74.6986 335.255 75.1205H338.271ZM341.586 73.6767C341.751 73.3998 341.968 73.1856 342.238 73.0339C342.515 72.8757 342.842 72.7966 343.217 72.7966V73.9635H342.931C342.489 73.9635 342.153 74.0756 341.922 74.2997C341.698 74.5239 341.586 74.9128 341.586 75.4666V78.3345H340.458V72.8856H341.586V73.6767ZM343.779 75.5853C343.779 75.0381 343.891 74.5535 344.115 74.1316C344.346 73.7097 344.656 73.3833 345.045 73.1526C345.44 72.9153 345.875 72.7966 346.35 72.7966C346.779 72.7966 347.151 72.8823 347.468 73.0537C347.791 73.2185 348.048 73.4262 348.239 73.6767V72.8856H349.376V78.3345H348.239V77.5236C348.048 77.7807 347.787 77.9949 347.458 78.1664C347.128 78.3378 346.752 78.4235 346.33 78.4235C345.862 78.4235 345.434 78.3048 345.045 78.0675C344.656 77.8235 344.346 77.4873 344.115 77.0588C343.891 76.6237 343.779 76.1325 343.779 75.5853ZM348.239 75.6051C348.239 75.2293 348.16 74.903 348.002 74.6261C347.85 74.3492 347.649 74.1382 347.398 73.9932C347.148 73.8481 346.878 73.7756 346.588 73.7756C346.297 73.7756 346.027 73.8481 345.777 73.9932C345.526 74.1316 345.322 74.3393 345.163 74.6162C345.012 74.8865 344.936 75.2095 344.936 75.5853C344.936 75.9611 345.012 76.2907 345.163 76.5742C345.322 76.8577 345.526 77.0753 345.777 77.2269C346.034 77.3719 346.304 77.4445 346.588 77.4445C346.878 77.4445 347.148 77.3719 347.398 77.2269C347.649 77.0819 347.85 76.8709 348.002 76.594C348.16 76.3105 348.239 75.9809 348.239 75.6051ZM352.073 73.8053V76.8214C352.073 77.0258 352.119 77.1742 352.212 77.2665C352.311 77.3522 352.475 77.395 352.706 77.395H353.398V78.3345H352.508C352.001 78.3345 351.612 78.2158 351.342 77.9785C351.071 77.7411 350.936 77.3555 350.936 76.8214V73.8053H350.293V72.8856H350.936V71.5308H352.073V72.8856H353.398V73.8053H352.073ZM354.912 72.1637C354.708 72.1637 354.536 72.0945 354.398 71.956C354.26 71.8176 354.19 71.6462 354.19 71.4418C354.19 71.2374 354.26 71.066 354.398 70.9275C354.536 70.7891 354.708 70.7199 354.912 70.7199C355.11 70.7199 355.278 70.7891 355.417 70.9275C355.555 71.066 355.624 71.2374 355.624 71.4418C355.624 71.6462 355.555 71.8176 355.417 71.956C355.278 72.0945 355.11 72.1637 354.912 72.1637ZM355.466 72.8856V78.3345H354.339V72.8856H355.466ZM359.211 78.4235C358.696 78.4235 358.232 78.3081 357.816 78.0774C357.401 77.84 357.075 77.5104 356.837 77.0884C356.6 76.6599 356.481 76.1655 356.481 75.6051C356.481 75.0513 356.603 74.5601 356.847 74.1316C357.091 73.7031 357.424 73.3734 357.846 73.1427C358.268 72.912 358.739 72.7966 359.26 72.7966C359.781 72.7966 360.252 72.912 360.674 73.1427C361.096 73.3734 361.429 73.7031 361.673 74.1316C361.917 74.5601 362.039 75.0513 362.039 75.6051C362.039 76.1589 361.914 76.65 361.663 77.0786C361.413 77.5071 361.07 77.84 360.635 78.0774C360.206 78.3081 359.732 78.4235 359.211 78.4235ZM359.211 77.4445C359.501 77.4445 359.771 77.3752 360.022 77.2368C360.279 77.0983 360.486 76.8907 360.645 76.6138C360.803 76.3369 360.882 76.0006 360.882 75.6051C360.882 75.2095 360.806 74.8766 360.655 74.6063C360.503 74.3294 360.302 74.1217 360.051 73.9833C359.801 73.8448 359.53 73.7756 359.24 73.7756C358.95 73.7756 358.68 73.8448 358.429 73.9833C358.186 74.1217 357.991 74.3294 357.846 74.6063C357.701 74.8766 357.628 75.2095 357.628 75.6051C357.628 76.1918 357.777 76.6467 358.073 76.9698C358.377 77.2862 358.756 77.4445 359.211 77.4445ZM365.804 72.7966C366.232 72.7966 366.615 72.8856 366.951 73.0636C367.294 73.2416 367.561 73.5053 367.752 73.8547C367.943 74.2041 368.039 74.6261 368.039 75.1205V78.3345H366.921V75.2886C366.921 74.8008 366.799 74.4283 366.555 74.1712C366.311 73.9075 365.978 73.7756 365.556 73.7756C365.135 73.7756 364.798 73.9075 364.548 74.1712C364.304 74.4283 364.182 74.8008 364.182 75.2886V78.3345H363.055V72.8856H364.182V73.5086C364.366 73.2844 364.601 73.1097 364.884 72.9845C365.174 72.8592 365.481 72.7966 365.804 72.7966ZM371.356 78.4235C370.927 78.4235 370.541 78.3477 370.199 78.196C369.862 78.0378 369.595 77.8268 369.398 77.5631C369.2 77.2928 369.094 76.9929 369.081 76.6632H370.248C370.268 76.894 370.377 77.0884 370.574 77.2467C370.779 77.3983 371.033 77.4741 371.336 77.4741C371.652 77.4741 371.896 77.4148 372.068 77.2961C372.246 77.1709 372.335 77.0126 372.335 76.8214C372.335 76.6171 372.236 76.4654 372.038 76.3665C371.847 76.2677 371.54 76.1589 371.118 76.0402C370.709 75.9281 370.377 75.8193 370.119 75.7139C369.862 75.6084 369.638 75.4469 369.447 75.2293C369.262 75.0117 369.17 74.725 369.17 74.3689C369.17 74.0789 369.256 73.8152 369.427 73.5778C369.599 73.3339 369.843 73.1427 370.159 73.0043C370.482 72.8658 370.851 72.7966 371.267 72.7966C371.886 72.7966 372.384 72.9548 372.76 73.2713C373.142 73.5811 373.347 74.0063 373.373 74.547H372.246C372.226 74.303 372.127 74.1085 371.949 73.9635C371.771 73.8185 371.53 73.7459 371.227 73.7459C370.93 73.7459 370.703 73.802 370.545 73.9141C370.386 74.0261 370.307 74.1745 370.307 74.3591C370.307 74.5041 370.36 74.6261 370.466 74.725C370.571 74.8238 370.7 74.903 370.851 74.9623C371.003 75.015 371.227 75.0843 371.524 75.17C371.919 75.2754 372.242 75.3842 372.493 75.4963C372.75 75.6018 372.971 75.76 373.155 75.971C373.34 76.1819 373.436 76.4621 373.442 76.8116C373.442 77.1214 373.356 77.3983 373.185 77.6422C373.014 77.8862 372.77 78.0774 372.453 78.2158C372.143 78.3543 371.778 78.4235 371.356 78.4235Z" fill="#193F3F"/>
<path d="M469.179 75.3344C469.179 75.9412 468.687 76.4332 468.08 76.4332C467.473 76.4332 466.981 75.9412 466.981 75.3344C466.981 74.7275 467.473 74.2356 468.08 74.2356C468.687 74.2356 469.179 74.7275 469.179 75.3344Z" fill="#193F3F"/>
<path d="M473.024 75.3344C473.024 75.9412 472.532 76.4332 471.925 76.4332C471.319 76.4332 470.827 75.9412 470.827 75.3344C470.827 74.7275 471.319 74.2356 471.925 74.2356C472.532 74.2356 473.024 74.7275 473.024 75.3344Z" fill="#193F3F"/>
<path d="M476.87 75.3344C476.87 75.9412 476.378 76.4332 475.771 76.4332C475.164 76.4332 474.672 75.9412 474.672 75.3344C474.672 74.7275 475.164 74.2356 475.771 74.2356C476.378 74.2356 476.87 74.7275 476.87 75.3344Z" fill="#193F3F"/>
<path d="M255.758 127.262V124.519H261.243V143.744H258.211V127.262H255.758ZM277.293 126.84L269.962 143.744H266.929L274.34 127.156H264.582V124.598H277.293V126.84ZM282.846 133.696C281.018 132.782 280.103 131.341 280.103 129.372C280.103 128.422 280.341 127.552 280.815 126.761C281.29 125.97 282.002 125.346 282.951 124.888C283.901 124.414 285.061 124.176 286.432 124.176C287.786 124.176 288.938 124.414 289.887 124.888C290.854 125.346 291.575 125.97 292.049 126.761C292.524 127.552 292.761 128.422 292.761 129.372C292.761 130.356 292.507 131.226 291.997 131.982C291.504 132.721 290.845 133.292 290.019 133.696C291.021 134.066 291.812 134.672 292.392 135.516C292.972 136.342 293.262 137.318 293.262 138.443C293.262 139.586 292.972 140.597 292.392 141.476C291.812 142.355 291.003 143.032 289.966 143.506C288.929 143.981 287.751 144.218 286.432 144.218C285.114 144.218 283.936 143.981 282.899 143.506C281.879 143.032 281.079 142.355 280.499 141.476C279.919 140.597 279.629 139.586 279.629 138.443C279.629 137.3 279.919 136.316 280.499 135.49C281.079 134.663 281.861 134.066 282.846 133.696ZM289.887 129.741C289.887 128.756 289.579 128 288.964 127.473C288.349 126.945 287.505 126.682 286.432 126.682C285.378 126.682 284.543 126.945 283.927 127.473C283.312 128 283.004 128.765 283.004 129.767C283.004 130.646 283.321 131.367 283.954 131.929C284.604 132.474 285.43 132.747 286.432 132.747C287.435 132.747 288.261 132.466 288.911 131.903C289.562 131.341 289.887 130.62 289.887 129.741ZM286.432 135.015C285.272 135.015 284.323 135.305 283.584 135.885C282.864 136.448 282.503 137.265 282.503 138.338C282.503 139.34 282.855 140.157 283.558 140.79C284.261 141.405 285.219 141.713 286.432 141.713C287.628 141.713 288.568 141.397 289.254 140.764C289.957 140.131 290.309 139.322 290.309 138.338C290.309 137.283 289.949 136.465 289.228 135.885C288.525 135.305 287.593 135.015 286.432 135.015ZM297.817 139.656C299.504 138.197 300.832 137.001 301.799 136.07C302.783 135.12 303.601 134.136 304.251 133.116C304.902 132.097 305.227 131.077 305.227 130.057C305.227 129.002 304.972 128.176 304.462 127.578C303.97 126.981 303.187 126.682 302.115 126.682C301.078 126.682 300.269 127.016 299.689 127.684C299.126 128.334 298.828 129.213 298.792 130.321H295.892C295.944 128.317 296.542 126.787 297.685 125.732C298.845 124.66 300.313 124.124 302.089 124.124C304.005 124.124 305.499 124.651 306.572 125.706C307.662 126.761 308.207 128.167 308.207 129.925C308.207 131.191 307.882 132.413 307.231 133.591C306.598 134.751 305.833 135.797 304.937 136.729C304.058 137.643 302.933 138.707 301.561 139.92L300.375 140.975H308.734V143.48H295.918V141.291L297.817 139.656ZM311.111 133.881C311.111 130.839 311.621 128.466 312.641 126.761C313.678 125.038 315.454 124.176 317.968 124.176C320.482 124.176 322.249 125.038 323.268 126.761C324.306 128.466 324.824 130.839 324.824 133.881C324.824 136.958 324.306 139.366 323.268 141.107C322.249 142.829 320.482 143.691 317.968 143.691C315.454 143.691 313.678 142.829 312.641 141.107C311.621 139.366 311.111 136.958 311.111 133.881ZM321.871 133.881C321.871 132.457 321.774 131.253 321.581 130.268C321.405 129.284 321.036 128.484 320.473 127.868C319.911 127.235 319.075 126.919 317.968 126.919C316.86 126.919 316.025 127.235 315.463 127.868C314.9 128.484 314.522 129.284 314.329 130.268C314.153 131.253 314.065 132.457 314.065 133.881C314.065 135.358 314.153 136.597 314.329 137.599C314.505 138.601 314.874 139.41 315.436 140.025C316.016 140.641 316.86 140.948 317.968 140.948C319.075 140.948 319.911 140.641 320.473 140.025C321.053 139.41 321.431 138.601 321.607 137.599C321.783 136.597 321.871 135.358 321.871 133.881Z" fill="#193F3F"/>
<path opacity="0.5" d="M255.017 162.749V161.72H257.074V168.929H255.936V162.749H255.017ZM263.171 162.689H259.858V164.657C259.997 164.473 260.201 164.318 260.472 164.192C260.748 164.067 261.042 164.004 261.352 164.004C261.905 164.004 262.354 164.123 262.697 164.36C263.046 164.598 263.293 164.898 263.438 165.26C263.59 165.623 263.666 166.005 263.666 166.407C263.666 166.895 263.57 167.33 263.379 167.713C263.194 168.089 262.914 168.385 262.538 168.603C262.169 168.82 261.714 168.929 261.174 168.929C260.455 168.929 259.878 168.751 259.443 168.395C259.008 168.039 258.748 167.568 258.662 166.981H259.76C259.832 167.291 259.994 167.538 260.244 167.723C260.495 167.901 260.808 167.99 261.184 167.99C261.652 167.99 262.001 167.848 262.232 167.565C262.469 167.281 262.588 166.905 262.588 166.437C262.588 165.962 262.469 165.6 262.232 165.349C261.994 165.092 261.645 164.964 261.184 164.964C260.861 164.964 260.587 165.046 260.363 165.211C260.145 165.369 259.987 165.587 259.888 165.864H258.82V161.7H263.171V162.689ZM264.721 163.5C264.76 162.887 264.994 162.409 265.423 162.066C265.858 161.723 266.412 161.552 267.084 161.552C267.546 161.552 267.944 161.634 268.281 161.799C268.617 161.964 268.871 162.188 269.042 162.472C269.214 162.755 269.299 163.075 269.299 163.431C269.299 163.84 269.191 164.189 268.973 164.479C268.755 164.769 268.495 164.964 268.192 165.063V165.102C268.581 165.221 268.884 165.438 269.102 165.755C269.319 166.065 269.428 166.464 269.428 166.951C269.428 167.34 269.339 167.686 269.161 167.99C268.983 168.293 268.719 168.534 268.37 168.712C268.02 168.883 267.602 168.969 267.114 168.969C266.402 168.969 265.815 168.787 265.354 168.425C264.899 168.056 264.655 167.528 264.622 166.843H265.71C265.736 167.192 265.871 167.479 266.115 167.703C266.359 167.921 266.689 168.029 267.104 168.029C267.506 168.029 267.816 167.921 268.033 167.703C268.251 167.479 268.36 167.192 268.36 166.843C268.36 166.381 268.211 166.055 267.915 165.864C267.625 165.666 267.176 165.567 266.57 165.567H266.313V164.637H266.58C267.114 164.631 267.519 164.542 267.796 164.37C268.08 164.199 268.221 163.929 268.221 163.559C268.221 163.243 268.119 162.992 267.915 162.808C267.71 162.617 267.42 162.521 267.045 162.521C266.675 162.521 266.389 162.617 266.184 162.808C265.98 162.992 265.858 163.223 265.818 163.5H264.721ZM271.73 165.161C271.044 164.819 270.701 164.278 270.701 163.54C270.701 163.184 270.79 162.857 270.968 162.561C271.146 162.264 271.413 162.03 271.769 161.859C272.125 161.68 272.56 161.591 273.074 161.591C273.582 161.591 274.014 161.68 274.37 161.859C274.733 162.03 275.003 162.264 275.181 162.561C275.359 162.857 275.448 163.184 275.448 163.54C275.448 163.909 275.352 164.235 275.161 164.519C274.976 164.796 274.729 165.01 274.419 165.161C274.795 165.3 275.092 165.527 275.309 165.844C275.527 166.154 275.636 166.52 275.636 166.941C275.636 167.37 275.527 167.749 275.309 168.079C275.092 168.408 274.789 168.662 274.4 168.84C274.011 169.018 273.569 169.107 273.074 169.107C272.58 169.107 272.138 169.018 271.749 168.84C271.367 168.662 271.067 168.408 270.849 168.079C270.632 167.749 270.523 167.37 270.523 166.941C270.523 166.513 270.632 166.144 270.849 165.834C271.067 165.524 271.36 165.3 271.73 165.161ZM274.37 163.678C274.37 163.309 274.255 163.025 274.024 162.828C273.793 162.63 273.477 162.531 273.074 162.531C272.679 162.531 272.366 162.63 272.135 162.828C271.904 163.025 271.789 163.312 271.789 163.688C271.789 164.018 271.908 164.288 272.145 164.499C272.389 164.703 272.699 164.805 273.074 164.805C273.45 164.805 273.76 164.7 274.004 164.489C274.248 164.278 274.37 164.008 274.37 163.678ZM273.074 165.656C272.639 165.656 272.283 165.765 272.006 165.982C271.736 166.193 271.601 166.5 271.601 166.902C271.601 167.278 271.733 167.584 271.997 167.822C272.26 168.052 272.62 168.168 273.074 168.168C273.523 168.168 273.875 168.049 274.133 167.812C274.396 167.574 274.528 167.271 274.528 166.902C274.528 166.506 274.393 166.2 274.123 165.982C273.859 165.765 273.51 165.656 273.074 165.656ZM276.572 162.749V161.72H278.629V168.929H277.492V162.749H276.572ZM282.321 166.18C282.321 165.633 282.434 165.148 282.658 164.726C282.888 164.304 283.198 163.978 283.587 163.747C283.983 163.51 284.418 163.391 284.893 163.391C285.321 163.391 285.694 163.477 286.01 163.648C286.333 163.813 286.59 164.021 286.781 164.271V163.48H287.919V168.929H286.781V168.118C286.59 168.375 286.33 168.59 286 168.761C285.671 168.932 285.295 169.018 284.873 169.018C284.405 169.018 283.976 168.9 283.587 168.662C283.198 168.418 282.888 168.082 282.658 167.654C282.434 167.218 282.321 166.727 282.321 166.18ZM286.781 166.2C286.781 165.824 286.702 165.498 286.544 165.221C286.392 164.944 286.191 164.733 285.941 164.588C285.69 164.443 285.42 164.37 285.13 164.37C284.84 164.37 284.57 164.443 284.319 164.588C284.069 164.726 283.864 164.934 283.706 165.211C283.554 165.481 283.478 165.804 283.478 166.18C283.478 166.556 283.554 166.885 283.706 167.169C283.864 167.452 284.069 167.67 284.319 167.822C284.576 167.967 284.846 168.039 285.13 168.039C285.42 168.039 285.69 167.967 285.941 167.822C286.191 167.677 286.392 167.466 286.544 167.189C286.702 166.905 286.781 166.576 286.781 166.2ZM294.235 163.48V168.929H293.108V168.286C292.93 168.511 292.696 168.689 292.406 168.82C292.122 168.946 291.819 169.008 291.496 169.008C291.067 169.008 290.682 168.919 290.339 168.741C290.003 168.563 289.736 168.3 289.538 167.95C289.347 167.601 289.251 167.179 289.251 166.684V163.48H290.369V166.516C290.369 167.004 290.49 167.38 290.734 167.644C290.978 167.901 291.311 168.029 291.733 168.029C292.155 168.029 292.488 167.901 292.732 167.644C292.983 167.38 293.108 167.004 293.108 166.516V163.48H294.235ZM296.939 164.4V167.416C296.939 167.621 296.985 167.769 297.077 167.861C297.176 167.947 297.341 167.99 297.572 167.99H298.264V168.929H297.374C296.866 168.929 296.477 168.811 296.207 168.573C295.937 168.336 295.802 167.95 295.802 167.416V164.4H295.159V163.48H295.802V162.126H296.939V163.48H298.264V164.4H296.939ZM301.568 169.018C301.054 169.018 300.589 168.903 300.173 168.672C299.758 168.435 299.432 168.105 299.194 167.683C298.957 167.255 298.838 166.76 298.838 166.2C298.838 165.646 298.96 165.155 299.204 164.726C299.448 164.298 299.781 163.968 300.203 163.737C300.625 163.507 301.096 163.391 301.617 163.391C302.138 163.391 302.609 163.507 303.031 163.737C303.453 163.968 303.786 164.298 304.03 164.726C304.274 165.155 304.396 165.646 304.396 166.2C304.396 166.754 304.271 167.245 304.02 167.673C303.77 168.102 303.427 168.435 302.992 168.672C302.563 168.903 302.089 169.018 301.568 169.018ZM301.568 168.039C301.858 168.039 302.128 167.97 302.379 167.832C302.636 167.693 302.843 167.485 303.002 167.208C303.16 166.932 303.239 166.595 303.239 166.2C303.239 165.804 303.163 165.471 303.012 165.201C302.86 164.924 302.659 164.716 302.408 164.578C302.158 164.44 301.888 164.37 301.597 164.37C301.307 164.37 301.037 164.44 300.787 164.578C300.543 164.716 300.348 164.924 300.203 165.201C300.058 165.471 299.986 165.804 299.986 166.2C299.986 166.787 300.134 167.241 300.431 167.565C300.734 167.881 301.113 168.039 301.568 168.039ZM312.008 163.391C312.436 163.391 312.819 163.48 313.155 163.658C313.498 163.836 313.765 164.1 313.956 164.449C314.154 164.799 314.252 165.221 314.252 165.715V168.929H313.135V165.883C313.135 165.395 313.013 165.023 312.769 164.766C312.525 164.502 312.192 164.37 311.77 164.37C311.348 164.37 311.012 164.502 310.762 164.766C310.518 165.023 310.396 165.395 310.396 165.883V168.929H309.278V165.883C309.278 165.395 309.156 165.023 308.912 164.766C308.668 164.502 308.335 164.37 307.914 164.37C307.492 164.37 307.155 164.502 306.905 164.766C306.661 165.023 306.539 165.395 306.539 165.883V168.929H305.412V163.48H306.539V164.103C306.724 163.879 306.958 163.704 307.241 163.579C307.525 163.454 307.828 163.391 308.151 163.391C308.586 163.391 308.975 163.484 309.318 163.668C309.661 163.853 309.924 164.12 310.109 164.469C310.274 164.14 310.531 163.879 310.88 163.688C311.23 163.49 311.605 163.391 312.008 163.391ZM315.212 166.18C315.212 165.633 315.324 165.148 315.549 164.726C315.779 164.304 316.089 163.978 316.478 163.747C316.874 163.51 317.309 163.391 317.783 163.391C318.212 163.391 318.584 163.477 318.901 163.648C319.224 163.813 319.481 164.021 319.672 164.271V163.48H320.81V168.929H319.672V168.118C319.481 168.375 319.221 168.59 318.891 168.761C318.561 168.932 318.186 169.018 317.764 169.018C317.296 169.018 316.867 168.9 316.478 168.662C316.089 168.418 315.779 168.082 315.549 167.654C315.324 167.218 315.212 166.727 315.212 166.18ZM319.672 166.2C319.672 165.824 319.593 165.498 319.435 165.221C319.283 164.944 319.082 164.733 318.832 164.588C318.581 164.443 318.311 164.37 318.021 164.37C317.731 164.37 317.46 164.443 317.21 164.588C316.959 164.726 316.755 164.934 316.597 165.211C316.445 165.481 316.369 165.804 316.369 166.18C316.369 166.556 316.445 166.885 316.597 167.169C316.755 167.452 316.959 167.67 317.21 167.822C317.467 167.967 317.737 168.039 318.021 168.039C318.311 168.039 318.581 167.967 318.832 167.822C319.082 167.677 319.283 167.466 319.435 167.189C319.593 166.905 319.672 166.576 319.672 166.2ZM323.507 164.4V167.416C323.507 167.621 323.553 167.769 323.645 167.861C323.744 167.947 323.909 167.99 324.14 167.99H324.832V168.929H323.942C323.434 168.929 323.045 168.811 322.775 168.573C322.505 168.336 322.369 167.95 322.369 167.416V164.4H321.727V163.48H322.369V162.126H323.507V163.48H324.832V164.4H323.507ZM330.766 166.071C330.766 166.276 330.753 166.46 330.726 166.625H326.563C326.596 167.06 326.758 167.41 327.048 167.673C327.338 167.937 327.694 168.069 328.116 168.069C328.722 168.069 329.151 167.815 329.401 167.307H330.618C330.453 167.808 330.153 168.22 329.718 168.544C329.289 168.86 328.755 169.018 328.116 169.018C327.595 169.018 327.127 168.903 326.711 168.672C326.303 168.435 325.98 168.105 325.742 167.683C325.512 167.255 325.396 166.76 325.396 166.2C325.396 165.639 325.508 165.148 325.732 164.726C325.963 164.298 326.283 163.968 326.692 163.737C327.107 163.507 327.582 163.391 328.116 163.391C328.63 163.391 329.088 163.503 329.49 163.728C329.892 163.952 330.206 164.268 330.43 164.677C330.654 165.079 330.766 165.544 330.766 166.071ZM329.589 165.715C329.583 165.3 329.434 164.967 329.144 164.716C328.854 164.466 328.495 164.341 328.066 164.341C327.677 164.341 327.344 164.466 327.067 164.716C326.79 164.96 326.626 165.293 326.573 165.715H329.589ZM331.401 166.18C331.401 165.633 331.513 165.148 331.737 164.726C331.968 164.304 332.277 163.978 332.666 163.747C333.062 163.51 333.5 163.391 333.982 163.391C334.338 163.391 334.687 163.47 335.03 163.629C335.379 163.78 335.656 163.985 335.861 164.242V161.611H336.998V168.929H335.861V168.108C335.676 168.372 335.419 168.59 335.089 168.761C334.766 168.932 334.394 169.018 333.972 169.018C333.497 169.018 333.062 168.9 332.666 168.662C332.277 168.418 331.968 168.082 331.737 167.654C331.513 167.218 331.401 166.727 331.401 166.18ZM335.861 166.2C335.861 165.824 335.782 165.498 335.623 165.221C335.472 164.944 335.271 164.733 335.02 164.588C334.77 164.443 334.499 164.37 334.209 164.37C333.919 164.37 333.649 164.443 333.398 164.588C333.148 164.726 332.943 164.934 332.785 165.211C332.633 165.481 332.558 165.804 332.558 166.18C332.558 166.556 332.633 166.885 332.785 167.169C332.943 167.452 333.148 167.67 333.398 167.822C333.655 167.967 333.926 168.039 334.209 168.039C334.499 168.039 334.77 167.967 335.02 167.822C335.271 167.677 335.472 167.466 335.623 167.189C335.782 166.905 335.861 166.576 335.861 166.2ZM339.616 167.574L338.419 170.304H337.687L338.39 167.574H339.616Z" fill="#193F3F"/>
<path opacity="0.5" d="M345.992 167.396C346.625 166.849 347.123 166.401 347.486 166.051C347.855 165.695 348.161 165.326 348.405 164.944C348.649 164.562 348.771 164.179 348.771 163.797C348.771 163.401 348.676 163.091 348.484 162.867C348.3 162.643 348.006 162.531 347.604 162.531C347.215 162.531 346.912 162.656 346.694 162.907C346.483 163.151 346.371 163.48 346.358 163.896H345.27C345.29 163.144 345.514 162.571 345.943 162.175C346.378 161.773 346.928 161.572 347.594 161.572C348.313 161.572 348.873 161.77 349.275 162.165C349.684 162.561 349.889 163.088 349.889 163.747C349.889 164.222 349.767 164.68 349.523 165.122C349.285 165.557 348.999 165.949 348.662 166.299C348.333 166.642 347.911 167.04 347.397 167.495L346.952 167.891H350.086V168.83H345.28V168.01L345.992 167.396ZM350.839 167.426V166.576L354.162 161.809H355.527V166.447H356.447V167.426H355.527V168.929H354.419V167.426H350.839ZM354.469 162.956L352.135 166.447H354.469V162.956ZM357.262 163.5C357.302 162.887 357.536 162.409 357.964 162.066C358.399 161.723 358.953 161.552 359.625 161.552C360.087 161.552 360.486 161.634 360.822 161.799C361.158 161.964 361.412 162.188 361.584 162.472C361.755 162.755 361.841 163.075 361.841 163.431C361.841 163.84 361.732 164.189 361.514 164.479C361.297 164.769 361.036 164.964 360.733 165.063V165.102C361.122 165.221 361.425 165.438 361.643 165.755C361.86 166.065 361.969 166.464 361.969 166.951C361.969 167.34 361.88 167.686 361.702 167.99C361.524 168.293 361.26 168.534 360.911 168.712C360.562 168.883 360.143 168.969 359.655 168.969C358.943 168.969 358.356 168.787 357.895 168.425C357.44 168.056 357.196 167.528 357.163 166.843H358.251C358.277 167.192 358.412 167.479 358.656 167.703C358.9 167.921 359.23 168.029 359.645 168.029C360.047 168.029 360.357 167.921 360.575 167.703C360.792 167.479 360.901 167.192 360.901 166.843C360.901 166.381 360.753 166.055 360.456 165.864C360.166 165.666 359.718 165.567 359.111 165.567H358.854V164.637H359.121C359.655 164.631 360.061 164.542 360.337 164.37C360.621 164.199 360.763 163.929 360.763 163.559C360.763 163.243 360.661 162.992 360.456 162.808C360.252 162.617 359.962 162.521 359.586 162.521C359.217 162.521 358.93 162.617 358.726 162.808C358.521 162.992 358.399 163.223 358.36 163.5H357.262ZM364.459 166.971C364.525 167.301 364.666 167.551 364.884 167.723C365.102 167.894 365.395 167.98 365.764 167.98C366.232 167.98 366.575 167.795 366.793 167.426C367.01 167.057 367.119 166.427 367.119 165.537C366.961 165.761 366.737 165.936 366.446 166.061C366.163 166.18 365.853 166.239 365.517 166.239C365.088 166.239 364.699 166.154 364.35 165.982C364.001 165.804 363.724 165.544 363.519 165.201C363.322 164.852 363.223 164.43 363.223 163.935C363.223 163.21 363.434 162.633 363.856 162.205C364.284 161.77 364.871 161.552 365.616 161.552C366.512 161.552 367.149 161.852 367.524 162.452C367.907 163.045 368.098 163.958 368.098 165.191C368.098 166.042 368.025 166.737 367.88 167.278C367.742 167.818 367.498 168.227 367.149 168.504C366.799 168.781 366.315 168.919 365.695 168.919C364.989 168.919 364.446 168.735 364.063 168.366C363.681 167.996 363.467 167.532 363.42 166.971H364.459ZM365.715 165.29C366.11 165.29 366.42 165.168 366.644 164.924C366.875 164.674 366.99 164.344 366.99 163.935C366.99 163.48 366.868 163.128 366.624 162.877C366.387 162.62 366.061 162.491 365.645 162.491C365.23 162.491 364.9 162.623 364.657 162.887C364.419 163.144 364.301 163.484 364.301 163.906C364.301 164.308 364.416 164.641 364.647 164.904C364.884 165.161 365.24 165.29 365.715 165.29ZM378.447 163.391C378.876 163.391 379.258 163.48 379.594 163.658C379.937 163.836 380.204 164.1 380.395 164.449C380.593 164.799 380.692 165.221 380.692 165.715V168.929H379.575V165.883C379.575 165.395 379.453 165.023 379.209 164.766C378.965 164.502 378.632 164.37 378.21 164.37C377.788 164.37 377.452 164.502 377.201 164.766C376.957 165.023 376.835 165.395 376.835 165.883V168.929H375.718V165.883C375.718 165.395 375.596 165.023 375.352 164.766C375.108 164.502 374.775 164.37 374.353 164.37C373.931 164.37 373.595 164.502 373.344 164.766C373.1 165.023 372.979 165.395 372.979 165.883V168.929H371.851V163.48H372.979V164.103C373.163 163.879 373.397 163.704 373.681 163.579C373.964 163.454 374.267 163.391 374.59 163.391C375.026 163.391 375.415 163.484 375.757 163.668C376.1 163.853 376.364 164.12 376.548 164.469C376.713 164.14 376.97 163.879 377.32 163.688C377.669 163.49 378.045 163.391 378.447 163.391ZM381.652 166.18C381.652 165.633 381.764 165.148 381.988 164.726C382.219 164.304 382.529 163.978 382.918 163.747C383.313 163.51 383.748 163.391 384.223 163.391C384.652 163.391 385.024 163.477 385.341 163.648C385.664 163.813 385.921 164.021 386.112 164.271V163.48H387.249V168.929H386.112V168.118C385.921 168.375 385.66 168.59 385.331 168.761C385.001 168.932 384.625 169.018 384.203 169.018C383.735 169.018 383.307 168.9 382.918 168.662C382.529 168.418 382.219 168.082 381.988 167.654C381.764 167.218 381.652 166.727 381.652 166.18ZM386.112 166.2C386.112 165.824 386.033 165.498 385.875 165.221C385.723 164.944 385.522 164.733 385.271 164.588C385.021 164.443 384.75 164.37 384.46 164.37C384.17 164.37 383.9 164.443 383.649 164.588C383.399 164.726 383.195 164.934 383.036 165.211C382.885 165.481 382.809 165.804 382.809 166.18C382.809 166.556 382.885 166.885 383.036 167.169C383.195 167.452 383.399 167.67 383.649 167.822C383.907 167.967 384.177 168.039 384.46 168.039C384.75 168.039 385.021 167.967 385.271 167.822C385.522 167.677 385.723 167.466 385.875 167.189C386.033 166.905 386.112 166.576 386.112 166.2ZM391.38 163.391C391.809 163.391 392.191 163.48 392.527 163.658C392.87 163.836 393.137 164.1 393.328 164.449C393.519 164.799 393.615 165.221 393.615 165.715V168.929H392.498V165.883C392.498 165.395 392.376 165.023 392.132 164.766C391.888 164.502 391.555 164.37 391.133 164.37C390.711 164.37 390.375 164.502 390.124 164.766C389.88 165.023 389.758 165.395 389.758 165.883V168.929H388.631V163.48H389.758V164.103C389.943 163.879 390.177 163.704 390.46 163.579C390.751 163.454 391.057 163.391 391.38 163.391ZM399.889 163.48V168.929H398.761V168.286C398.583 168.511 398.349 168.689 398.059 168.82C397.776 168.946 397.473 169.008 397.15 169.008C396.721 169.008 396.335 168.919 395.993 168.741C395.656 168.563 395.389 168.3 395.192 167.95C395 167.601 394.905 167.179 394.905 166.684V163.48H396.022V166.516C396.022 167.004 396.144 167.38 396.388 167.644C396.632 167.901 396.965 168.029 397.387 168.029C397.809 168.029 398.142 167.901 398.386 167.644C398.636 167.38 398.761 167.004 398.761 166.516V163.48H399.889ZM400.902 166.18C400.902 165.633 401.014 165.148 401.238 164.726C401.469 164.304 401.778 163.978 402.167 163.747C402.563 163.51 402.998 163.391 403.473 163.391C403.901 163.391 404.274 163.477 404.59 163.648C404.913 163.813 405.17 164.021 405.362 164.271V163.48H406.499V168.929H405.362V168.118C405.17 168.375 404.91 168.59 404.58 168.761C404.251 168.932 403.875 169.018 403.453 169.018C402.985 169.018 402.556 168.9 402.167 168.662C401.778 168.418 401.469 168.082 401.238 167.654C401.014 167.218 400.902 166.727 400.902 166.18ZM405.362 166.2C405.362 165.824 405.282 165.498 405.124 165.221C404.973 164.944 404.772 164.733 404.521 164.588C404.27 164.443 404 164.37 403.71 164.37C403.42 164.37 403.15 164.443 402.899 164.588C402.649 164.726 402.444 164.934 402.286 165.211C402.134 165.481 402.059 165.804 402.059 166.18C402.059 166.556 402.134 166.885 402.286 167.169C402.444 167.452 402.649 167.67 402.899 167.822C403.156 167.967 403.427 168.039 403.71 168.039C404 168.039 404.27 167.967 404.521 167.822C404.772 167.677 404.973 167.466 405.124 167.189C405.282 166.905 405.362 166.576 405.362 166.2ZM409.008 161.611V168.929H407.881V161.611H409.008Z" fill="#193F3F"/>
<defs>
<clipPath id="clip0_1602_3890">
<rect width="13.1851" height="13.1851" fill="white" transform="translate(17.2397 128.074)"/>
</clipPath>
</defs>
</svg>
