<svg version="1.2" xmlns="http://www.w3.org/2000/svg" viewBox="0 0 496 71" width="496" height="71">
	<title>footer-logo-svg</title>
	<style>
		.s0 { fill: #ffffff } 
	</style>
	<path id="Layer" fill-rule="evenodd" class="s0" d="m38.7 25.5q-1.8-3.9-5.4-6-3.5-2.2-8.1-2.2-4.7 0-8.5 2.2-3.7 2.1-5.9 6.1-2.1 4-2.1 9.2 0 5.3 2.1 9.3 2.2 3.9 5.9 6.1 3.8 2.1 8.5 2.1 6.5 0 10.7-3.9 4.2-3.9 4.9-10.6h-17.8v-4.7h24v4.5q-0.5 5.5-3.4 10.1-3 4.5-7.8 7.2-4.8 2.7-10.6 2.7-6.3 0-11.4-2.9-5.1-3-8.1-8.1-2.9-5.2-2.9-11.8 0-6.5 2.9-11.7 3-5.2 8.1-8.1 5.1-2.9 11.4-2.9 7.1 0 12.5 3.5 5.5 3.5 8 9.9zm44.2 12.8q0 1.7-0.2 3.5h-28q0.3 5.2 3.5 8.1 3.2 2.9 7.8 2.9 3.8 0 6.3-1.7 2.6-1.8 3.6-4.7h6.3q-1.4 5-5.7 8.2-4.2 3.2-10.5 3.2-4.9 0-8.9-2.3-3.9-2.2-6.2-6.3-2.2-4.2-2.2-9.6 0-5.5 2.2-9.6 2.2-4.1 6.1-6.2 3.9-2.3 9-2.3 5 0 8.9 2.2 3.8 2.2 5.9 6 2.1 3.8 2.1 8.6zm-6-1.2q0-3.3-1.5-5.7-1.5-2.4-4-3.7-2.5-1.2-5.6-1.2-4.4 0-7.6 2.8-3 2.8-3.5 7.8zm17-10.2v20.7q0 2.5 1.1 3.6 1.1 1 3.7 1h4.3v5h-5.2q-4.9 0-7.3-2.3-2.4-2.2-2.4-7.3v-20.7h-4.6v-4.8h4.6v-8.8h5.8v8.8h9.1v4.8zm31.5-14.3v44.6h-5.9v-44.6zm23.2 8.9q6.4 0 10.4 3.9 3.9 3.8 3.9 11.1v20.7h-5.7v-19.9q0-5.2-2.6-8-2.7-2.8-7.2-2.8-4.6 0-7.4 2.9-2.7 2.9-2.7 8.4v19.4h-5.8v-35.1h5.8v5q1.8-2.7 4.7-4.2 3-1.4 6.6-1.4zm60.7-8.9v4.7h-12.2v39.9h-5.8v-39.9h-12.2v-4.7zm18.6 45.2q-4.9 0-9-2.3-3.9-2.2-6.2-6.3-2.3-4.2-2.3-9.6 0-5.4 2.3-9.5 2.4-4.2 6.4-6.3 4.1-2.3 9.1-2.3 5 0 9 2.3 4 2.1 6.3 6.2 2.4 4.1 2.4 9.6 0 5.4-2.4 9.6-2.4 4.1-6.5 6.3-4.1 2.3-9.1 2.3zm0-5.2q3.1 0 5.9-1.4 2.7-1.5 4.4-4.5 1.7-2.9 1.7-7.1 0-4.2-1.6-7.2-1.7-2.9-4.4-4.3-2.7-1.5-5.8-1.5-3.2 0-5.9 1.5-2.6 1.4-4.2 4.3-1.6 3-1.6 7.2 0 4.3 1.5 7.2 1.6 3 4.2 4.4 2.7 1.4 5.8 1.4zm52.9-30.5v35.1h-5.8v-5.2q-1.7 2.7-4.7 4.2-2.9 1.5-6.5 1.5-4.1 0-7.4-1.7-3.2-1.7-5.2-5.1-1.8-3.4-1.8-8.3v-20.5h5.7v19.8q0 5.2 2.7 8 2.6 2.7 7.1 2.7 4.7 0 7.4-2.8 2.7-2.9 2.7-8.4v-19.3zm3.8 17.5q0-5.5 2.2-9.5 2.2-4.1 6-6.3 3.9-2.3 8.9-2.3 6.5 0 10.6 3.2 4.2 3.1 5.6 8.7h-6.3q-0.9-3.2-3.5-5.1-2.6-1.8-6.4-1.8-5 0-8.1 3.4-3 3.4-3 9.7 0 6.3 3 9.8 3.1 3.4 8.1 3.4 3.8 0 6.4-1.8 2.6-1.8 3.5-5.1h6.3q-1.4 5.4-5.6 8.7-4.3 3.2-10.6 3.2-5 0-8.9-2.3-3.8-2.2-6-6.3-2.2-4.1-2.2-9.6zm54.6-18.1q4 0 7.2 1.7 3.2 1.7 5 5 1.8 3.4 1.8 8.3v20.7h-5.7v-19.9q0-5.2-2.6-8-2.7-2.8-7.2-2.8-4.6 0-7.4 2.9-2.7 2.9-2.7 8.4v19.4h-5.8v-47.4h5.8v17.3q1.8-2.7 4.8-4.2 3-1.4 6.8-1.4z"/>
	<path id="Layer" fill-rule="evenodd" class="s0" d="m468 35.2h-27.4l-15.6 35.2h27.4z"/>
	<path id="Layer" fill-rule="evenodd" class="s0" d="m483 1h-27.4l-15.6 35.2h27.4z"/>
	<path id="Layer" fill-rule="evenodd" class="s0" d="m382 35.2h27.4l15.6 35.2h-27.4z"/>
</svg>