<svg width="496" height="71" viewBox="0 0 496 71" fill="none" xmlns="http://www.w3.org/2000/svg">
<path d="M38.72 25.497C37.4827 22.8943 35.6907 20.889 33.344 19.481C30.9973 18.0303 28.2667 17.305 25.152 17.305C22.0373 17.305 19.2213 18.0303 16.704 19.481C14.2293 20.889 12.2667 22.937 10.816 25.625C9.408 28.2703 8.704 31.3423 8.704 34.841C8.704 38.3397 9.408 41.4117 10.816 44.057C12.2667 46.7023 14.2293 48.7503 16.704 50.201C19.2213 51.609 22.0373 52.313 25.152 52.313C29.504 52.313 33.088 51.0117 35.904 48.409C38.72 45.8063 40.3627 42.2863 40.832 37.849H23.04V33.113H47.04V37.593C46.6987 41.2623 45.5467 44.633 43.584 47.705C41.6213 50.7343 39.04 53.145 35.84 54.937C32.64 56.6863 29.0773 57.561 25.152 57.561C21.0133 57.561 17.2373 56.601 13.824 54.681C10.4107 52.7183 7.70133 50.009 5.696 46.553C3.73333 43.097 2.752 39.193 2.752 34.841C2.752 30.489 3.73333 26.585 5.696 23.129C7.70133 19.6303 10.4107 16.921 13.824 15.001C17.2373 13.0383 21.0133 12.057 25.152 12.057C29.888 12.057 34.0693 13.2303 37.696 15.577C41.3653 17.9237 44.032 21.2303 45.696 25.497H38.72ZM82.9005 38.297C82.9005 39.4063 82.8365 40.5797 82.7085 41.817H54.6765C54.8898 45.273 56.0632 47.9823 58.1965 49.945C60.3725 51.865 62.9965 52.825 66.0685 52.825C68.5858 52.825 70.6765 52.249 72.3405 51.097C74.0472 49.9023 75.2418 48.3237 75.9245 46.361H82.1965C81.2578 49.7317 79.3805 52.4837 76.5645 54.617C73.7485 56.7077 70.2498 57.753 66.0685 57.753C62.7405 57.753 59.7538 57.0063 57.1085 55.513C54.5058 54.0197 52.4578 51.9077 50.9645 49.177C49.4712 46.4037 48.7245 43.2037 48.7245 39.577C48.7245 35.9503 49.4498 32.7717 50.9005 30.041C52.3512 27.3103 54.3778 25.2197 56.9805 23.769C59.6258 22.2757 62.6552 21.529 66.0685 21.529C69.3965 21.529 72.3405 22.2543 74.9005 23.705C77.4605 25.1557 79.4232 27.161 80.7885 29.721C82.1965 32.2383 82.9005 35.097 82.9005 38.297ZM76.8845 37.081C76.8845 34.8623 76.3938 32.9637 75.4125 31.385C74.4312 29.7637 73.0872 28.5477 71.3805 27.737C69.7165 26.8837 67.8605 26.457 65.8125 26.457C62.8685 26.457 60.3512 27.3957 58.2605 29.273C56.2125 31.1503 55.0392 33.753 54.7405 37.081H76.8845ZM93.852 26.905V47.577C93.852 49.2837 94.2147 50.4997 94.94 51.225C95.6653 51.9077 96.924 52.249 98.716 52.249H103.004V57.177H97.756C94.5133 57.177 92.0813 56.4303 90.46 54.937C88.8387 53.4437 88.028 50.9903 88.028 47.577V26.905H83.484V22.105H88.028V13.273H93.852V22.105H103.004V26.905H93.852ZM125.267 12.569V57.177H119.443V12.569H125.267ZM148.441 21.465C152.708 21.465 156.164 22.7663 158.809 25.369C161.454 27.929 162.777 31.641 162.777 36.505V57.177H157.017V37.337C157.017 33.8383 156.142 31.1717 154.393 29.337C152.644 27.4597 150.254 26.521 147.225 26.521C144.153 26.521 141.7 27.481 139.865 29.401C138.073 31.321 137.177 34.1157 137.177 37.785V57.177H131.353V22.105H137.177V27.097C138.329 25.305 139.886 23.9183 141.849 22.937C143.854 21.9557 146.052 21.465 148.441 21.465ZM209.129 12.569V17.305H196.969V57.177H191.145V17.305H178.921V12.569H209.129ZM227.754 57.753C224.469 57.753 221.482 57.0063 218.794 55.513C216.149 54.0197 214.058 51.9077 212.522 49.177C211.029 46.4037 210.282 43.2037 210.282 39.577C210.282 35.993 211.05 32.8357 212.586 30.105C214.165 27.3317 216.298 25.2197 218.986 23.769C221.674 22.2757 224.682 21.529 228.01 21.529C231.338 21.529 234.346 22.2757 237.034 23.769C239.722 25.2197 241.834 27.3103 243.37 30.041C244.949 32.7717 245.738 35.9503 245.738 39.577C245.738 43.2037 244.927 46.4037 243.306 49.177C241.727 51.9077 239.573 54.0197 236.842 55.513C234.111 57.0063 231.082 57.753 227.754 57.753ZM227.754 52.633C229.845 52.633 231.807 52.1423 233.642 51.161C235.477 50.1797 236.949 48.7077 238.058 46.745C239.21 44.7823 239.786 42.393 239.786 39.577C239.786 36.761 239.231 34.3717 238.122 32.409C237.013 30.4463 235.562 28.9957 233.77 28.057C231.978 27.0757 230.037 26.585 227.946 26.585C225.813 26.585 223.85 27.0757 222.058 28.057C220.309 28.9957 218.901 30.4463 217.834 32.409C216.767 34.3717 216.234 36.761 216.234 39.577C216.234 42.4357 216.746 44.8463 217.77 46.809C218.837 48.7717 220.245 50.2437 221.994 51.225C223.743 52.1637 225.663 52.633 227.754 52.633ZM280.66 22.105V57.177H274.836V51.993C273.726 53.785 272.169 55.193 270.164 56.217C268.201 57.1983 266.025 57.689 263.636 57.689C260.905 57.689 258.452 57.1343 256.276 56.025C254.1 54.873 252.372 53.1663 251.092 50.905C249.854 48.6437 249.236 45.8917 249.236 42.649V22.105H254.996V41.881C254.996 45.337 255.87 48.0037 257.62 49.881C259.369 51.7157 261.758 52.633 264.788 52.633C267.902 52.633 270.356 51.673 272.148 49.753C273.94 47.833 274.836 45.0383 274.836 41.369V22.105H280.66ZM284.477 39.577C284.477 35.9503 285.202 32.793 286.653 30.105C288.104 27.3743 290.109 25.2623 292.669 23.769C295.272 22.2757 298.237 21.529 301.565 21.529C305.874 21.529 309.416 22.5743 312.189 24.665C315.005 26.7557 316.861 29.657 317.757 33.369H311.485C310.888 31.2357 309.714 29.5503 307.965 28.313C306.258 27.0757 304.125 26.457 301.565 26.457C298.237 26.457 295.549 27.609 293.501 29.913C291.453 32.1743 290.429 35.3957 290.429 39.577C290.429 43.801 291.453 47.065 293.501 49.369C295.549 51.673 298.237 52.825 301.565 52.825C304.125 52.825 306.258 52.2277 307.965 51.033C309.672 49.8383 310.845 48.1317 311.485 45.913H317.757C316.818 49.497 314.941 52.377 312.125 54.553C309.309 56.6863 305.789 57.753 301.565 57.753C298.237 57.753 295.272 57.0063 292.669 55.513C290.109 54.0197 288.104 51.9077 286.653 49.177C285.202 46.4463 284.477 43.2463 284.477 39.577ZM339.096 21.465C341.741 21.465 344.131 22.041 346.264 23.193C348.397 24.3023 350.061 25.9877 351.256 28.249C352.493 30.5103 353.112 33.2623 353.112 36.505V57.177H347.352V37.337C347.352 33.8383 346.477 31.1717 344.728 29.337C342.979 27.4597 340.589 26.521 337.56 26.521C334.488 26.521 332.035 27.481 330.2 29.401C328.408 31.321 327.512 34.1157 327.512 37.785V57.177H321.688V9.817H327.512V27.097C328.664 25.305 330.243 23.9183 332.248 22.937C334.296 21.9557 336.579 21.465 339.096 21.465Z" fill="#1B4444"/>
<path fill-rule="evenodd" clip-rule="evenodd" d="M467.989 35.1769L440.629 35.1769L424.994 70.354L452.354 70.354L467.989 35.1769Z" fill="#1B4444"/>
<path fill-rule="evenodd" clip-rule="evenodd" d="M496 -1.87934e-06L468.64 -6.83396e-07L453.006 35.1771L480.366 35.1771L496 -1.87934e-06Z" fill="#1B4444"/>
<path fill-rule="evenodd" clip-rule="evenodd" d="M382 35.1769L409.36 35.1769L424.994 70.354L397.634 70.354L382 35.1769Z" fill="#1B4444"/>
</svg>
