<svg width="86" height="18" fill="none" xmlns="http://www.w3.org/2000/svg"><path d="M16.123 1.836V17h-2.487V6.615L9.011 17H7.287L2.64 6.615V17H.152V1.836h2.684L8.16 13.727l5.301-11.89h2.662zm6.084 15.36c-1.018 0-1.913-.21-2.684-.632a4.558 4.558 0 0 1-1.81-1.79c-.422-.77-.633-1.65-.633-2.64 0-1.352.313-2.589.938-3.709a7.183 7.183 0 0 1 2.618-2.661c1.12-.655 2.364-.982 3.731-.982 1.018 0 1.92.218 2.706.654a4.522 4.522 0 0 1 1.832 1.79c.451.756.677 1.636.677 2.64 0 1.352-.328 2.588-.982 3.709a7.3 7.3 0 0 1-2.662 2.661c-1.12.64-2.364.96-3.731.96zm.305-2.094c.83 0 1.586-.233 2.27-.698a4.982 4.982 0 0 0 1.636-1.877c.393-.785.589-1.621.589-2.509 0-1.003-.284-1.774-.85-2.313-.568-.552-1.28-.829-2.14-.829-.843 0-1.6.24-2.268.72-.655.466-1.171 1.099-1.55 1.899a5.951 5.951 0 0 0-.545 2.53c0 .975.262 1.731.786 2.27.538.538 1.229.807 2.072.807zm7.346-4.168c0-1.207.248-2.276.742-3.207a5.533 5.533 0 0 1 4.953-2.945c.785 0 1.556.174 2.313.523.77.335 1.382.786 1.833 1.353V.855h2.509V17h-2.51v-1.81c-.407.58-.974 1.06-1.701 1.44-.713.377-1.535.566-2.466.566a5.493 5.493 0 0 1-2.88-.785c-.858-.538-1.542-1.28-2.05-2.226-.495-.96-.742-2.043-.742-3.25zm9.84.044c0-.829-.174-1.549-.523-2.16-.335-.61-.778-1.076-1.331-1.396a3.51 3.51 0 0 0-1.79-.48c-.64 0-1.236.16-1.788.48-.553.305-1.004.763-1.353 1.374-.334.597-.502 1.31-.502 2.139 0 .829.167 1.556.502 2.181.35.626.8 1.106 1.353 1.44a3.59 3.59 0 0 0 1.789.48c.64 0 1.236-.16 1.789-.48.553-.32.996-.785 1.33-1.396.35-.626.525-1.353.525-2.182zm3.638 0c0-1.236.248-2.32.742-3.25.51-.946 1.207-1.673 2.095-2.183.887-.509 1.905-.763 3.054-.763 1.455 0 2.655.349 3.6 1.047.96.684 1.608 1.666 1.942 2.946h-2.683c-.219-.597-.568-1.062-1.048-1.397-.48-.334-1.083-.502-1.81-.502-1.019 0-1.833.364-2.444 1.091-.597.713-.895 1.717-.895 3.011 0 1.295.298 2.306.895 3.033.61.727 1.425 1.09 2.443 1.09 1.44 0 2.393-.632 2.859-1.897h2.683c-.349 1.221-1.003 2.196-1.963 2.923-.96.713-2.153 1.07-3.579 1.07-1.149 0-2.167-.255-3.054-.764a5.599 5.599 0 0 1-2.095-2.182c-.494-.945-.742-2.037-.742-3.273zM60.15.855 57.292 17h-2.488L57.662.855h2.488zm11.12 4.123V17h-2.487v-1.418c-.393.494-.91.887-1.55 1.178a4.91 4.91 0 0 1-2.007.414c-.945 0-1.796-.196-2.553-.588-.741-.393-1.33-.975-1.767-1.746-.422-.77-.633-1.702-.633-2.793V4.978h2.466v6.698c0 1.077.269 1.906.807 2.488.538.567 1.273.85 2.204.85.93 0 1.665-.283 2.203-.85.553-.582.83-1.411.83-2.488V4.978h2.487zm4.46 1.79c.422-.583.996-1.055 1.723-1.419.742-.378 1.564-.567 2.466-.567 1.062 0 2.022.254 2.88.763.858.51 1.534 1.237 2.029 2.182.495.931.742 2 .742 3.207 0 1.208-.247 2.292-.742 3.252a5.613 5.613 0 0 1-2.051 2.225 5.38 5.38 0 0 1-2.858.785c-.931 0-1.76-.181-2.487-.545-.713-.364-1.28-.83-1.702-1.396V17h-2.487V.855h2.487v5.912zm7.309 4.167c0-.83-.175-1.542-.524-2.139-.334-.61-.785-1.069-1.353-1.374a3.51 3.51 0 0 0-1.789-.48c-.625 0-1.221.16-1.789.48-.552.32-1.003.785-1.352 1.396-.335.611-.502 1.331-.502 2.16 0 .83.167 1.556.502 2.182.349.61.8 1.076 1.352 1.396.568.32 1.164.48 1.79.48.64 0 1.236-.16 1.788-.48.568-.334 1.019-.814 1.353-1.44.35-.625.524-1.352.524-2.181z" fill="#fff"/></svg>