<svg width="78" height="19" fill="none" xmlns="http://www.w3.org/2000/svg"><path d="M11.5 14.177H9.68l-7.32-11.1v11.1H.54V.217h1.82l7.32 11.08V.217h1.82v13.96zm11.902-5.9c0 .347-.02.713-.06 1.1h-8.76c.067 1.08.434 1.927 1.1 2.54.68.6 1.5.9 2.46.9.787 0 1.44-.18 1.96-.54a2.946 2.946 0 0 0 1.12-1.48h1.96a4.76 4.76 0 0 1-1.76 2.58c-.88.653-1.973.98-3.28.98-1.04 0-1.973-.233-2.8-.7a4.992 4.992 0 0 1-1.92-1.98c-.466-.867-.7-1.867-.7-3s.227-2.127.68-2.98a4.727 4.727 0 0 1 1.9-1.96c.827-.467 1.774-.7 2.84-.7 1.04 0 1.96.227 2.76.68.8.453 1.414 1.08 1.84 1.88.44.787.66 1.68.66 2.68zm-1.88-.38c0-.693-.153-1.287-.46-1.78a2.895 2.895 0 0 0-1.26-1.14c-.52-.267-1.1-.4-1.74-.4-.92 0-1.706.293-2.36.88-.64.587-1.006 1.4-1.1 2.44h6.92zm8.803 6.28-2.6-4.08-2.5 4.08h-1.9l3.54-5.44-3.54-5.52h2.06l2.6 4.06 2.48-4.06h1.9l-3.52 5.42 3.54 5.54h-2.06zm4.87-9.46v6.46c0 .533.114.913.34 1.14.227.213.62.32 1.18.32h1.34v1.54h-1.64c-1.013 0-1.773-.233-2.28-.7-.506-.467-.76-1.233-.76-2.3v-6.46h-1.42v-1.5h1.42V.457h1.82v2.76h2.86v1.5h-2.86zm10.517 3.78.1-.4h.9c.987 0 1.82-.133 2.5-.4.68-.28 1.227-.667 1.64-1.16.414-.493.714-1.06.9-1.7.187-.653.28-1.353.28-2.1 0-.787-.2-1.367-.6-1.74-.386-.387-1.033-.58-1.94-.58-.386 0-.7.053-.94.16-.226.093-.413.267-.56.52-.133.24-.26.587-.38 1.04l-2.64 9.92a5.352 5.352 0 0 0-.18 1c-.013.24.074.42.26.54.2.107.567.167 1.1.18l-.08.4c-.306-.027-.68-.04-1.12-.04a52.056 52.056 0 0 0-2.84 0c-.466 0-.84.013-1.12.04l.08-.4c.454-.027.807-.08 1.06-.16.254-.08.454-.24.6-.48.147-.24.28-.6.4-1.08l2.64-9.92c.12-.427.174-.76.16-1 0-.253-.1-.433-.3-.54-.2-.12-.546-.18-1.04-.18l.1-.4a54.569 54.569 0 0 0 3.9.04c.494-.013.987-.02 1.48-.02 1.347 0 2.347.28 3 .84.654.547.98 1.273.98 2.18 0 1.04-.32 1.973-.96 2.8-.626.813-1.506 1.46-2.64 1.94-1.133.467-2.446.7-3.94.7h-.8zm8.962 5.32c.32 0 .687-.2 1.1-.6.414-.413.834-.967 1.26-1.66.427-.693.82-1.48 1.18-2.36.36-.88.647-1.793.86-2.74l-.34 2.16c-.506 1.413-1.013 2.553-1.52 3.42-.506.853-1.02 1.473-1.54 1.86-.52.373-1.046.56-1.58.56-.626 0-1.1-.227-1.42-.68-.306-.453-.46-1.033-.46-1.74 0-.64.107-1.333.32-2.08.214-.76.507-1.513.88-2.26.387-.747.827-1.427 1.32-2.04a6.902 6.902 0 0 1 1.6-1.48c.587-.373 1.18-.56 1.78-.56.467 0 .82.233 1.06.7.254.453.307 1.093.16 1.92l-.22.12c.094-.707.047-1.273-.14-1.7-.186-.44-.493-.66-.92-.66-.346 0-.713.173-1.1.52-.373.333-.74.793-1.1 1.38-.346.573-.666 1.22-.96 1.94-.28.72-.506 1.467-.68 2.24-.16.76-.24 1.493-.24 2.2 0 .573.06.973.18 1.2.134.227.307.34.52.34zm5.04-9.92c.32-.013.64-.04.96-.08.32-.04.614-.107.88-.2l-2.5 8.84c-.026.12-.066.28-.12.48-.04.187-.04.36 0 .52.054.16.194.24.42.24.267 0 .527-.147.78-.44.254-.293.507-.827.76-1.6l.24-.74h.38l-.5 1.46c-.186.533-.413.953-.68 1.26-.253.293-.52.5-.8.62a1.9 1.9 0 0 1-.82.2c-.52 0-.886-.173-1.1-.52-.173-.307-.22-.66-.14-1.06.08-.413.174-.827.28-1.24l1.96-7.74zm5.91 5.78.5.02c-.48.267-.927.513-1.34.74-.4.213-.728.413-.98.6-.254.187-.38.367-.38.54 0 .133.093.26.28.38.186.107.492.213.92.32l1.46.38a7.13 7.13 0 0 1 1.14.38c.346.133.62.307.82.52.2.213.3.493.3.84 0 .333-.114.707-.34 1.12-.214.427-.554.833-1.02 1.22-.454.387-1.047.707-1.78.96-.734.253-1.62.38-2.66.38-.694 0-1.274-.067-1.74-.2-.48-.12-.834-.293-1.06-.52-.24-.227-.36-.487-.36-.78 0-.213.06-.44.18-.68.12-.227.3-.453.54-.68.226-.213.52-.42.88-.62.346-.187.76-.347 1.24-.48l.14.3c-.494.253-.834.54-1.02.86-.188.32-.28.64-.28.96 0 .533.186.913.56 1.14.372.24.832.36 1.38.36.44 0 .893-.073 1.36-.22.466-.133.9-.32 1.3-.56.4-.227.72-.493.96-.8.24-.307.36-.627.36-.96 0-.2-.067-.333-.2-.4-.12-.067-.328-.133-.62-.2l-3.06-.78c-.32-.08-.58-.213-.78-.4-.2-.2-.3-.467-.3-.8 0-.267.093-.54.28-.82.186-.28.54-.587 1.06-.92.52-.347 1.273-.747 2.26-1.2zm1.02-5.7c-.428 0-.788.127-1.08.38-.294.24-.54.553-.74.94a5.967 5.967 0 0 0-.44 1.18c-.094.413-.16.793-.2 1.14-.04.333-.06.58-.06.74 0 .427.093.733.28.92.2.187.46.28.78.28.506 0 .913-.153 1.22-.46a3.07 3.07 0 0 0 .74-1.14c.172-.453.286-.907.34-1.36.066-.453.1-.833.1-1.14 0-.453-.06-.813-.18-1.08-.12-.267-.374-.4-.76-.4zm.08-.36c.786 0 1.42.18 1.9.54.493.347.74.913.74 1.7 0 .64-.18 1.273-.54 1.9a4.47 4.47 0 0 1-1.52 1.56c-.654.4-1.428.6-2.32.6-.734 0-1.354-.173-1.86-.52-.494-.36-.74-.913-.74-1.66 0-.36.072-.773.22-1.24.16-.48.406-.933.74-1.36.332-.44.773-.8 1.32-1.08.56-.293 1.246-.44 2.06-.44zm1.42 1.04-.36-.14c.186-.453.506-.853.96-1.2.453-.347.926-.52 1.42-.52.346 0 .626.1.84.3.212.187.32.487.32.9 0 .373-.094.647-.28.82-.188.173-.388.26-.6.26-.214 0-.42-.067-.62-.2-.188-.147-.3-.373-.34-.68-.04-.307.046-.7.26-1.18l.26.06c-.56.213-.96.44-1.2.68-.24.227-.46.527-.66.9zm2.623 4.98c.747-.253 1.42-.5 2.02-.74.614-.253 1.1-.52 1.46-.8a4.29 4.29 0 0 0 1.14-1.4 3.89 3.89 0 0 0 .42-1.8c0-.387-.026-.633-.08-.74-.053-.107-.133-.16-.24-.16-.333 0-.693.147-1.08.44-.386.293-.766.7-1.14 1.22-.373.507-.72 1.087-1.04 1.74a11.484 11.484 0 0 0-.74 2.1 8.886 8.886 0 0 0-.28 2.2c0 .68.127 1.173.38 1.48.254.293.587.44 1 .44.48 0 .987-.147 1.52-.44.534-.293 1.054-.813 1.56-1.56l.32.16a6.19 6.19 0 0 1-1 1.28 5.55 5.55 0 0 1-1.4 1.02 3.574 3.574 0 0 1-1.62.38c-.533 0-1-.107-1.4-.32a2.161 2.161 0 0 1-.92-.94c-.213-.427-.32-.947-.32-1.56 0-.573.107-1.213.32-1.92.214-.72.514-1.433.9-2.14.4-.72.874-1.38 1.42-1.98a6.882 6.882 0 0 1 1.82-1.44c.667-.36 1.38-.54 2.14-.54.414 0 .76.113 1.04.34.294.213.44.54.44.98 0 .533-.16 1.033-.48 1.5-.306.453-.72.873-1.24 1.26-.506.373-1.06.707-1.66 1-.6.293-1.186.547-1.76.76-.573.213-1.08.387-1.52.52l.02-.34z" fill="#1B4444"/></svg>