<svg width="411" height="247" fill="none" xmlns="http://www.w3.org/2000/svg"><circle cx="217.5" cy="258.5" r="253.5" stroke="#66DD95" stroke-width="2"/><path d="M300 217.5C300 337.072 203.291 434 84 434s-216-96.928-216-216.5S-35.291 1 84 1s216 96.928 216 216.5z" stroke="#66DD95" stroke-width="2"/><g clip-path="url(#a)"><rect x="40" y="29" width="329" height="559.781" rx="8" fill="#fff"/><path d="M67.408 58.419H64.21l-.55 1.56h-1.307l2.736-7.649h1.45l2.737 7.649h-1.319l-.55-1.56zm-.352-1.022-1.242-3.55-1.252 3.55h2.494zm2.882-.473c0-.608.125-1.147.374-1.616a2.791 2.791 0 0 1 2.495-1.483c.395 0 .784.088 1.165.264.388.168.696.395.923.681v-2.923h1.264v8.132h-1.264v-.912c-.206.293-.491.535-.858.725a2.61 2.61 0 0 1-1.241.286 2.767 2.767 0 0 1-1.451-.396 2.937 2.937 0 0 1-1.033-1.12c-.25-.484-.374-1.03-.374-1.638zm4.957.022c0-.418-.088-.78-.264-1.088a1.775 1.775 0 0 0-.67-.703 1.768 1.768 0 0 0-.902-.242c-.322 0-.622.08-.9.242a1.77 1.77 0 0 0-.682.692c-.169.3-.253.66-.253 1.077 0 .418.084.784.253 1.099.176.315.403.557.681.725a1.807 1.807 0 0 0 1.802 0c.279-.161.502-.395.67-.703.177-.315.265-.681.265-1.1zm2.382-.022c0-.608.124-1.147.373-1.616a2.791 2.791 0 0 1 2.495-1.483c.395 0 .784.088 1.165.264.388.168.696.395.923.681v-2.923h1.264v8.132h-1.264v-.912c-.205.293-.491.535-.857.725a2.61 2.61 0 0 1-1.242.286 2.767 2.767 0 0 1-1.45-.396 2.937 2.937 0 0 1-1.034-1.12c-.249-.484-.374-1.03-.374-1.638zm4.956.022c0-.418-.088-.78-.264-1.088a1.775 1.775 0 0 0-.67-.703 1.768 1.768 0 0 0-.902-.242c-.322 0-.622.08-.9.242a1.77 1.77 0 0 0-.682.692c-.168.3-.253.66-.253 1.077 0 .418.085.784.253 1.099.176.315.403.557.681.725a1.807 1.807 0 0 0 1.803 0c.278-.161.501-.395.67-.703.176-.315.264-.681.264-1.1zm15.49-4.605-2.264 7.638H94.04l-1.604-5.78-1.704 5.78-1.407.011-2.164-7.649h1.33l1.582 6.22 1.714-6.22h1.407l1.593 6.187 1.594-6.187h1.34zm1.56.78a.776.776 0 0 1-.571-.23.776.776 0 0 1-.23-.572c0-.227.076-.417.23-.571a.776.776 0 0 1 .571-.231c.22 0 .407.077.56.23a.777.777 0 0 1 .232.572.776.776 0 0 1-.231.572.763.763 0 0 1-.56.23zm.616.803v6.055h-1.253v-6.055h1.253zm1.117 3c0-.608.125-1.147.374-1.616a2.783 2.783 0 0 1 2.494-1.483c.396 0 .784.088 1.165.264.389.168.696.395.923.681v-2.923h1.264v8.132h-1.264v-.912a2.336 2.336 0 0 1-.857.725 2.61 2.61 0 0 1-1.242.286 2.765 2.765 0 0 1-1.45-.396 2.927 2.927 0 0 1-1.033-1.12 3.525 3.525 0 0 1-.374-1.638zm4.956.022c0-.418-.088-.78-.263-1.088a1.767 1.767 0 0 0-1.572-.945c-.322 0-.623.08-.901.242a1.766 1.766 0 0 0-.681.692c-.169.3-.253.66-.253 1.077 0 .418.084.784.253 1.099.175.315.403.557.681.725a1.808 1.808 0 0 0 1.802 0c.279-.161.502-.395.671-.703.175-.315.263-.681.263-1.1zm5.239-3.121c.469 0 .883.095 1.242.286.367.183.652.414.857.692v-.88h1.264v6.155c0 .557-.117 1.051-.351 1.483-.235.44-.576.784-1.022 1.033-.44.25-.968.374-1.583.374-.82 0-1.502-.194-2.044-.582a2.111 2.111 0 0 1-.923-1.56h1.242c.095.314.296.567.604.758.315.197.689.296 1.121.296.506 0 .912-.154 1.22-.461.315-.308.472-.755.472-1.341v-1.011a2.583 2.583 0 0 1-2.099 1.01 2.765 2.765 0 0 1-1.45-.395 2.935 2.935 0 0 1-1.033-1.12 3.525 3.525 0 0 1-.374-1.638c0-.608.125-1.147.374-1.616a2.79 2.79 0 0 1 2.483-1.483zm2.099 3.12c0-.417-.087-.78-.263-1.087a1.765 1.765 0 0 0-1.572-.945c-.322 0-.623.08-.901.242a1.773 1.773 0 0 0-.681.692c-.169.3-.253.66-.253 1.077 0 .418.084.784.253 1.099.176.315.403.557.681.725a1.808 1.808 0 0 0 1.802 0c.279-.161.502-.395.671-.703.176-.315.263-.681.263-1.1zm8.35-.142c0 .227-.015.432-.044.615h-4.627c.037.484.216.872.539 1.165.322.293.718.44 1.186.44.674 0 1.151-.282 1.429-.846h1.352a2.748 2.748 0 0 1-1 1.373c-.476.352-1.07.528-1.781.528a3.157 3.157 0 0 1-1.56-.385 2.878 2.878 0 0 1-1.077-1.099c-.257-.476-.385-1.025-.385-1.648s.125-1.169.374-1.638a2.702 2.702 0 0 1 1.066-1.099c.461-.256.989-.384 1.582-.384.572 0 1.081.124 1.528.373.447.25.795.601 1.044 1.056.249.446.374.963.374 1.549zm-1.308-.396c-.007-.461-.172-.831-.495-1.11-.322-.278-.721-.417-1.198-.417-.432 0-.802.139-1.109.417-.308.272-.491.642-.55 1.11h3.352zm3.892-1.461v3.352c0 .227.052.392.154.494.11.095.293.143.55.143h.769v1.044h-.989c-.564 0-.997-.132-1.297-.396-.3-.263-.451-.692-.451-1.285v-3.352h-.714v-1.022h.714v-1.506h1.264v1.506h1.473v1.022h-1.473zm4.716 5.132c-.477 0-.905-.084-1.286-.253a2.314 2.314 0 0 1-.89-.703 1.78 1.78 0 0 1-.352-1h1.297a.91.91 0 0 0 .362.648c.227.169.51.253.847.253.351 0 .622-.066.813-.198.198-.14.296-.315.296-.527 0-.227-.109-.396-.329-.506-.213-.11-.553-.23-1.022-.363a9.95 9.95 0 0 1-1.11-.362 1.986 1.986 0 0 1-.747-.539c-.206-.242-.308-.56-.308-.956 0-.322.095-.615.286-.879.19-.271.461-.483.813-.637a3.1 3.1 0 0 1 1.231-.231c.688 0 1.241.176 1.659.527.425.345.652.817.681 1.418h-1.252a.892.892 0 0 0-.33-.648c-.198-.162-.465-.242-.802-.242-.33 0-.583.062-.759.187a.58.58 0 0 0-.263.494c0 .161.058.297.175.407.118.11.261.198.429.264.169.058.418.135.747.23.44.118.799.238 1.077.363.286.117.531.293.737.527.205.235.311.546.318.935 0 .344-.095.652-.285.923a1.893 1.893 0 0 1-.814.637c-.344.154-.751.23-1.219.23z" fill="#1B4444"/><path d="m341.869 53.903 5.151 5.152M347.021 53.903l-5.152 5.152" stroke="#1B4444" stroke-width=".687"/><path d="m69.834 75.224-1.665 5.745h-.84l-1.336-4.624-1.385 4.624-.832.008-1.607-5.753h.8l1.252 4.87 1.385-4.87h.84l1.319 4.854 1.261-4.854h.808zm1.126.494a.493.493 0 0 1-.363-.148.493.493 0 0 1-.148-.363c0-.143.049-.263.148-.362a.493.493 0 0 1 .363-.149c.137 0 .252.05.346.149.099.099.148.22.148.362 0 .143-.05.264-.148.363a.457.457 0 0 1-.346.148zm.362.734v4.517h-.75v-4.517h.75zm.916 2.242c0-.462.093-.866.28-1.212.187-.352.442-.624.767-.816.33-.192.698-.288 1.104-.288.352 0 .679.082.98.247.303.16.534.37.693.635v-2.39h.758v6.099h-.758v-.85c-.148.27-.368.492-.66.668-.29.17-.631.256-1.021.256a2.09 2.09 0 0 1-1.096-.297 2.08 2.08 0 0 1-.767-.832 2.593 2.593 0 0 1-.28-1.22zm3.824.008c0-.34-.069-.638-.206-.89a1.419 1.419 0 0 0-.56-.577 1.47 1.47 0 0 0-.767-.206c-.28 0-.536.066-.766.198-.231.131-.415.324-.553.576-.137.253-.206.55-.206.89 0 .347.07.65.206.907.138.253.322.448.553.586.23.131.486.197.766.197s.536-.066.767-.197c.236-.138.423-.333.56-.586.138-.258.206-.557.206-.898zm3.806-2.324c.39 0 .731.085 1.022.255.297.17.517.385.66.643v-.824h.758v4.615c0 .413-.088.778-.264 1.097a1.866 1.866 0 0 1-.758.758c-.324.181-.703.272-1.138.272-.593 0-1.087-.14-1.483-.42a1.642 1.642 0 0 1-.7-1.146h.741c.083.275.253.494.511.66.258.17.569.255.931.255.413 0 .748-.13 1.006-.388.264-.258.396-.62.396-1.088v-.947a1.804 1.804 0 0 1-.66.659 1.938 1.938 0 0 1-1.022.264 2.09 2.09 0 0 1-1.096-.297 2.08 2.08 0 0 1-.766-.832 2.593 2.593 0 0 1-.28-1.22c0-.462.093-.866.28-1.212.186-.352.442-.624.766-.816.33-.192.695-.288 1.096-.288zm1.682 2.324c0-.34-.069-.638-.206-.89a1.419 1.419 0 0 0-.56-.577 1.47 1.47 0 0 0-.767-.206c-.28 0-.536.066-.767.198-.23.131-.415.324-.552.576-.137.253-.206.55-.206.89 0 .347.069.65.206.907.137.253.321.448.552.586.23.131.486.197.767.197.28 0 .535-.066.766-.197.236-.138.423-.333.56-.586.138-.258.207-.557.207-.898zm6.064-.165c0 .143-.008.294-.025.453h-3.61c.028.446.179.794.454 1.047.28.247.618.371 1.013.371.325 0 .594-.074.808-.222.22-.154.374-.358.462-.61h.808c-.121.434-.363.788-.726 1.063-.362.27-.813.404-1.352.404-.428 0-.813-.097-1.153-.289a2.057 2.057 0 0 1-.792-.816 2.567 2.567 0 0 1-.288-1.236c0-.467.093-.876.28-1.228.187-.352.448-.621.783-.808a2.34 2.34 0 0 1 1.17-.288c.43 0 .808.093 1.138.28.33.187.582.445.758.775.181.324.272.692.272 1.104zm-.775-.157c0-.285-.063-.53-.19-.733a1.193 1.193 0 0 0-.518-.47 1.548 1.548 0 0 0-.718-.165c-.379 0-.703.121-.972.363-.264.242-.415.577-.453 1.005h2.851zm2.598-1.31v2.662c0 .22.046.377.14.47.093.088.255.132.486.132h.552v.635h-.676c-.417 0-.73-.097-.94-.289-.208-.192-.312-.508-.312-.948V77.07H88.1v-.618h.586v-1.138h.75v1.138h1.178v.618h-1.178zm3.604 3.973c-.347 0-.657-.058-.932-.173a1.618 1.618 0 0 1-.65-.495 1.336 1.336 0 0 1-.265-.734h.775c.022.226.127.41.313.553.193.143.443.214.75.214.286 0 .511-.063.676-.19a.58.58 0 0 0 .248-.478.463.463 0 0 0-.264-.436c-.176-.1-.448-.195-.816-.289a6.72 6.72 0 0 1-.825-.264 1.566 1.566 0 0 1-.544-.404c-.148-.18-.222-.417-.222-.708 0-.231.069-.443.206-.635.137-.192.332-.343.585-.453.253-.116.542-.173.866-.173.5 0 .904.126 1.211.379.308.252.473.599.495 1.038h-.75a.77.77 0 0 0-.289-.568c-.17-.143-.4-.215-.692-.215-.27 0-.484.058-.643.173a.535.535 0 0 0-.239.454.52.52 0 0 0 .14.37c.1.094.22.17.363.231a7.9 7.9 0 0 0 .61.19c.324.088.588.176.791.264.203.082.376.209.52.379.148.17.224.393.23.667 0 .248-.069.47-.206.668a1.398 1.398 0 0 1-.585.47c-.248.11-.533.165-.857.165zm5.654-3.973v2.662c0 .22.047.377.14.47.094.088.256.132.487.132h.552v.635h-.676c-.418 0-.73-.097-.94-.289-.208-.192-.313-.508-.313-.948V77.07h-.585v-.618h.585v-1.138h.75v1.138h1.179v.618h-1.179zm4.247-.7c.341 0 .648.074.923.222.275.143.489.36.643.651.159.291.239.646.239 1.063v2.663h-.742v-2.556c0-.45-.112-.794-.338-1.03-.225-.242-.533-.362-.923-.362-.395 0-.711.123-.948.37-.23.248-.346.608-.346 1.08v2.498h-.75v-6.1h.75v2.226c.149-.231.352-.41.61-.536.264-.126.558-.19.882-.19zm2.668 2.324c0-.462.093-.866.28-1.212.187-.352.442-.624.766-.816.33-.192.695-.288 1.097-.288.395 0 .739.085 1.03.255.291.17.508.385.651.643v-.824h.758v4.517h-.758v-.841a1.785 1.785 0 0 1-.668.66c-.291.17-.632.255-1.022.255a2.05 2.05 0 0 1-1.088-.297 2.082 2.082 0 0 1-.766-.832 2.59 2.59 0 0 1-.28-1.22zm3.824.008c0-.34-.069-.638-.206-.89a1.413 1.413 0 0 0-.561-.577 1.467 1.467 0 0 0-.766-.206c-.28 0-.536.066-.767.198-.23.131-.414.324-.552.576a1.84 1.84 0 0 0-.206.89c0 .347.069.65.206.907.138.253.322.448.552.586.231.131.487.197.767.197s.536-.066.766-.197c.237-.138.424-.333.561-.586.137-.258.206-.557.206-.898zm2.858-1.632v2.662c0 .22.047.377.14.47.094.088.256.132.487.132h.552v.635h-.676c-.418 0-.731-.097-.94-.289-.208-.192-.313-.508-.313-.948V77.07h-.585v-.618h.585v-1.138h.75v1.138h1.179v.618h-1.179zm10.137-.618-1.409 4.517h-.775l-1.088-3.586-1.088 3.586h-.775l-1.418-4.517h.767l1.038 3.791 1.121-3.791h.767l1.096 3.8 1.022-3.8h.742zm1.049-.734a.492.492 0 0 1-.362-.148.494.494 0 0 1-.149-.363c0-.143.05-.263.149-.362a.492.492 0 0 1 .362-.149c.138 0 .253.05.346.149.099.099.149.22.149.362 0 .143-.05.264-.149.363a.455.455 0 0 1-.346.148zm.363.734v4.517h-.75v-4.517h.75zm1.946-1.583v6.1h-.75v-6.1h.75zm1.946 0v6.1h-.75v-6.1h.75zm4.061 2.424c.154-.27.379-.49.676-.66.296-.17.634-.255 1.013-.255.407 0 .772.096 1.097.288.324.192.579.464.766.816.187.346.28.75.28 1.212 0 .456-.093.862-.28 1.22a2.062 2.062 0 0 1-1.863 1.129c-.39 0-.733-.086-1.03-.256a1.744 1.744 0 0 1-.659-.651v.833h-.75v-6.1h.75v2.424zm3.066 1.4c0-.34-.069-.637-.206-.89a1.419 1.419 0 0 0-.561-.576 1.517 1.517 0 0 0-.766-.198c-.275 0-.531.068-.767.206a1.476 1.476 0 0 0-.56.585 1.811 1.811 0 0 0-.206.882c0 .34.068.64.206.898.143.253.329.448.56.586.236.131.492.197.767.197.28 0 .535-.066.766-.197.237-.138.423-.333.561-.586.137-.258.206-.56.206-.906zm5.792-.156c0 .143-.008.294-.025.453h-3.61c.028.446.179.794.454 1.047.28.247.618.371 1.014.371.324 0 .593-.074.807-.222.22-.154.374-.358.462-.61h.808a1.961 1.961 0 0 1-.726 1.063c-.362.27-.813.404-1.351.404-.429 0-.814-.097-1.154-.289a2.058 2.058 0 0 1-.792-.816 2.57 2.57 0 0 1-.288-1.236c0-.467.093-.876.28-1.228a1.95 1.95 0 0 1 .783-.808 2.342 2.342 0 0 1 1.171-.288c.428 0 .807.093 1.137.28.33.187.582.445.758.775.182.324.272.692.272 1.104zm-.775-.157c0-.285-.063-.53-.189-.733a1.2 1.2 0 0 0-.519-.47 1.552 1.552 0 0 0-.717-.165c-.38 0-.704.121-.973.363-.264.242-.415.577-.453 1.005h2.851zm4.548-1.096c.148-.258.368-.472.659-.643.297-.175.64-.263 1.03-.263.402 0 .764.096 1.088.288.33.192.588.464.775.816.187.346.28.75.28 1.212 0 .456-.093.862-.28 1.22a2.062 2.062 0 0 1-1.863 1.129c-.384 0-.725-.086-1.022-.256a1.9 1.9 0 0 1-.667-.651v2.976h-.75v-6.66h.75v.832zm3.066 1.41c0-.341-.069-.638-.206-.89a1.419 1.419 0 0 0-.561-.577 1.514 1.514 0 0 0-.766-.198 1.483 1.483 0 0 0-1.327.791 1.811 1.811 0 0 0-.206.882c0 .34.068.64.206.898.143.253.33.448.56.586.237.131.492.197.767.197.28 0 .536-.066.766-.197.237-.138.423-.333.561-.586.137-.258.206-.56.206-.906zm1.391 0c0-.462.093-.866.28-1.212.187-.352.443-.624.767-.816a2.134 2.134 0 0 1 1.096-.288c.396 0 .739.085 1.03.255.291.17.509.385.651.643v-.824h.759v4.517h-.759v-.841a1.79 1.79 0 0 1-.667.66c-.291.17-.632.255-1.022.255-.401 0-.764-.1-1.088-.297a2.085 2.085 0 0 1-.767-.832 2.59 2.59 0 0 1-.28-1.22zm3.824.008c0-.34-.068-.638-.206-.89a1.417 1.417 0 0 0-.56-.577 1.47 1.47 0 0 0-.767-.206c-.28 0-.535.066-.766.198a1.43 1.43 0 0 0-.552.576 1.83 1.83 0 0 0-.206.89c0 .347.068.65.206.907.137.253.321.448.552.586.231.131.486.197.766.197.281 0 .536-.066.767-.197.236-.138.423-.333.56-.586.138-.258.206-.557.206-.898zm2.694-1.517c.132-.258.318-.459.56-.601.248-.143.547-.215.899-.215v.775h-.198c-.841 0-1.261.456-1.261 1.368v2.457h-.75v-4.517h.75v.733zm3.157-.115v2.662c0 .22.047.377.14.47.093.088.256.132.486.132h.553v.635h-.676c-.418 0-.731-.097-.94-.289-.209-.192-.313-.508-.313-.948V77.07h-.585v-.618h.585v-1.138h.75v1.138h1.179v.618h-1.179zm6.09 3.973c-.423 0-.808-.097-1.154-.289a2.096 2.096 0 0 1-.808-.816 2.57 2.57 0 0 1-.288-1.236c0-.462.099-.868.296-1.22.204-.357.478-.63.825-.816a2.35 2.35 0 0 1 1.162-.288c.428 0 .816.096 1.162.288.346.187.618.456.816.808.203.352.305.76.305 1.228 0 .467-.105.88-.313 1.236a2.125 2.125 0 0 1-.833.816 2.4 2.4 0 0 1-1.17.289zm0-.66c.269 0 .522-.063.758-.19.236-.126.426-.315.569-.568.148-.253.222-.56.222-.923s-.071-.67-.214-.923a1.376 1.376 0 0 0-.561-.56c-.23-.127-.48-.19-.75-.19-.274 0-.527.063-.758.19-.225.12-.406.307-.544.56-.137.252-.206.56-.206.923 0 .368.066.678.198.931.137.253.319.443.544.569.225.12.472.181.742.181zm5.058-3.313h-.948v3.899h-.75V77.07h-.586v-.618h.586v-.322c0-.505.129-.873.387-1.104.264-.236.684-.355 1.261-.355v.627c-.33 0-.563.066-.701.198-.131.126-.197.338-.197.634v.322h.948v.618zm6.797-.618-2.72 6.643h-.775l.89-2.176-1.821-4.467h.832l1.418 3.66 1.401-3.66h.775zm2.641 4.59c-.423 0-.807-.096-1.154-.288a2.094 2.094 0 0 1-.807-.816c-.193-.357-.289-.769-.289-1.236 0-.462.099-.868.297-1.22.203-.357.478-.63.824-.816a2.353 2.353 0 0 1 1.162-.288c.429 0 .816.096 1.162.288.347.187.619.456.816.808.204.352.305.76.305 1.228 0 .467-.104.88-.313 1.236a2.123 2.123 0 0 1-.832.816 2.401 2.401 0 0 1-1.171.289zm0-.659c.27 0 .522-.063.759-.19.236-.126.425-.315.568-.568.149-.253.223-.56.223-.923s-.072-.67-.214-.923a1.376 1.376 0 0 0-.561-.56 1.538 1.538 0 0 0-.75-.19c-.275 0-.528.063-.758.19-.226.12-.407.307-.544.56-.138.252-.206.56-.206.923 0 .368.066.678.197.931.138.253.319.443.544.569.226.12.473.181.742.181zm7.226-3.931v4.517h-.75V80.3c-.143.23-.344.412-.602.544-.253.126-.533.19-.841.19-.351 0-.667-.072-.948-.215a1.64 1.64 0 0 1-.667-.66c-.159-.29-.239-.645-.239-1.063v-2.645h.742v2.547c0 .445.112.788.338 1.03.225.236.533.354.923.354.401 0 .717-.123.948-.37.23-.248.346-.608.346-1.08v-2.481h.75zm1.934.733c.132-.258.318-.459.56-.601.248-.143.547-.215.899-.215v.775h-.198c-.841 0-1.261.456-1.261 1.368v2.457h-.75v-4.517h.75v.733zM64.295 90.276l1.401-3.824h.8l-1.772 4.517h-.874l-1.772-4.517h.808l1.41 3.824zm6.977-1.739c0 .143-.008.294-.024.453h-3.61c.027.446.178.794.453 1.047.28.247.618.371 1.014.371.324 0 .593-.074.807-.222.22-.154.374-.358.462-.61h.808c-.121.434-.363.788-.725 1.063-.363.27-.814.404-1.352.404-.429 0-.814-.097-1.154-.289a2.057 2.057 0 0 1-.791-.816 2.567 2.567 0 0 1-.289-1.236c0-.467.094-.876.28-1.228.187-.352.448-.621.783-.808a2.34 2.34 0 0 1 1.17-.288c.43 0 .808.093 1.138.28.33.187.583.445.758.775.182.324.272.692.272 1.104zm-.774-.157c0-.285-.064-.53-.19-.733a1.193 1.193 0 0 0-.52-.47 1.548 1.548 0 0 0-.716-.165c-.38 0-.704.121-.973.363-.264.242-.415.577-.453 1.005h2.852zm2.432-1.195c.132-.258.319-.459.56-.601.248-.143.547-.215.899-.215v.775h-.198c-.84 0-1.26.456-1.26 1.368v2.457h-.751v-4.517h.75v.733zm2.63-1.467a.493.493 0 0 1-.363-.148.493.493 0 0 1-.148-.363c0-.143.05-.263.148-.362a.493.493 0 0 1 .363-.149c.137 0 .252.05.346.149.099.099.148.22.148.362 0 .143-.05.264-.148.363a.457.457 0 0 1-.346.148zm.362.734v4.517h-.75v-4.517h.75zm3.034.618h-.948v3.899h-.75V87.07h-.585v-.618h.585v-.322c0-.505.13-.873.388-1.104.263-.236.684-.355 1.26-.355v.627c-.329 0-.562.066-.7.198-.132.126-.198.338-.198.634v.322h.948v.618zm1.18-1.352a.493.493 0 0 1-.363-.148.493.493 0 0 1-.148-.363c0-.143.05-.263.148-.362a.493.493 0 0 1 .363-.149c.137 0 .252.05.346.149.099.099.148.22.148.362 0 .143-.05.264-.148.363a.457.457 0 0 1-.346.148zm.362.734v4.517h-.75v-4.517h.75zm.916 2.25c0-.467.093-.874.28-1.22.187-.352.445-.624.775-.816a2.26 2.26 0 0 1 1.146-.288c.555 0 1.01.134 1.368.403.363.27.602.643.717 1.121h-.808a1.153 1.153 0 0 0-.453-.65c-.22-.16-.495-.24-.824-.24-.429 0-.775.149-1.039.445-.264.292-.395.706-.395 1.245 0 .544.131.964.395 1.261.264.297.61.445 1.039.445.33 0 .604-.077.824-.23.22-.155.37-.374.453-.66h.808c-.12.461-.363.832-.725 1.113-.363.274-.816.412-1.36.412a2.26 2.26 0 0 1-1.146-.289 2.018 2.018 0 0 1-.775-.816c-.187-.351-.28-.764-.28-1.236zm4.924-.008c0-.462.094-.866.28-1.212.187-.352.443-.624.767-.816.33-.192.695-.288 1.096-.288.396 0 .74.085 1.03.255.292.17.509.385.651.643v-.824h.759v4.517h-.759v-.841c-.148.264-.37.483-.667.66-.291.17-.632.255-1.022.255-.401 0-.764-.1-1.088-.297a2.082 2.082 0 0 1-.767-.832 2.593 2.593 0 0 1-.28-1.22zm3.825.008c0-.34-.07-.638-.207-.89a1.419 1.419 0 0 0-.56-.577 1.47 1.47 0 0 0-.767-.206c-.28 0-.535.066-.766.198-.23.131-.415.324-.552.576-.138.253-.206.55-.206.89 0 .347.068.65.206.907.137.253.321.448.552.586.23.131.486.197.766.197s.536-.066.767-.197c.236-.138.423-.333.56-.586.138-.258.206-.557.206-.898zm2.858-1.632v2.662c0 .22.046.377.14.47.093.088.255.132.486.132h.552v.635h-.675c-.418 0-.731-.097-.94-.289-.209-.192-.313-.508-.313-.948V87.07h-.585v-.618h.585v-1.138h.75v1.138h1.178v.618h-1.178zm2.392-1.352a.493.493 0 0 1-.363-.148.493.493 0 0 1-.148-.363c0-.143.05-.263.148-.362a.493.493 0 0 1 .363-.149c.137 0 .253.05.346.149.1.099.149.22.149.362 0 .143-.05.264-.149.363a.457.457 0 0 1-.346.148zm.363.734v4.517h-.75v-4.517h.75zm3.166 4.59c-.424 0-.808-.096-1.154-.288a2.096 2.096 0 0 1-.808-.816 2.567 2.567 0 0 1-.289-1.236c0-.462.1-.868.297-1.22.203-.357.478-.63.824-.816a2.352 2.352 0 0 1 1.162-.288c.429 0 .816.096 1.163.288.346.187.618.456.816.808.203.352.305.76.305 1.228 0 .467-.105.88-.314 1.236-.203.352-.48.624-.832.816a2.4 2.4 0 0 1-1.17.289zm0-.659c.269 0 .522-.063.758-.19a1.41 1.41 0 0 0 .568-.568c.149-.253.223-.56.223-.923s-.071-.67-.214-.923a1.377 1.377 0 0 0-.56-.56c-.231-.127-.482-.19-.75-.19-.275 0-.528.063-.76.19a1.34 1.34 0 0 0-.543.56c-.137.252-.206.56-.206.923 0 .368.066.678.198.931.137.253.318.443.544.569.225.12.472.181.742.181zm5.42-4.014c.549 0 .994.168 1.335.503.341.33.511.808.511 1.434v2.663h-.742v-2.556c0-.45-.112-.794-.338-1.03-.225-.242-.533-.362-.923-.362-.395 0-.711.123-.948.37-.23.248-.346.608-.346 1.08v2.498h-.75v-4.517h.75v.643c.149-.231.349-.41.602-.536.258-.126.541-.19.849-.19zm5.854.915c.148-.258.368-.472.659-.643.297-.175.64-.263 1.031-.263.401 0 .763.096 1.088.288.329.192.587.464.774.816.187.346.281.75.281 1.212 0 .456-.094.862-.281 1.22a2.066 2.066 0 0 1-1.862 1.129c-.385 0-.726-.086-1.022-.256a1.895 1.895 0 0 1-.668-.651v2.976h-.75v-6.66h.75v.832zm3.066 1.41c0-.341-.069-.638-.206-.89a1.413 1.413 0 0 0-.561-.577 1.514 1.514 0 0 0-.766-.198 1.483 1.483 0 0 0-1.327.791 1.823 1.823 0 0 0-.206.882c0 .34.069.64.206.898.143.253.33.448.56.586.237.131.492.197.767.197.28 0 .536-.066.766-.197.237-.138.424-.333.561-.586.137-.258.206-.56.206-.906zm2.421-1.509c.132-.258.319-.459.561-.601.247-.143.547-.215.898-.215v.775h-.198c-.84 0-1.261.456-1.261 1.368v2.457h-.75v-4.517h.75v.733zm4.213 3.858c-.424 0-.808-.097-1.154-.289a2.096 2.096 0 0 1-.808-.816 2.57 2.57 0 0 1-.289-1.236c0-.462.099-.868.297-1.22.203-.357.478-.63.824-.816a2.357 2.357 0 0 1 1.163-.288c.428 0 .815.096 1.162.288.346.187.618.456.816.808.203.352.305.76.305 1.228 0 .467-.105.88-.314 1.236-.203.352-.48.624-.832.816a2.4 2.4 0 0 1-1.17.289zm0-.66c.269 0 .522-.063.758-.19.236-.126.426-.315.569-.568.148-.253.222-.56.222-.923s-.071-.67-.214-.923a1.376 1.376 0 0 0-.561-.56c-.23-.127-.48-.19-.75-.19-.274 0-.527.063-.758.19a1.34 1.34 0 0 0-.544.56c-.137.252-.206.56-.206.923 0 .368.066.678.198.931.137.253.318.443.544.569.225.12.472.181.742.181zm2.939-1.681c0-.467.094-.874.28-1.22.187-.352.445-.624.775-.816a2.26 2.26 0 0 1 1.146-.288c.555 0 1.011.134 1.368.403.363.27.602.643.717 1.121h-.808a1.154 1.154 0 0 0-.453-.65c-.22-.16-.495-.24-.824-.24-.429 0-.775.149-1.039.445-.264.292-.395.706-.395 1.245 0 .544.131.964.395 1.261.264.297.61.445 1.039.445.329 0 .604-.077.824-.23.22-.155.371-.374.453-.66h.808a2.01 2.01 0 0 1-.725 1.113c-.363.274-.816.412-1.36.412a2.26 2.26 0 0 1-1.146-.289 2.017 2.017 0 0 1-.775-.816c-.186-.351-.28-.764-.28-1.236zm9.325-.165c0 .143-.008.294-.024.453h-3.61c.027.446.178.794.453 1.047.28.247.618.371 1.014.371.324 0 .593-.074.808-.222.219-.154.373-.358.461-.61h.808a1.965 1.965 0 0 1-.725 1.063c-.363.27-.814.404-1.352.404-.429 0-.813-.097-1.154-.289a2.055 2.055 0 0 1-.791-.816c-.193-.357-.289-.769-.289-1.236 0-.467.094-.876.28-1.228a1.95 1.95 0 0 1 .783-.808 2.342 2.342 0 0 1 1.171-.288c.428 0 .808.093 1.137.28.33.187.583.445.758.775.182.324.272.692.272 1.104zm-.774-.157c0-.285-.063-.53-.19-.733a1.19 1.19 0 0 0-.519-.47 1.546 1.546 0 0 0-.717-.165c-.379 0-.704.121-.973.363-.264.242-.415.577-.453 1.005h2.852zm3.281 2.663a2.38 2.38 0 0 1-.931-.173 1.614 1.614 0 0 1-.651-.495 1.328 1.328 0 0 1-.264-.734h.775c.022.226.126.41.313.553.192.143.442.214.75.214.286 0 .511-.063.676-.19a.579.579 0 0 0 .247-.478.463.463 0 0 0-.264-.436c-.176-.1-.448-.195-.816-.289a6.705 6.705 0 0 1-.824-.264 1.565 1.565 0 0 1-.544-.404c-.148-.18-.223-.417-.223-.708 0-.231.069-.443.207-.635.137-.192.332-.343.585-.453.252-.116.541-.173.865-.173.5 0 .904.126 1.212.379.307.252.472.599.494 1.038h-.75a.767.767 0 0 0-.288-.568c-.171-.143-.401-.215-.693-.215-.269 0-.483.058-.642.173a.533.533 0 0 0-.239.454c0 .148.046.272.14.37.099.094.219.17.362.231.149.055.352.119.61.19.324.088.588.176.791.264.204.082.377.209.52.379.148.17.225.393.23.667 0 .248-.068.47-.206.668a1.393 1.393 0 0 1-.585.47c-.247.11-.533.165-.857.165zm4.224 0a2.39 2.39 0 0 1-.932-.173 1.627 1.627 0 0 1-.651-.495 1.335 1.335 0 0 1-.263-.734h.774c.022.226.127.41.314.553.192.143.442.214.75.214.285 0 .511-.063.675-.19a.58.58 0 0 0 .248-.478.463.463 0 0 0-.264-.436c-.176-.1-.448-.195-.816-.289a6.705 6.705 0 0 1-.824-.264 1.565 1.565 0 0 1-.544-.404c-.149-.18-.223-.417-.223-.708 0-.231.069-.443.206-.635.138-.192.333-.343.586-.453.252-.116.541-.173.865-.173.5 0 .904.126 1.212.379.307.252.472.599.494 1.038h-.75a.77.77 0 0 0-.288-.568c-.171-.143-.402-.215-.693-.215-.269 0-.483.058-.643.173a.536.536 0 0 0-.239.454.52.52 0 0 0 .14.37c.099.094.22.17.363.231.148.055.352.119.61.19.324.088.588.176.791.264.204.082.377.209.52.379.148.17.225.393.23.667 0 .248-.068.47-.206.668a1.393 1.393 0 0 1-.585.47c-.247.11-.533.165-.857.165zm5.49-3.759c.148-.258.368-.472.659-.643.297-.175.64-.263 1.03-.263.401 0 .764.096 1.088.288.33.192.588.464.775.816.187.346.28.75.28 1.212 0 .456-.093.862-.28 1.22a2.062 2.062 0 0 1-1.863 1.129c-.384 0-.725-.086-1.022-.256a1.9 1.9 0 0 1-.667-.651v2.976h-.75v-6.66h.75v.832zm3.066 1.41c0-.341-.069-.638-.206-.89a1.425 1.425 0 0 0-.561-.577 1.517 1.517 0 0 0-.766-.198c-.275 0-.531.068-.767.206a1.476 1.476 0 0 0-.56.585 1.811 1.811 0 0 0-.206.882c0 .34.068.64.206.898.143.253.329.448.56.586.236.131.492.197.767.197.28 0 .535-.066.766-.197.236-.138.423-.333.561-.586.137-.258.206-.56.206-.906zm2.058-2.976a.493.493 0 0 1-.362-.148.494.494 0 0 1-.149-.363c0-.143.05-.263.149-.362a.493.493 0 0 1 .362-.149c.138 0 .253.05.347.149.099.099.148.22.148.362a.493.493 0 0 1-.148.363.459.459 0 0 1-.347.148zm.363.734v4.517h-.75v-4.517h.75zm1.946.832c.148-.258.368-.472.659-.643a1.986 1.986 0 0 1 1.031-.263c.401 0 .763.096 1.088.288.329.192.588.464.774.816.187.346.281.75.281 1.212 0 .456-.094.862-.281 1.22a2.06 2.06 0 0 1-1.862 1.129c-.385 0-.726-.086-1.022-.256a1.895 1.895 0 0 1-.668-.651v2.976h-.75v-6.66h.75v.832zm3.066 1.41c0-.341-.069-.638-.206-.89a1.417 1.417 0 0 0-.56-.577 1.52 1.52 0 0 0-.767-.198 1.495 1.495 0 0 0-1.327.791 1.823 1.823 0 0 0-.206.882c0 .34.069.64.206.898.143.253.33.448.561.586.236.131.491.197.766.197.28 0 .536-.066.767-.197.236-.138.423-.333.56-.586.137-.258.206-.56.206-.906zm5.793-.157c0 .143-.009.294-.025.453h-3.61c.027.446.178.794.453 1.047.28.247.618.371 1.014.371.324 0 .593-.074.808-.222.219-.154.373-.358.461-.61h.808a1.965 1.965 0 0 1-.725 1.063c-.363.27-.814.404-1.352.404-.429 0-.813-.097-1.154-.289a2.055 2.055 0 0 1-.791-.816c-.193-.357-.289-.769-.289-1.236 0-.467.094-.876.281-1.228.186-.352.447-.621.783-.808.34-.192.73-.288 1.17-.288.428 0 .808.093 1.137.28.33.187.583.445.759.775.181.324.272.692.272 1.104zm-.775-.157c0-.285-.063-.53-.19-.733a1.19 1.19 0 0 0-.519-.47 1.546 1.546 0 0 0-.717-.165c-.379 0-.703.121-.973.363-.263.242-.414.577-.453 1.005h2.852zm2.432-3.51v6.099h-.75v-6.1h.75zm1.584.848a.494.494 0 0 1-.363-.148.494.494 0 0 1-.149-.363c0-.143.05-.263.149-.362a.494.494 0 0 1 .363-.149c.137 0 .252.05.346.149.099.099.148.22.148.362a.493.493 0 0 1-.148.363.458.458 0 0 1-.346.148zm.362.734v4.517h-.75v-4.517h.75zm3.397-.083c.549 0 .994.168 1.335.503.341.33.511.808.511 1.434v2.663h-.742v-2.556c0-.45-.112-.794-.338-1.03-.225-.242-.533-.362-.923-.362-.396 0-.711.123-.948.37-.231.248-.346.608-.346 1.08v2.498h-.75v-4.517h.75v.643c.148-.231.349-.41.602-.536.258-.126.541-.19.849-.19zm7.11 2.168c0 .143-.008.294-.025.453h-3.61c.027.446.179.794.453 1.047.281.247.618.371 1.014.371.324 0 .594-.074.808-.222.22-.154.373-.358.461-.61h.808a1.965 1.965 0 0 1-.725 1.063c-.363.27-.813.404-1.352.404-.428 0-.813-.097-1.154-.289a2.055 2.055 0 0 1-.791-.816 2.57 2.57 0 0 1-.289-1.236c0-.467.094-.876.281-1.228a1.95 1.95 0 0 1 .783-.808c.34-.192.731-.288 1.17-.288.429 0 .808.093 1.138.28.329.187.582.445.758.775.181.324.272.692.272 1.104zm-.775-.157c0-.285-.063-.53-.19-.733a1.19 1.19 0 0 0-.519-.47 1.546 1.546 0 0 0-.717-.165c-.379 0-.703.121-.972.363-.264.242-.415.577-.454 1.005h2.852zm1.921 2.638a.493.493 0 0 1-.362-.148.494.494 0 0 1-.149-.363c0-.143.05-.264.149-.363a.493.493 0 0 1 .362-.148c.138 0 .253.05.347.148.099.1.148.22.148.363a.493.493 0 0 1-.148.363.459.459 0 0 1-.347.148z" fill="#8DA1A1"/><g clip-path="url(#b)" stroke="#1B4444" stroke-width=".687"><circle cx="75.487" cy="122.961" r="4.35"/><path d="m78.692 126.166 1.603 1.603" stroke-linecap="round"/></g><path d="M91.025 120.462v.766H89.5v4.962h-.94v-4.962h-1.533v-.766h3.998zm4.957 1.187-2.786 6.676h-.973l.923-2.209-1.788-4.467h1.047l1.277 3.461 1.327-3.461h.973zm1.566.667c.16-.209.376-.385.651-.527.275-.143.585-.215.931-.215.396 0 .756.099 1.08.297.33.192.588.464.775.816.187.352.28.756.28 1.212 0 .456-.093.865-.28 1.228a2.117 2.117 0 0 1-.775.84 2.03 2.03 0 0 1-1.08.297c-.346 0-.653-.069-.923-.206a2.13 2.13 0 0 1-.659-.527v2.818h-.94v-6.7h.94v.667zm2.761 1.583c0-.314-.066-.583-.198-.808a1.252 1.252 0 0 0-.51-.519 1.326 1.326 0 0 0-.677-.182c-.236 0-.461.061-.675.182-.21.121-.38.296-.511.527-.127.231-.19.503-.19.816 0 .313.063.588.19.824.132.231.302.407.51.528a1.354 1.354 0 0 0 1.352 0c.215-.127.385-.308.511-.544a1.66 1.66 0 0 0 .198-.824zm5.965-.091c0 .17-.011.324-.033.462h-3.47c.028.362.162.653.404.873.242.22.539.33.89.33.506 0 .863-.212 1.072-.635h1.014a2.064 2.064 0 0 1-.75 1.03c-.358.264-.803.396-1.336.396a2.37 2.37 0 0 1-1.17-.288 2.157 2.157 0 0 1-.808-.825 2.57 2.57 0 0 1-.288-1.236c0-.467.093-.876.28-1.228.192-.357.459-.632.8-.824a2.392 2.392 0 0 1 1.186-.289c.429 0 .811.094 1.146.281.335.186.596.45.783.791.187.335.28.722.28 1.162zm-.981-.297c-.005-.346-.129-.623-.37-.832-.242-.209-.542-.313-.899-.313-.324 0-.602.104-.832.313-.231.203-.368.481-.412.832h2.513zm3.569.388c0-.456.093-.86.28-1.212a2.088 2.088 0 0 1 1.863-1.113c.357 0 .668.072.931.215.27.137.484.31.643.519v-.659h.948v4.541h-.948v-.676a1.865 1.865 0 0 1-.651.536 2.006 2.006 0 0 1-.94.214c-.39 0-.747-.099-1.071-.297a2.199 2.199 0 0 1-.775-.84 2.64 2.64 0 0 1-.28-1.228zm3.717.016c0-.313-.066-.585-.198-.816a1.33 1.33 0 0 0-1.854-.527 1.322 1.322 0 0 0-.511.519c-.127.225-.19.494-.19.808 0 .313.063.588.19.824.132.236.302.417.511.544a1.352 1.352 0 0 0 1.352 0c.208-.121.376-.297.502-.528a1.66 1.66 0 0 0 .198-.824zm4.391-2.341c.357 0 .676.075.956.223.286.148.508.368.668.659.159.291.239.643.239 1.055v2.679h-.932v-2.539c0-.406-.101-.717-.305-.931-.203-.22-.48-.33-.832-.33s-.632.11-.841.33c-.203.214-.305.525-.305.931v2.539h-.939v-4.541h.939v.519c.154-.187.349-.333.586-.437.241-.104.497-.157.766-.157zm7.067.075-2.786 6.676h-.972l.923-2.209-1.789-4.467h1.047l1.277 3.461 1.327-3.461h.973zm6.726 0-1.41 4.541h-.989l-.914-3.355-.915 3.355h-.989l-1.418-4.541h.956l.948 3.651.964-3.651h.981l.923 3.634.94-3.634h.923zm2.969-.075c.346 0 .654.075.923.223.275.148.489.368.643.659.159.291.239.643.239 1.055v2.679h-.932v-2.539c0-.406-.101-.717-.305-.931-.203-.22-.48-.33-.832-.33s-.632.11-.841.33c-.203.214-.305.525-.305.931v2.539h-.939v-6.099h.939v2.085c.16-.192.36-.341.602-.445a2.06 2.06 0 0 1 .808-.157zm7.083 2.234c0 .17-.011.324-.033.462h-3.47c.028.362.162.653.404.873.242.22.539.33.89.33.506 0 .863-.212 1.072-.635h1.013a2.052 2.052 0 0 1-.75 1.03c-.357.264-.802.396-1.335.396a2.37 2.37 0 0 1-1.17-.288 2.157 2.157 0 0 1-.808-.825 2.57 2.57 0 0 1-.288-1.236c0-.467.093-.876.28-1.228.192-.357.459-.632.799-.824a2.396 2.396 0 0 1 1.187-.289c.429 0 .811.094 1.146.281.335.186.596.45.783.791.187.335.28.722.28 1.162zm-.981-.297c-.005-.346-.129-.623-.371-.832-.241-.209-.541-.313-.898-.313-.324 0-.602.104-.832.313-.231.203-.369.481-.413.832h2.514zm2.763-1.203c.137-.231.319-.409.544-.536.231-.132.503-.198.816-.198v.973h-.239c-.368 0-.648.093-.841.28-.187.187-.28.511-.28.973v2.39h-.94v-4.541h.94v.659zm6.303 1.5c0 .17-.011.324-.032.462h-3.47c.027.362.162.653.403.873.242.22.539.33.891.33.505 0 .862-.212 1.071-.635h1.014a2.064 2.064 0 0 1-.75 1.03c-.357.264-.802.396-1.335.396-.435 0-.825-.096-1.171-.288a2.164 2.164 0 0 1-.808-.825 2.57 2.57 0 0 1-.288-1.236c0-.467.093-.876.28-1.228a2.03 2.03 0 0 1 .8-.824 2.393 2.393 0 0 1 1.187-.289c.428 0 .81.094 1.145.281.335.186.596.45.783.791.187.335.28.722.28 1.162zm-.98-.297c-.006-.346-.129-.623-.371-.832-.242-.209-.541-.313-.899-.313-.324 0-.601.104-.832.313-.231.203-.368.481-.412.832h2.514zm4.978-1.096v2.514c0 .17.038.294.115.371.082.071.22.107.412.107h.577v.783h-.742c-.423 0-.747-.099-.972-.297-.226-.198-.338-.519-.338-.964v-2.514h-.536v-.766h.536v-1.13h.948v1.13h1.104v.766h-1.104zm3.857 3.849c-.428 0-.816-.096-1.162-.288a2.142 2.142 0 0 1-.816-.825 2.517 2.517 0 0 1-.296-1.236c0-.461.101-.871.305-1.228a2.1 2.1 0 0 1 .832-.824 2.411 2.411 0 0 1 1.179-.289c.434 0 .827.096 1.178.289.352.192.629.467.833.824.203.357.305.767.305 1.228 0 .462-.105.871-.313 1.228a2.195 2.195 0 0 1-.858.833 2.464 2.464 0 0 1-1.187.288zm0-.816c.242 0 .468-.058.676-.173.215-.115.388-.288.52-.519.131-.231.197-.511.197-.841 0-.33-.063-.607-.189-.832a1.281 1.281 0 0 0-.503-.52 1.38 1.38 0 0 0-.676-.173 1.38 1.38 0 0 0-.676.173 1.245 1.245 0 0 0-.486.52c-.121.225-.181.502-.181.832 0 .489.123.868.371 1.138.252.263.568.395.947.395zm6.911.816c-.357 0-.678-.063-.964-.189a1.747 1.747 0 0 1-.668-.528 1.332 1.332 0 0 1-.264-.75h.973a.682.682 0 0 0 .272.486c.17.127.382.19.635.19.263 0 .467-.05.61-.148.148-.105.222-.237.222-.396 0-.17-.082-.297-.247-.379-.159-.083-.415-.173-.767-.272a7.559 7.559 0 0 1-.832-.272 1.508 1.508 0 0 1-.561-.404c-.153-.181-.23-.42-.23-.717a1.1 1.1 0 0 1 .214-.66c.143-.203.346-.362.61-.478a2.33 2.33 0 0 1 .923-.173c.517 0 .931.132 1.245.396.318.258.489.613.511 1.063h-.94a.669.669 0 0 0-.247-.486c-.149-.121-.349-.181-.602-.181-.247 0-.437.046-.569.14a.432.432 0 0 0-.197.371c0 .12.043.222.131.305a.987.987 0 0 0 .322.197c.126.044.313.102.56.173.33.088.599.179.808.272.214.088.398.22.552.396.154.176.234.409.239.701 0 .258-.071.489-.214.692a1.416 1.416 0 0 1-.61.478 2.233 2.233 0 0 1-.915.173zm6.834-2.456c0 .17-.011.324-.033.462h-3.469c.027.362.162.653.403.873.242.22.539.33.891.33.505 0 .862-.212 1.071-.635h1.014a2.064 2.064 0 0 1-.75 1.03c-.357.264-.802.396-1.335.396-.435 0-.825-.096-1.171-.288a2.157 2.157 0 0 1-.808-.825 2.57 2.57 0 0 1-.288-1.236c0-.467.093-.876.28-1.228.192-.357.459-.632.8-.824a2.393 2.393 0 0 1 1.187-.289c.428 0 .81.094 1.145.281.335.186.596.45.783.791.187.335.28.722.28 1.162zm-.98-.297c-.006-.346-.13-.623-.371-.832-.242-.209-.542-.313-.899-.313-.324 0-.601.104-.832.313-.231.203-.368.481-.412.832h2.514zm1.509.388c0-.456.094-.86.281-1.212a2.086 2.086 0 0 1 1.862-1.113c.358 0 .668.072.932.215.269.137.483.31.643.519v-.659h.948v4.541h-.948v-.676c-.16.214-.377.393-.651.536a2.006 2.006 0 0 1-.94.214 2.02 2.02 0 0 1-1.072-.297 2.196 2.196 0 0 1-.774-.84 2.641 2.641 0 0 1-.281-1.228zm3.718.016c0-.313-.066-.585-.198-.816a1.326 1.326 0 0 0-1.179-.709c-.242 0-.467.061-.676.182a1.329 1.329 0 0 0-.511.519 1.628 1.628 0 0 0-.189.808c0 .313.063.588.189.824.132.236.303.417.511.544a1.357 1.357 0 0 0 1.352 0c.209-.121.377-.297.503-.528a1.66 1.66 0 0 0 .198-.824zm3.039-1.607c.137-.231.319-.409.544-.536.231-.132.503-.198.816-.198v.973h-.239c-.368 0-.649.093-.841.28-.187.187-.28.511-.28.973v2.39h-.94v-4.541h.94v.659zm1.828 1.607c0-.467.093-.876.28-1.228a2.04 2.04 0 0 1 .791-.824c.336-.193.72-.289 1.154-.289.55 0 1.003.132 1.36.396.363.258.607.629.734 1.113h-1.014a1.067 1.067 0 0 0-.396-.528c-.181-.126-.409-.189-.684-.189-.384 0-.692.137-.923.412-.225.269-.338.648-.338 1.137s.113.871.338 1.146c.231.275.539.412.923.412.544 0 .904-.239 1.08-.717h1.014c-.132.461-.379.83-.742 1.104-.363.269-.813.404-1.352.404-.434 0-.818-.096-1.154-.288a2.115 2.115 0 0 1-.791-.825c-.187-.357-.28-.769-.28-1.236zm7.522-2.341c.346 0 .654.075.923.223.275.148.489.368.643.659.159.291.239.643.239 1.055v2.679h-.932v-2.539c0-.406-.101-.717-.305-.931-.203-.22-.48-.33-.832-.33s-.632.11-.841.33c-.203.214-.305.525-.305.931v2.539h-.939v-6.099h.939v2.085c.16-.192.36-.341.602-.445.247-.104.517-.157.808-.157zM290.669 125.02h-2.399l-.412 1.17h-.981l2.053-5.737h1.088l2.052 5.737h-.989l-.412-1.17zm-.264-.767-.931-2.662-.94 2.662h1.871zm3.414-4.162v6.099h-.939v-6.099h.939zm2.091 0v6.099h-.939v-6.099h.939zm10.669.371-1.698 5.728h-1.063l-1.203-4.335-1.278 4.335-1.055.008-1.623-5.736h.997l1.187 4.665 1.286-4.665h1.055l1.195 4.64 1.195-4.64h1.005zm1.171.585a.586.586 0 0 1-.429-.173.586.586 0 0 1-.173-.429c0-.17.058-.313.173-.428a.583.583 0 0 1 .429-.174.57.57 0 0 1 .42.174.578.578 0 0 1 .173.428c0 .17-.057.313-.173.429a.572.572 0 0 1-.42.173zm.461.602v4.541h-.939v-4.541h.939zm.838 2.25c0-.456.094-.86.281-1.212a2.086 2.086 0 0 1 1.871-1.113c.296 0 .588.066.873.198.292.127.522.297.693.511v-2.192h.947v6.099h-.947v-.684c-.154.22-.369.401-.643.544-.269.143-.58.214-.932.214-.395 0-.758-.099-1.088-.297a2.196 2.196 0 0 1-.774-.84 2.641 2.641 0 0 1-.281-1.228zm3.718.016c0-.313-.066-.585-.198-.816a1.333 1.333 0 0 0-1.855-.527 1.329 1.329 0 0 0-.511.519 1.628 1.628 0 0 0-.189.808c0 .313.063.588.189.824.132.236.303.417.511.544a1.357 1.357 0 0 0 1.352 0c.209-.121.376-.297.503-.528a1.66 1.66 0 0 0 .198-.824zm3.929-2.341c.352 0 .662.072.931.215.275.137.489.31.643.519v-.659h.948v4.615c0 .418-.088.789-.264 1.113-.176.33-.431.588-.766.775-.33.186-.726.28-1.187.28-.615 0-1.127-.146-1.533-.437a1.58 1.58 0 0 1-.692-1.17h.931a.995.995 0 0 0 .453.568c.237.149.517.223.841.223.379 0 .684-.116.915-.346.236-.231.354-.566.354-1.006v-.758a1.937 1.937 0 0 1-1.574.758c-.396 0-.758-.099-1.088-.297a2.206 2.206 0 0 1-.775-.84 2.64 2.64 0 0 1-.28-1.228c0-.456.093-.86.28-1.212a2.095 2.095 0 0 1 1.863-1.113zm1.574 2.341c0-.313-.066-.585-.198-.816a1.33 1.33 0 0 0-1.854-.527 1.322 1.322 0 0 0-.511.519c-.126.225-.19.494-.19.808 0 .313.064.588.19.824.132.236.302.417.511.544a1.355 1.355 0 0 0 1.352 0c.208-.121.376-.297.502-.528a1.66 1.66 0 0 0 .198-.824zm6.262-.107c0 .17-.011.324-.033.462h-3.47c.028.362.162.653.404.873.242.22.539.33.89.33.506 0 .863-.212 1.072-.635h1.013a2.052 2.052 0 0 1-.75 1.03c-.357.264-.802.396-1.335.396a2.37 2.37 0 0 1-1.17-.288 2.157 2.157 0 0 1-.808-.825 2.57 2.57 0 0 1-.288-1.236c0-.467.093-.876.28-1.228.192-.357.459-.632.799-.824a2.396 2.396 0 0 1 1.187-.289c.429 0 .811.094 1.146.281.335.186.596.45.783.791.187.335.28.722.28 1.162zm-.981-.297c-.005-.346-.129-.623-.371-.832-.241-.209-.541-.313-.898-.313-.324 0-.602.104-.832.313-.231.203-.369.481-.413.832h2.514zm2.92-1.096v2.514c0 .17.038.294.115.371.082.071.22.107.412.107h.577v.783h-.742c-.423 0-.747-.099-.972-.297-.226-.198-.338-.519-.338-.964v-2.514h-.536v-.766h.536v-1.13h.948v1.13h1.104v.766h-1.104zm3.536 3.849c-.357 0-.679-.063-.964-.189a1.74 1.74 0 0 1-.668-.528 1.332 1.332 0 0 1-.264-.75h.973a.678.678 0 0 0 .272.486c.17.127.382.19.635.19.263 0 .467-.05.609-.148.149-.105.223-.237.223-.396 0-.17-.082-.297-.247-.379-.16-.083-.415-.173-.767-.272a7.559 7.559 0 0 1-.832-.272 1.5 1.5 0 0 1-.561-.404c-.154-.181-.231-.42-.231-.717 0-.242.072-.462.215-.66.143-.203.346-.362.61-.478a2.33 2.33 0 0 1 .923-.173c.516 0 .931.132 1.244.396.319.258.489.613.511 1.063h-.939a.672.672 0 0 0-.247-.486c-.149-.121-.349-.181-.602-.181-.247 0-.437.046-.569.14a.433.433 0 0 0-.198.371c0 .12.044.222.132.305a.987.987 0 0 0 .322.197c.126.044.313.102.56.173.33.088.599.179.808.272.214.088.398.22.552.396.154.176.234.409.239.701 0 .258-.071.489-.214.692a1.416 1.416 0 0 1-.61.478 2.233 2.233 0 0 1-.915.173z" fill="#1B4444"/><path d="m335.345 122.331 1.717 1.718 1.717-1.718" stroke="#1B4444" stroke-width=".687" stroke-linecap="round" stroke-linejoin="round"/><path d="M347.021 136.583H61.979v.687h285.042v-.687z" fill="#8DA1A1" mask="url(#path-8-inside-1_961_7635)"/><rect x="61.979" y="153.411" width="285.042" height="62.503" rx="8.242" fill="#fff"/><rect x="70.221" y="161.653" width="46.019" height="46.019" rx="5.495" fill="#EFEFEF"/><g clip-path="url(#c)" stroke="#1B4444" stroke-width="1.03"><path d="M86.362 184.663c0-3.238 0-4.857 1.006-5.863 1.006-1.006 2.625-1.006 5.862-1.006 3.238 0 4.857 0 5.863 1.006 1.006 1.006 1.006 2.625 1.006 5.863 0 3.238 0 4.857-1.006 5.863-1.006 1.005-2.625 1.005-5.863 1.005-3.237 0-4.856 0-5.862-1.005-1.006-1.006-1.006-2.625-1.006-5.863z"/><circle opacity=".5" cx="95.978" cy="181.915" r="1.374"/><path opacity=".5" d="m88.422 185.561.557-.517a1.58 1.58 0 0 1 2.225.074l1.818 1.93c.37.393.975.445 1.407.123a1.592 1.592 0 0 1 2.052.125l1.557 1.488" stroke-linecap="round"/></g><path d="M127.534 172.726c0-.561.13-1.064.388-1.509a2.795 2.795 0 0 1 1.063-1.038 2.962 2.962 0 0 1 1.475-.379c.61 0 1.152.151 1.624.453.478.297.824.72 1.039 1.269h-1.13a1.515 1.515 0 0 0-.618-.676 1.834 1.834 0 0 0-.915-.222c-.379 0-.717.085-1.013.255a1.806 1.806 0 0 0-.701.734 2.387 2.387 0 0 0-.247 1.113c0 .423.082.794.247 1.112.17.319.404.566.701.742.296.17.634.256 1.013.256.347 0 .652-.075.915-.223a1.51 1.51 0 0 0 .618-.676h1.13c-.215.55-.561.973-1.039 1.269-.472.297-1.014.446-1.624.446a2.99 2.99 0 0 1-1.475-.371 2.862 2.862 0 0 1-1.063-1.047 2.953 2.953 0 0 1-.388-1.508zm8.576 2.95c-.429 0-.816-.096-1.162-.288a2.146 2.146 0 0 1-.816-.824 2.513 2.513 0 0 1-.297-1.237c0-.461.102-.871.305-1.228s.481-.632.832-.824a2.422 2.422 0 0 1 1.179-.289c.434 0 .827.097 1.179.289.351.192.629.467.832.824.204.357.305.767.305 1.228 0 .462-.104.871-.313 1.228a2.2 2.2 0 0 1-.857.833 2.467 2.467 0 0 1-1.187.288zm0-.816c.242 0 .467-.057.676-.173.214-.115.387-.288.519-.519.132-.231.198-.511.198-.841 0-.329-.063-.607-.19-.832a1.28 1.28 0 0 0-.502-.52 1.382 1.382 0 0 0-.676-.173 1.38 1.38 0 0 0-.676.173 1.24 1.24 0 0 0-.487.52c-.12.225-.181.503-.181.832 0 .489.124.868.371 1.138.253.263.569.395.948.395zm5.495-3.874c.357 0 .676.075.956.223.286.148.508.368.668.659.159.292.239.643.239 1.055v2.679h-.932v-2.539c0-.406-.101-.717-.305-.931-.203-.22-.48-.33-.832-.33s-.632.11-.841.33c-.203.214-.305.525-.305.931v2.539h-.939v-4.541h.939v.519a1.56 1.56 0 0 1 .585-.437c.242-.104.498-.157.767-.157zm4.075.841v2.514c0 .17.038.294.115.371.083.071.22.107.412.107h.577v.783h-.741c-.423 0-.748-.099-.973-.297-.225-.197-.338-.519-.338-.964v-2.514h-.536v-.766h.536v-1.13h.948v1.13h1.104v.766h-1.104zm6.05 1.393c0 .17-.011.324-.033.462h-3.47c.028.362.162.654.404.873.242.22.539.33.89.33.506 0 .863-.212 1.072-.635h1.014a2.07 2.07 0 0 1-.75 1.031c-.358.263-.803.395-1.336.395a2.37 2.37 0 0 1-1.17-.288 2.161 2.161 0 0 1-.808-.824 2.576 2.576 0 0 1-.288-1.237c0-.467.093-.876.28-1.228.192-.357.459-.632.8-.824a2.403 2.403 0 0 1 1.186-.289c.429 0 .811.094 1.146.281.335.186.596.45.783.791.187.335.28.722.28 1.162zm-.981-.297c-.005-.346-.129-.623-.37-.832-.242-.209-.542-.313-.899-.313-.324 0-.601.104-.832.313-.231.203-.368.481-.412.832h2.513zm4.115-1.937c.357 0 .676.075.956.223.286.148.508.368.668.659.159.292.239.643.239 1.055v2.679h-.932v-2.539c0-.406-.101-.717-.305-.931-.203-.22-.481-.33-.832-.33-.352 0-.632.11-.841.33-.203.214-.305.525-.305.931v2.539h-.939v-4.541h.939v.519a1.56 1.56 0 0 1 .585-.437c.242-.104.498-.157.767-.157zm4.075.841v2.514c0 .17.038.294.115.371.083.071.22.107.412.107h.577v.783h-.741c-.424 0-.748-.099-.973-.297-.225-.197-.338-.519-.338-.964v-2.514h-.536v-.766h.536v-1.13h.948v1.13h1.104v.766h-1.104zm8.884-1.953-2.152 5.728h-1.088l-2.159-5.728h1.006l1.697 4.764 1.707-4.764h.989zm4.865 3.346c0 .17-.011.324-.033.462h-3.47c.028.362.162.654.404.873.242.22.539.33.89.33.506 0 .863-.212 1.072-.635h1.014a2.07 2.07 0 0 1-.75 1.031c-.358.263-.803.395-1.336.395a2.37 2.37 0 0 1-1.17-.288 2.161 2.161 0 0 1-.808-.824 2.576 2.576 0 0 1-.288-1.237c0-.467.093-.876.28-1.228.192-.357.459-.632.8-.824a2.403 2.403 0 0 1 1.186-.289c.429 0 .811.094 1.146.281.335.186.596.45.783.791.187.335.28.722.28 1.162zm-.981-.297c-.005-.346-.129-.623-.37-.832-.242-.209-.542-.313-.899-.313-.324 0-.602.104-.832.313-.231.203-.368.481-.412.832h2.513zm2.763-1.203c.138-.231.319-.409.544-.536.231-.132.503-.198.816-.198v.973h-.239c-.368 0-.648.093-.841.28-.186.187-.28.511-.28.973v2.39h-.939v-4.541h.939v.659zm2.619-1.261a.582.582 0 0 1-.428-.173.58.58 0 0 1-.173-.429c0-.17.057-.313.173-.428a.578.578 0 0 1 .428-.173c.165 0 .305.057.421.173a.582.582 0 0 1 .173.428.584.584 0 0 1-.173.429.576.576 0 0 1-.421.173zm.462.602v4.541h-.94v-4.541h.94zm3.055.766h-.841v3.775h-.947v-3.775h-.536v-.766h.536v-.322c0-.522.137-.901.412-1.137.28-.242.717-.363 1.31-.363v.783c-.286 0-.486.055-.602.165-.115.104-.173.288-.173.552v.322h.841v.766zm1.228-1.368a.582.582 0 0 1-.428-.173.58.58 0 0 1-.173-.429c0-.17.057-.313.173-.428a.578.578 0 0 1 .428-.173c.165 0 .305.057.421.173a.582.582 0 0 1 .173.428.584.584 0 0 1-.173.429.576.576 0 0 1-.421.173zm.462.602v4.541h-.94v-4.541h.94zm.838 2.266c0-.467.093-.876.28-1.228.193-.357.456-.632.791-.824.336-.192.72-.289 1.154-.289.55 0 1.003.132 1.36.396.363.258.608.629.734 1.113h-1.014a1.071 1.071 0 0 0-.395-.528c-.182-.126-.41-.189-.685-.189-.384 0-.692.137-.923.412-.225.269-.338.648-.338 1.137s.113.871.338 1.146c.231.275.539.412.923.412.544 0 .904-.239 1.08-.717h1.014c-.132.461-.379.83-.742 1.104-.363.27-.813.404-1.352.404-.434 0-.818-.096-1.154-.288a2.126 2.126 0 0 1-.791-.824 2.632 2.632 0 0 1-.28-1.237zm4.86-.016c0-.456.093-.86.28-1.212.192-.352.45-.624.775-.816a2.071 2.071 0 0 1 1.088-.297c.357 0 .667.072.931.215.269.137.484.31.643.519v-.659h.948v4.541h-.948v-.676a1.865 1.865 0 0 1-.651.536 2.006 2.006 0 0 1-.94.214c-.39 0-.747-.099-1.071-.296a2.201 2.201 0 0 1-.775-.841 2.64 2.64 0 0 1-.28-1.228zm3.717.016c0-.313-.066-.585-.198-.816a1.326 1.326 0 0 0-1.179-.709c-.241 0-.467.061-.675.182-.209.115-.38.288-.511.519a1.62 1.62 0 0 0-.19.808c0 .313.063.588.19.824.131.236.302.418.511.544a1.351 1.351 0 0 0 1.351 0c.209-.121.377-.297.503-.528a1.66 1.66 0 0 0 .198-.824zm3.196-1.5v2.514c0 .17.038.294.115.371.082.071.22.107.412.107h.577v.783h-.742c-.423 0-.747-.099-.972-.297-.226-.197-.338-.519-.338-.964v-2.514h-.536v-.766h.536v-1.13h.948v1.13h1.104v.766h-1.104zm2.366-1.368a.584.584 0 0 1-.429-.173.584.584 0 0 1-.173-.429c0-.17.058-.313.173-.428a.58.58 0 0 1 .429-.173c.165 0 .305.057.42.173a.582.582 0 0 1 .173.428.584.584 0 0 1-.173.429.572.572 0 0 1-.42.173zm.461.602v4.541h-.939v-4.541h.939zm3.121 4.615c-.428 0-.816-.096-1.162-.288a2.146 2.146 0 0 1-.816-.824 2.512 2.512 0 0 1-.296-1.237c0-.461.101-.871.305-1.228a2.1 2.1 0 0 1 .832-.824 2.422 2.422 0 0 1 1.179-.289c.434 0 .827.097 1.178.289.352.192.629.467.833.824.203.357.305.767.305 1.228 0 .462-.105.871-.314 1.228a2.186 2.186 0 0 1-.857.833 2.467 2.467 0 0 1-1.187.288zm0-.816c.242 0 .467-.057.676-.173.215-.115.388-.288.52-.519.131-.231.197-.511.197-.841 0-.329-.063-.607-.189-.832a1.281 1.281 0 0 0-.503-.52 1.38 1.38 0 0 0-.676-.173 1.38 1.38 0 0 0-.676.173 1.245 1.245 0 0 0-.486.52c-.121.225-.181.503-.181.832 0 .489.123.868.371 1.138.252.263.568.395.947.395zm5.495-3.874c.358 0 .676.075.957.223.285.148.508.368.667.659.159.292.239.643.239 1.055v2.679h-.931v-2.539c0-.406-.102-.717-.305-.931-.203-.22-.481-.33-.833-.33-.351 0-.632.11-.84.33-.204.214-.305.525-.305.931v2.539h-.94v-4.541h.94v.519a1.56 1.56 0 0 1 .585-.437 1.92 1.92 0 0 1 .766-.157z" fill="#1B4444"/><path d="m135.084 184.352-1.665 5.745h-.84l-1.336-4.624-1.384 4.624-.833.008-1.607-5.753h.8l1.252 4.871 1.385-4.871h.841l1.318 4.855 1.262-4.855h.807zm1.126.495a.494.494 0 0 1-.363-.149.491.491 0 0 1-.148-.362c0-.143.049-.264.148-.363a.493.493 0 0 1 .363-.148c.137 0 .253.049.346.148.099.099.149.22.149.363s-.05.263-.149.362a.457.457 0 0 1-.346.149zm.363.733v4.517h-.75v-4.517h.75zm.915 2.242c0-.461.094-.865.281-1.212a2.03 2.03 0 0 1 .766-.815c.33-.193.698-.289 1.105-.289.351 0 .678.082.98.247.303.16.533.371.693.635v-2.39h.758v6.099h-.758v-.849a1.79 1.79 0 0 1-.66.668 1.99 1.99 0 0 1-1.022.255c-.401 0-.766-.099-1.096-.297a2.07 2.07 0 0 1-.766-.832 2.591 2.591 0 0 1-.281-1.22zm3.825.008c0-.34-.069-.637-.206-.89a1.425 1.425 0 0 0-.561-.577 1.473 1.473 0 0 0-.766-.206c-.281 0-.536.066-.767.198a1.43 1.43 0 0 0-.552.577 1.84 1.84 0 0 0-.206.89c0 .346.069.648.206.907.137.252.321.448.552.585.231.132.486.198.767.198.28 0 .535-.066.766-.198.236-.137.423-.333.561-.585.137-.259.206-.558.206-.899zm3.806-2.324c.39 0 .731.085 1.022.256.297.17.516.384.659.642v-.824h.758v4.616c0 .412-.087.777-.263 1.096a1.866 1.866 0 0 1-.759.758c-.324.182-.703.272-1.137.272-.593 0-1.088-.14-1.484-.42a1.642 1.642 0 0 1-.7-1.146h.742c.082.275.252.495.511.66.258.17.568.255.931.255.412 0 .747-.129 1.006-.387.263-.258.395-.621.395-1.088v-.948a1.794 1.794 0 0 1-.659.659 1.937 1.937 0 0 1-1.022.264c-.401 0-.767-.099-1.096-.297a2.072 2.072 0 0 1-.767-.832 2.59 2.59 0 0 1-.28-1.22c0-.461.093-.865.28-1.212.187-.351.442-.623.767-.815a2.127 2.127 0 0 1 1.096-.289zm1.681 2.324c0-.34-.068-.637-.206-.89a1.416 1.416 0 0 0-.56-.577 1.477 1.477 0 0 0-.767-.206c-.28 0-.536.066-.766.198a1.439 1.439 0 0 0-.553.577 1.84 1.84 0 0 0-.206.89c0 .346.069.648.206.907a1.5 1.5 0 0 0 .553.585c.23.132.486.198.766.198s.536-.066.767-.198c.236-.137.423-.333.56-.585.138-.259.206-.558.206-.899zm6.065-.165c0 .143-.009.294-.025.454h-3.61c.027.445.178.794.453 1.047.28.247.618.37 1.014.37.324 0 .593-.074.808-.222.219-.154.373-.357.461-.61h.808a1.966 1.966 0 0 1-.725 1.063c-.363.269-.814.404-1.352.404a2.31 2.31 0 0 1-1.154-.288 2.064 2.064 0 0 1-.791-.816 2.565 2.565 0 0 1-.289-1.237c0-.467.094-.876.281-1.228.186-.351.447-.621.783-.807.34-.193.73-.289 1.17-.289.429 0 .808.093 1.137.28.33.187.583.445.759.775.181.324.272.692.272 1.104zm-.775-.156c0-.286-.063-.53-.19-.734a1.19 1.19 0 0 0-.519-.469 1.545 1.545 0 0 0-.717-.165 1.41 1.41 0 0 0-.973.362c-.263.242-.414.577-.453 1.006h2.852zm2.597-1.311v2.663c0 .219.047.376.14.469.094.088.256.132.487.132h.552v.635h-.676c-.418 0-.731-.096-.94-.289-.209-.192-.313-.508-.313-.947v-2.663h-.585v-.618h.585v-1.137h.75v1.137h1.179v.618h-1.179zm3.604 3.973c-.346 0-.657-.058-.931-.173a1.614 1.614 0 0 1-.651-.495 1.325 1.325 0 0 1-.264-.733h.775a.764.764 0 0 0 .313.552c.192.143.442.214.75.214.286 0 .511-.063.676-.189a.578.578 0 0 0 .247-.478.462.462 0 0 0-.264-.437c-.176-.099-.448-.195-.816-.288a6.7 6.7 0 0 1-.824-.264 1.57 1.57 0 0 1-.544-.404c-.148-.181-.223-.418-.223-.709 0-.231.069-.442.207-.635.137-.192.332-.343.585-.453.253-.115.541-.173.865-.173.5 0 .904.126 1.212.379.307.253.472.599.494 1.039h-.75a.767.767 0 0 0-.288-.569c-.171-.143-.401-.214-.693-.214-.269 0-.483.057-.642.173a.532.532 0 0 0-.239.453c0 .148.046.272.14.371.099.093.219.17.362.231.149.055.352.118.61.189.324.088.588.176.791.264.204.083.377.209.52.379.148.171.225.393.231.668 0 .247-.069.47-.207.667a1.39 1.39 0 0 1-.585.47 2.09 2.09 0 0 1-.857.165zm5.655-3.973v2.663c0 .219.046.376.14.469.093.088.255.132.486.132h.552v.635h-.676c-.417 0-.73-.096-.939-.289-.209-.192-.313-.508-.313-.947v-2.663h-.586v-.618h.586v-1.137h.75v1.137h1.178v.618h-1.178zm4.247-.7c.34 0 .648.074.923.222.274.143.489.36.643.651.159.292.239.646.239 1.064v2.662h-.742v-2.555c0-.451-.113-.794-.338-1.03-.225-.242-.533-.363-.923-.363-.396 0-.712.124-.948.371-.231.247-.346.607-.346 1.08v2.497h-.75v-6.099h.75v2.225a1.48 1.48 0 0 1 .61-.536c.263-.126.557-.189.882-.189zm2.667 2.324c0-.461.094-.865.28-1.212.187-.351.443-.623.767-.815a2.13 2.13 0 0 1 1.096-.289c.396 0 .739.085 1.03.256.292.17.509.384.651.642v-.824h.759v4.517h-.759v-.841c-.148.264-.37.484-.667.66a1.99 1.99 0 0 1-1.022.255 2.046 2.046 0 0 1-1.855-1.129 2.603 2.603 0 0 1-.28-1.22zm3.824.008c0-.34-.068-.637-.206-.89a1.416 1.416 0 0 0-.56-.577 1.474 1.474 0 0 0-.767-.206c-.28 0-.535.066-.766.198a1.43 1.43 0 0 0-.552.577 1.828 1.828 0 0 0-.206.89c0 .346.068.648.206.907.137.252.321.448.552.585.231.132.486.198.766.198.281 0 .536-.066.767-.198.236-.137.423-.333.56-.585.138-.259.206-.558.206-.899zm2.859-1.632v2.663c0 .219.046.376.14.469.093.088.255.132.486.132h.552v.635h-.675c-.418 0-.731-.096-.94-.289-.209-.192-.313-.508-.313-.947v-2.663h-.586v-.618h.586v-1.137h.75v1.137h1.178v.618h-1.178zm10.136-.618-1.409 4.517h-.775l-1.088-3.585-1.088 3.585h-.774l-1.418-4.517h.766l1.039 3.792 1.121-3.792h.766l1.097 3.8 1.022-3.8h.741zm1.05-.733a.494.494 0 0 1-.363-.149.491.491 0 0 1-.148-.362c0-.143.049-.264.148-.363a.493.493 0 0 1 .363-.148c.137 0 .253.049.346.148.099.099.148.22.148.363a.491.491 0 0 1-.148.362.457.457 0 0 1-.346.149zm.362.733v4.517h-.75v-4.517h.75zm1.946-1.582v6.099h-.75v-6.099h.75zm1.946 0v6.099h-.75v-6.099h.75zm4.061 2.423c.154-.269.379-.489.676-.659a1.995 1.995 0 0 1 1.014-.256 2.039 2.039 0 0 1 1.863 1.104c.186.347.28.751.28 1.212 0 .456-.094.863-.28 1.22a2.063 2.063 0 0 1-1.863 1.129c-.39 0-.734-.085-1.03-.255a1.751 1.751 0 0 1-.66-.652v.833h-.75v-6.099h.75v2.423zm3.066 1.401c0-.341-.068-.637-.206-.89a1.416 1.416 0 0 0-.56-.577 1.52 1.52 0 0 0-.767-.198 1.5 1.5 0 0 0-1.327.791 1.824 1.824 0 0 0-.206.882c0 .341.069.64.206.899.143.252.33.448.561.585.236.132.491.198.766.198.28 0 .536-.066.767-.198.236-.137.423-.333.56-.585a1.9 1.9 0 0 0 .206-.907zm5.793-.157c0 .143-.009.294-.025.454h-3.61c.027.445.178.794.453 1.047.28.247.618.37 1.014.37.324 0 .593-.074.808-.222.22-.154.373-.357.461-.61h.808a1.966 1.966 0 0 1-.725 1.063c-.363.269-.814.404-1.352.404a2.31 2.31 0 0 1-1.154-.288 2.064 2.064 0 0 1-.791-.816 2.576 2.576 0 0 1-.289-1.237c0-.467.094-.876.281-1.228.186-.351.447-.621.783-.807.34-.193.73-.289 1.17-.289.429 0 .808.093 1.137.28.33.187.583.445.759.775.181.324.272.692.272 1.104zm-.775-.156c0-.286-.063-.53-.19-.734a1.19 1.19 0 0 0-.519-.469 1.545 1.545 0 0 0-.717-.165 1.41 1.41 0 0 0-.973.362c-.263.242-.414.577-.453 1.006h2.852zm4.547-1.096a1.76 1.76 0 0 1 .66-.643c.296-.176.64-.264 1.03-.264.401 0 .764.096 1.088.289.33.192.588.464.775.815.186.347.28.751.28 1.212 0 .456-.094.863-.28 1.22a2.056 2.056 0 0 1-.775.832 2.046 2.046 0 0 1-1.088.297c-.385 0-.725-.085-1.022-.255a1.9 1.9 0 0 1-.668-.652v2.976h-.75v-6.66h.75v.833zm3.066 1.409c0-.341-.068-.637-.206-.89a1.416 1.416 0 0 0-.56-.577 1.517 1.517 0 0 0-.767-.198c-.274 0-.53.069-.766.206a1.48 1.48 0 0 0-.561.585 1.824 1.824 0 0 0-.206.882c0 .341.069.64.206.899.143.252.33.448.561.585.236.132.492.198.766.198.281 0 .536-.066.767-.198.236-.137.423-.333.56-.585a1.9 1.9 0 0 0 .206-.907zm1.391 0c0-.461.094-.865.281-1.212.187-.351.442-.623.766-.815a2.13 2.13 0 0 1 1.096-.289c.396 0 .74.085 1.031.256.291.17.508.384.651.642v-.824h.758v4.517h-.758v-.841a1.786 1.786 0 0 1-.668.66 1.99 1.99 0 0 1-1.022.255c-.401 0-.764-.099-1.088-.297a2.077 2.077 0 0 1-.766-.832 2.591 2.591 0 0 1-.281-1.22zm3.825.008c0-.34-.069-.637-.206-.89a1.419 1.419 0 0 0-.561-.577 1.47 1.47 0 0 0-.766-.206c-.28 0-.536.066-.767.198-.23.132-.415.324-.552.577a1.84 1.84 0 0 0-.206.89c0 .346.069.648.206.907.137.252.322.448.552.585.231.132.487.198.767.198s.536-.066.766-.198c.237-.137.423-.333.561-.585.137-.259.206-.558.206-.899zm2.693-1.516a1.45 1.45 0 0 1 .561-.602c.247-.143.546-.214.898-.214v.775h-.198c-.84 0-1.261.456-1.261 1.368v2.456h-.75v-4.517h.75v.734zm3.157-.116v2.663c0 .219.047.376.141.469.093.088.255.132.486.132h.552v.635h-.676c-.417 0-.731-.096-.939-.289-.209-.192-.314-.508-.314-.947v-2.663h-.585v-.618h.585v-1.137h.75v1.137h1.179v.618h-1.179zm6.09 3.973c-.423 0-.808-.096-1.154-.288a2.103 2.103 0 0 1-.807-.816 2.565 2.565 0 0 1-.289-1.237c0-.461.099-.868.297-1.22.203-.357.478-.629.824-.815a2.346 2.346 0 0 1 1.162-.289c.429 0 .816.096 1.162.289.346.186.618.456.816.807.204.352.305.761.305 1.228 0 .467-.104.879-.313 1.237a2.132 2.132 0 0 1-.832.816 2.404 2.404 0 0 1-1.171.288zm0-.659c.269 0 .522-.063.758-.19a1.41 1.41 0 0 0 .569-.569c.149-.252.223-.56.223-.923 0-.362-.072-.67-.215-.923a1.366 1.366 0 0 0-.56-.56 1.531 1.531 0 0 0-.75-.19c-.275 0-.528.063-.758.19a1.332 1.332 0 0 0-.544.56c-.138.253-.206.561-.206.923 0 .368.066.679.197.932.138.252.319.442.544.568.226.121.473.182.742.182zm5.058-3.314h-.948v3.899h-.75v-3.899h-.585v-.618h.585v-.321c0-.506.129-.874.387-1.105.264-.236.685-.354 1.262-.354v.626c-.33 0-.564.066-.701.198-.132.127-.198.338-.198.635v.321h.948v.618zm6.797-.618-2.72 6.643h-.774l.89-2.176-1.822-4.467h.833l1.417 3.66 1.402-3.66h.774zm2.642 4.591c-.423 0-.808-.096-1.154-.288a2.106 2.106 0 0 1-.808-.816 2.576 2.576 0 0 1-.288-1.237c0-.461.099-.868.296-1.22a2.06 2.06 0 0 1 .825-.815 2.343 2.343 0 0 1 1.162-.289c.428 0 .816.096 1.162.289.346.186.618.456.816.807.203.352.305.761.305 1.228 0 .467-.105.879-.313 1.237a2.135 2.135 0 0 1-.833.816 2.403 2.403 0 0 1-1.17.288zm0-.659c.269 0 .522-.063.758-.19.236-.126.426-.316.569-.569.148-.252.222-.56.222-.923 0-.362-.071-.67-.214-.923a1.378 1.378 0 0 0-.56-.56 1.532 1.532 0 0 0-.751-.19c-.274 0-.527.063-.758.19a1.344 1.344 0 0 0-.544.56c-.137.253-.206.561-.206.923 0 .368.066.679.198.932.137.252.319.442.544.568.225.121.473.182.742.182zm7.225-3.932v4.517h-.75v-.668a1.483 1.483 0 0 1-.601.544c-.253.127-.533.19-.841.19-.352 0-.668-.072-.948-.214a1.65 1.65 0 0 1-.668-.66c-.159-.291-.239-.645-.239-1.063v-2.646h.742v2.547c0 .445.113.789.338 1.03.225.237.533.355.923.355.401 0 .717-.124.948-.371.231-.247.346-.607.346-1.08v-2.481h.75zm1.934.734a1.45 1.45 0 0 1 .561-.602c.247-.143.546-.214.898-.214v.775h-.198c-.84 0-1.261.456-1.261 1.368v2.456h-.75v-4.517h.75v.734zm-124.007 13.091 1.401-3.825h.799l-1.772 4.517h-.874l-1.772-4.517h.808l1.41 3.825zm6.977-1.74c0 .143-.008.294-.025.454h-3.61c.028.445.179.794.453 1.047.281.247.619.37 1.014.37.324 0 .594-.074.808-.222.22-.154.374-.357.462-.61h.807a1.96 1.96 0 0 1-.725 1.063c-.363.269-.813.404-1.352.404-.428 0-.813-.096-1.154-.288a2.064 2.064 0 0 1-.791-.816 2.576 2.576 0 0 1-.288-1.237c0-.467.093-.876.28-1.228.187-.351.448-.621.783-.807a2.333 2.333 0 0 1 1.17-.289c.429 0 .808.093 1.138.28.329.187.582.445.758.775.181.324.272.692.272 1.104zm-.775-.156c0-.286-.063-.53-.189-.734a1.198 1.198 0 0 0-.52-.469 1.545 1.545 0 0 0-.717-.165c-.379 0-.703.121-.972.362-.264.242-.415.577-.454 1.006h2.852zm2.433-1.195c.131-.258.318-.459.56-.602.247-.143.547-.214.898-.214v.775h-.197c-.841 0-1.261.456-1.261 1.368v2.456h-.75v-4.517h.75v.734zm2.629-1.467a.49.49 0 0 1-.362-.149.492.492 0 0 1-.149-.362c0-.143.05-.264.149-.363a.49.49 0 0 1 .362-.148c.138 0 .253.049.346.148.099.099.149.22.149.363s-.05.263-.149.362a.455.455 0 0 1-.346.149zm.363.733v4.517h-.75v-4.517h.75zm3.034.618h-.948v3.899h-.75v-3.899h-.585v-.618h.585v-.321c0-.506.129-.874.387-1.105.264-.236.684-.354 1.261-.354v.626c-.329 0-.563.066-.7.198-.132.127-.198.338-.198.635v.321h.948v.618zm1.179-1.351a.49.49 0 0 1-.362-.149.492.492 0 0 1-.149-.362c0-.143.05-.264.149-.363a.49.49 0 0 1 .362-.148c.138 0 .253.049.346.148.099.099.149.22.149.363s-.05.263-.149.362a.455.455 0 0 1-.346.149zm.363.733v4.517h-.75v-4.517h.75zm.916 2.25c0-.467.093-.873.28-1.22.187-.351.445-.623.775-.815a2.252 2.252 0 0 1 1.145-.289c.555 0 1.011.135 1.368.404.363.269.602.643.717 1.121h-.807a1.149 1.149 0 0 0-.454-.651c-.219-.16-.494-.239-.824-.239-.428 0-.775.148-1.038.445-.264.291-.396.706-.396 1.244 0 .544.132.965.396 1.261.263.297.61.445 1.038.445.33 0 .605-.076.824-.23.22-.154.371-.374.454-.66h.807c-.12.462-.362.833-.725 1.113-.363.275-.816.412-1.36.412-.428 0-.81-.096-1.145-.288a2.026 2.026 0 0 1-.775-.816c-.187-.352-.28-.764-.28-1.237zm4.924-.008c0-.461.093-.865.28-1.212.187-.351.442-.623.766-.815a2.13 2.13 0 0 1 1.097-.289c.395 0 .739.085 1.03.256.291.17.508.384.651.642v-.824h.758v4.517h-.758v-.841a1.786 1.786 0 0 1-.668.66 1.99 1.99 0 0 1-1.022.255c-.401 0-.763-.099-1.088-.297a2.077 2.077 0 0 1-.766-.832 2.59 2.59 0 0 1-.28-1.22zm3.824.008c0-.34-.069-.637-.206-.89a1.412 1.412 0 0 0-.561-.577 1.47 1.47 0 0 0-.766-.206c-.28 0-.536.066-.767.198-.23.132-.414.324-.552.577a1.84 1.84 0 0 0-.206.89c0 .346.069.648.206.907.138.252.322.448.552.585.231.132.487.198.767.198s.536-.066.766-.198c.237-.137.424-.333.561-.585.137-.259.206-.558.206-.899zm2.858-1.632v2.663c0 .219.047.376.14.469.094.088.256.132.487.132h.552v.635h-.676c-.418 0-.731-.096-.94-.289-.208-.192-.313-.508-.313-.947v-2.663h-.585v-.618h.585v-1.137h.75v1.137h1.179v.618h-1.179zm2.393-1.351a.494.494 0 0 1-.363-.149.491.491 0 0 1-.148-.362c0-.143.049-.264.148-.363a.493.493 0 0 1 .363-.148c.137 0 .252.049.346.148.099.099.148.22.148.363a.491.491 0 0 1-.148.362.459.459 0 0 1-.346.149zm.362.733v4.517h-.75v-4.517h.75zm3.166 4.591c-.423 0-.808-.096-1.154-.288a2.106 2.106 0 0 1-.808-.816 2.576 2.576 0 0 1-.288-1.237c0-.461.099-.868.297-1.22.203-.357.478-.629.824-.815a2.343 2.343 0 0 1 1.162-.289c.429 0 .816.096 1.162.289.346.186.618.456.816.807.203.352.305.761.305 1.228 0 .467-.104.879-.313 1.237a2.135 2.135 0 0 1-.833.816 2.397 2.397 0 0 1-1.17.288zm0-.659c.269 0 .522-.063.758-.19a1.41 1.41 0 0 0 .569-.569c.148-.252.222-.56.222-.923 0-.362-.071-.67-.214-.923a1.372 1.372 0 0 0-.56-.56 1.531 1.531 0 0 0-.75-.19 1.55 1.55 0 0 0-.759.19 1.344 1.344 0 0 0-.544.56c-.137.253-.206.561-.206.923 0 .368.066.679.198.932.138.252.319.442.544.568.225.121.473.182.742.182zm5.42-4.014c.55 0 .995.167 1.336.503.34.329.511.807.511 1.434v2.662h-.742v-2.555c0-.451-.113-.794-.338-1.03-.225-.242-.533-.363-.923-.363-.396 0-.712.124-.948.371-.231.247-.346.607-.346 1.08v2.497h-.75v-4.517h.75v.643a1.5 1.5 0 0 1 .601-.536c.259-.126.542-.189.849-.189zm5.854.915c.149-.259.369-.473.66-.643.297-.176.64-.264 1.03-.264.401 0 .764.096 1.088.289.33.192.588.464.775.815.187.347.28.751.28 1.212 0 .456-.093.863-.28 1.22a2.056 2.056 0 0 1-.775.832 2.046 2.046 0 0 1-1.088.297c-.385 0-.725-.085-1.022-.255a1.9 1.9 0 0 1-.668-.652v2.976h-.75v-6.66h.75v.833zm3.067 1.409c0-.341-.069-.637-.207-.89a1.416 1.416 0 0 0-.56-.577 1.517 1.517 0 0 0-.767-.198c-.274 0-.53.069-.766.206a1.48 1.48 0 0 0-.561.585 1.824 1.824 0 0 0-.206.882c0 .341.069.64.206.899.143.252.33.448.561.585.236.132.492.198.766.198.281 0 .536-.066.767-.198.236-.137.423-.333.56-.585a1.9 1.9 0 0 0 .207-.907zm2.421-1.508c.132-.258.319-.459.56-.602.248-.143.547-.214.899-.214v.775h-.198c-.841 0-1.261.456-1.261 1.368v2.456h-.75v-4.517h.75v.734zm4.212 3.857c-.423 0-.808-.096-1.154-.288a2.106 2.106 0 0 1-.808-.816 2.576 2.576 0 0 1-.288-1.237c0-.461.099-.868.297-1.22.203-.357.478-.629.824-.815a2.343 2.343 0 0 1 1.162-.289c.429 0 .816.096 1.162.289.346.186.618.456.816.807.203.352.305.761.305 1.228 0 .467-.104.879-.313 1.237a2.128 2.128 0 0 1-.833.816 2.397 2.397 0 0 1-1.17.288zm0-.659c.269 0 .522-.063.758-.19a1.41 1.41 0 0 0 .569-.569c.148-.252.223-.56.223-.923 0-.362-.072-.67-.215-.923a1.372 1.372 0 0 0-.56-.56 1.531 1.531 0 0 0-.75-.19 1.55 1.55 0 0 0-.759.19 1.344 1.344 0 0 0-.544.56c-.137.253-.206.561-.206.923 0 .368.066.679.198.932.138.252.319.442.544.568.226.121.473.182.742.182zm2.94-1.682c0-.467.093-.873.28-1.22.187-.351.445-.623.775-.815a2.252 2.252 0 0 1 1.145-.289c.555 0 1.011.135 1.368.404.363.269.602.643.718 1.121h-.808a1.149 1.149 0 0 0-.454-.651c-.219-.16-.494-.239-.824-.239-.428 0-.775.148-1.038.445-.264.291-.396.706-.396 1.244 0 .544.132.965.396 1.261.263.297.61.445 1.038.445.33 0 .605-.076.824-.23.22-.154.371-.374.454-.66h.808a2.005 2.005 0 0 1-.726 1.113c-.362.275-.816.412-1.36.412-.428 0-.81-.096-1.145-.288a2.026 2.026 0 0 1-.775-.816c-.187-.352-.28-.764-.28-1.237zm9.325-.165c0 .143-.008.294-.025.454h-3.61c.028.445.179.794.453 1.047.281.247.619.37 1.014.37.324 0 .594-.074.808-.222.22-.154.374-.357.462-.61h.807a1.96 1.96 0 0 1-.725 1.063c-.363.269-.813.404-1.352.404-.428 0-.813-.096-1.154-.288a2.064 2.064 0 0 1-.791-.816 2.576 2.576 0 0 1-.288-1.237c0-.467.093-.876.28-1.228.187-.351.448-.621.783-.807a2.333 2.333 0 0 1 1.17-.289c.429 0 .808.093 1.138.28.329.187.582.445.758.775.181.324.272.692.272 1.104zm-.775-.156c0-.286-.063-.53-.189-.734a1.198 1.198 0 0 0-.52-.469 1.545 1.545 0 0 0-.717-.165c-.379 0-.703.121-.972.362-.264.242-.415.577-.454 1.006h2.852zm3.282 2.662c-.347 0-.657-.058-.932-.173a1.614 1.614 0 0 1-.651-.495 1.34 1.34 0 0 1-.264-.733h.775a.764.764 0 0 0 .313.552c.193.143.443.214.75.214.286 0 .511-.063.676-.189a.578.578 0 0 0 .247-.478.462.462 0 0 0-.263-.437c-.176-.099-.448-.195-.816-.288a6.779 6.779 0 0 1-.825-.264 1.567 1.567 0 0 1-.543-.404c-.149-.181-.223-.418-.223-.709 0-.231.069-.442.206-.635.137-.192.332-.343.585-.453a2.07 2.07 0 0 1 .866-.173c.5 0 .904.126 1.211.379.308.253.473.599.495 1.039h-.75a.77.77 0 0 0-.289-.569c-.17-.143-.401-.214-.692-.214-.269 0-.484.057-.643.173a.534.534 0 0 0-.239.453c0 .148.047.272.14.371.099.093.22.17.363.231.148.055.351.118.61.189.324.088.588.176.791.264.203.083.376.209.519.379.149.171.225.393.231.668 0 .247-.069.47-.206.667a1.397 1.397 0 0 1-.585.47c-.248.11-.533.165-.857.165zm4.223 0c-.346 0-.656-.058-.931-.173a1.614 1.614 0 0 1-.651-.495 1.333 1.333 0 0 1-.264-.733h.775a.764.764 0 0 0 .313.552c.192.143.442.214.75.214.286 0 .511-.063.676-.189a.578.578 0 0 0 .247-.478.462.462 0 0 0-.264-.437c-.175-.099-.447-.195-.816-.288a6.756 6.756 0 0 1-.824-.264 1.57 1.57 0 0 1-.544-.404c-.148-.181-.222-.418-.222-.709 0-.231.068-.442.206-.635.137-.192.332-.343.585-.453.253-.115.541-.173.865-.173.5 0 .904.126 1.212.379.308.253.473.599.495 1.039h-.75a.77.77 0 0 0-.289-.569c-.17-.143-.401-.214-.692-.214-.27 0-.484.057-.643.173a.532.532 0 0 0-.239.453c0 .148.047.272.14.371.099.093.22.17.363.231.148.055.351.118.609.189.325.088.588.176.792.264.203.083.376.209.519.379.148.171.225.393.231.668 0 .247-.069.47-.206.667a1.403 1.403 0 0 1-.585.47c-.248.11-.533.165-.858.165zm5.49-3.758a1.76 1.76 0 0 1 .66-.643c.296-.176.64-.264 1.03-.264.401 0 .764.096 1.088.289.329.192.588.464.775.815.186.347.28.751.28 1.212 0 .456-.094.863-.28 1.22a2.063 2.063 0 0 1-1.863 1.129c-.385 0-.726-.085-1.022-.255a1.9 1.9 0 0 1-.668-.652v2.976h-.75v-6.66h.75v.833zm3.066 1.409c0-.341-.068-.637-.206-.89a1.416 1.416 0 0 0-.56-.577 1.52 1.52 0 0 0-.767-.198 1.5 1.5 0 0 0-1.327.791 1.824 1.824 0 0 0-.206.882c0 .341.069.64.206.899.143.252.33.448.561.585.236.132.491.198.766.198.28 0 .536-.066.767-.198.236-.137.423-.333.56-.585a1.9 1.9 0 0 0 .206-.907zm2.059-2.975a.494.494 0 0 1-.363-.149.491.491 0 0 1-.148-.362c0-.143.049-.264.148-.363a.493.493 0 0 1 .363-.148c.137 0 .253.049.346.148.099.099.148.22.148.363a.491.491 0 0 1-.148.362.457.457 0 0 1-.346.149zm.363.733v4.517h-.75v-4.517h.75zm1.946.833c.148-.259.368-.473.659-.643.297-.176.64-.264 1.03-.264.401 0 .764.096 1.088.289.33.192.588.464.775.815.187.347.28.751.28 1.212 0 .456-.093.863-.28 1.22a2.056 2.056 0 0 1-.775.832 2.046 2.046 0 0 1-1.088.297c-.384 0-.725-.085-1.022-.255a1.888 1.888 0 0 1-.667-.652v2.976h-.75v-6.66h.75v.833zm3.066 1.409a1.84 1.84 0 0 0-.206-.89 1.425 1.425 0 0 0-.561-.577 1.516 1.516 0 0 0-.766-.198c-.275 0-.531.069-.767.206a1.471 1.471 0 0 0-.56.585 1.813 1.813 0 0 0-.206.882c0 .341.068.64.206.899.142.252.329.448.56.585.236.132.492.198.767.198.28 0 .535-.066.766-.198.236-.137.423-.333.561-.585.137-.259.206-.561.206-.907zm5.792-.157c0 .143-.008.294-.025.454h-3.61c.028.445.179.794.454 1.047.28.247.618.37 1.013.37.325 0 .594-.074.808-.222.22-.154.374-.357.462-.61h.807c-.12.434-.362.788-.725 1.063-.363.269-.813.404-1.352.404-.428 0-.813-.096-1.154-.288a2.07 2.07 0 0 1-.791-.816 2.576 2.576 0 0 1-.288-1.237c0-.467.093-.876.28-1.228.187-.351.448-.621.783-.807a2.333 2.333 0 0 1 1.17-.289c.429 0 .808.093 1.138.28.329.187.582.445.758.775.181.324.272.692.272 1.104zm-.775-.156c0-.286-.063-.53-.189-.734a1.198 1.198 0 0 0-.52-.469 1.545 1.545 0 0 0-.717-.165c-.379 0-.703.121-.972.362-.264.242-.415.577-.453 1.006h2.851zm2.433-3.511v6.099h-.75v-6.099h.75zm1.583.849a.494.494 0 0 1-.363-.149.491.491 0 0 1-.148-.362c0-.143.049-.264.148-.363a.493.493 0 0 1 .363-.148c.137 0 .253.049.346.148.099.099.149.22.149.363s-.05.263-.149.362a.457.457 0 0 1-.346.149zm.363.733v4.517h-.75v-4.517h.75zm3.396-.082c.55 0 .995.167 1.335.503.341.329.511.807.511 1.434v2.662h-.741v-2.555c0-.451-.113-.794-.338-1.03-.226-.242-.533-.363-.923-.363-.396 0-.712.124-.948.371-.231.247-.346.607-.346 1.08v2.497h-.75v-4.517h.75v.643c.148-.231.348-.409.601-.536.259-.126.541-.189.849-.189zm7.11 2.167c0 .143-.008.294-.024.454h-3.611c.028.445.179.794.454 1.047.28.247.618.37 1.014.37.324 0 .593-.074.807-.222.22-.154.374-.357.462-.61h.808a1.962 1.962 0 0 1-.726 1.063c-.362.269-.813.404-1.351.404-.429 0-.814-.096-1.154-.288a2.073 2.073 0 0 1-.792-.816 2.576 2.576 0 0 1-.288-1.237c0-.467.093-.876.28-1.228.187-.351.448-.621.783-.807a2.335 2.335 0 0 1 1.171-.289c.428 0 .807.093 1.137.28.33.187.582.445.758.775.182.324.272.692.272 1.104zm-.774-.156c0-.286-.064-.53-.19-.734a1.195 1.195 0 0 0-.519-.469 1.551 1.551 0 0 0-.717-.165c-.38 0-.704.121-.973.362-.264.242-.415.577-.453 1.006h2.852zm1.921 2.637a.493.493 0 0 1-.363-.148.493.493 0 0 1-.148-.363c0-.143.049-.263.148-.362a.494.494 0 0 1 .363-.149c.137 0 .253.05.346.149a.491.491 0 0 1 .148.362.493.493 0 0 1-.148.363.456.456 0 0 1-.346.148z" fill="#8DA1A1"/><path d="M322.752 184.663a.916.916 0 1 1-1.832 0 .916.916 0 0 1 1.832 0zM325.957 184.663a.916.916 0 1 1-1.832 0 .916.916 0 0 1 1.832 0zM329.163 184.663a.916.916 0 1 1-1.832 0 .916.916 0 0 1 1.832 0z" fill="#1B4444"/><g filter="url(#d)"><rect x="61.979" y="232.399" width="285.042" height="62.503" rx="5.495" fill="#fff"/><rect x="70.221" y="240.641" width="46.019" height="46.019" rx="5.495" fill="#EFEFEF"/></g></g><defs><clipPath id="a"><path fill="#fff" transform="translate(40 29)" d="M0 0h329v560H0z"/></clipPath><clipPath id="b"><path fill="#fff" transform="translate(70.221 117.695)" d="M0 0h10.99v10.99H0z"/></clipPath><clipPath id="c"><path fill="#fff" transform="translate(84.988 176.421)" d="M0 0h16.484v16.484H0z"/></clipPath><filter id="d" x="44.808" y="217.975" width="319.384" height="96.846" filterUnits="userSpaceOnUse" color-interpolation-filters="sRGB"><feFlood flood-opacity="0" result="BackgroundImageFix"/><feColorMatrix in="SourceAlpha" values="0 0 0 0 0 0 0 0 0 0 0 0 0 0 0 0 0 0 127 0" result="hardAlpha"/><feOffset dy="2.747"/><feGaussianBlur stdDeviation="8.586"/><feComposite in2="hardAlpha" operator="out"/><feColorMatrix values="0 0 0 0 0 0 0 0 0 0 0 0 0 0 0 0 0 0 0.1 0"/><feBlend in2="BackgroundImageFix" result="effect1_dropShadow_961_7635"/><feBlend in="SourceGraphic" in2="effect1_dropShadow_961_7635" result="shape"/></filter></defs></svg>