<svg width="495" height="222" viewBox="0 0 495 222" fill="none" xmlns="http://www.w3.org/2000/svg">
<circle cx="247.242" cy="111" r="110" stroke="#66DD95" stroke-width="2"/>
<circle cx="247.242" cy="111" r="92.2708" stroke="#66DD95" stroke-width="2"/>
<circle cx="247.242" cy="111" r="74.5417" stroke="#66DD95" stroke-width="2"/>
<rect y="22.5935" width="234.035" height="135.147" rx="6.59255" fill="white"/>
<path d="M21.6631 41.7948V42.7144H19.8337V48.6675H18.7064V42.7144H16.867V41.7948H21.6631ZM25.0694 48.7565C24.5551 48.7565 24.0904 48.6411 23.675 48.4104C23.2597 48.1731 22.9334 47.8434 22.696 47.4215C22.4587 46.993 22.34 46.4986 22.34 45.9382C22.34 45.3844 22.462 44.8933 22.7059 44.4648C22.9499 44.0362 23.2828 43.7066 23.7047 43.4759C24.1266 43.2451 24.598 43.1298 25.1188 43.1298C25.6396 43.1298 26.111 43.2451 26.5329 43.4759C26.9548 43.7066 27.2878 44.0362 27.5317 44.4648C27.7756 44.8933 27.8976 45.3844 27.8976 45.9382C27.8976 46.492 27.7723 46.9831 27.5218 47.4116C27.2713 47.8401 26.9285 48.1731 26.4933 48.4104C26.0648 48.6411 25.5902 48.7565 25.0694 48.7565ZM25.0694 47.7775C25.3594 47.7775 25.6297 47.7083 25.8802 47.5699C26.1374 47.4314 26.345 47.2237 26.5032 46.9469C26.6615 46.67 26.7406 46.3337 26.7406 45.9382C26.7406 45.5426 26.6648 45.2097 26.5131 44.9394C26.3615 44.6625 26.1604 44.4549 25.9099 44.3164C25.6594 44.178 25.3891 44.1088 25.099 44.1088C24.809 44.1088 24.5387 44.178 24.2881 44.3164C24.0442 44.4549 23.8497 44.6625 23.7047 44.9394C23.5597 45.2097 23.4871 45.5426 23.4871 45.9382C23.4871 46.5249 23.6355 46.9798 23.9321 47.3029C24.2354 47.6193 24.6145 47.7775 25.0694 47.7775ZM30.2283 44.1384V47.1545C30.2283 47.3589 30.2745 47.5072 30.3668 47.5995C30.4656 47.6852 30.6305 47.7281 30.8612 47.7281H31.5534V48.6675H30.6634C30.1558 48.6675 29.7668 48.5488 29.4965 48.3115C29.2262 48.0742 29.0911 47.6885 29.0911 47.1545V44.1384H28.4483V43.2188H29.0911V41.864H30.2283V43.2188H31.5534V44.1384H30.2283ZM32.1178 45.9184C32.1178 45.3712 32.2298 44.8867 32.454 44.4648C32.6847 44.0428 32.9946 43.7165 33.3835 43.4858C33.7791 43.2484 34.2142 43.1298 34.6889 43.1298C35.1174 43.1298 35.4899 43.2155 35.8063 43.3869C36.1293 43.5517 36.3864 43.7594 36.5776 44.0099V43.2188H37.7148V48.6675H36.5776V47.8566C36.3864 48.1137 36.126 48.328 35.7964 48.4994C35.4668 48.6708 35.091 48.7565 34.6691 48.7565C34.201 48.7565 33.7725 48.6378 33.3835 48.4005C32.9946 48.1566 32.6847 47.8204 32.454 47.3919C32.2298 46.9567 32.1178 46.4656 32.1178 45.9184ZM36.5776 45.9382C36.5776 45.5624 36.4985 45.2361 36.3403 44.9592C36.1887 44.6823 35.9876 44.4714 35.7371 44.3263C35.4866 44.1813 35.2163 44.1088 34.9262 44.1088C34.6361 44.1088 34.3658 44.1813 34.1153 44.3263C33.8648 44.4648 33.6604 44.6724 33.5022 44.9493C33.3506 45.2196 33.2748 45.5426 33.2748 45.9184C33.2748 46.2942 33.3506 46.6238 33.5022 46.9073C33.6604 47.1908 33.8648 47.4083 34.1153 47.56C34.3724 47.705 34.6427 47.7775 34.9262 47.7775C35.2163 47.7775 35.4866 47.705 35.7371 47.56C35.9876 47.4149 36.1887 47.204 36.3403 46.9271C36.4985 46.6436 36.5776 46.314 36.5776 45.9382ZM40.224 41.3498V48.6675H39.0966V41.3498H40.224ZM46.3396 48.7367C45.8781 48.7367 45.4628 48.6576 45.0936 48.4994C44.7244 48.3346 44.4343 48.1038 44.2234 47.8072C44.0124 47.5105 43.9069 47.1644 43.9069 46.7689H45.1134C45.1397 47.0655 45.2551 47.3094 45.4595 47.5006C45.6704 47.6918 45.9638 47.7874 46.3396 47.7874C46.7285 47.7874 47.0318 47.6951 47.2494 47.5105C47.4669 47.3193 47.5757 47.0754 47.5757 46.7787C47.5757 46.548 47.5065 46.3601 47.368 46.2151C47.2362 46.07 47.0681 45.958 46.8637 45.8789C46.6659 45.7998 46.389 45.7141 46.033 45.6218C45.5847 45.5031 45.2189 45.3844 44.9354 45.2658C44.6585 45.1405 44.4212 44.9493 44.2234 44.6922C44.0256 44.4351 43.9267 44.0923 43.9267 43.6638C43.9267 43.2682 44.0256 42.9221 44.2234 42.6254C44.4212 42.3288 44.698 42.1013 45.054 41.9431C45.41 41.7849 45.8221 41.7058 46.2901 41.7058C46.956 41.7058 47.4999 41.8739 47.9218 42.2101C48.3503 42.5397 48.5876 42.9946 48.6338 43.5748H47.3878C47.368 43.3243 47.2494 43.11 47.0318 42.932C46.8143 42.754 46.5275 42.665 46.1715 42.665C45.8484 42.665 45.5847 42.7474 45.3804 42.9122C45.176 43.077 45.0738 43.3144 45.0738 43.6242C45.0738 43.8352 45.1364 44.0099 45.2617 44.1483C45.3936 44.2802 45.5584 44.3857 45.7561 44.4648C45.9539 44.5439 46.2242 44.6296 46.567 44.7219C47.0219 44.8471 47.3911 44.9724 47.6746 45.0976C47.9647 45.2229 48.2086 45.4174 48.4064 45.6811C48.6107 45.9382 48.7129 46.2843 48.7129 46.7194C48.7129 47.0688 48.6173 47.3984 48.4261 47.7083C48.2415 48.0181 47.9679 48.2687 47.6054 48.4598C47.2494 48.6444 46.8274 48.7367 46.3396 48.7367ZM51.0715 44.0198C51.2627 43.7692 51.5231 43.5583 51.8528 43.3869C52.1824 43.2155 52.5549 43.1298 52.9702 43.1298C53.4449 43.1298 53.8767 43.2484 54.2656 43.4858C54.6612 43.7165 54.971 44.0428 55.1952 44.4648C55.4193 44.8867 55.5314 45.3712 55.5314 45.9184C55.5314 46.4656 55.4193 46.9567 55.1952 47.3919C54.971 47.8204 54.6612 48.1566 54.2656 48.4005C53.8767 48.6378 53.4449 48.7565 52.9702 48.7565C52.5549 48.7565 52.1857 48.6741 51.8626 48.5093C51.5396 48.3379 51.2759 48.1269 51.0715 47.8764V51.2584H49.9442V43.2188H51.0715V44.0198ZM54.3843 45.9184C54.3843 45.5426 54.3052 45.2196 54.147 44.9493C53.9953 44.6724 53.791 44.4648 53.5339 44.3263C53.2833 44.1813 53.013 44.1088 52.723 44.1088C52.4395 44.1088 52.1692 44.1813 51.9121 44.3263C51.6616 44.4714 51.4572 44.6823 51.299 44.9592C51.1474 45.2361 51.0715 45.5624 51.0715 45.9382C51.0715 46.314 51.1474 46.6436 51.299 46.9271C51.4572 47.204 51.6616 47.4149 51.9121 47.56C52.1692 47.705 52.4395 47.7775 52.723 47.7775C53.013 47.7775 53.2833 47.705 53.5339 47.56C53.791 47.4083 53.9953 47.1908 54.147 46.9073C54.3052 46.6238 54.3843 46.2942 54.3843 45.9184ZM61.5412 45.8096C61.5412 46.014 61.528 46.1986 61.5016 46.3634H57.3384C57.3714 46.7985 57.5329 47.1479 57.823 47.4116C58.1131 47.6753 58.469 47.8072 58.891 47.8072C59.4975 47.8072 59.926 47.5534 60.1765 47.0457H61.3928C61.228 47.5468 60.9281 47.9588 60.493 48.2818C60.0644 48.5983 59.5304 48.7565 58.891 48.7565C58.3702 48.7565 57.9021 48.6411 57.4868 48.4104C57.078 48.1731 56.755 47.8434 56.5177 47.4215C56.2869 46.993 56.1715 46.4986 56.1715 45.9382C56.1715 45.3778 56.2836 44.8867 56.5078 44.4648C56.7385 44.0362 57.0582 43.7066 57.467 43.4759C57.8823 43.2451 58.357 43.1298 58.891 43.1298C59.4052 43.1298 59.8634 43.2418 60.2655 43.466C60.6677 43.6901 60.9808 44.0066 61.205 44.4153C61.4291 44.8175 61.5412 45.2822 61.5412 45.8096ZM60.3644 45.4536C60.3578 45.0383 60.2095 44.7054 59.9194 44.4549C59.6293 44.2044 59.27 44.0791 58.8415 44.0791C58.4526 44.0791 58.1196 44.2044 57.8428 44.4549C57.5659 44.6988 57.4011 45.0317 57.3483 45.4536H60.3644ZM65.3008 43.1298C65.7293 43.1298 66.1117 43.2188 66.4479 43.3968C66.7907 43.5748 67.0577 43.8385 67.2489 44.1879C67.4401 44.5373 67.5357 44.9592 67.5357 45.4536V48.6675H66.4182V45.6218C66.4182 45.1339 66.2963 44.7614 66.0523 44.5043C65.8084 44.2406 65.4755 44.1088 65.0536 44.1088C64.6316 44.1088 64.2954 44.2406 64.0449 44.5043C63.801 44.7614 63.679 45.1339 63.679 45.6218V48.6675H62.5517V43.2188H63.679V43.8418C63.8636 43.6176 64.0976 43.4429 64.3811 43.3177C64.6712 43.1924 64.9777 43.1298 65.3008 43.1298ZM70.1899 44.1384V47.1545C70.1899 47.3589 70.2361 47.5072 70.3284 47.5995C70.4273 47.6852 70.5921 47.7281 70.8228 47.7281H71.5151V48.6675H70.6251C70.1174 48.6675 69.7285 48.5488 69.4582 48.3115C69.1879 48.0742 69.0527 47.6885 69.0527 47.1545V44.1384H68.41V43.2188H69.0527V41.864H70.1899V43.2188H71.5151V44.1384H70.1899Z" fill="#193F3F"/>
<path d="M208.215 45.6675C208.215 46.2743 207.723 46.7662 207.116 46.7662C206.509 46.7662 206.017 46.2743 206.017 45.6675C206.017 45.0607 206.509 44.5687 207.116 44.5687C207.723 44.5687 208.215 45.0607 208.215 45.6675Z" fill="#193F3F"/>
<path d="M212.06 45.6675C212.06 46.2743 211.568 46.7662 210.961 46.7662C210.355 46.7662 209.863 46.2743 209.863 45.6675C209.863 45.0607 210.355 44.5687 210.961 44.5687C211.568 44.5687 212.06 45.0607 212.06 45.6675Z" fill="#193F3F"/>
<path d="M215.906 45.6675C215.906 46.2743 215.414 46.7662 214.807 46.7662C214.2 46.7662 213.708 46.2743 213.708 45.6675C213.708 45.0607 214.2 44.5687 214.807 44.5687C215.414 44.5687 215.906 45.0607 215.906 45.6675Z" fill="#193F3F"/>
<path d="M30.8268 105.668C30.8268 106.547 30.607 107.373 30.1675 108.147C29.7456 108.92 29.1127 109.571 28.2689 110.098C27.4426 110.625 26.4581 110.942 25.3154 111.047V113.183H23.6013V111.047C21.9488 110.889 20.6127 110.371 19.5931 109.492C18.5734 108.613 18.0636 107.452 18.0636 106.011H21.2808C21.3335 106.696 21.5532 107.268 21.94 107.725C22.3268 108.164 22.8805 108.445 23.6013 108.569V102.767C22.4235 102.468 21.4653 102.169 20.727 101.871C19.9886 101.554 19.3557 101.062 18.8283 100.394C18.3185 99.7258 18.0636 98.8116 18.0636 97.6513C18.0636 96.1921 18.5734 94.9879 19.5931 94.0386C20.6127 93.0717 21.9488 92.5091 23.6013 92.3509V90.2149H25.3154V92.3509C26.8624 92.4915 28.1018 92.9838 29.0336 93.8276C29.9829 94.6539 30.5191 95.7966 30.6422 97.2557H27.425C27.3723 96.7108 27.1613 96.2273 26.7921 95.8054C26.4229 95.3659 25.9307 95.067 25.3154 94.9088V100.605C26.4933 100.886 27.4514 101.185 28.1897 101.501C28.9281 101.8 29.5522 102.284 30.062 102.952C30.5719 103.602 30.8268 104.508 30.8268 105.668ZM21.1225 97.4931C21.1225 98.2139 21.3335 98.7764 21.7554 99.1808C22.1949 99.5851 22.8102 99.9103 23.6013 100.156V94.8297C22.8454 94.9176 22.2389 95.1901 21.7818 95.6472C21.3423 96.1042 21.1225 96.7196 21.1225 97.4931ZM25.3154 108.569C26.0889 108.445 26.6954 108.138 27.1349 107.646C27.5744 107.136 27.7942 106.529 27.7942 105.826C27.7942 105.123 27.5744 104.578 27.1349 104.191C26.713 103.787 26.1065 103.462 25.3154 103.215V108.569ZM34.5553 94.4078V91.6653H40.0403V110.889H37.0077V94.4078H34.5553ZM45.5677 106.802C47.2554 105.343 48.5827 104.147 49.5496 103.215C50.5341 102.266 51.3516 101.282 52.002 100.262C52.6525 99.2423 52.9777 98.2227 52.9777 97.203C52.9777 96.1482 52.7228 95.3219 52.213 94.7242C51.7207 94.1265 50.9384 93.8276 49.866 93.8276C48.8288 93.8276 48.0201 94.1616 47.44 94.8297C46.8774 95.4802 46.5785 96.3592 46.5434 97.4667H43.6427C43.6954 95.4626 44.2931 93.9331 45.4358 92.8783C46.5961 91.8059 48.0641 91.2697 49.8397 91.2697C51.7559 91.2697 53.2502 91.7971 54.3226 92.8519C55.4126 93.9067 55.9575 95.3131 55.9575 97.0712C55.9575 98.3369 55.6323 99.5587 54.9818 100.737C54.349 101.897 53.5842 102.943 52.6876 103.875C51.8086 104.789 50.6835 105.852 49.3123 107.065L48.1256 108.12H56.4849V110.625H43.669V108.437L45.5677 106.802ZM58.8094 96.4119C58.9149 94.7769 59.539 93.5024 60.6817 92.5882C61.842 91.6741 63.3187 91.217 65.1119 91.217C66.3425 91.217 67.4061 91.4367 68.3027 91.8762C69.1993 92.3157 69.8761 92.9135 70.3332 93.6694C70.7903 94.4253 71.0188 95.278 71.0188 96.2273C71.0188 97.3173 70.7288 98.249 70.1486 99.0225C69.5685 99.7961 68.8741 100.315 68.0654 100.578V100.684C69.1026 101 69.9113 101.58 70.4914 102.424C71.0716 103.251 71.3616 104.314 71.3616 105.615C71.3616 106.652 71.1243 107.575 70.6496 108.384C70.175 109.193 69.4718 109.834 68.54 110.309C67.6083 110.766 66.4919 110.995 65.191 110.995C63.2924 110.995 61.7277 110.511 60.4971 109.544C59.2841 108.56 58.6336 107.153 58.5457 105.325H61.4465C61.5168 106.257 61.8772 107.022 62.5276 107.619C63.1781 108.199 64.0571 108.489 65.1646 108.489C66.237 108.489 67.0633 108.199 67.6434 107.619C68.2236 107.022 68.5137 106.257 68.5137 105.325C68.5137 104.094 68.1181 103.224 67.327 102.714C66.5535 102.187 65.358 101.923 63.7407 101.923H63.055V99.4445H63.767C65.191 99.4269 66.2722 99.1896 67.0106 98.7325C67.7665 98.2754 68.1445 97.5546 68.1445 96.5701C68.1445 95.7263 67.872 95.0582 67.327 94.566C66.782 94.0562 66.0085 93.8013 65.0064 93.8013C64.0219 93.8013 63.2572 94.0562 62.7122 94.566C62.1672 95.0582 61.842 95.6735 61.7365 96.4119H58.8094ZM77.9476 107.276L74.7568 114.555H72.8054L74.6777 107.276H77.9476ZM79.9151 101.027C79.9151 97.9853 80.4249 95.612 81.4445 93.9067C82.4818 92.1839 84.2573 91.3225 86.7713 91.3225C89.2853 91.3225 91.0521 92.1839 92.0717 93.9067C93.1089 95.612 93.6276 97.9853 93.6276 101.027C93.6276 104.103 93.1089 106.512 92.0717 108.252C91.0521 109.975 89.2853 110.836 86.7713 110.836C84.2573 110.836 82.4818 109.975 81.4445 108.252C80.4249 106.512 79.9151 104.103 79.9151 101.027ZM90.6741 101.027C90.6741 99.6027 90.5774 98.3985 90.384 97.414C90.2082 96.4295 89.839 95.6296 89.2765 95.0143C88.7139 94.3814 87.8789 94.065 86.7713 94.065C85.6638 94.065 84.8287 94.3814 84.2661 95.0143C83.7036 95.6296 83.3256 96.4295 83.1322 97.414C82.9564 98.3985 82.8685 99.6027 82.8685 101.027C82.8685 102.503 82.9564 103.743 83.1322 104.745C83.308 105.747 83.6772 106.556 84.2398 107.171C84.8199 107.786 85.6638 108.094 86.7713 108.094C87.8789 108.094 88.7139 107.786 89.2765 107.171C89.8566 106.556 90.2346 105.747 90.4104 104.745C90.5862 103.743 90.6741 102.503 90.6741 101.027ZM96.5448 101.027C96.5448 97.9853 97.0546 95.612 98.0742 93.9067C99.1114 92.1839 100.887 91.3225 103.401 91.3225C105.915 91.3225 107.682 92.1839 108.701 93.9067C109.739 95.612 110.257 97.9853 110.257 101.027C110.257 104.103 109.739 106.512 108.701 108.252C107.682 109.975 105.915 110.836 103.401 110.836C100.887 110.836 99.1114 109.975 98.0742 108.252C97.0546 106.512 96.5448 104.103 96.5448 101.027ZM107.304 101.027C107.304 99.6027 107.207 98.3985 107.014 97.414C106.838 96.4295 106.469 95.6296 105.906 95.0143C105.344 94.3814 104.509 94.065 103.401 94.065C102.293 94.065 101.458 94.3814 100.896 95.0143C100.333 95.6296 99.9553 96.4295 99.7619 97.414C99.5861 98.3985 99.4982 99.6027 99.4982 101.027C99.4982 102.503 99.5861 103.743 99.7619 104.745C99.9377 105.747 100.307 106.556 100.869 107.171C101.45 107.786 102.293 108.094 103.401 108.094C104.509 108.094 105.344 107.786 105.906 107.171C106.486 106.556 106.864 105.747 107.04 104.745C107.216 103.743 107.304 102.503 107.304 101.027ZM113.174 101.027C113.174 97.9853 113.684 95.612 114.704 93.9067C115.741 92.1839 117.517 91.3225 120.031 91.3225C122.545 91.3225 124.311 92.1839 125.331 93.9067C126.368 95.612 126.887 97.9853 126.887 101.027C126.887 104.103 126.368 106.512 125.331 108.252C124.311 109.975 122.545 110.836 120.031 110.836C117.517 110.836 115.741 109.975 114.704 108.252C113.684 106.512 113.174 104.103 113.174 101.027ZM123.933 101.027C123.933 99.6027 123.837 98.3985 123.643 97.414C123.468 96.4295 123.098 95.6296 122.536 95.0143C121.973 94.3814 121.138 94.065 120.031 94.065C118.923 94.065 118.088 94.3814 117.526 95.0143C116.963 95.6296 116.585 96.4295 116.392 97.414C116.216 98.3985 116.128 99.6027 116.128 101.027C116.128 102.503 116.216 103.743 116.392 104.745C116.567 105.747 116.937 106.556 117.499 107.171C118.079 107.786 118.923 108.094 120.031 108.094C121.138 108.094 121.973 107.786 122.536 107.171C123.116 106.556 123.494 105.747 123.67 104.745C123.846 103.743 123.933 102.503 123.933 101.027Z" fill="#193F3F"/>
<g clip-path="url(#clip0_1290_2988)">
<path opacity="0.5" d="M28.5677 133.843V134.667C28.5677 137.257 28.5677 138.551 27.7632 139.356C26.9586 140.161 25.6637 140.161 23.0739 140.161C20.4841 140.161 19.1892 140.161 18.3847 139.356C17.5801 138.551 17.5801 137.257 17.5801 134.667C17.5801 132.077 17.5801 130.782 18.3847 129.978C19.1892 129.173 20.4841 129.173 23.0739 129.173H23.898" stroke="#193F3F" stroke-width="0.824068" stroke-linecap="round"/>
<circle cx="26.9196" cy="130.821" r="1.64814" stroke="#193F3F" stroke-width="0.824068"/>
<path d="M20.327 135.766L21.5867 134.506C21.8012 134.291 22.1491 134.291 22.3636 134.506L23.2348 135.377C23.4494 135.592 23.7972 135.592 24.0118 135.377L25.8208 133.568M25.8208 133.568V134.941M25.8208 133.568H24.4474" stroke="#193F3F" stroke-width="0.824068" stroke-linecap="round" stroke-linejoin="round"/>
</g>
<path d="M36.2393 133.612V134.562H32.175V133.612H36.2393ZM42.2414 131.427H38.9286V133.395C39.0671 133.21 39.2715 133.055 39.5417 132.93C39.8186 132.805 40.112 132.742 40.4219 132.742C40.9756 132.742 41.4239 132.861 41.7667 133.098C42.1161 133.335 42.3634 133.635 42.5084 133.998C42.66 134.361 42.7358 134.743 42.7358 135.145C42.7358 135.633 42.6402 136.068 42.4491 136.45C42.2645 136.826 41.9843 137.123 41.6085 137.34C41.2393 137.558 40.7844 137.667 40.2439 137.667C39.5253 137.667 38.9484 137.489 38.5133 137.133C38.0782 136.777 37.8178 136.305 37.7321 135.719H38.8298C38.9023 136.029 39.0638 136.276 39.3143 136.46C39.5648 136.638 39.878 136.727 40.2537 136.727C40.7218 136.727 41.0712 136.586 41.302 136.302C41.5393 136.019 41.658 135.643 41.658 135.175C41.658 134.7 41.5393 134.338 41.302 134.087C41.0646 133.83 40.7152 133.701 40.2537 133.701C39.9307 133.701 39.6571 133.784 39.433 133.949C39.2154 134.107 39.0572 134.324 38.9583 134.601H37.8903V130.438H42.2414V131.427ZM43.6325 132.198C43.6325 131.717 43.7709 131.341 44.0478 131.071C44.3313 130.794 44.6939 130.656 45.1356 130.656C45.5773 130.656 45.9366 130.794 46.2135 131.071C46.4969 131.341 46.6387 131.717 46.6387 132.198C46.6387 132.68 46.4969 133.059 46.2135 133.335C45.9366 133.612 45.5773 133.751 45.1356 133.751C44.6939 133.751 44.3313 133.612 44.0478 133.335C43.7709 133.059 43.6325 132.68 43.6325 132.198ZM49.6647 130.784L45.719 137.667H44.6115L48.5571 130.784H49.6647ZM45.1356 131.338C44.7202 131.338 44.5126 131.625 44.5126 132.198C44.5126 132.778 44.7202 133.068 45.1356 133.068C45.3333 133.068 45.485 132.999 45.5905 132.861C45.7025 132.716 45.7586 132.495 45.7586 132.198C45.7586 131.625 45.5509 131.338 45.1356 131.338ZM47.6572 136.243C47.6572 135.762 47.7957 135.386 48.0726 135.115C48.356 134.839 48.7186 134.7 49.1603 134.7C49.5954 134.7 49.9514 134.839 50.2283 135.115C50.5118 135.386 50.6535 135.762 50.6535 136.243C50.6535 136.724 50.5118 137.103 50.2283 137.38C49.9514 137.657 49.5954 137.795 49.1603 137.795C48.7186 137.795 48.356 137.657 48.0726 137.38C47.7957 137.103 47.6572 136.724 47.6572 136.243ZM49.1504 135.382C48.7351 135.382 48.5274 135.669 48.5274 136.243C48.5274 136.816 48.7351 137.103 49.1504 137.103C49.5658 137.103 49.7734 136.816 49.7734 136.243C49.7734 135.669 49.5658 135.382 49.1504 135.382Z" fill="#193F3F"/>
<path opacity="0.5" d="M55.8107 136.658L57.3534 132.218H58.55L56.4733 137.667H55.1284L53.0617 132.218H54.2681L55.8107 136.658ZM61.281 137.756C60.8524 137.756 60.4668 137.68 60.124 137.528C59.7878 137.37 59.5208 137.159 59.323 136.895C59.1252 136.625 59.0197 136.325 59.0065 135.996H60.1734C60.1932 136.226 60.302 136.421 60.4997 136.579C60.7041 136.731 60.9579 136.806 61.2612 136.806C61.5776 136.806 61.8216 136.747 61.993 136.628C62.171 136.503 62.26 136.345 62.26 136.154C62.26 135.949 62.1611 135.798 61.9633 135.699C61.7721 135.6 61.4656 135.491 61.0436 135.373C60.6349 135.26 60.302 135.152 60.0449 135.046C59.7878 134.941 59.5636 134.779 59.3724 134.562C59.1878 134.344 59.0955 134.057 59.0955 133.701C59.0955 133.411 59.1812 133.148 59.3526 132.91C59.5241 132.666 59.768 132.475 60.0844 132.337C60.4075 132.198 60.7766 132.129 61.192 132.129C61.8117 132.129 62.3094 132.287 62.6852 132.604C63.0675 132.914 63.2719 133.339 63.2983 133.879H62.171C62.1512 133.635 62.0523 133.441 61.8743 133.296C61.6963 133.151 61.4557 133.078 61.1524 133.078C60.8557 133.078 60.6283 133.134 60.4701 133.246C60.3119 133.359 60.2327 133.507 60.2327 133.691C60.2327 133.836 60.2855 133.958 60.391 134.057C60.4965 134.156 60.625 134.235 60.7766 134.295C60.9283 134.347 61.1524 134.417 61.4491 134.502C61.8446 134.608 62.1677 134.717 62.4182 134.829C62.6753 134.934 62.8961 135.092 63.0807 135.303C63.2653 135.514 63.3609 135.794 63.3675 136.144C63.3675 136.454 63.2818 136.731 63.1104 136.975C62.939 137.218 62.6951 137.41 62.3786 137.548C62.0688 137.687 61.7029 137.756 61.281 137.756ZM68.0839 130.349V137.667H66.9566V130.349H68.0839ZM69.0893 134.918C69.0893 134.37 69.2014 133.886 69.4256 133.464C69.6563 133.042 69.9662 132.716 70.3551 132.485C70.7507 132.248 71.1858 132.129 71.6604 132.129C72.089 132.129 72.4614 132.215 72.7779 132.386C73.1009 132.551 73.358 132.759 73.5492 133.009V132.218H74.6864V137.667H73.5492V136.856C73.358 137.113 73.0976 137.327 72.768 137.499C72.4384 137.67 72.0626 137.756 71.6407 137.756C71.1726 137.756 70.7441 137.637 70.3551 137.4C69.9662 137.156 69.6563 136.82 69.4256 136.391C69.2014 135.956 69.0893 135.465 69.0893 134.918ZM73.5492 134.937C73.5492 134.562 73.4701 134.235 73.3119 133.958C73.1602 133.682 72.9592 133.471 72.7087 133.326C72.4581 133.181 72.1878 133.108 71.8978 133.108C71.6077 133.108 71.3374 133.181 71.0869 133.326C70.8364 133.464 70.632 133.672 70.4738 133.949C70.3221 134.219 70.2463 134.542 70.2463 134.918C70.2463 135.293 70.3221 135.623 70.4738 135.907C70.632 136.19 70.8364 136.408 71.0869 136.559C71.344 136.704 71.6143 136.777 71.8978 136.777C72.1878 136.777 72.4581 136.704 72.7087 136.559C72.9592 136.414 73.1602 136.203 73.3119 135.926C73.4701 135.643 73.5492 135.313 73.5492 134.937ZM78.046 137.756C77.6175 137.756 77.2318 137.68 76.889 137.528C76.5528 137.37 76.2858 137.159 76.088 136.895C75.8902 136.625 75.7847 136.325 75.7716 135.996H76.9384C76.9582 136.226 77.067 136.421 77.2648 136.579C77.4691 136.731 77.723 136.806 78.0262 136.806C78.3427 136.806 78.5866 136.747 78.758 136.628C78.936 136.503 79.025 136.345 79.025 136.154C79.025 135.949 78.9261 135.798 78.7283 135.699C78.5371 135.6 78.2306 135.491 77.8087 135.373C77.3999 135.26 77.067 135.152 76.8099 135.046C76.5528 134.941 76.3286 134.779 76.1374 134.562C75.9529 134.344 75.8606 134.057 75.8606 133.701C75.8606 133.411 75.9463 133.148 76.1177 132.91C76.2891 132.666 76.533 132.475 76.8494 132.337C77.1725 132.198 77.5417 132.129 77.957 132.129C78.5767 132.129 79.0744 132.287 79.4502 132.604C79.8326 132.914 80.0369 133.339 80.0633 133.879H78.936C78.9162 133.635 78.8173 133.441 78.6393 133.296C78.4613 133.151 78.2207 133.078 77.9174 133.078C77.6208 133.078 77.3933 133.134 77.2351 133.246C77.0769 133.359 76.9978 133.507 76.9978 133.691C76.9978 133.836 77.0505 133.958 77.156 134.057C77.2615 134.156 77.39 134.235 77.5417 134.295C77.6933 134.347 77.9174 134.417 78.2141 134.502C78.6096 134.608 78.9327 134.717 79.1832 134.829C79.4403 134.934 79.6612 135.092 79.8458 135.303C80.0303 135.514 80.1259 135.794 80.1325 136.144C80.1325 136.454 80.0468 136.731 79.8754 136.975C79.704 137.218 79.4601 137.41 79.1436 137.548C78.8338 137.687 78.4679 137.756 78.046 137.756ZM82.567 133.138V136.154C82.567 136.358 82.6131 136.506 82.7054 136.599C82.8043 136.684 82.9691 136.727 83.1998 136.727H83.8921V137.667H83.0021C82.4944 137.667 82.1055 137.548 81.8352 137.311C81.5649 137.073 81.4297 136.688 81.4297 136.154V133.138H80.787V132.218H81.4297V130.863H82.567V132.218H83.8921V133.138H82.567ZM93.8979 132.129C94.3264 132.129 94.7088 132.218 95.045 132.396C95.3878 132.574 95.6548 132.838 95.846 133.187C96.0438 133.537 96.1427 133.958 96.1427 134.453V137.667H95.0252V134.621C95.0252 134.133 94.9033 133.761 94.6594 133.504C94.4154 133.24 94.0825 133.108 93.6606 133.108C93.2387 133.108 92.9024 133.24 92.6519 133.504C92.408 133.761 92.286 134.133 92.286 134.621V137.667H91.1686V134.621C91.1686 134.133 91.0466 133.761 90.8027 133.504C90.5588 133.24 90.2259 133.108 89.8039 133.108C89.382 133.108 89.0458 133.24 88.7953 133.504C88.5514 133.761 88.4294 134.133 88.4294 134.621V137.667H87.3021V132.218H88.4294V132.841C88.614 132.617 88.848 132.442 89.1315 132.317C89.415 132.192 89.7182 132.129 90.0413 132.129C90.4764 132.129 90.8653 132.221 91.2082 132.406C91.551 132.591 91.8147 132.858 91.9993 133.207C92.1641 132.877 92.4212 132.617 92.7706 132.426C93.12 132.228 93.4958 132.129 93.8979 132.129ZM99.8417 137.756C99.3275 137.756 98.8627 137.64 98.4474 137.41C98.0321 137.172 97.7057 136.843 97.4684 136.421C97.2311 135.992 97.1124 135.498 97.1124 134.937C97.1124 134.384 97.2344 133.893 97.4783 133.464C97.7222 133.036 98.0551 132.706 98.4771 132.475C98.899 132.244 99.3703 132.129 99.8912 132.129C100.412 132.129 100.883 132.244 101.305 132.475C101.727 132.706 102.06 133.036 102.304 133.464C102.548 133.893 102.67 134.384 102.67 134.937C102.67 135.491 102.545 135.982 102.294 136.411C102.044 136.839 101.701 137.172 101.266 137.41C100.837 137.64 100.363 137.756 99.8417 137.756ZM99.8417 136.777C100.132 136.777 100.402 136.708 100.653 136.569C100.91 136.431 101.117 136.223 101.276 135.946C101.434 135.669 101.513 135.333 101.513 134.937C101.513 134.542 101.437 134.209 101.285 133.939C101.134 133.662 100.933 133.454 100.682 133.316C100.432 133.177 100.161 133.108 99.8714 133.108C99.5813 133.108 99.311 133.177 99.0605 133.316C98.8166 133.454 98.6221 133.662 98.4771 133.939C98.332 134.209 98.2595 134.542 98.2595 134.937C98.2595 135.524 98.4078 135.979 98.7045 136.302C99.0078 136.619 99.3868 136.777 99.8417 136.777ZM106.435 132.129C106.863 132.129 107.245 132.218 107.582 132.396C107.924 132.574 108.191 132.838 108.383 133.187C108.574 133.537 108.669 133.958 108.669 134.453V137.667H107.552V134.621C107.552 134.133 107.43 133.761 107.186 133.504C106.942 133.24 106.609 133.108 106.187 133.108C105.765 133.108 105.429 133.24 105.179 133.504C104.935 133.761 104.813 134.133 104.813 134.621V137.667H103.685V132.218H104.813V132.841C104.997 132.617 105.231 132.442 105.515 132.317C105.805 132.192 106.112 132.129 106.435 132.129ZM111.324 133.138V136.154C111.324 136.358 111.37 136.506 111.462 136.599C111.561 136.684 111.726 136.727 111.957 136.727H112.649V137.667H111.759C111.251 137.667 110.862 137.548 110.592 137.311C110.322 137.073 110.186 136.688 110.186 136.154V133.138H109.544V132.218H110.186V130.863H111.324V132.218H112.649V133.138H111.324ZM116.407 132.129C116.823 132.129 117.192 132.218 117.515 132.396C117.844 132.574 118.102 132.838 118.286 133.187C118.477 133.537 118.573 133.958 118.573 134.453V137.667H117.455V134.621C117.455 134.133 117.334 133.761 117.09 133.504C116.846 133.24 116.513 133.108 116.091 133.108C115.669 133.108 115.333 133.24 115.082 133.504C114.838 133.761 114.716 134.133 114.716 134.621V137.667H113.589V130.349H114.716V132.851C114.907 132.62 115.148 132.442 115.438 132.317C115.735 132.192 116.058 132.129 116.407 132.129Z" fill="#193F3F"/>
<rect x="237.332" y="52.26" width="256.91" height="135.151" rx="6.59272" fill="white"/>
<path d="M254.179 74.8832C254.179 74.2108 254.334 73.6075 254.644 73.0735C254.96 72.5395 255.386 72.1242 255.92 71.8275C256.46 71.5242 257.05 71.3726 257.69 71.3726C258.422 71.3726 259.071 71.5539 259.638 71.9165C260.212 72.2725 260.627 72.7801 260.884 73.4394H259.529C259.351 73.0768 259.104 72.8065 258.788 72.6285C258.471 72.4505 258.105 72.3615 257.69 72.3615C257.235 72.3615 256.83 72.4637 256.474 72.6681C256.118 72.8724 255.837 73.1658 255.633 73.5482C255.435 73.9306 255.336 74.3756 255.336 74.8832C255.336 75.3909 255.435 75.8359 255.633 76.2182C255.837 76.6006 256.118 76.8973 256.474 77.1083C256.83 77.3126 257.235 77.4148 257.69 77.4148C258.105 77.4148 258.471 77.3258 258.788 77.1478C259.104 76.9698 259.351 76.6995 259.529 76.3369H260.884C260.627 76.9962 260.212 77.5038 259.638 77.8598C259.071 78.2158 258.422 78.3938 257.69 78.3938C257.044 78.3938 256.454 78.2455 255.92 77.9488C255.386 77.6456 254.96 77.2269 254.644 76.6929C254.334 76.1589 254.179 75.5557 254.179 74.8832ZM264.468 78.4235C263.954 78.4235 263.489 78.3081 263.074 78.0774C262.659 77.84 262.332 77.5104 262.095 77.0885C261.858 76.66 261.739 76.1655 261.739 75.6051C261.739 75.0513 261.861 74.5602 262.105 74.1316C262.349 73.7031 262.682 73.3735 263.104 73.1427C263.525 72.912 263.997 72.7966 264.518 72.7966C265.038 72.7966 265.51 72.912 265.932 73.1427C266.354 73.3735 266.687 73.7031 266.931 74.1316C267.175 74.5602 267.297 75.0513 267.297 75.6051C267.297 76.1589 267.171 76.6501 266.921 77.0786C266.67 77.5071 266.327 77.84 265.892 78.0774C265.464 78.3081 264.989 78.4235 264.468 78.4235ZM264.468 77.4445C264.758 77.4445 265.029 77.3753 265.279 77.2368C265.536 77.0984 265.744 76.8907 265.902 76.6138C266.06 76.3369 266.139 76.0007 266.139 75.6051C266.139 75.2096 266.064 74.8766 265.912 74.6063C265.76 74.3294 265.559 74.1218 265.309 73.9833C265.058 73.8449 264.788 73.7756 264.498 73.7756C264.208 73.7756 263.938 73.8449 263.687 73.9833C263.443 74.1218 263.249 74.3294 263.104 74.6063C262.958 74.8766 262.886 75.2096 262.886 75.6051C262.886 76.1919 263.034 76.6468 263.331 76.9698C263.634 77.2863 264.013 77.4445 264.468 77.4445ZM274.908 72.7966C275.337 72.7966 275.719 72.8856 276.055 73.0636C276.398 73.2416 276.665 73.5053 276.856 73.8547C277.054 74.2042 277.153 74.6261 277.153 75.1206V78.3345H276.035V75.2887C276.035 74.8008 275.913 74.4283 275.67 74.1712C275.426 73.9075 275.093 73.7756 274.671 73.7756C274.249 73.7756 273.913 73.9075 273.662 74.1712C273.418 74.4283 273.296 74.8008 273.296 75.2887V78.3345H272.179V75.2887C272.179 74.8008 272.057 74.4283 271.813 74.1712C271.569 73.9075 271.236 73.7756 270.814 73.7756C270.392 73.7756 270.056 73.9075 269.805 74.1712C269.561 74.4283 269.439 74.8008 269.439 75.2887V78.3345H268.312V72.8856H269.439V73.5086C269.624 73.2845 269.858 73.1098 270.142 72.9845C270.425 72.8592 270.728 72.7966 271.051 72.7966C271.486 72.7966 271.875 72.8889 272.218 73.0735C272.561 73.2581 272.825 73.5251 273.009 73.8745C273.174 73.5449 273.431 73.2845 273.781 73.0933C274.13 72.8955 274.506 72.7966 274.908 72.7966ZM279.616 73.6866C279.807 73.4361 280.068 73.2251 280.397 73.0537C280.727 72.8823 281.099 72.7966 281.515 72.7966C281.989 72.7966 282.421 72.9153 282.81 73.1526C283.206 73.3834 283.516 73.7097 283.74 74.1316C283.964 74.5536 284.076 75.0381 284.076 75.5853C284.076 76.1325 283.964 76.6237 283.74 77.0588C283.516 77.4873 283.206 77.8236 282.81 78.0675C282.421 78.3048 281.989 78.4235 281.515 78.4235C281.099 78.4235 280.73 78.3411 280.407 78.1763C280.084 78.0049 279.82 77.7939 279.616 77.5434V80.9254H278.489V72.8856H279.616V73.6866ZM282.929 75.5853C282.929 75.2096 282.85 74.8865 282.691 74.6162C282.54 74.3393 282.335 74.1316 282.078 73.9932C281.828 73.8482 281.557 73.7756 281.267 73.7756C280.984 73.7756 280.714 73.8482 280.456 73.9932C280.206 74.1382 280.002 74.3492 279.843 74.6261C279.692 74.903 279.616 75.2293 279.616 75.6051C279.616 75.9809 279.692 76.3105 279.843 76.594C280.002 76.8709 280.206 77.0819 280.456 77.2269C280.714 77.372 280.984 77.4445 281.267 77.4445C281.557 77.4445 281.828 77.372 282.078 77.2269C282.335 77.0753 282.54 76.8577 282.691 76.5742C282.85 76.2908 282.929 75.9611 282.929 75.5853ZM286.219 71.0166V78.3345H285.092V71.0166H286.219ZM292.594 75.4766C292.594 75.6809 292.581 75.8655 292.555 76.0303H288.392C288.425 76.4655 288.586 76.8149 288.876 77.0786C289.166 77.3423 289.522 77.4742 289.944 77.4742C290.551 77.4742 290.979 77.2203 291.23 76.7127H292.446C292.281 77.2137 291.981 77.6258 291.546 77.9488C291.118 78.2653 290.584 78.4235 289.944 78.4235C289.423 78.4235 288.955 78.3081 288.54 78.0774C288.131 77.84 287.808 77.5104 287.571 77.0885C287.34 76.66 287.225 76.1655 287.225 75.6051C287.225 75.0447 287.337 74.5536 287.561 74.1316C287.792 73.7031 288.111 73.3735 288.52 73.1427C288.935 72.912 289.41 72.7966 289.944 72.7966C290.458 72.7966 290.917 72.9087 291.319 73.1328C291.721 73.357 292.034 73.6734 292.258 74.0822C292.482 74.4844 292.594 74.9491 292.594 75.4766ZM291.418 75.1206C291.411 74.7052 291.263 74.3723 290.973 74.1218C290.683 73.8712 290.323 73.746 289.895 73.746C289.506 73.746 289.173 73.8712 288.896 74.1218C288.619 74.3657 288.454 74.6986 288.401 75.1206H291.418ZM294.92 73.8053V76.8215C294.92 77.0258 294.966 77.1742 295.059 77.2665C295.158 77.3522 295.322 77.395 295.553 77.395H296.245V78.3345H295.355C294.848 78.3345 294.459 78.2158 294.188 77.9785C293.918 77.7412 293.783 77.3555 293.783 76.8215V73.8053H293.14V72.8856H293.783V71.5308H294.92V72.8856H296.245V73.8053H294.92ZM302.179 75.4766C302.179 75.6809 302.166 75.8655 302.14 76.0303H297.977C298.01 76.4655 298.171 76.8149 298.461 77.0786C298.751 77.3423 299.107 77.4742 299.529 77.4742C300.136 77.4742 300.564 77.2203 300.815 76.7127H302.031C301.866 77.2137 301.566 77.6258 301.131 77.9488C300.703 78.2653 300.169 78.4235 299.529 78.4235C299.008 78.4235 298.54 78.3081 298.125 78.0774C297.716 77.84 297.393 77.5104 297.156 77.0885C296.925 76.66 296.81 76.1655 296.81 75.6051C296.81 75.0447 296.922 74.5536 297.146 74.1316C297.377 73.7031 297.696 73.3735 298.105 73.1427C298.521 72.912 298.995 72.7966 299.529 72.7966C300.043 72.7966 300.502 72.9087 300.904 73.1328C301.306 73.357 301.619 73.6734 301.843 74.0822C302.067 74.4844 302.179 74.9491 302.179 75.4766ZM301.003 75.1206C300.996 74.7052 300.848 74.3723 300.558 74.1218C300.268 73.8712 299.908 73.746 299.48 73.746C299.091 73.746 298.758 73.8712 298.481 74.1218C298.204 74.3657 298.039 74.6986 297.987 75.1206H301.003ZM302.814 75.5853C302.814 75.0381 302.926 74.5536 303.15 74.1316C303.381 73.7097 303.691 73.3834 304.08 73.1526C304.476 72.9153 304.914 72.7966 305.395 72.7966C305.751 72.7966 306.101 72.8757 306.444 73.034C306.793 73.1856 307.07 73.39 307.274 73.6471V71.0166H308.411V78.3345H307.274V77.5137C307.09 77.7774 306.833 77.995 306.503 78.1664C306.18 78.3378 305.807 78.4235 305.385 78.4235C304.911 78.4235 304.476 78.3048 304.08 78.0675C303.691 77.8236 303.381 77.4873 303.15 77.0588C302.926 76.6237 302.814 76.1325 302.814 75.5853ZM307.274 75.6051C307.274 75.2293 307.195 74.903 307.037 74.6261C306.885 74.3492 306.684 74.1382 306.434 73.9932C306.183 73.8482 305.913 73.7756 305.623 73.7756C305.333 73.7756 305.062 73.8482 304.812 73.9932C304.561 74.1316 304.357 74.3393 304.199 74.6162C304.047 74.8865 303.971 75.2096 303.971 75.5853C303.971 75.9611 304.047 76.2908 304.199 76.5742C304.357 76.8577 304.561 77.0753 304.812 77.2269C305.069 77.372 305.339 77.4445 305.623 77.4445C305.913 77.4445 306.183 77.372 306.434 77.2269C306.684 77.0819 306.885 76.8709 307.037 76.594C307.195 76.3105 307.274 75.9809 307.274 75.6051ZM319.502 71.4616V78.3345H318.375V73.6273L316.278 78.3345H315.497L313.391 73.6273V78.3345H312.263V71.4616H313.48L315.893 76.8511L318.296 71.4616H319.502ZM323.248 78.4235C322.734 78.4235 322.269 78.3081 321.854 78.0774C321.439 77.84 321.112 77.5104 320.875 77.0885C320.638 76.66 320.519 76.1655 320.519 75.6051C320.519 75.0513 320.641 74.5602 320.885 74.1316C321.129 73.7031 321.462 73.3735 321.884 73.1427C322.306 72.912 322.777 72.7966 323.298 72.7966C323.819 72.7966 324.29 72.912 324.712 73.1427C325.134 73.3735 325.467 73.7031 325.711 74.1316C325.955 74.5602 326.077 75.0513 326.077 75.6051C326.077 76.1589 325.951 76.6501 325.701 77.0786C325.45 77.5071 325.108 77.84 324.672 78.0774C324.244 78.3081 323.769 78.4235 323.248 78.4235ZM323.248 77.4445C323.538 77.4445 323.809 77.3753 324.059 77.2368C324.316 77.0984 324.524 76.8907 324.682 76.6138C324.841 76.3369 324.92 76.0007 324.92 75.6051C324.92 75.2096 324.844 74.8766 324.692 74.6063C324.541 74.3294 324.34 74.1218 324.089 73.9833C323.838 73.8449 323.568 73.7756 323.278 73.7756C322.988 73.7756 322.718 73.8449 322.467 73.9833C322.223 74.1218 322.029 74.3294 321.884 74.6063C321.739 74.8766 321.666 75.2096 321.666 75.6051C321.666 76.1919 321.814 76.6468 322.111 76.9698C322.414 77.2863 322.794 77.4445 323.248 77.4445ZM326.716 75.5853C326.716 75.0381 326.829 74.5536 327.053 74.1316C327.283 73.7097 327.593 73.3834 327.982 73.1526C328.378 72.9153 328.816 72.7966 329.298 72.7966C329.654 72.7966 330.003 72.8757 330.346 73.034C330.695 73.1856 330.972 73.39 331.176 73.6471V71.0166H332.314V78.3345H331.176V77.5137C330.992 77.7774 330.735 77.995 330.405 78.1664C330.082 78.3378 329.71 78.4235 329.288 78.4235C328.813 78.4235 328.378 78.3048 327.982 78.0675C327.593 77.8236 327.283 77.4873 327.053 77.0588C326.829 76.6237 326.716 76.1325 326.716 75.5853ZM331.176 75.6051C331.176 75.2293 331.097 74.903 330.939 74.6261C330.787 74.3492 330.586 74.1382 330.336 73.9932C330.085 73.8482 329.815 73.7756 329.525 73.7756C329.235 73.7756 328.965 73.8482 328.714 73.9932C328.464 74.1316 328.259 74.3393 328.101 74.6162C327.949 74.8865 327.873 75.2096 327.873 75.5853C327.873 75.9611 327.949 76.2908 328.101 76.5742C328.259 76.8577 328.464 77.0753 328.714 77.2269C328.971 77.372 329.241 77.4445 329.525 77.4445C329.815 77.4445 330.085 77.372 330.336 77.2269C330.586 77.0819 330.787 76.8709 330.939 76.594C331.097 76.3105 331.176 75.9809 331.176 75.6051ZM338.69 75.4766C338.69 75.6809 338.676 75.8655 338.65 76.0303H334.487C334.52 76.4655 334.681 76.8149 334.971 77.0786C335.261 77.3423 335.617 77.4742 336.039 77.4742C336.646 77.4742 337.074 77.2203 337.325 76.7127H338.541C338.376 77.2137 338.076 77.6258 337.641 77.9488C337.213 78.2653 336.679 78.4235 336.039 78.4235C335.518 78.4235 335.05 78.3081 334.635 78.0774C334.226 77.84 333.903 77.5104 333.666 77.0885C333.435 76.66 333.32 76.1655 333.32 75.6051C333.32 75.0447 333.432 74.5536 333.656 74.1316C333.887 73.7031 334.206 73.3735 334.615 73.1427C335.031 72.912 335.505 72.7966 336.039 72.7966C336.553 72.7966 337.012 72.9087 337.414 73.1328C337.816 73.357 338.129 73.6734 338.353 74.0822C338.577 74.4844 338.69 74.9491 338.69 75.4766ZM337.513 75.1206C337.506 74.7052 337.358 74.3723 337.068 74.1218C336.778 73.8712 336.418 73.746 335.99 73.746C335.601 73.746 335.268 73.8712 334.991 74.1218C334.714 74.3657 334.549 74.6986 334.497 75.1206H337.513ZM340.827 73.6767C340.992 73.3998 341.21 73.1856 341.48 73.034C341.757 72.8757 342.083 72.7966 342.459 72.7966V73.9635H342.172C341.731 73.9635 341.394 74.0756 341.164 74.2998C340.939 74.5239 340.827 74.9129 340.827 75.4667V78.3345H339.7V72.8856H340.827V73.6767ZM343.021 75.5853C343.021 75.0381 343.133 74.5536 343.357 74.1316C343.588 73.7097 343.898 73.3834 344.287 73.1526C344.682 72.9153 345.117 72.7966 345.592 72.7966C346.02 72.7966 346.393 72.8823 346.709 73.0537C347.032 73.2185 347.29 73.4262 347.481 73.6767V72.8856H348.618V78.3345H347.481V77.5236C347.29 77.7807 347.029 77.995 346.699 78.1664C346.37 78.3378 345.994 78.4235 345.572 78.4235C345.104 78.4235 344.675 78.3048 344.287 78.0675C343.898 77.8236 343.588 77.4873 343.357 77.0588C343.133 76.6237 343.021 76.1325 343.021 75.5853ZM347.481 75.6051C347.481 75.2293 347.402 74.903 347.243 74.6261C347.092 74.3492 346.891 74.1382 346.64 73.9932C346.39 73.8482 346.119 73.7756 345.829 73.7756C345.539 73.7756 345.269 73.8482 345.018 73.9932C344.768 74.1316 344.563 74.3393 344.405 74.6162C344.254 74.8865 344.178 75.2096 344.178 75.5853C344.178 75.9611 344.254 76.2908 344.405 76.5742C344.563 76.8577 344.768 77.0753 345.018 77.2269C345.275 77.372 345.546 77.4445 345.829 77.4445C346.119 77.4445 346.39 77.372 346.64 77.2269C346.891 77.0819 347.092 76.8709 347.243 76.594C347.402 76.3105 347.481 75.9809 347.481 75.6051ZM351.315 73.8053V76.8215C351.315 77.0258 351.361 77.1742 351.453 77.2665C351.552 77.3522 351.717 77.395 351.948 77.395H352.64V78.3345H351.75C351.243 78.3345 350.854 78.2158 350.583 77.9785C350.313 77.7412 350.178 77.3555 350.178 76.8215V73.8053H349.535V72.8856H350.178V71.5308H351.315V72.8856H352.64V73.8053H351.315ZM354.154 72.1637C353.95 72.1637 353.778 72.0945 353.64 71.956C353.501 71.8176 353.432 71.6462 353.432 71.4418C353.432 71.2374 353.501 71.066 353.64 70.9276C353.778 70.7891 353.95 70.7199 354.154 70.7199C354.352 70.7199 354.52 70.7891 354.658 70.9276C354.797 71.066 354.866 71.2374 354.866 71.4418C354.866 71.6462 354.797 71.8176 354.658 71.956C354.52 72.0945 354.352 72.1637 354.154 72.1637ZM354.708 72.8856V78.3345H353.58V72.8856H354.708ZM358.452 78.4235C357.938 78.4235 357.473 78.3081 357.058 78.0774C356.643 77.84 356.316 77.5104 356.079 77.0885C355.842 76.66 355.723 76.1655 355.723 75.6051C355.723 75.0513 355.845 74.5602 356.089 74.1316C356.333 73.7031 356.666 73.3735 357.088 73.1427C357.51 72.912 357.981 72.7966 358.502 72.7966C359.023 72.7966 359.494 72.912 359.916 73.1427C360.338 73.3735 360.671 73.7031 360.915 74.1316C361.159 74.5602 361.281 75.0513 361.281 75.6051C361.281 76.1589 361.155 76.6501 360.905 77.0786C360.654 77.5071 360.312 77.84 359.876 78.0774C359.448 78.3081 358.973 78.4235 358.452 78.4235ZM358.452 77.4445C358.742 77.4445 359.013 77.3753 359.263 77.2368C359.52 77.0984 359.728 76.8907 359.886 76.6138C360.045 76.3369 360.124 76.0007 360.124 75.6051C360.124 75.2096 360.048 74.8766 359.896 74.6063C359.745 74.3294 359.543 74.1218 359.293 73.9833C359.042 73.8449 358.772 73.7756 358.482 73.7756C358.192 73.7756 357.922 73.8449 357.671 73.9833C357.427 74.1218 357.233 74.3294 357.088 74.6063C356.943 74.8766 356.87 75.2096 356.87 75.6051C356.87 76.1919 357.018 76.6468 357.315 76.9698C357.618 77.2863 357.998 77.4445 358.452 77.4445ZM365.045 72.7966C365.474 72.7966 365.856 72.8856 366.193 73.0636C366.535 73.2416 366.802 73.5053 366.994 73.8547C367.185 74.2042 367.28 74.6261 367.28 75.1206V78.3345H366.163V75.2887C366.163 74.8008 366.041 74.4283 365.797 74.1712C365.553 73.9075 365.22 73.7756 364.798 73.7756C364.376 73.7756 364.04 73.9075 363.789 74.1712C363.546 74.4283 363.424 74.8008 363.424 75.2887V78.3345H362.296V72.8856H363.424V73.5086C363.608 73.2845 363.842 73.1098 364.126 72.9845C364.416 72.8592 364.722 72.7966 365.045 72.7966ZM370.597 78.4235C370.169 78.4235 369.783 78.3477 369.44 78.1961C369.104 78.0378 368.837 77.8269 368.639 77.5632C368.441 77.2929 368.336 76.9929 368.323 76.6632H369.49C369.509 76.894 369.618 77.0885 369.816 77.2467C370.02 77.3983 370.274 77.4742 370.577 77.4742C370.894 77.4742 371.138 77.4148 371.309 77.2961C371.487 77.1709 371.576 77.0127 371.576 76.8215C371.576 76.6171 371.477 76.4655 371.28 76.3666C371.088 76.2677 370.782 76.1589 370.36 76.0402C369.951 75.9282 369.618 75.8194 369.361 75.7139C369.104 75.6084 368.88 75.4469 368.689 75.2293C368.504 75.0118 368.412 74.725 368.412 74.369C368.412 74.0789 368.497 73.8152 368.669 73.5779C368.84 73.3339 369.084 73.1427 369.401 73.0043C369.724 72.8658 370.093 72.7966 370.508 72.7966C371.128 72.7966 371.626 72.9548 372.002 73.2713C372.384 73.5811 372.588 74.0064 372.615 74.547H371.487C371.468 74.3031 371.369 74.1086 371.191 73.9635C371.013 73.8185 370.772 73.746 370.469 73.746C370.172 73.746 369.945 73.802 369.786 73.9141C369.628 74.0262 369.549 74.1745 369.549 74.3591C369.549 74.5041 369.602 74.6261 369.707 74.725C369.813 74.8239 369.941 74.903 370.093 74.9623C370.245 75.0151 370.469 75.0843 370.765 75.17C371.161 75.2755 371.484 75.3843 371.735 75.4963C371.992 75.6018 372.212 75.76 372.397 75.971C372.582 76.182 372.677 76.4622 372.684 76.8116C372.684 77.1214 372.598 77.3983 372.427 77.6423C372.255 77.8862 372.011 78.0774 371.695 78.2158C371.385 78.3543 371.019 78.4235 370.597 78.4235Z" fill="#193F3F"/>
<path d="M468.42 75.3345C468.42 75.9413 467.928 76.4333 467.321 76.4333C466.715 76.4333 466.223 75.9413 466.223 75.3345C466.223 74.7277 466.715 74.2357 467.321 74.2357C467.928 74.2357 468.42 74.7277 468.42 75.3345Z" fill="#193F3F"/>
<path d="M472.266 75.3345C472.266 75.9413 471.774 76.4333 471.167 76.4333C470.56 76.4333 470.068 75.9413 470.068 75.3345C470.068 74.7277 470.56 74.2357 471.167 74.2357C471.774 74.2357 472.266 74.7277 472.266 75.3345Z" fill="#193F3F"/>
<path d="M476.112 75.3345C476.112 75.9413 475.62 76.4333 475.013 76.4333C474.406 76.4333 473.914 75.9413 473.914 75.3345C473.914 74.7277 474.406 74.2357 475.013 74.2357C475.62 74.2357 476.112 74.7277 476.112 75.3345Z" fill="#193F3F"/>
<path d="M255 127.262V124.519H260.485V143.744H257.453V127.262H255ZM276.535 126.84L269.204 143.744H266.171L273.581 127.156H263.824V124.598H276.535V126.84ZM282.088 133.696C280.259 132.782 279.345 131.34 279.345 129.371C279.345 128.422 279.582 127.552 280.057 126.761C280.532 125.97 281.244 125.345 282.193 124.888C283.143 124.414 284.303 124.176 285.674 124.176C287.028 124.176 288.179 124.414 289.129 124.888C290.096 125.345 290.816 125.97 291.291 126.761C291.766 127.552 292.003 128.422 292.003 129.371C292.003 130.356 291.748 131.226 291.238 131.982C290.746 132.721 290.087 133.292 289.261 133.696C290.263 134.065 291.054 134.672 291.634 135.516C292.214 136.342 292.504 137.318 292.504 138.443C292.504 139.586 292.214 140.597 291.634 141.476C291.054 142.355 290.245 143.032 289.208 143.506C288.171 143.981 286.993 144.218 285.674 144.218C284.356 144.218 283.178 143.981 282.14 143.506C281.121 143.032 280.321 142.355 279.741 141.476C279.161 140.597 278.87 139.586 278.87 138.443C278.87 137.3 279.161 136.316 279.741 135.49C280.321 134.663 281.103 134.065 282.088 133.696ZM289.129 129.741C289.129 128.756 288.821 128 288.206 127.473C287.59 126.945 286.747 126.682 285.674 126.682C284.619 126.682 283.784 126.945 283.169 127.473C282.554 128 282.246 128.765 282.246 129.767C282.246 130.646 282.562 131.367 283.195 131.929C283.846 132.474 284.672 132.747 285.674 132.747C286.676 132.747 287.503 132.466 288.153 131.903C288.803 131.34 289.129 130.62 289.129 129.741ZM285.674 135.015C284.514 135.015 283.564 135.305 282.826 135.885C282.105 136.448 281.745 137.265 281.745 138.338C281.745 139.34 282.096 140.157 282.8 140.79C283.503 141.405 284.461 141.713 285.674 141.713C286.87 141.713 287.81 141.397 288.496 140.764C289.199 140.131 289.551 139.322 289.551 138.338C289.551 137.283 289.19 136.465 288.469 135.885C287.766 135.305 286.834 135.015 285.674 135.015ZM297.058 139.656C298.746 138.197 300.073 137.001 301.04 136.07C302.025 135.12 302.842 134.136 303.493 133.116C304.143 132.096 304.469 131.077 304.469 130.057C304.469 129.002 304.214 128.176 303.704 127.578C303.212 126.98 302.429 126.682 301.357 126.682C300.32 126.682 299.511 127.016 298.931 127.684C298.368 128.334 298.069 129.213 298.034 130.321H295.133C295.186 128.317 295.784 126.787 296.926 125.732C298.087 124.66 299.555 124.124 301.33 124.124C303.247 124.124 304.741 124.651 305.813 125.706C306.903 126.761 307.448 128.167 307.448 129.925C307.448 131.191 307.123 132.413 306.473 133.591C305.84 134.751 305.075 135.797 304.178 136.729C303.299 137.643 302.174 138.707 300.803 139.92L299.616 140.975H307.976V143.48H295.16V141.291L297.058 139.656ZM310.353 133.881C310.353 130.839 310.863 128.466 311.883 126.761C312.92 125.038 314.696 124.176 317.21 124.176C319.724 124.176 321.49 125.038 322.51 126.761C323.547 128.466 324.066 130.839 324.066 133.881C324.066 136.957 323.547 139.366 322.51 141.107C321.49 142.829 319.724 143.691 317.21 143.691C314.696 143.691 312.92 142.829 311.883 141.107C310.863 139.366 310.353 136.957 310.353 133.881ZM321.112 133.881C321.112 132.457 321.016 131.253 320.822 130.268C320.647 129.284 320.277 128.484 319.715 127.868C319.152 127.235 318.317 126.919 317.21 126.919C316.102 126.919 315.267 127.235 314.704 127.868C314.142 128.484 313.764 129.284 313.57 130.268C313.395 131.253 313.307 132.457 313.307 133.881C313.307 135.358 313.395 136.597 313.57 137.599C313.746 138.601 314.115 139.41 314.678 140.025C315.258 140.641 316.102 140.948 317.21 140.948C318.317 140.948 319.152 140.641 319.715 140.025C320.295 139.41 320.673 138.601 320.849 137.599C321.025 136.597 321.112 135.358 321.112 133.881Z" fill="#193F3F"/>
<path opacity="0.5" d="M254.258 162.748V161.72H256.315V168.929H255.178V162.748H254.258ZM262.413 162.689H259.1V164.657C259.239 164.472 259.443 164.317 259.713 164.192C259.99 164.067 260.284 164.004 260.593 164.004C261.147 164.004 261.595 164.123 261.938 164.36C262.288 164.598 262.535 164.898 262.68 165.26C262.832 165.623 262.907 166.005 262.907 166.407C262.907 166.895 262.812 167.33 262.621 167.713C262.436 168.088 262.156 168.385 261.78 168.603C261.411 168.82 260.956 168.929 260.415 168.929C259.697 168.929 259.12 168.751 258.685 168.395C258.25 168.039 257.989 167.568 257.904 166.981H259.001C259.074 167.291 259.235 167.538 259.486 167.723C259.736 167.901 260.05 167.99 260.425 167.99C260.893 167.99 261.243 167.848 261.474 167.564C261.711 167.281 261.83 166.905 261.83 166.437C261.83 165.962 261.711 165.6 261.474 165.349C261.236 165.092 260.887 164.964 260.425 164.964C260.102 164.964 259.829 165.046 259.604 165.211C259.387 165.369 259.229 165.587 259.13 165.863H258.062V161.7H262.413V162.689ZM263.962 163.5C264.002 162.887 264.236 162.409 264.664 162.066C265.1 161.723 265.653 161.552 266.326 161.552C266.787 161.552 267.186 161.634 267.522 161.799C267.859 161.964 268.112 162.188 268.284 162.471C268.455 162.755 268.541 163.075 268.541 163.431C268.541 163.839 268.432 164.189 268.215 164.479C267.997 164.769 267.737 164.964 267.433 165.062V165.102C267.822 165.221 268.126 165.438 268.343 165.755C268.561 166.065 268.67 166.463 268.67 166.951C268.67 167.34 268.581 167.686 268.403 167.99C268.225 168.293 267.961 168.533 267.611 168.711C267.262 168.883 266.843 168.969 266.355 168.969C265.643 168.969 265.057 168.787 264.595 168.425C264.14 168.056 263.896 167.528 263.863 166.842H264.951C264.978 167.192 265.113 167.479 265.357 167.703C265.601 167.92 265.93 168.029 266.346 168.029C266.748 168.029 267.058 167.92 267.275 167.703C267.493 167.479 267.602 167.192 267.602 166.842C267.602 166.381 267.453 166.055 267.157 165.863C266.866 165.666 266.418 165.567 265.812 165.567H265.554V164.637H265.821C266.355 164.631 266.761 164.542 267.038 164.37C267.321 164.199 267.463 163.928 267.463 163.559C267.463 163.243 267.361 162.992 267.157 162.808C266.952 162.617 266.662 162.521 266.286 162.521C265.917 162.521 265.63 162.617 265.426 162.808C265.222 162.992 265.1 163.223 265.06 163.5H263.962ZM270.971 165.161C270.286 164.818 269.943 164.278 269.943 163.539C269.943 163.183 270.032 162.857 270.21 162.56C270.388 162.264 270.655 162.03 271.011 161.858C271.367 161.68 271.802 161.591 272.316 161.591C272.824 161.591 273.256 161.68 273.612 161.858C273.974 162.03 274.245 162.264 274.423 162.56C274.601 162.857 274.69 163.183 274.69 163.539C274.69 163.909 274.594 164.235 274.403 164.519C274.218 164.795 273.971 165.01 273.661 165.161C274.037 165.3 274.334 165.527 274.551 165.844C274.769 166.154 274.877 166.519 274.877 166.941C274.877 167.37 274.769 167.749 274.551 168.079C274.334 168.408 274.03 168.662 273.641 168.84C273.252 169.018 272.811 169.107 272.316 169.107C271.822 169.107 271.38 169.018 270.991 168.84C270.609 168.662 270.309 168.408 270.091 168.079C269.874 167.749 269.765 167.37 269.765 166.941C269.765 166.513 269.874 166.144 270.091 165.834C270.309 165.524 270.602 165.3 270.971 165.161ZM273.612 163.678C273.612 163.309 273.496 163.025 273.265 162.827C273.035 162.63 272.718 162.531 272.316 162.531C271.921 162.531 271.607 162.63 271.377 162.827C271.146 163.025 271.031 163.312 271.031 163.688C271.031 164.017 271.149 164.288 271.387 164.499C271.631 164.703 271.94 164.805 272.316 164.805C272.692 164.805 273.002 164.7 273.246 164.489C273.49 164.278 273.612 164.008 273.612 163.678ZM272.316 165.656C271.881 165.656 271.525 165.765 271.248 165.982C270.978 166.193 270.843 166.5 270.843 166.902C270.843 167.278 270.975 167.584 271.238 167.821C271.502 168.052 271.861 168.168 272.316 168.168C272.764 168.168 273.117 168.049 273.374 167.812C273.638 167.574 273.77 167.271 273.77 166.902C273.77 166.506 273.635 166.2 273.364 165.982C273.101 165.765 272.751 165.656 272.316 165.656ZM275.814 162.748V161.72H277.871V168.929H276.734V162.748H275.814ZM281.563 166.18C281.563 165.633 281.675 165.148 281.899 164.726C282.13 164.304 282.44 163.978 282.829 163.747C283.224 163.51 283.66 163.391 284.134 163.391C284.563 163.391 284.935 163.477 285.252 163.648C285.575 163.813 285.832 164.021 286.023 164.271V163.48H287.16V168.929H286.023V168.118C285.832 168.375 285.572 168.59 285.242 168.761C284.912 168.932 284.536 169.018 284.115 169.018C283.646 169.018 283.218 168.899 282.829 168.662C282.44 168.418 282.13 168.082 281.899 167.653C281.675 167.218 281.563 166.727 281.563 166.18ZM286.023 166.2C286.023 165.824 285.944 165.498 285.786 165.221C285.634 164.944 285.433 164.733 285.183 164.588C284.932 164.443 284.662 164.37 284.372 164.37C284.082 164.37 283.811 164.443 283.561 164.588C283.31 164.726 283.106 164.934 282.948 165.211C282.796 165.481 282.72 165.804 282.72 166.18C282.72 166.556 282.796 166.885 282.948 167.169C283.106 167.452 283.31 167.67 283.561 167.821C283.818 167.967 284.088 168.039 284.372 168.039C284.662 168.039 284.932 167.967 285.183 167.821C285.433 167.676 285.634 167.465 285.786 167.189C285.944 166.905 286.023 166.575 286.023 166.2ZM293.477 163.48V168.929H292.349V168.286C292.171 168.51 291.937 168.688 291.647 168.82C291.364 168.946 291.061 169.008 290.738 169.008C290.309 169.008 289.923 168.919 289.581 168.741C289.244 168.563 288.977 168.299 288.78 167.95C288.588 167.601 288.493 167.179 288.493 166.684V163.48H289.61V166.516C289.61 167.004 289.732 167.38 289.976 167.643C290.22 167.901 290.553 168.029 290.975 168.029C291.397 168.029 291.73 167.901 291.974 167.643C292.224 167.38 292.349 167.004 292.349 166.516V163.48H293.477ZM296.181 164.4V167.416C296.181 167.62 296.227 167.769 296.319 167.861C296.418 167.947 296.583 167.99 296.814 167.99H297.506V168.929H296.616C296.108 168.929 295.719 168.81 295.449 168.573C295.179 168.336 295.043 167.95 295.043 167.416V164.4H294.401V163.48H295.043V162.125H296.181V163.48H297.506V164.4H296.181ZM300.809 169.018C300.295 169.018 299.83 168.903 299.415 168.672C299 168.435 298.673 168.105 298.436 167.683C298.199 167.254 298.08 166.76 298.08 166.2C298.08 165.646 298.202 165.155 298.446 164.726C298.69 164.298 299.023 163.968 299.445 163.737C299.867 163.507 300.338 163.391 300.859 163.391C301.38 163.391 301.851 163.507 302.273 163.737C302.695 163.968 303.028 164.298 303.272 164.726C303.516 165.155 303.638 165.646 303.638 166.2C303.638 166.753 303.512 167.245 303.262 167.673C303.011 168.102 302.669 168.435 302.233 168.672C301.805 168.903 301.33 169.018 300.809 169.018ZM300.809 168.039C301.1 168.039 301.37 167.97 301.62 167.831C301.877 167.693 302.085 167.485 302.243 167.208C302.402 166.931 302.481 166.595 302.481 166.2C302.481 165.804 302.405 165.471 302.253 165.201C302.102 164.924 301.901 164.716 301.65 164.578C301.4 164.439 301.129 164.37 300.839 164.37C300.549 164.37 300.279 164.439 300.028 164.578C299.784 164.716 299.59 164.924 299.445 165.201C299.3 165.471 299.227 165.804 299.227 166.2C299.227 166.786 299.376 167.241 299.672 167.564C299.975 167.881 300.355 168.039 300.809 168.039ZM311.249 163.391C311.678 163.391 312.06 163.48 312.396 163.658C312.739 163.836 313.006 164.1 313.197 164.449C313.395 164.799 313.494 165.221 313.494 165.715V168.929H312.377V165.883C312.377 165.395 312.255 165.023 312.011 164.766C311.767 164.502 311.434 164.37 311.012 164.37C310.59 164.37 310.254 164.502 310.003 164.766C309.759 165.023 309.637 165.395 309.637 165.883V168.929H308.52V165.883C308.52 165.395 308.398 165.023 308.154 164.766C307.91 164.502 307.577 164.37 307.155 164.37C306.733 164.37 306.397 164.502 306.147 164.766C305.903 165.023 305.781 165.395 305.781 165.883V168.929H304.653V163.48H305.781V164.103C305.965 163.879 306.199 163.704 306.483 163.579C306.766 163.454 307.07 163.391 307.393 163.391C307.828 163.391 308.217 163.483 308.559 163.668C308.902 163.853 309.166 164.12 309.351 164.469C309.515 164.139 309.773 163.879 310.122 163.688C310.471 163.49 310.847 163.391 311.249 163.391ZM314.454 166.18C314.454 165.633 314.566 165.148 314.79 164.726C315.021 164.304 315.331 163.978 315.72 163.747C316.115 163.51 316.55 163.391 317.025 163.391C317.454 163.391 317.826 163.477 318.143 163.648C318.466 163.813 318.723 164.021 318.914 164.271V163.48H320.051V168.929H318.914V168.118C318.723 168.375 318.462 168.59 318.133 168.761C317.803 168.932 317.427 169.018 317.005 169.018C316.537 169.018 316.109 168.899 315.72 168.662C315.331 168.418 315.021 168.082 314.79 167.653C314.566 167.218 314.454 166.727 314.454 166.18ZM318.914 166.2C318.914 165.824 318.835 165.498 318.677 165.221C318.525 164.944 318.324 164.733 318.073 164.588C317.823 164.443 317.553 164.37 317.263 164.37C316.972 164.37 316.702 164.443 316.452 164.588C316.201 164.726 315.997 164.934 315.838 165.211C315.687 165.481 315.611 165.804 315.611 166.18C315.611 166.556 315.687 166.885 315.838 167.169C315.997 167.452 316.201 167.67 316.452 167.821C316.709 167.967 316.979 168.039 317.263 168.039C317.553 168.039 317.823 167.967 318.073 167.821C318.324 167.676 318.525 167.465 318.677 167.189C318.835 166.905 318.914 166.575 318.914 166.2ZM322.748 164.4V167.416C322.748 167.62 322.794 167.769 322.887 167.861C322.986 167.947 323.15 167.99 323.381 167.99H324.073V168.929H323.183C322.676 168.929 322.287 168.81 322.017 168.573C321.746 168.336 321.611 167.95 321.611 167.416V164.4H320.968V163.48H321.611V162.125H322.748V163.48H324.073V164.4H322.748ZM330.008 166.071C330.008 166.275 329.994 166.46 329.968 166.625H325.805C325.838 167.06 325.999 167.409 326.289 167.673C326.579 167.937 326.935 168.069 327.357 168.069C327.964 168.069 328.392 167.815 328.643 167.307H329.859C329.694 167.808 329.394 168.22 328.959 168.543C328.531 168.86 327.997 169.018 327.357 169.018C326.837 169.018 326.368 168.903 325.953 168.672C325.544 168.435 325.221 168.105 324.984 167.683C324.753 167.254 324.638 166.76 324.638 166.2C324.638 165.639 324.75 165.148 324.974 164.726C325.205 164.298 325.525 163.968 325.933 163.737C326.349 163.507 326.823 163.391 327.357 163.391C327.872 163.391 328.33 163.503 328.732 163.727C329.134 163.952 329.447 164.268 329.671 164.677C329.896 165.079 330.008 165.544 330.008 166.071ZM328.831 165.715C328.824 165.3 328.676 164.967 328.386 164.716C328.096 164.466 327.736 164.341 327.308 164.341C326.919 164.341 326.586 164.466 326.309 164.716C326.032 164.96 325.867 165.293 325.815 165.715H328.831ZM330.642 166.18C330.642 165.633 330.754 165.148 330.979 164.726C331.209 164.304 331.519 163.978 331.908 163.747C332.304 163.51 332.742 163.391 333.223 163.391C333.579 163.391 333.929 163.47 334.272 163.628C334.621 163.78 334.898 163.985 335.102 164.242V161.611H336.24V168.929H335.102V168.108C334.918 168.372 334.661 168.59 334.331 168.761C334.008 168.932 333.635 169.018 333.214 169.018C332.739 169.018 332.304 168.899 331.908 168.662C331.519 168.418 331.209 168.082 330.979 167.653C330.754 167.218 330.642 166.727 330.642 166.18ZM335.102 166.2C335.102 165.824 335.023 165.498 334.865 165.221C334.713 164.944 334.512 164.733 334.262 164.588C334.011 164.443 333.741 164.37 333.451 164.37C333.161 164.37 332.89 164.443 332.64 164.588C332.389 164.726 332.185 164.934 332.027 165.211C331.875 165.481 331.799 165.804 331.799 166.18C331.799 166.556 331.875 166.885 332.027 167.169C332.185 167.452 332.389 167.67 332.64 167.821C332.897 167.967 333.167 168.039 333.451 168.039C333.741 168.039 334.011 167.967 334.262 167.821C334.512 167.676 334.713 167.465 334.865 167.189C335.023 166.905 335.102 166.575 335.102 166.2ZM338.858 167.574L337.661 170.304H336.929L337.631 167.574H338.858Z" fill="#193F3F"/>
<path opacity="0.5" d="M345.234 167.396C345.867 166.849 346.365 166.401 346.727 166.051C347.096 165.695 347.403 165.326 347.647 164.944C347.891 164.561 348.013 164.179 348.013 163.797C348.013 163.401 347.917 163.091 347.726 162.867C347.541 162.643 347.248 162.531 346.846 162.531C346.457 162.531 346.154 162.656 345.936 162.907C345.725 163.151 345.613 163.48 345.6 163.896H344.512C344.532 163.144 344.756 162.57 345.185 162.175C345.62 161.773 346.17 161.572 346.836 161.572C347.555 161.572 348.115 161.769 348.517 162.165C348.926 162.56 349.13 163.088 349.13 163.747C349.13 164.222 349.008 164.68 348.764 165.122C348.527 165.557 348.24 165.949 347.904 166.299C347.574 166.641 347.152 167.04 346.638 167.495L346.193 167.891H349.328V168.83H344.522V168.009L345.234 167.396ZM350.081 167.426V166.575L353.404 161.809H354.769V166.447H355.688V167.426H354.769V168.929H353.661V167.426H350.081ZM353.71 162.956L351.377 166.447H353.71V162.956ZM356.504 163.5C356.543 162.887 356.777 162.409 357.206 162.066C357.641 161.723 358.195 161.552 358.867 161.552C359.329 161.552 359.728 161.634 360.064 161.799C360.4 161.964 360.654 162.188 360.825 162.471C360.997 162.755 361.082 163.075 361.082 163.431C361.082 163.839 360.974 164.189 360.756 164.479C360.538 164.769 360.278 164.964 359.975 165.062V165.102C360.364 165.221 360.667 165.438 360.885 165.755C361.102 166.065 361.211 166.463 361.211 166.951C361.211 167.34 361.122 167.686 360.944 167.99C360.766 168.293 360.502 168.533 360.153 168.711C359.803 168.883 359.385 168.969 358.897 168.969C358.185 168.969 357.598 168.787 357.137 168.425C356.682 168.056 356.438 167.528 356.405 166.842H357.493C357.519 167.192 357.654 167.479 357.898 167.703C358.142 167.92 358.472 168.029 358.887 168.029C359.289 168.029 359.599 167.92 359.817 167.703C360.034 167.479 360.143 167.192 360.143 166.842C360.143 166.381 359.995 166.055 359.698 165.863C359.408 165.666 358.959 165.567 358.353 165.567H358.096V164.637H358.363C358.897 164.631 359.302 164.542 359.579 164.37C359.863 164.199 360.004 163.928 360.004 163.559C360.004 163.243 359.902 162.992 359.698 162.808C359.493 162.617 359.203 162.521 358.828 162.521C358.458 162.521 358.172 162.617 357.967 162.808C357.763 162.992 357.641 163.223 357.601 163.5H356.504ZM363.7 166.971C363.766 167.301 363.908 167.551 364.126 167.723C364.343 167.894 364.637 167.98 365.006 167.98C365.474 167.98 365.817 167.795 366.034 167.426C366.252 167.057 366.361 166.427 366.361 165.537C366.202 165.761 365.978 165.936 365.688 166.061C365.405 166.18 365.095 166.239 364.759 166.239C364.33 166.239 363.941 166.154 363.592 165.982C363.242 165.804 362.965 165.544 362.761 165.201C362.563 164.851 362.464 164.43 362.464 163.935C362.464 163.21 362.675 162.633 363.097 162.204C363.526 161.769 364.113 161.552 364.857 161.552C365.754 161.552 366.39 161.852 366.766 162.452C367.148 163.045 367.34 163.958 367.34 165.191C367.34 166.041 367.267 166.737 367.122 167.278C366.984 167.818 366.74 168.227 366.39 168.504C366.041 168.781 365.556 168.919 364.937 168.919C364.231 168.919 363.687 168.735 363.305 168.365C362.923 167.996 362.708 167.531 362.662 166.971H363.7ZM364.956 165.29C365.352 165.29 365.662 165.168 365.886 164.924C366.117 164.673 366.232 164.344 366.232 163.935C366.232 163.48 366.11 163.127 365.866 162.877C365.629 162.62 365.303 162.491 364.887 162.491C364.472 162.491 364.142 162.623 363.898 162.887C363.661 163.144 363.542 163.483 363.542 163.905C363.542 164.308 363.658 164.64 363.888 164.904C364.126 165.161 364.482 165.29 364.956 165.29ZM377.689 163.391C378.117 163.391 378.5 163.48 378.836 163.658C379.179 163.836 379.446 164.1 379.637 164.449C379.835 164.799 379.934 165.221 379.934 165.715V168.929H378.816V165.883C378.816 165.395 378.694 165.023 378.45 164.766C378.206 164.502 377.873 164.37 377.452 164.37C377.03 164.37 376.693 164.502 376.443 164.766C376.199 165.023 376.077 165.395 376.077 165.883V168.929H374.96V165.883C374.96 165.395 374.838 165.023 374.594 164.766C374.35 164.502 374.017 164.37 373.595 164.37C373.173 164.37 372.837 164.502 372.586 164.766C372.342 165.023 372.22 165.395 372.22 165.883V168.929H371.093V163.48H372.22V164.103C372.405 163.879 372.639 163.704 372.922 163.579C373.206 163.454 373.509 163.391 373.832 163.391C374.267 163.391 374.656 163.483 374.999 163.668C375.342 163.853 375.606 164.12 375.79 164.469C375.955 164.139 376.212 163.879 376.562 163.688C376.911 163.49 377.287 163.391 377.689 163.391ZM380.894 166.18C380.894 165.633 381.006 165.148 381.23 164.726C381.461 164.304 381.77 163.978 382.159 163.747C382.555 163.51 382.99 163.391 383.465 163.391C383.893 163.391 384.266 163.477 384.582 163.648C384.905 163.813 385.162 164.021 385.354 164.271V163.48H386.491V168.929H385.354V168.118C385.162 168.375 384.902 168.59 384.572 168.761C384.243 168.932 383.867 169.018 383.445 169.018C382.977 169.018 382.548 168.899 382.159 168.662C381.77 168.418 381.461 168.082 381.23 167.653C381.006 167.218 380.894 166.727 380.894 166.18ZM385.354 166.2C385.354 165.824 385.274 165.498 385.116 165.221C384.965 164.944 384.764 164.733 384.513 164.588C384.262 164.443 383.992 164.37 383.702 164.37C383.412 164.37 383.142 164.443 382.891 164.588C382.641 164.726 382.436 164.934 382.278 165.211C382.126 165.481 382.051 165.804 382.051 166.18C382.051 166.556 382.126 166.885 382.278 167.169C382.436 167.452 382.641 167.67 382.891 167.821C383.148 167.967 383.419 168.039 383.702 168.039C383.992 168.039 384.262 167.967 384.513 167.821C384.764 167.676 384.965 167.465 385.116 167.189C385.274 166.905 385.354 166.575 385.354 166.2ZM390.622 163.391C391.05 163.391 391.433 163.48 391.769 163.658C392.112 163.836 392.379 164.1 392.57 164.449C392.761 164.799 392.857 165.221 392.857 165.715V168.929H391.739V165.883C391.739 165.395 391.617 165.023 391.373 164.766C391.129 164.502 390.797 164.37 390.375 164.37C389.953 164.37 389.616 164.502 389.366 164.766C389.122 165.023 389 165.395 389 165.883V168.929H387.873V163.48H389V164.103C389.185 163.879 389.419 163.704 389.702 163.579C389.992 163.454 390.299 163.391 390.622 163.391ZM399.131 163.48V168.929H398.003V168.286C397.825 168.51 397.591 168.688 397.301 168.82C397.018 168.946 396.714 169.008 396.391 169.008C395.963 169.008 395.577 168.919 395.234 168.741C394.898 168.563 394.631 168.299 394.433 167.95C394.242 167.601 394.146 167.179 394.146 166.684V163.48H395.264V166.516C395.264 167.004 395.386 167.38 395.63 167.643C395.874 167.901 396.207 168.029 396.629 168.029C397.051 168.029 397.383 167.901 397.627 167.643C397.878 167.38 398.003 167.004 398.003 166.516V163.48H399.131ZM400.143 166.18C400.143 165.633 400.255 165.148 400.48 164.726C400.71 164.304 401.02 163.978 401.409 163.747C401.805 163.51 402.24 163.391 402.714 163.391C403.143 163.391 403.515 163.477 403.832 163.648C404.155 163.813 404.412 164.021 404.603 164.271V163.48H405.741V168.929H404.603V168.118C404.412 168.375 404.152 168.59 403.822 168.761C403.492 168.932 403.117 169.018 402.695 169.018C402.227 169.018 401.798 168.899 401.409 168.662C401.02 168.418 400.71 168.082 400.48 167.653C400.255 167.218 400.143 166.727 400.143 166.18ZM404.603 166.2C404.603 165.824 404.524 165.498 404.366 165.221C404.214 164.944 404.013 164.733 403.763 164.588C403.512 164.443 403.242 164.37 402.952 164.37C402.662 164.37 402.391 164.443 402.141 164.588C401.89 164.726 401.686 164.934 401.528 165.211C401.376 165.481 401.3 165.804 401.3 166.18C401.3 166.556 401.376 166.885 401.528 167.169C401.686 167.452 401.89 167.67 402.141 167.821C402.398 167.967 402.668 168.039 402.952 168.039C403.242 168.039 403.512 167.967 403.763 167.821C404.013 167.676 404.214 167.465 404.366 167.189C404.524 166.905 404.603 166.575 404.603 166.2ZM408.25 161.611V168.929H407.122V161.611H408.25Z" fill="#193F3F"/>
<defs>
<clipPath id="clip0_1290_2988">
<rect width="13.1851" height="13.1851" fill="white" transform="translate(16.4814 128.074)"/>
</clipPath>
</defs>
</svg>
