<svg width="16" height="19" viewBox="0 0 16 19" fill="none" xmlns="http://www.w3.org/2000/svg">
<path d="M11.672 7.464L6.4 12.736L3.528 9.872L2.4 11L6.4 15L12.8 8.6L11.672 7.464ZM8 3C3.584 3 0 6.584 0 11C0 15.416 3.584 19 8 19C12.416 19 16 15.416 16 11C16 6.584 12.416 3 8 3ZM8 17.4C4.464 17.4 1.6 14.536 1.6 11C1.6 7.464 4.464 4.6 8 4.6C11.536 4.6 14.4 7.464 14.4 11C14.4 14.536 11.536 17.4 8 17.4Z" fill="url(#paint0_linear_2_8389)"/>
<defs>
<linearGradient id="paint0_linear_2_8389" x1="-9.52482e-07" y1="-3.8" x2="16" y2="25" gradientUnits="userSpaceOnUse">
<stop stop-color="#3D52FA"/>
<stop offset="1" stop-color="#C91988"/>
</linearGradient>
</defs>
</svg>
