<svg width="14" height="7" viewBox="0 0 14 7" fill="none" xmlns="http://www.w3.org/2000/svg">
<path d="M1.26667 3.33333C1.26667 2.19333 2.19333 1.26667 3.33333 1.26667H6V0H3.33333C1.49333 0 0 1.49333 0 3.33333C0 5.17333 1.49333 6.66667 3.33333 6.66667H6V5.4H3.33333C2.19333 5.4 1.26667 4.47333 1.26667 3.33333ZM4 4H9.33333V2.66667H4V4ZM10 0H7.33333V1.26667H10C11.14 1.26667 12.0667 2.19333 12.0667 3.33333C12.0667 4.47333 11.14 5.4 10 5.4H7.33333V6.66667H10C11.84 6.66667 13.3333 5.17333 13.3333 3.33333C13.3333 1.49333 11.84 0 10 0Z" fill="url(#paint0_linear_2_1401)"/>
<defs>
<linearGradient id="paint0_linear_2_1401" x1="2.66667" y1="-3.16669" x2="11.6667" y2="9.33331" gradientUnits="userSpaceOnUse">
<stop stop-color="#C91988"/>
<stop offset="1" stop-color="#3D52FA"/>
</linearGradient>
</defs>
</svg>
