<svg width="18" height="18" viewBox="0 0 18 18" fill="none" xmlns="http://www.w3.org/2000/svg">
<path d="M14.25 2.25H11.115C10.8 1.38 9.975 0.75 9 0.75C8.025 0.75 7.2 1.38 6.885 2.25H3.75C2.925 2.25 2.25 2.925 2.25 3.75V14.25C2.25 15.075 2.925 15.75 3.75 15.75H14.25C15.075 15.75 15.75 15.075 15.75 14.25V3.75C15.75 2.925 15.075 2.25 14.25 2.25ZM9 2.25C9.4125 2.25 9.75 2.5875 9.75 3C9.75 3.4125 9.4125 3.75 9 3.75C8.5875 3.75 8.25 3.4125 8.25 3C8.25 2.5875 8.5875 2.25 9 2.25ZM9 5.25C10.245 5.25 11.25 6.255 11.25 7.5C11.25 8.745 10.245 9.75 9 9.75C7.755 9.75 6.75 8.745 6.75 7.5C6.75 6.255 7.755 5.25 9 5.25ZM13.5 14.25H4.5V13.2C4.5 11.7 7.5 10.875 9 10.875C10.5 10.875 13.5 11.7 13.5 13.2V14.25Z" fill="url(#paint0_linear_2_8380)"/>
<defs>
<linearGradient id="paint0_linear_2_8380" x1="9" y1="0.75" x2="9" y2="15.75" gradientUnits="userSpaceOnUse">
<stop stop-color="#C91988"/>
<stop offset="1" stop-color="#3D52FA"/>
</linearGradient>
</defs>
</svg>
